%TF.GenerationSoftware,KiCad,Pcbnew,8.0.0*%
%TF.CreationDate,2024-03-12T19:20:21+01:00*%
%TF.ProjectId,Powerbank,506f7765-7262-4616-9e6b-2e6b69636164,1.0*%
%TF.SameCoordinates,Original*%
%TF.FileFunction,Drillmap*%
%TF.FilePolarity,Positive*%
%FSLAX45Y45*%
G04 Gerber Fmt 4.5, Leading zero omitted, Abs format (unit mm)*
G04 Created by KiCad (PCBNEW 8.0.0) date 2024-03-12 19:20:21*
%MOMM*%
%LPD*%
G01*
G04 APERTURE LIST*
%ADD10C,0.200000*%
%ADD11C,0.100000*%
%ADD12C,0.101600*%
%ADD13C,0.110000*%
%ADD14C,0.128000*%
%ADD15C,0.130000*%
G04 APERTURE END LIST*
D10*
X9271000Y-7493000D02*
X18224500Y-7493000D01*
X18224500Y-14414500D01*
X9271000Y-14414500D01*
X9271000Y-7493000D01*
D11*
X13950503Y-10964997D02*
X13990503Y-11004997D01*
X13990503Y-10964997D02*
X13950503Y-11004997D01*
X10190000Y-12446000D02*
G75*
G02*
X10130000Y-12446000I-30000J0D01*
G01*
X10130000Y-12446000D02*
G75*
G02*
X10190000Y-12446000I30000J0D01*
G01*
X10190000Y-13970000D02*
G75*
G02*
X10130000Y-13970000I-30000J0D01*
G01*
X10130000Y-13970000D02*
G75*
G02*
X10190000Y-13970000I30000J0D01*
G01*
X11269500Y-9537700D02*
G75*
G02*
X11209500Y-9537700I-30000J0D01*
G01*
X11209500Y-9537700D02*
G75*
G02*
X11269500Y-9537700I30000J0D01*
G01*
X11879100Y-9537700D02*
G75*
G02*
X11819100Y-9537700I-30000J0D01*
G01*
X11819100Y-9537700D02*
G75*
G02*
X11879100Y-9537700I30000J0D01*
G01*
X15524000Y-9156700D02*
G75*
G02*
X15464000Y-9156700I-30000J0D01*
G01*
X15464000Y-9156700D02*
G75*
G02*
X15524000Y-9156700I30000J0D01*
G01*
X15524000Y-9766300D02*
G75*
G02*
X15464000Y-9766300I-30000J0D01*
G01*
X15464000Y-9766300D02*
G75*
G02*
X15524000Y-9766300I30000J0D01*
G01*
X16794000Y-12446000D02*
G75*
G02*
X16734000Y-12446000I-30000J0D01*
G01*
X16734000Y-12446000D02*
G75*
G02*
X16794000Y-12446000I30000J0D01*
G01*
X16794000Y-13716000D02*
G75*
G02*
X16734000Y-13716000I-30000J0D01*
G01*
X16734000Y-13716000D02*
G75*
G02*
X16794000Y-13716000I30000J0D01*
G01*
X13257250Y-8420700D02*
X13257250Y-8495700D01*
X13219750Y-8458200D02*
X13294750Y-8458200D01*
X14327250Y-8420700D02*
X14327250Y-8495700D01*
X14289750Y-8458200D02*
X14364750Y-8458200D01*
X15113000Y-7938100D02*
X15113000Y-8013100D01*
X15075500Y-7975600D02*
X15150500Y-7975600D01*
X15113000Y-9008100D02*
X15113000Y-9083100D01*
X15075500Y-9045600D02*
X15150500Y-9045600D01*
X11267784Y-9172285D02*
X11267784Y-9115716D01*
X11211215Y-9115716D01*
X11211215Y-9172285D01*
X11267784Y-9172285D01*
X12055184Y-9172285D02*
X12055184Y-9115716D01*
X11998615Y-9115716D01*
X11998615Y-9172285D01*
X12055184Y-9172285D01*
X12347284Y-8791285D02*
X12347284Y-8734716D01*
X12290715Y-8734716D01*
X12290715Y-8791285D01*
X12347284Y-8791285D01*
X12347284Y-9578685D02*
X12347284Y-9522116D01*
X12290715Y-9522116D01*
X12290715Y-9578685D01*
X12347284Y-9578685D01*
X12639384Y-8791285D02*
X12639384Y-8734716D01*
X12582815Y-8734716D01*
X12582815Y-8791285D01*
X12639384Y-8791285D01*
X12639384Y-9629485D02*
X12639384Y-9572916D01*
X12582815Y-9572916D01*
X12582815Y-9629485D01*
X12639384Y-9629485D01*
X14633284Y-8003884D02*
X14633284Y-7947315D01*
X14576715Y-7947315D01*
X14576715Y-8003884D01*
X14633284Y-8003884D01*
X14633284Y-8791285D02*
X14633284Y-8734716D01*
X14576715Y-8734716D01*
X14576715Y-8791285D01*
X14633284Y-8791285D01*
X15395284Y-8003884D02*
X15395284Y-7947315D01*
X15338715Y-7947315D01*
X15338715Y-8003884D01*
X15395284Y-8003884D01*
X15395284Y-8791285D02*
X15395284Y-8734716D01*
X15338715Y-8734716D01*
X15338715Y-8791285D01*
X15395284Y-8791285D01*
X11417300Y-11599500D02*
X11459800Y-11557000D01*
X11417300Y-11514500D01*
X11374800Y-11557000D01*
X11417300Y-11599500D01*
X11917300Y-11599500D02*
X11959800Y-11557000D01*
X11917300Y-11514500D01*
X11874800Y-11557000D01*
X11917300Y-11599500D01*
X12265240Y-11612200D02*
X12307740Y-11569700D01*
X12265240Y-11527200D01*
X12222740Y-11569700D01*
X12265240Y-11612200D01*
X12611100Y-10697800D02*
X12653600Y-10655300D01*
X12611100Y-10612800D01*
X12568600Y-10655300D01*
X12611100Y-10697800D01*
X12611100Y-11197800D02*
X12653600Y-11155300D01*
X12611100Y-11112800D01*
X12568600Y-11155300D01*
X12611100Y-11197800D01*
X12636500Y-10012000D02*
X12679000Y-9969500D01*
X12636500Y-9927000D01*
X12594000Y-9969500D01*
X12636500Y-10012000D01*
X12636500Y-10512000D02*
X12679000Y-10469500D01*
X12636500Y-10427000D01*
X12594000Y-10469500D01*
X12636500Y-10512000D01*
X12765239Y-11612200D02*
X12807739Y-11569700D01*
X12765239Y-11527200D01*
X12722739Y-11569700D01*
X12765239Y-11612200D01*
X13017500Y-10456500D02*
X13060000Y-10414000D01*
X13017500Y-10371500D01*
X12975000Y-10414000D01*
X13017500Y-10456500D01*
X13017500Y-10956500D02*
X13060000Y-10914000D01*
X13017500Y-10871500D01*
X12975000Y-10914000D01*
X13017500Y-10956500D01*
X13195300Y-11155000D02*
X13237800Y-11112500D01*
X13195300Y-11070000D01*
X13152800Y-11112500D01*
X13195300Y-11155000D01*
X13695299Y-11155000D02*
X13737799Y-11112500D01*
X13695299Y-11070000D01*
X13652799Y-11112500D01*
X13695299Y-11155000D01*
X13855700Y-11307400D02*
X13898200Y-11264900D01*
X13855700Y-11222400D01*
X13813200Y-11264900D01*
X13855700Y-11307400D01*
X13855700Y-11807399D02*
X13898200Y-11764899D01*
X13855700Y-11722399D01*
X13813200Y-11764899D01*
X13855700Y-11807399D01*
X14033500Y-13504500D02*
X14076000Y-13462000D01*
X14033500Y-13419500D01*
X13991000Y-13462000D01*
X14033500Y-13504500D01*
X14082560Y-11383600D02*
X14125060Y-11341100D01*
X14082560Y-11298600D01*
X14040060Y-11341100D01*
X14082560Y-11383600D01*
X14478000Y-10583500D02*
X14520500Y-10541000D01*
X14478000Y-10498500D01*
X14435500Y-10541000D01*
X14478000Y-10583500D01*
X14478000Y-11083500D02*
X14520500Y-11041000D01*
X14478000Y-10998500D01*
X14435500Y-11041000D01*
X14478000Y-11083500D01*
X14533499Y-13504500D02*
X14575999Y-13462000D01*
X14533499Y-13419500D01*
X14490999Y-13462000D01*
X14533499Y-13504500D01*
X14582560Y-11383600D02*
X14625060Y-11341100D01*
X14582560Y-11298600D01*
X14540060Y-11341100D01*
X14582560Y-11383600D01*
X14859000Y-11091500D02*
X14901500Y-11049000D01*
X14859000Y-11006500D01*
X14816500Y-11049000D01*
X14859000Y-11091500D01*
X14859000Y-13377500D02*
X14901500Y-13335000D01*
X14859000Y-13292500D01*
X14816500Y-13335000D01*
X14859000Y-13377500D01*
X15176500Y-10901000D02*
X15219000Y-10858500D01*
X15176500Y-10816000D01*
X15134000Y-10858500D01*
X15176500Y-10901000D01*
X15176500Y-11282000D02*
X15219000Y-11239500D01*
X15176500Y-11197000D01*
X15134000Y-11239500D01*
X15176500Y-11282000D01*
X15358999Y-13377500D02*
X15401499Y-13335000D01*
X15358999Y-13292500D01*
X15316499Y-13335000D01*
X15358999Y-13377500D01*
X13048700Y-11308800D02*
X13138700Y-11398800D01*
X13138700Y-11308800D02*
X13048700Y-11398800D01*
X13138700Y-11353800D02*
G75*
G02*
X13048700Y-11353800I-45000J0D01*
G01*
X13048700Y-11353800D02*
G75*
G02*
X13138700Y-11353800I45000J0D01*
G01*
X13048700Y-12528000D02*
X13138700Y-12618000D01*
X13138700Y-12528000D02*
X13048700Y-12618000D01*
X13138700Y-12573000D02*
G75*
G02*
X13048700Y-12573000I-45000J0D01*
G01*
X13048700Y-12573000D02*
G75*
G02*
X13138700Y-12573000I45000J0D01*
G01*
X13378900Y-11308800D02*
X13468900Y-11398800D01*
X13468900Y-11308800D02*
X13378900Y-11398800D01*
X13468900Y-11353800D02*
G75*
G02*
X13378900Y-11353800I-45000J0D01*
G01*
X13378900Y-11353800D02*
G75*
G02*
X13468900Y-11353800I45000J0D01*
G01*
X13378900Y-12528000D02*
X13468900Y-12618000D01*
X13468900Y-12528000D02*
X13378900Y-12618000D01*
X13468900Y-12573000D02*
G75*
G02*
X13378900Y-12573000I-45000J0D01*
G01*
X13378900Y-12573000D02*
G75*
G02*
X13468900Y-12573000I45000J0D01*
G01*
X13747200Y-12401000D02*
X13837200Y-12491000D01*
X13837200Y-12401000D02*
X13747200Y-12491000D01*
X13837200Y-12446000D02*
G75*
G02*
X13747200Y-12446000I-45000J0D01*
G01*
X13747200Y-12446000D02*
G75*
G02*
X13837200Y-12446000I45000J0D01*
G01*
X14077400Y-11613600D02*
X14167400Y-11703600D01*
X14167400Y-11613600D02*
X14077400Y-11703600D01*
X14167400Y-11658600D02*
G75*
G02*
X14077400Y-11658600I-45000J0D01*
G01*
X14077400Y-11658600D02*
G75*
G02*
X14167400Y-11658600I45000J0D01*
G01*
X14102800Y-9738000D02*
X14192800Y-9828000D01*
X14192800Y-9738000D02*
X14102800Y-9828000D01*
X14192800Y-9783000D02*
G75*
G02*
X14102800Y-9783000I-45000J0D01*
G01*
X14102800Y-9783000D02*
G75*
G02*
X14192800Y-9783000I45000J0D01*
G01*
X14102800Y-9988000D02*
X14192800Y-10078000D01*
X14192800Y-9988000D02*
X14102800Y-10078000D01*
X14192800Y-10033000D02*
G75*
G02*
X14102800Y-10033000I-45000J0D01*
G01*
X14102800Y-10033000D02*
G75*
G02*
X14192800Y-10033000I45000J0D01*
G01*
X14433000Y-8972000D02*
X14523000Y-9062000D01*
X14523000Y-8972000D02*
X14433000Y-9062000D01*
X14523000Y-9017000D02*
G75*
G02*
X14433000Y-9017000I-45000J0D01*
G01*
X14433000Y-9017000D02*
G75*
G02*
X14523000Y-9017000I45000J0D01*
G01*
X14433000Y-10191200D02*
X14523000Y-10281200D01*
X14523000Y-10191200D02*
X14433000Y-10281200D01*
X14523000Y-10236200D02*
G75*
G02*
X14433000Y-10236200I-45000J0D01*
G01*
X14433000Y-10236200D02*
G75*
G02*
X14523000Y-10236200I45000J0D01*
G01*
X14877500Y-10242000D02*
X14967500Y-10332000D01*
X14967500Y-10242000D02*
X14877500Y-10332000D01*
X14967500Y-10287000D02*
G75*
G02*
X14877500Y-10287000I-45000J0D01*
G01*
X14877500Y-10287000D02*
G75*
G02*
X14967500Y-10287000I45000J0D01*
G01*
X14915600Y-12401000D02*
X15005600Y-12491000D01*
X15005600Y-12401000D02*
X14915600Y-12491000D01*
X15005600Y-12446000D02*
G75*
G02*
X14915600Y-12446000I-45000J0D01*
G01*
X14915600Y-12446000D02*
G75*
G02*
X15005600Y-12446000I45000J0D01*
G01*
X15131500Y-12401000D02*
X15221500Y-12491000D01*
X15221500Y-12401000D02*
X15131500Y-12491000D01*
X15221500Y-12446000D02*
G75*
G02*
X15131500Y-12446000I-45000J0D01*
G01*
X15131500Y-12446000D02*
G75*
G02*
X15221500Y-12446000I45000J0D01*
G01*
X15245800Y-11613600D02*
X15335800Y-11703600D01*
X15335800Y-11613600D02*
X15245800Y-11703600D01*
X15335800Y-11658600D02*
G75*
G02*
X15245800Y-11658600I-45000J0D01*
G01*
X15245800Y-11658600D02*
G75*
G02*
X15335800Y-11658600I45000J0D01*
G01*
X15377500Y-10242000D02*
X15467500Y-10332000D01*
X15467500Y-10242000D02*
X15377500Y-10332000D01*
X15467500Y-10287000D02*
G75*
G02*
X15377500Y-10287000I-45000J0D01*
G01*
X15377500Y-10287000D02*
G75*
G02*
X15467500Y-10287000I45000J0D01*
G01*
X16299900Y-12401000D02*
X16389900Y-12491000D01*
X16389900Y-12401000D02*
X16299900Y-12491000D01*
X16389900Y-12446000D02*
G75*
G02*
X16299900Y-12446000I-45000J0D01*
G01*
X16299900Y-12446000D02*
G75*
G02*
X16389900Y-12446000I45000J0D01*
G01*
X10925300Y-10049000D02*
X11020300Y-10144000D01*
X11020300Y-10049000D02*
X10925300Y-10144000D01*
X10972800Y-10049000D02*
X10972800Y-10144000D01*
X10925300Y-10096500D02*
X11020300Y-10096500D01*
X10925300Y-10430000D02*
X11020300Y-10525000D01*
X11020300Y-10430000D02*
X10925300Y-10525000D01*
X10972800Y-10430000D02*
X10972800Y-10525000D01*
X10925300Y-10477500D02*
X11020300Y-10477500D01*
X10925300Y-10811000D02*
X11020300Y-10906000D01*
X11020300Y-10811000D02*
X10925300Y-10906000D01*
X10972800Y-10811000D02*
X10972800Y-10906000D01*
X10925300Y-10858500D02*
X11020300Y-10858500D01*
X10938000Y-11115800D02*
X11033000Y-11210800D01*
X11033000Y-11115800D02*
X10938000Y-11210800D01*
X10985500Y-11115800D02*
X10985500Y-11210800D01*
X10938000Y-11163300D02*
X11033000Y-11163300D01*
X12220700Y-10049000D02*
X12315700Y-10144000D01*
X12315700Y-10049000D02*
X12220700Y-10144000D01*
X12268200Y-10049000D02*
X12268200Y-10144000D01*
X12220700Y-10096500D02*
X12315700Y-10096500D01*
X12220700Y-10430000D02*
X12315700Y-10525000D01*
X12315700Y-10430000D02*
X12220700Y-10525000D01*
X12268200Y-10430000D02*
X12268200Y-10525000D01*
X12220700Y-10477500D02*
X12315700Y-10477500D01*
X12220700Y-10811000D02*
X12315700Y-10906000D01*
X12315700Y-10811000D02*
X12220700Y-10906000D01*
X12268200Y-10811000D02*
X12268200Y-10906000D01*
X12220700Y-10858500D02*
X12315700Y-10858500D01*
X12233400Y-11115800D02*
X12328400Y-11210800D01*
X12328400Y-11115800D02*
X12233400Y-11210800D01*
X12280900Y-11115800D02*
X12280900Y-11210800D01*
X12233400Y-11163300D02*
X12328400Y-11163300D01*
D12*
X15824200Y-8013700D02*
X15925800Y-8115300D01*
X15925800Y-8013700D02*
X15824200Y-8115300D01*
X15910921Y-8100421D02*
X15910921Y-8028579D01*
X15839079Y-8028579D01*
X15839079Y-8100421D01*
X15910921Y-8100421D01*
X15824200Y-8267700D02*
X15925800Y-8369300D01*
X15925800Y-8267700D02*
X15824200Y-8369300D01*
X15910921Y-8354421D02*
X15910921Y-8282579D01*
X15839079Y-8282579D01*
X15839079Y-8354421D01*
X15910921Y-8354421D01*
X15824200Y-8521700D02*
X15925800Y-8623300D01*
X15925800Y-8521700D02*
X15824200Y-8623300D01*
X15910921Y-8608421D02*
X15910921Y-8536579D01*
X15839079Y-8536579D01*
X15839079Y-8608421D01*
X15910921Y-8608421D01*
X15824200Y-8775700D02*
X15925800Y-8877300D01*
X15925800Y-8775700D02*
X15824200Y-8877300D01*
X15910921Y-8862421D02*
X15910921Y-8790579D01*
X15839079Y-8790579D01*
X15839079Y-8862421D01*
X15910921Y-8862421D01*
X15824200Y-9029700D02*
X15925800Y-9131300D01*
X15925800Y-9029700D02*
X15824200Y-9131300D01*
X15910921Y-9116421D02*
X15910921Y-9044579D01*
X15839079Y-9044579D01*
X15839079Y-9116421D01*
X15910921Y-9116421D01*
X15824200Y-9283700D02*
X15925800Y-9385300D01*
X15925800Y-9283700D02*
X15824200Y-9385300D01*
X15910921Y-9370421D02*
X15910921Y-9298579D01*
X15839079Y-9298579D01*
X15839079Y-9370421D01*
X15910921Y-9370421D01*
X15824200Y-9537700D02*
X15925800Y-9639300D01*
X15925800Y-9537700D02*
X15824200Y-9639300D01*
X15910921Y-9624421D02*
X15910921Y-9552579D01*
X15839079Y-9552579D01*
X15839079Y-9624421D01*
X15910921Y-9624421D01*
X15824200Y-9791700D02*
X15925800Y-9893300D01*
X15925800Y-9791700D02*
X15824200Y-9893300D01*
X15910921Y-9878421D02*
X15910921Y-9806579D01*
X15839079Y-9806579D01*
X15839079Y-9878421D01*
X15910921Y-9878421D01*
X15824200Y-10045700D02*
X15925800Y-10147300D01*
X15925800Y-10045700D02*
X15824200Y-10147300D01*
X15910921Y-10132421D02*
X15910921Y-10060579D01*
X15839079Y-10060579D01*
X15839079Y-10132421D01*
X15910921Y-10132421D01*
X15824200Y-10299700D02*
X15925800Y-10401300D01*
X15925800Y-10299700D02*
X15824200Y-10401300D01*
X15910921Y-10386421D02*
X15910921Y-10314579D01*
X15839079Y-10314579D01*
X15839079Y-10386421D01*
X15910921Y-10386421D01*
X15824200Y-10553700D02*
X15925800Y-10655300D01*
X15925800Y-10553700D02*
X15824200Y-10655300D01*
X15910921Y-10640421D02*
X15910921Y-10568579D01*
X15839079Y-10568579D01*
X15839079Y-10640421D01*
X15910921Y-10640421D01*
X15824200Y-10807700D02*
X15925800Y-10909300D01*
X15925800Y-10807700D02*
X15824200Y-10909300D01*
X15910921Y-10894421D02*
X15910921Y-10822579D01*
X15839079Y-10822579D01*
X15839079Y-10894421D01*
X15910921Y-10894421D01*
X15824200Y-11061700D02*
X15925800Y-11163300D01*
X15925800Y-11061700D02*
X15824200Y-11163300D01*
X15910921Y-11148421D02*
X15910921Y-11076579D01*
X15839079Y-11076579D01*
X15839079Y-11148421D01*
X15910921Y-11148421D01*
X15824200Y-11315700D02*
X15925800Y-11417300D01*
X15925800Y-11315700D02*
X15824200Y-11417300D01*
X15910921Y-11402421D02*
X15910921Y-11330579D01*
X15839079Y-11330579D01*
X15839079Y-11402421D01*
X15910921Y-11402421D01*
X15824200Y-11569700D02*
X15925800Y-11671300D01*
X15925800Y-11569700D02*
X15824200Y-11671300D01*
X15910921Y-11656421D02*
X15910921Y-11584579D01*
X15839079Y-11584579D01*
X15839079Y-11656421D01*
X15910921Y-11656421D01*
X17348200Y-8013700D02*
X17449800Y-8115300D01*
X17449800Y-8013700D02*
X17348200Y-8115300D01*
X17434921Y-8100421D02*
X17434921Y-8028579D01*
X17363079Y-8028579D01*
X17363079Y-8100421D01*
X17434921Y-8100421D01*
X17348200Y-8267700D02*
X17449800Y-8369300D01*
X17449800Y-8267700D02*
X17348200Y-8369300D01*
X17434921Y-8354421D02*
X17434921Y-8282579D01*
X17363079Y-8282579D01*
X17363079Y-8354421D01*
X17434921Y-8354421D01*
X17348200Y-8521700D02*
X17449800Y-8623300D01*
X17449800Y-8521700D02*
X17348200Y-8623300D01*
X17434921Y-8608421D02*
X17434921Y-8536579D01*
X17363079Y-8536579D01*
X17363079Y-8608421D01*
X17434921Y-8608421D01*
X17348200Y-8775700D02*
X17449800Y-8877300D01*
X17449800Y-8775700D02*
X17348200Y-8877300D01*
X17434921Y-8862421D02*
X17434921Y-8790579D01*
X17363079Y-8790579D01*
X17363079Y-8862421D01*
X17434921Y-8862421D01*
X17348200Y-9029700D02*
X17449800Y-9131300D01*
X17449800Y-9029700D02*
X17348200Y-9131300D01*
X17434921Y-9116421D02*
X17434921Y-9044579D01*
X17363079Y-9044579D01*
X17363079Y-9116421D01*
X17434921Y-9116421D01*
X17348200Y-9283700D02*
X17449800Y-9385300D01*
X17449800Y-9283700D02*
X17348200Y-9385300D01*
X17434921Y-9370421D02*
X17434921Y-9298579D01*
X17363079Y-9298579D01*
X17363079Y-9370421D01*
X17434921Y-9370421D01*
X17348200Y-9537700D02*
X17449800Y-9639300D01*
X17449800Y-9537700D02*
X17348200Y-9639300D01*
X17434921Y-9624421D02*
X17434921Y-9552579D01*
X17363079Y-9552579D01*
X17363079Y-9624421D01*
X17434921Y-9624421D01*
X17348200Y-9791700D02*
X17449800Y-9893300D01*
X17449800Y-9791700D02*
X17348200Y-9893300D01*
X17434921Y-9878421D02*
X17434921Y-9806579D01*
X17363079Y-9806579D01*
X17363079Y-9878421D01*
X17434921Y-9878421D01*
X17348200Y-10045700D02*
X17449800Y-10147300D01*
X17449800Y-10045700D02*
X17348200Y-10147300D01*
X17434921Y-10132421D02*
X17434921Y-10060579D01*
X17363079Y-10060579D01*
X17363079Y-10132421D01*
X17434921Y-10132421D01*
X17348200Y-10299700D02*
X17449800Y-10401300D01*
X17449800Y-10299700D02*
X17348200Y-10401300D01*
X17434921Y-10386421D02*
X17434921Y-10314579D01*
X17363079Y-10314579D01*
X17363079Y-10386421D01*
X17434921Y-10386421D01*
X17348200Y-10553700D02*
X17449800Y-10655300D01*
X17449800Y-10553700D02*
X17348200Y-10655300D01*
X17434921Y-10640421D02*
X17434921Y-10568579D01*
X17363079Y-10568579D01*
X17363079Y-10640421D01*
X17434921Y-10640421D01*
X17348200Y-10807700D02*
X17449800Y-10909300D01*
X17449800Y-10807700D02*
X17348200Y-10909300D01*
X17434921Y-10894421D02*
X17434921Y-10822579D01*
X17363079Y-10822579D01*
X17363079Y-10894421D01*
X17434921Y-10894421D01*
X17348200Y-11061700D02*
X17449800Y-11163300D01*
X17449800Y-11061700D02*
X17348200Y-11163300D01*
X17434921Y-11148421D02*
X17434921Y-11076579D01*
X17363079Y-11076579D01*
X17363079Y-11148421D01*
X17434921Y-11148421D01*
X17348200Y-11315700D02*
X17449800Y-11417300D01*
X17449800Y-11315700D02*
X17348200Y-11417300D01*
X17434921Y-11402421D02*
X17434921Y-11330579D01*
X17363079Y-11330579D01*
X17363079Y-11402421D01*
X17434921Y-11402421D01*
X17348200Y-11569700D02*
X17449800Y-11671300D01*
X17449800Y-11569700D02*
X17348200Y-11671300D01*
X17434921Y-11656421D02*
X17434921Y-11584579D01*
X17363079Y-11584579D01*
X17363079Y-11656421D01*
X17434921Y-11656421D01*
D13*
X10105000Y-12772000D02*
X10215000Y-12882000D01*
X10215000Y-12772000D02*
X10105000Y-12882000D01*
X10160000Y-12882000D02*
X10215000Y-12827000D01*
X10160000Y-12772000D01*
X10105000Y-12827000D01*
X10160000Y-12882000D01*
X10105000Y-13534000D02*
X10215000Y-13644000D01*
X10215000Y-13534000D02*
X10105000Y-13644000D01*
X10160000Y-13644000D02*
X10215000Y-13589000D01*
X10160000Y-13534000D01*
X10105000Y-13589000D01*
X10160000Y-13644000D01*
X10646020Y-13026000D02*
X10756020Y-13136000D01*
X10756020Y-13026000D02*
X10646020Y-13136000D01*
X10701020Y-13136000D02*
X10756020Y-13081000D01*
X10701020Y-13026000D01*
X10646020Y-13081000D01*
X10701020Y-13136000D01*
X13084420Y-13026000D02*
X13194420Y-13136000D01*
X13194420Y-13026000D02*
X13084420Y-13136000D01*
X13139420Y-13136000D02*
X13194420Y-13081000D01*
X13139420Y-13026000D01*
X13084420Y-13081000D01*
X13139420Y-13136000D01*
D14*
X13716000Y-12890000D02*
X13716000Y-13018000D01*
X13652000Y-12954000D02*
X13780000Y-12954000D01*
X13780000Y-12954000D02*
G75*
G02*
X13652000Y-12954000I-64000J0D01*
G01*
X13652000Y-12954000D02*
G75*
G02*
X13780000Y-12954000I64000J0D01*
G01*
X13970000Y-12890000D02*
X13970000Y-13018000D01*
X13906000Y-12954000D02*
X14034000Y-12954000D01*
X14034000Y-12954000D02*
G75*
G02*
X13906000Y-12954000I-64000J0D01*
G01*
X13906000Y-12954000D02*
G75*
G02*
X14034000Y-12954000I64000J0D01*
G01*
X14224000Y-12890000D02*
X14224000Y-13018000D01*
X14160000Y-12954000D02*
X14288000Y-12954000D01*
X14288000Y-12954000D02*
G75*
G02*
X14160000Y-12954000I-64000J0D01*
G01*
X14160000Y-12954000D02*
G75*
G02*
X14288000Y-12954000I64000J0D01*
G01*
X14859000Y-12890000D02*
X14859000Y-13018000D01*
X14795000Y-12954000D02*
X14923000Y-12954000D01*
X14923000Y-12954000D02*
G75*
G02*
X14795000Y-12954000I-64000J0D01*
G01*
X14795000Y-12954000D02*
G75*
G02*
X14923000Y-12954000I64000J0D01*
G01*
X15113000Y-12890000D02*
X15113000Y-13018000D01*
X15049000Y-12954000D02*
X15177000Y-12954000D01*
X15177000Y-12954000D02*
G75*
G02*
X15049000Y-12954000I-64000J0D01*
G01*
X15049000Y-12954000D02*
G75*
G02*
X15177000Y-12954000I64000J0D01*
G01*
X15367000Y-12890000D02*
X15367000Y-13018000D01*
X15303000Y-12954000D02*
X15431000Y-12954000D01*
X15431000Y-12954000D02*
G75*
G02*
X15303000Y-12954000I-64000J0D01*
G01*
X15303000Y-12954000D02*
G75*
G02*
X15431000Y-12954000I64000J0D01*
G01*
D15*
X10391462Y-10107962D02*
X10391462Y-10016038D01*
X10299538Y-10016038D01*
X10299538Y-10107962D01*
X10391462Y-10107962D01*
X10410500Y-10062000D02*
G75*
G02*
X10280500Y-10062000I-65000J0D01*
G01*
X10280500Y-10062000D02*
G75*
G02*
X10410500Y-10062000I65000J0D01*
G01*
X10391462Y-10457962D02*
X10391462Y-10366038D01*
X10299538Y-10366038D01*
X10299538Y-10457962D01*
X10391462Y-10457962D01*
X10410500Y-10412000D02*
G75*
G02*
X10280500Y-10412000I-65000J0D01*
G01*
X10280500Y-10412000D02*
G75*
G02*
X10410500Y-10412000I65000J0D01*
G01*
X10391462Y-10807962D02*
X10391462Y-10716038D01*
X10299538Y-10716038D01*
X10299538Y-10807962D01*
X10391462Y-10807962D01*
X10410500Y-10762000D02*
G75*
G02*
X10280500Y-10762000I-65000J0D01*
G01*
X10280500Y-10762000D02*
G75*
G02*
X10410500Y-10762000I65000J0D01*
G01*
X10391462Y-11157962D02*
X10391462Y-11066038D01*
X10299538Y-11066038D01*
X10299538Y-11157962D01*
X10391462Y-11157962D01*
X10410500Y-11112000D02*
G75*
G02*
X10280500Y-11112000I-65000J0D01*
G01*
X10280500Y-11112000D02*
G75*
G02*
X10410500Y-11112000I65000J0D01*
G01*
D10*
X9521777Y-14735984D02*
X9521777Y-14535984D01*
X9521777Y-14535984D02*
X9569396Y-14535984D01*
X9569396Y-14535984D02*
X9597967Y-14545508D01*
X9597967Y-14545508D02*
X9617015Y-14564555D01*
X9617015Y-14564555D02*
X9626539Y-14583603D01*
X9626539Y-14583603D02*
X9636063Y-14621698D01*
X9636063Y-14621698D02*
X9636063Y-14650269D01*
X9636063Y-14650269D02*
X9626539Y-14688365D01*
X9626539Y-14688365D02*
X9617015Y-14707412D01*
X9617015Y-14707412D02*
X9597967Y-14726460D01*
X9597967Y-14726460D02*
X9569396Y-14735984D01*
X9569396Y-14735984D02*
X9521777Y-14735984D01*
X9721777Y-14735984D02*
X9721777Y-14602650D01*
X9721777Y-14640746D02*
X9731301Y-14621698D01*
X9731301Y-14621698D02*
X9740824Y-14612174D01*
X9740824Y-14612174D02*
X9759872Y-14602650D01*
X9759872Y-14602650D02*
X9778920Y-14602650D01*
X9845586Y-14735984D02*
X9845586Y-14602650D01*
X9845586Y-14535984D02*
X9836063Y-14545508D01*
X9836063Y-14545508D02*
X9845586Y-14555031D01*
X9845586Y-14555031D02*
X9855110Y-14545508D01*
X9855110Y-14545508D02*
X9845586Y-14535984D01*
X9845586Y-14535984D02*
X9845586Y-14555031D01*
X9969396Y-14735984D02*
X9950348Y-14726460D01*
X9950348Y-14726460D02*
X9940824Y-14707412D01*
X9940824Y-14707412D02*
X9940824Y-14535984D01*
X10074158Y-14735984D02*
X10055110Y-14726460D01*
X10055110Y-14726460D02*
X10045586Y-14707412D01*
X10045586Y-14707412D02*
X10045586Y-14535984D01*
X10302729Y-14735984D02*
X10302729Y-14535984D01*
X10302729Y-14535984D02*
X10369396Y-14678841D01*
X10369396Y-14678841D02*
X10436063Y-14535984D01*
X10436063Y-14535984D02*
X10436063Y-14735984D01*
X10617015Y-14735984D02*
X10617015Y-14631222D01*
X10617015Y-14631222D02*
X10607491Y-14612174D01*
X10607491Y-14612174D02*
X10588444Y-14602650D01*
X10588444Y-14602650D02*
X10550348Y-14602650D01*
X10550348Y-14602650D02*
X10531301Y-14612174D01*
X10617015Y-14726460D02*
X10597967Y-14735984D01*
X10597967Y-14735984D02*
X10550348Y-14735984D01*
X10550348Y-14735984D02*
X10531301Y-14726460D01*
X10531301Y-14726460D02*
X10521777Y-14707412D01*
X10521777Y-14707412D02*
X10521777Y-14688365D01*
X10521777Y-14688365D02*
X10531301Y-14669317D01*
X10531301Y-14669317D02*
X10550348Y-14659793D01*
X10550348Y-14659793D02*
X10597967Y-14659793D01*
X10597967Y-14659793D02*
X10617015Y-14650269D01*
X10712253Y-14602650D02*
X10712253Y-14802650D01*
X10712253Y-14612174D02*
X10731301Y-14602650D01*
X10731301Y-14602650D02*
X10769396Y-14602650D01*
X10769396Y-14602650D02*
X10788444Y-14612174D01*
X10788444Y-14612174D02*
X10797967Y-14621698D01*
X10797967Y-14621698D02*
X10807491Y-14640746D01*
X10807491Y-14640746D02*
X10807491Y-14697888D01*
X10807491Y-14697888D02*
X10797967Y-14716936D01*
X10797967Y-14716936D02*
X10788444Y-14726460D01*
X10788444Y-14726460D02*
X10769396Y-14735984D01*
X10769396Y-14735984D02*
X10731301Y-14735984D01*
X10731301Y-14735984D02*
X10712253Y-14726460D01*
X10893205Y-14716936D02*
X10902729Y-14726460D01*
X10902729Y-14726460D02*
X10893205Y-14735984D01*
X10893205Y-14735984D02*
X10883682Y-14726460D01*
X10883682Y-14726460D02*
X10893205Y-14716936D01*
X10893205Y-14716936D02*
X10893205Y-14735984D01*
X10893205Y-14612174D02*
X10902729Y-14621698D01*
X10902729Y-14621698D02*
X10893205Y-14631222D01*
X10893205Y-14631222D02*
X10883682Y-14621698D01*
X10883682Y-14621698D02*
X10893205Y-14612174D01*
X10893205Y-14612174D02*
X10893205Y-14631222D01*
D11*
X9221000Y-15044500D02*
X9261000Y-15084500D01*
X9261000Y-15044500D02*
X9221000Y-15084500D01*
D10*
X9559872Y-14955984D02*
X9578920Y-14955984D01*
X9578920Y-14955984D02*
X9597967Y-14965508D01*
X9597967Y-14965508D02*
X9607491Y-14975031D01*
X9607491Y-14975031D02*
X9617015Y-14994079D01*
X9617015Y-14994079D02*
X9626539Y-15032174D01*
X9626539Y-15032174D02*
X9626539Y-15079793D01*
X9626539Y-15079793D02*
X9617015Y-15117888D01*
X9617015Y-15117888D02*
X9607491Y-15136936D01*
X9607491Y-15136936D02*
X9597967Y-15146460D01*
X9597967Y-15146460D02*
X9578920Y-15155984D01*
X9578920Y-15155984D02*
X9559872Y-15155984D01*
X9559872Y-15155984D02*
X9540824Y-15146460D01*
X9540824Y-15146460D02*
X9531301Y-15136936D01*
X9531301Y-15136936D02*
X9521777Y-15117888D01*
X9521777Y-15117888D02*
X9512253Y-15079793D01*
X9512253Y-15079793D02*
X9512253Y-15032174D01*
X9512253Y-15032174D02*
X9521777Y-14994079D01*
X9521777Y-14994079D02*
X9531301Y-14975031D01*
X9531301Y-14975031D02*
X9540824Y-14965508D01*
X9540824Y-14965508D02*
X9559872Y-14955984D01*
X9712253Y-15136936D02*
X9721777Y-15146460D01*
X9721777Y-15146460D02*
X9712253Y-15155984D01*
X9712253Y-15155984D02*
X9702729Y-15146460D01*
X9702729Y-15146460D02*
X9712253Y-15136936D01*
X9712253Y-15136936D02*
X9712253Y-15155984D01*
X9893205Y-15022650D02*
X9893205Y-15155984D01*
X9845586Y-14946460D02*
X9797967Y-15089317D01*
X9797967Y-15089317D02*
X9921777Y-15089317D01*
X10036063Y-14955984D02*
X10055110Y-14955984D01*
X10055110Y-14955984D02*
X10074158Y-14965508D01*
X10074158Y-14965508D02*
X10083682Y-14975031D01*
X10083682Y-14975031D02*
X10093205Y-14994079D01*
X10093205Y-14994079D02*
X10102729Y-15032174D01*
X10102729Y-15032174D02*
X10102729Y-15079793D01*
X10102729Y-15079793D02*
X10093205Y-15117888D01*
X10093205Y-15117888D02*
X10083682Y-15136936D01*
X10083682Y-15136936D02*
X10074158Y-15146460D01*
X10074158Y-15146460D02*
X10055110Y-15155984D01*
X10055110Y-15155984D02*
X10036063Y-15155984D01*
X10036063Y-15155984D02*
X10017015Y-15146460D01*
X10017015Y-15146460D02*
X10007491Y-15136936D01*
X10007491Y-15136936D02*
X9997967Y-15117888D01*
X9997967Y-15117888D02*
X9988444Y-15079793D01*
X9988444Y-15079793D02*
X9988444Y-15032174D01*
X9988444Y-15032174D02*
X9997967Y-14994079D01*
X9997967Y-14994079D02*
X10007491Y-14975031D01*
X10007491Y-14975031D02*
X10017015Y-14965508D01*
X10017015Y-14965508D02*
X10036063Y-14955984D01*
X10226539Y-14955984D02*
X10245586Y-14955984D01*
X10245586Y-14955984D02*
X10264634Y-14965508D01*
X10264634Y-14965508D02*
X10274158Y-14975031D01*
X10274158Y-14975031D02*
X10283682Y-14994079D01*
X10283682Y-14994079D02*
X10293205Y-15032174D01*
X10293205Y-15032174D02*
X10293205Y-15079793D01*
X10293205Y-15079793D02*
X10283682Y-15117888D01*
X10283682Y-15117888D02*
X10274158Y-15136936D01*
X10274158Y-15136936D02*
X10264634Y-15146460D01*
X10264634Y-15146460D02*
X10245586Y-15155984D01*
X10245586Y-15155984D02*
X10226539Y-15155984D01*
X10226539Y-15155984D02*
X10207491Y-15146460D01*
X10207491Y-15146460D02*
X10197967Y-15136936D01*
X10197967Y-15136936D02*
X10188444Y-15117888D01*
X10188444Y-15117888D02*
X10178920Y-15079793D01*
X10178920Y-15079793D02*
X10178920Y-15032174D01*
X10178920Y-15032174D02*
X10188444Y-14994079D01*
X10188444Y-14994079D02*
X10197967Y-14975031D01*
X10197967Y-14975031D02*
X10207491Y-14965508D01*
X10207491Y-14965508D02*
X10226539Y-14955984D01*
X10378920Y-15155984D02*
X10378920Y-15022650D01*
X10378920Y-15041698D02*
X10388444Y-15032174D01*
X10388444Y-15032174D02*
X10407491Y-15022650D01*
X10407491Y-15022650D02*
X10436063Y-15022650D01*
X10436063Y-15022650D02*
X10455110Y-15032174D01*
X10455110Y-15032174D02*
X10464634Y-15051222D01*
X10464634Y-15051222D02*
X10464634Y-15155984D01*
X10464634Y-15051222D02*
X10474158Y-15032174D01*
X10474158Y-15032174D02*
X10493205Y-15022650D01*
X10493205Y-15022650D02*
X10521777Y-15022650D01*
X10521777Y-15022650D02*
X10540825Y-15032174D01*
X10540825Y-15032174D02*
X10550348Y-15051222D01*
X10550348Y-15051222D02*
X10550348Y-15155984D01*
X10645586Y-15155984D02*
X10645586Y-15022650D01*
X10645586Y-15041698D02*
X10655110Y-15032174D01*
X10655110Y-15032174D02*
X10674158Y-15022650D01*
X10674158Y-15022650D02*
X10702729Y-15022650D01*
X10702729Y-15022650D02*
X10721777Y-15032174D01*
X10721777Y-15032174D02*
X10731301Y-15051222D01*
X10731301Y-15051222D02*
X10731301Y-15155984D01*
X10731301Y-15051222D02*
X10740825Y-15032174D01*
X10740825Y-15032174D02*
X10759872Y-15022650D01*
X10759872Y-15022650D02*
X10788444Y-15022650D01*
X10788444Y-15022650D02*
X10807491Y-15032174D01*
X10807491Y-15032174D02*
X10817015Y-15051222D01*
X10817015Y-15051222D02*
X10817015Y-15155984D01*
X11207491Y-14946460D02*
X11036063Y-15203603D01*
X11464634Y-14955984D02*
X11483682Y-14955984D01*
X11483682Y-14955984D02*
X11502729Y-14965508D01*
X11502729Y-14965508D02*
X11512253Y-14975031D01*
X11512253Y-14975031D02*
X11521777Y-14994079D01*
X11521777Y-14994079D02*
X11531301Y-15032174D01*
X11531301Y-15032174D02*
X11531301Y-15079793D01*
X11531301Y-15079793D02*
X11521777Y-15117888D01*
X11521777Y-15117888D02*
X11512253Y-15136936D01*
X11512253Y-15136936D02*
X11502729Y-15146460D01*
X11502729Y-15146460D02*
X11483682Y-15155984D01*
X11483682Y-15155984D02*
X11464634Y-15155984D01*
X11464634Y-15155984D02*
X11445586Y-15146460D01*
X11445586Y-15146460D02*
X11436063Y-15136936D01*
X11436063Y-15136936D02*
X11426539Y-15117888D01*
X11426539Y-15117888D02*
X11417015Y-15079793D01*
X11417015Y-15079793D02*
X11417015Y-15032174D01*
X11417015Y-15032174D02*
X11426539Y-14994079D01*
X11426539Y-14994079D02*
X11436063Y-14975031D01*
X11436063Y-14975031D02*
X11445586Y-14965508D01*
X11445586Y-14965508D02*
X11464634Y-14955984D01*
X11617015Y-15136936D02*
X11626539Y-15146460D01*
X11626539Y-15146460D02*
X11617015Y-15155984D01*
X11617015Y-15155984D02*
X11607491Y-15146460D01*
X11607491Y-15146460D02*
X11617015Y-15136936D01*
X11617015Y-15136936D02*
X11617015Y-15155984D01*
X11750348Y-14955984D02*
X11769396Y-14955984D01*
X11769396Y-14955984D02*
X11788444Y-14965508D01*
X11788444Y-14965508D02*
X11797967Y-14975031D01*
X11797967Y-14975031D02*
X11807491Y-14994079D01*
X11807491Y-14994079D02*
X11817015Y-15032174D01*
X11817015Y-15032174D02*
X11817015Y-15079793D01*
X11817015Y-15079793D02*
X11807491Y-15117888D01*
X11807491Y-15117888D02*
X11797967Y-15136936D01*
X11797967Y-15136936D02*
X11788444Y-15146460D01*
X11788444Y-15146460D02*
X11769396Y-15155984D01*
X11769396Y-15155984D02*
X11750348Y-15155984D01*
X11750348Y-15155984D02*
X11731301Y-15146460D01*
X11731301Y-15146460D02*
X11721777Y-15136936D01*
X11721777Y-15136936D02*
X11712253Y-15117888D01*
X11712253Y-15117888D02*
X11702729Y-15079793D01*
X11702729Y-15079793D02*
X11702729Y-15032174D01*
X11702729Y-15032174D02*
X11712253Y-14994079D01*
X11712253Y-14994079D02*
X11721777Y-14975031D01*
X11721777Y-14975031D02*
X11731301Y-14965508D01*
X11731301Y-14965508D02*
X11750348Y-14955984D01*
X12007491Y-15155984D02*
X11893206Y-15155984D01*
X11950348Y-15155984D02*
X11950348Y-14955984D01*
X11950348Y-14955984D02*
X11931301Y-14984555D01*
X11931301Y-14984555D02*
X11912253Y-15003603D01*
X11912253Y-15003603D02*
X11893206Y-15013127D01*
X12188444Y-14955984D02*
X12093206Y-14955984D01*
X12093206Y-14955984D02*
X12083682Y-15051222D01*
X12083682Y-15051222D02*
X12093206Y-15041698D01*
X12093206Y-15041698D02*
X12112253Y-15032174D01*
X12112253Y-15032174D02*
X12159872Y-15032174D01*
X12159872Y-15032174D02*
X12178920Y-15041698D01*
X12178920Y-15041698D02*
X12188444Y-15051222D01*
X12188444Y-15051222D02*
X12197967Y-15070269D01*
X12197967Y-15070269D02*
X12197967Y-15117888D01*
X12197967Y-15117888D02*
X12188444Y-15136936D01*
X12188444Y-15136936D02*
X12178920Y-15146460D01*
X12178920Y-15146460D02*
X12159872Y-15155984D01*
X12159872Y-15155984D02*
X12112253Y-15155984D01*
X12112253Y-15155984D02*
X12093206Y-15146460D01*
X12093206Y-15146460D02*
X12083682Y-15136936D01*
X12264634Y-14955984D02*
X12397967Y-14955984D01*
X12397967Y-14955984D02*
X12312253Y-15155984D01*
X12464634Y-14955984D02*
X12464634Y-14994079D01*
X12540825Y-14955984D02*
X12540825Y-14994079D01*
X12836063Y-15232174D02*
X12826539Y-15222650D01*
X12826539Y-15222650D02*
X12807491Y-15194079D01*
X12807491Y-15194079D02*
X12797968Y-15175031D01*
X12797968Y-15175031D02*
X12788444Y-15146460D01*
X12788444Y-15146460D02*
X12778920Y-15098841D01*
X12778920Y-15098841D02*
X12778920Y-15060746D01*
X12778920Y-15060746D02*
X12788444Y-15013127D01*
X12788444Y-15013127D02*
X12797968Y-14984555D01*
X12797968Y-14984555D02*
X12807491Y-14965508D01*
X12807491Y-14965508D02*
X12826539Y-14936936D01*
X12826539Y-14936936D02*
X12836063Y-14927412D01*
X13017015Y-15155984D02*
X12902729Y-15155984D01*
X12959872Y-15155984D02*
X12959872Y-14955984D01*
X12959872Y-14955984D02*
X12940825Y-14984555D01*
X12940825Y-14984555D02*
X12921777Y-15003603D01*
X12921777Y-15003603D02*
X12902729Y-15013127D01*
X13255110Y-15155984D02*
X13255110Y-14955984D01*
X13340825Y-15155984D02*
X13340825Y-15051222D01*
X13340825Y-15051222D02*
X13331301Y-15032174D01*
X13331301Y-15032174D02*
X13312253Y-15022650D01*
X13312253Y-15022650D02*
X13283682Y-15022650D01*
X13283682Y-15022650D02*
X13264634Y-15032174D01*
X13264634Y-15032174D02*
X13255110Y-15041698D01*
X13464634Y-15155984D02*
X13445587Y-15146460D01*
X13445587Y-15146460D02*
X13436063Y-15136936D01*
X13436063Y-15136936D02*
X13426539Y-15117888D01*
X13426539Y-15117888D02*
X13426539Y-15060746D01*
X13426539Y-15060746D02*
X13436063Y-15041698D01*
X13436063Y-15041698D02*
X13445587Y-15032174D01*
X13445587Y-15032174D02*
X13464634Y-15022650D01*
X13464634Y-15022650D02*
X13493206Y-15022650D01*
X13493206Y-15022650D02*
X13512253Y-15032174D01*
X13512253Y-15032174D02*
X13521777Y-15041698D01*
X13521777Y-15041698D02*
X13531301Y-15060746D01*
X13531301Y-15060746D02*
X13531301Y-15117888D01*
X13531301Y-15117888D02*
X13521777Y-15136936D01*
X13521777Y-15136936D02*
X13512253Y-15146460D01*
X13512253Y-15146460D02*
X13493206Y-15155984D01*
X13493206Y-15155984D02*
X13464634Y-15155984D01*
X13645587Y-15155984D02*
X13626539Y-15146460D01*
X13626539Y-15146460D02*
X13617015Y-15127412D01*
X13617015Y-15127412D02*
X13617015Y-14955984D01*
X13797968Y-15146460D02*
X13778920Y-15155984D01*
X13778920Y-15155984D02*
X13740825Y-15155984D01*
X13740825Y-15155984D02*
X13721777Y-15146460D01*
X13721777Y-15146460D02*
X13712253Y-15127412D01*
X13712253Y-15127412D02*
X13712253Y-15051222D01*
X13712253Y-15051222D02*
X13721777Y-15032174D01*
X13721777Y-15032174D02*
X13740825Y-15022650D01*
X13740825Y-15022650D02*
X13778920Y-15022650D01*
X13778920Y-15022650D02*
X13797968Y-15032174D01*
X13797968Y-15032174D02*
X13807491Y-15051222D01*
X13807491Y-15051222D02*
X13807491Y-15070269D01*
X13807491Y-15070269D02*
X13712253Y-15089317D01*
X13874158Y-15232174D02*
X13883682Y-15222650D01*
X13883682Y-15222650D02*
X13902730Y-15194079D01*
X13902730Y-15194079D02*
X13912253Y-15175031D01*
X13912253Y-15175031D02*
X13921777Y-15146460D01*
X13921777Y-15146460D02*
X13931301Y-15098841D01*
X13931301Y-15098841D02*
X13931301Y-15060746D01*
X13931301Y-15060746D02*
X13921777Y-15013127D01*
X13921777Y-15013127D02*
X13912253Y-14984555D01*
X13912253Y-14984555D02*
X13902730Y-14965508D01*
X13902730Y-14965508D02*
X13883682Y-14936936D01*
X13883682Y-14936936D02*
X13874158Y-14927412D01*
D11*
X9261000Y-15328500D02*
G75*
G02*
X9201000Y-15328500I-30000J0D01*
G01*
X9201000Y-15328500D02*
G75*
G02*
X9261000Y-15328500I30000J0D01*
G01*
D10*
X9559872Y-15219984D02*
X9578920Y-15219984D01*
X9578920Y-15219984D02*
X9597967Y-15229508D01*
X9597967Y-15229508D02*
X9607491Y-15239031D01*
X9607491Y-15239031D02*
X9617015Y-15258079D01*
X9617015Y-15258079D02*
X9626539Y-15296174D01*
X9626539Y-15296174D02*
X9626539Y-15343793D01*
X9626539Y-15343793D02*
X9617015Y-15381888D01*
X9617015Y-15381888D02*
X9607491Y-15400936D01*
X9607491Y-15400936D02*
X9597967Y-15410460D01*
X9597967Y-15410460D02*
X9578920Y-15419984D01*
X9578920Y-15419984D02*
X9559872Y-15419984D01*
X9559872Y-15419984D02*
X9540824Y-15410460D01*
X9540824Y-15410460D02*
X9531301Y-15400936D01*
X9531301Y-15400936D02*
X9521777Y-15381888D01*
X9521777Y-15381888D02*
X9512253Y-15343793D01*
X9512253Y-15343793D02*
X9512253Y-15296174D01*
X9512253Y-15296174D02*
X9521777Y-15258079D01*
X9521777Y-15258079D02*
X9531301Y-15239031D01*
X9531301Y-15239031D02*
X9540824Y-15229508D01*
X9540824Y-15229508D02*
X9559872Y-15219984D01*
X9712253Y-15400936D02*
X9721777Y-15410460D01*
X9721777Y-15410460D02*
X9712253Y-15419984D01*
X9712253Y-15419984D02*
X9702729Y-15410460D01*
X9702729Y-15410460D02*
X9712253Y-15400936D01*
X9712253Y-15400936D02*
X9712253Y-15419984D01*
X9893205Y-15219984D02*
X9855110Y-15219984D01*
X9855110Y-15219984D02*
X9836063Y-15229508D01*
X9836063Y-15229508D02*
X9826539Y-15239031D01*
X9826539Y-15239031D02*
X9807491Y-15267603D01*
X9807491Y-15267603D02*
X9797967Y-15305698D01*
X9797967Y-15305698D02*
X9797967Y-15381888D01*
X9797967Y-15381888D02*
X9807491Y-15400936D01*
X9807491Y-15400936D02*
X9817015Y-15410460D01*
X9817015Y-15410460D02*
X9836063Y-15419984D01*
X9836063Y-15419984D02*
X9874158Y-15419984D01*
X9874158Y-15419984D02*
X9893205Y-15410460D01*
X9893205Y-15410460D02*
X9902729Y-15400936D01*
X9902729Y-15400936D02*
X9912253Y-15381888D01*
X9912253Y-15381888D02*
X9912253Y-15334269D01*
X9912253Y-15334269D02*
X9902729Y-15315222D01*
X9902729Y-15315222D02*
X9893205Y-15305698D01*
X9893205Y-15305698D02*
X9874158Y-15296174D01*
X9874158Y-15296174D02*
X9836063Y-15296174D01*
X9836063Y-15296174D02*
X9817015Y-15305698D01*
X9817015Y-15305698D02*
X9807491Y-15315222D01*
X9807491Y-15315222D02*
X9797967Y-15334269D01*
X10036063Y-15219984D02*
X10055110Y-15219984D01*
X10055110Y-15219984D02*
X10074158Y-15229508D01*
X10074158Y-15229508D02*
X10083682Y-15239031D01*
X10083682Y-15239031D02*
X10093205Y-15258079D01*
X10093205Y-15258079D02*
X10102729Y-15296174D01*
X10102729Y-15296174D02*
X10102729Y-15343793D01*
X10102729Y-15343793D02*
X10093205Y-15381888D01*
X10093205Y-15381888D02*
X10083682Y-15400936D01*
X10083682Y-15400936D02*
X10074158Y-15410460D01*
X10074158Y-15410460D02*
X10055110Y-15419984D01*
X10055110Y-15419984D02*
X10036063Y-15419984D01*
X10036063Y-15419984D02*
X10017015Y-15410460D01*
X10017015Y-15410460D02*
X10007491Y-15400936D01*
X10007491Y-15400936D02*
X9997967Y-15381888D01*
X9997967Y-15381888D02*
X9988444Y-15343793D01*
X9988444Y-15343793D02*
X9988444Y-15296174D01*
X9988444Y-15296174D02*
X9997967Y-15258079D01*
X9997967Y-15258079D02*
X10007491Y-15239031D01*
X10007491Y-15239031D02*
X10017015Y-15229508D01*
X10017015Y-15229508D02*
X10036063Y-15219984D01*
X10226539Y-15219984D02*
X10245586Y-15219984D01*
X10245586Y-15219984D02*
X10264634Y-15229508D01*
X10264634Y-15229508D02*
X10274158Y-15239031D01*
X10274158Y-15239031D02*
X10283682Y-15258079D01*
X10283682Y-15258079D02*
X10293205Y-15296174D01*
X10293205Y-15296174D02*
X10293205Y-15343793D01*
X10293205Y-15343793D02*
X10283682Y-15381888D01*
X10283682Y-15381888D02*
X10274158Y-15400936D01*
X10274158Y-15400936D02*
X10264634Y-15410460D01*
X10264634Y-15410460D02*
X10245586Y-15419984D01*
X10245586Y-15419984D02*
X10226539Y-15419984D01*
X10226539Y-15419984D02*
X10207491Y-15410460D01*
X10207491Y-15410460D02*
X10197967Y-15400936D01*
X10197967Y-15400936D02*
X10188444Y-15381888D01*
X10188444Y-15381888D02*
X10178920Y-15343793D01*
X10178920Y-15343793D02*
X10178920Y-15296174D01*
X10178920Y-15296174D02*
X10188444Y-15258079D01*
X10188444Y-15258079D02*
X10197967Y-15239031D01*
X10197967Y-15239031D02*
X10207491Y-15229508D01*
X10207491Y-15229508D02*
X10226539Y-15219984D01*
X10378920Y-15419984D02*
X10378920Y-15286650D01*
X10378920Y-15305698D02*
X10388444Y-15296174D01*
X10388444Y-15296174D02*
X10407491Y-15286650D01*
X10407491Y-15286650D02*
X10436063Y-15286650D01*
X10436063Y-15286650D02*
X10455110Y-15296174D01*
X10455110Y-15296174D02*
X10464634Y-15315222D01*
X10464634Y-15315222D02*
X10464634Y-15419984D01*
X10464634Y-15315222D02*
X10474158Y-15296174D01*
X10474158Y-15296174D02*
X10493205Y-15286650D01*
X10493205Y-15286650D02*
X10521777Y-15286650D01*
X10521777Y-15286650D02*
X10540825Y-15296174D01*
X10540825Y-15296174D02*
X10550348Y-15315222D01*
X10550348Y-15315222D02*
X10550348Y-15419984D01*
X10645586Y-15419984D02*
X10645586Y-15286650D01*
X10645586Y-15305698D02*
X10655110Y-15296174D01*
X10655110Y-15296174D02*
X10674158Y-15286650D01*
X10674158Y-15286650D02*
X10702729Y-15286650D01*
X10702729Y-15286650D02*
X10721777Y-15296174D01*
X10721777Y-15296174D02*
X10731301Y-15315222D01*
X10731301Y-15315222D02*
X10731301Y-15419984D01*
X10731301Y-15315222D02*
X10740825Y-15296174D01*
X10740825Y-15296174D02*
X10759872Y-15286650D01*
X10759872Y-15286650D02*
X10788444Y-15286650D01*
X10788444Y-15286650D02*
X10807491Y-15296174D01*
X10807491Y-15296174D02*
X10817015Y-15315222D01*
X10817015Y-15315222D02*
X10817015Y-15419984D01*
X11207491Y-15210460D02*
X11036063Y-15467603D01*
X11464634Y-15219984D02*
X11483682Y-15219984D01*
X11483682Y-15219984D02*
X11502729Y-15229508D01*
X11502729Y-15229508D02*
X11512253Y-15239031D01*
X11512253Y-15239031D02*
X11521777Y-15258079D01*
X11521777Y-15258079D02*
X11531301Y-15296174D01*
X11531301Y-15296174D02*
X11531301Y-15343793D01*
X11531301Y-15343793D02*
X11521777Y-15381888D01*
X11521777Y-15381888D02*
X11512253Y-15400936D01*
X11512253Y-15400936D02*
X11502729Y-15410460D01*
X11502729Y-15410460D02*
X11483682Y-15419984D01*
X11483682Y-15419984D02*
X11464634Y-15419984D01*
X11464634Y-15419984D02*
X11445586Y-15410460D01*
X11445586Y-15410460D02*
X11436063Y-15400936D01*
X11436063Y-15400936D02*
X11426539Y-15381888D01*
X11426539Y-15381888D02*
X11417015Y-15343793D01*
X11417015Y-15343793D02*
X11417015Y-15296174D01*
X11417015Y-15296174D02*
X11426539Y-15258079D01*
X11426539Y-15258079D02*
X11436063Y-15239031D01*
X11436063Y-15239031D02*
X11445586Y-15229508D01*
X11445586Y-15229508D02*
X11464634Y-15219984D01*
X11617015Y-15400936D02*
X11626539Y-15410460D01*
X11626539Y-15410460D02*
X11617015Y-15419984D01*
X11617015Y-15419984D02*
X11607491Y-15410460D01*
X11607491Y-15410460D02*
X11617015Y-15400936D01*
X11617015Y-15400936D02*
X11617015Y-15419984D01*
X11750348Y-15219984D02*
X11769396Y-15219984D01*
X11769396Y-15219984D02*
X11788444Y-15229508D01*
X11788444Y-15229508D02*
X11797967Y-15239031D01*
X11797967Y-15239031D02*
X11807491Y-15258079D01*
X11807491Y-15258079D02*
X11817015Y-15296174D01*
X11817015Y-15296174D02*
X11817015Y-15343793D01*
X11817015Y-15343793D02*
X11807491Y-15381888D01*
X11807491Y-15381888D02*
X11797967Y-15400936D01*
X11797967Y-15400936D02*
X11788444Y-15410460D01*
X11788444Y-15410460D02*
X11769396Y-15419984D01*
X11769396Y-15419984D02*
X11750348Y-15419984D01*
X11750348Y-15419984D02*
X11731301Y-15410460D01*
X11731301Y-15410460D02*
X11721777Y-15400936D01*
X11721777Y-15400936D02*
X11712253Y-15381888D01*
X11712253Y-15381888D02*
X11702729Y-15343793D01*
X11702729Y-15343793D02*
X11702729Y-15296174D01*
X11702729Y-15296174D02*
X11712253Y-15258079D01*
X11712253Y-15258079D02*
X11721777Y-15239031D01*
X11721777Y-15239031D02*
X11731301Y-15229508D01*
X11731301Y-15229508D02*
X11750348Y-15219984D01*
X11893206Y-15239031D02*
X11902729Y-15229508D01*
X11902729Y-15229508D02*
X11921777Y-15219984D01*
X11921777Y-15219984D02*
X11969396Y-15219984D01*
X11969396Y-15219984D02*
X11988444Y-15229508D01*
X11988444Y-15229508D02*
X11997967Y-15239031D01*
X11997967Y-15239031D02*
X12007491Y-15258079D01*
X12007491Y-15258079D02*
X12007491Y-15277127D01*
X12007491Y-15277127D02*
X11997967Y-15305698D01*
X11997967Y-15305698D02*
X11883682Y-15419984D01*
X11883682Y-15419984D02*
X12007491Y-15419984D01*
X12074158Y-15219984D02*
X12197967Y-15219984D01*
X12197967Y-15219984D02*
X12131301Y-15296174D01*
X12131301Y-15296174D02*
X12159872Y-15296174D01*
X12159872Y-15296174D02*
X12178920Y-15305698D01*
X12178920Y-15305698D02*
X12188444Y-15315222D01*
X12188444Y-15315222D02*
X12197967Y-15334269D01*
X12197967Y-15334269D02*
X12197967Y-15381888D01*
X12197967Y-15381888D02*
X12188444Y-15400936D01*
X12188444Y-15400936D02*
X12178920Y-15410460D01*
X12178920Y-15410460D02*
X12159872Y-15419984D01*
X12159872Y-15419984D02*
X12102729Y-15419984D01*
X12102729Y-15419984D02*
X12083682Y-15410460D01*
X12083682Y-15410460D02*
X12074158Y-15400936D01*
X12369396Y-15219984D02*
X12331301Y-15219984D01*
X12331301Y-15219984D02*
X12312253Y-15229508D01*
X12312253Y-15229508D02*
X12302729Y-15239031D01*
X12302729Y-15239031D02*
X12283682Y-15267603D01*
X12283682Y-15267603D02*
X12274158Y-15305698D01*
X12274158Y-15305698D02*
X12274158Y-15381888D01*
X12274158Y-15381888D02*
X12283682Y-15400936D01*
X12283682Y-15400936D02*
X12293206Y-15410460D01*
X12293206Y-15410460D02*
X12312253Y-15419984D01*
X12312253Y-15419984D02*
X12350348Y-15419984D01*
X12350348Y-15419984D02*
X12369396Y-15410460D01*
X12369396Y-15410460D02*
X12378920Y-15400936D01*
X12378920Y-15400936D02*
X12388444Y-15381888D01*
X12388444Y-15381888D02*
X12388444Y-15334269D01*
X12388444Y-15334269D02*
X12378920Y-15315222D01*
X12378920Y-15315222D02*
X12369396Y-15305698D01*
X12369396Y-15305698D02*
X12350348Y-15296174D01*
X12350348Y-15296174D02*
X12312253Y-15296174D01*
X12312253Y-15296174D02*
X12293206Y-15305698D01*
X12293206Y-15305698D02*
X12283682Y-15315222D01*
X12283682Y-15315222D02*
X12274158Y-15334269D01*
X12464634Y-15219984D02*
X12464634Y-15258079D01*
X12540825Y-15219984D02*
X12540825Y-15258079D01*
X12836063Y-15496174D02*
X12826539Y-15486650D01*
X12826539Y-15486650D02*
X12807491Y-15458079D01*
X12807491Y-15458079D02*
X12797968Y-15439031D01*
X12797968Y-15439031D02*
X12788444Y-15410460D01*
X12788444Y-15410460D02*
X12778920Y-15362841D01*
X12778920Y-15362841D02*
X12778920Y-15324746D01*
X12778920Y-15324746D02*
X12788444Y-15277127D01*
X12788444Y-15277127D02*
X12797968Y-15248555D01*
X12797968Y-15248555D02*
X12807491Y-15229508D01*
X12807491Y-15229508D02*
X12826539Y-15200936D01*
X12826539Y-15200936D02*
X12836063Y-15191412D01*
X12940825Y-15305698D02*
X12921777Y-15296174D01*
X12921777Y-15296174D02*
X12912253Y-15286650D01*
X12912253Y-15286650D02*
X12902729Y-15267603D01*
X12902729Y-15267603D02*
X12902729Y-15258079D01*
X12902729Y-15258079D02*
X12912253Y-15239031D01*
X12912253Y-15239031D02*
X12921777Y-15229508D01*
X12921777Y-15229508D02*
X12940825Y-15219984D01*
X12940825Y-15219984D02*
X12978920Y-15219984D01*
X12978920Y-15219984D02*
X12997968Y-15229508D01*
X12997968Y-15229508D02*
X13007491Y-15239031D01*
X13007491Y-15239031D02*
X13017015Y-15258079D01*
X13017015Y-15258079D02*
X13017015Y-15267603D01*
X13017015Y-15267603D02*
X13007491Y-15286650D01*
X13007491Y-15286650D02*
X12997968Y-15296174D01*
X12997968Y-15296174D02*
X12978920Y-15305698D01*
X12978920Y-15305698D02*
X12940825Y-15305698D01*
X12940825Y-15305698D02*
X12921777Y-15315222D01*
X12921777Y-15315222D02*
X12912253Y-15324746D01*
X12912253Y-15324746D02*
X12902729Y-15343793D01*
X12902729Y-15343793D02*
X12902729Y-15381888D01*
X12902729Y-15381888D02*
X12912253Y-15400936D01*
X12912253Y-15400936D02*
X12921777Y-15410460D01*
X12921777Y-15410460D02*
X12940825Y-15419984D01*
X12940825Y-15419984D02*
X12978920Y-15419984D01*
X12978920Y-15419984D02*
X12997968Y-15410460D01*
X12997968Y-15410460D02*
X13007491Y-15400936D01*
X13007491Y-15400936D02*
X13017015Y-15381888D01*
X13017015Y-15381888D02*
X13017015Y-15343793D01*
X13017015Y-15343793D02*
X13007491Y-15324746D01*
X13007491Y-15324746D02*
X12997968Y-15315222D01*
X12997968Y-15315222D02*
X12978920Y-15305698D01*
X13255110Y-15419984D02*
X13255110Y-15219984D01*
X13340825Y-15419984D02*
X13340825Y-15315222D01*
X13340825Y-15315222D02*
X13331301Y-15296174D01*
X13331301Y-15296174D02*
X13312253Y-15286650D01*
X13312253Y-15286650D02*
X13283682Y-15286650D01*
X13283682Y-15286650D02*
X13264634Y-15296174D01*
X13264634Y-15296174D02*
X13255110Y-15305698D01*
X13464634Y-15419984D02*
X13445587Y-15410460D01*
X13445587Y-15410460D02*
X13436063Y-15400936D01*
X13436063Y-15400936D02*
X13426539Y-15381888D01*
X13426539Y-15381888D02*
X13426539Y-15324746D01*
X13426539Y-15324746D02*
X13436063Y-15305698D01*
X13436063Y-15305698D02*
X13445587Y-15296174D01*
X13445587Y-15296174D02*
X13464634Y-15286650D01*
X13464634Y-15286650D02*
X13493206Y-15286650D01*
X13493206Y-15286650D02*
X13512253Y-15296174D01*
X13512253Y-15296174D02*
X13521777Y-15305698D01*
X13521777Y-15305698D02*
X13531301Y-15324746D01*
X13531301Y-15324746D02*
X13531301Y-15381888D01*
X13531301Y-15381888D02*
X13521777Y-15400936D01*
X13521777Y-15400936D02*
X13512253Y-15410460D01*
X13512253Y-15410460D02*
X13493206Y-15419984D01*
X13493206Y-15419984D02*
X13464634Y-15419984D01*
X13645587Y-15419984D02*
X13626539Y-15410460D01*
X13626539Y-15410460D02*
X13617015Y-15391412D01*
X13617015Y-15391412D02*
X13617015Y-15219984D01*
X13797968Y-15410460D02*
X13778920Y-15419984D01*
X13778920Y-15419984D02*
X13740825Y-15419984D01*
X13740825Y-15419984D02*
X13721777Y-15410460D01*
X13721777Y-15410460D02*
X13712253Y-15391412D01*
X13712253Y-15391412D02*
X13712253Y-15315222D01*
X13712253Y-15315222D02*
X13721777Y-15296174D01*
X13721777Y-15296174D02*
X13740825Y-15286650D01*
X13740825Y-15286650D02*
X13778920Y-15286650D01*
X13778920Y-15286650D02*
X13797968Y-15296174D01*
X13797968Y-15296174D02*
X13807491Y-15315222D01*
X13807491Y-15315222D02*
X13807491Y-15334269D01*
X13807491Y-15334269D02*
X13712253Y-15353317D01*
X13883682Y-15410460D02*
X13902730Y-15419984D01*
X13902730Y-15419984D02*
X13940825Y-15419984D01*
X13940825Y-15419984D02*
X13959872Y-15410460D01*
X13959872Y-15410460D02*
X13969396Y-15391412D01*
X13969396Y-15391412D02*
X13969396Y-15381888D01*
X13969396Y-15381888D02*
X13959872Y-15362841D01*
X13959872Y-15362841D02*
X13940825Y-15353317D01*
X13940825Y-15353317D02*
X13912253Y-15353317D01*
X13912253Y-15353317D02*
X13893206Y-15343793D01*
X13893206Y-15343793D02*
X13883682Y-15324746D01*
X13883682Y-15324746D02*
X13883682Y-15315222D01*
X13883682Y-15315222D02*
X13893206Y-15296174D01*
X13893206Y-15296174D02*
X13912253Y-15286650D01*
X13912253Y-15286650D02*
X13940825Y-15286650D01*
X13940825Y-15286650D02*
X13959872Y-15296174D01*
X14036063Y-15496174D02*
X14045587Y-15486650D01*
X14045587Y-15486650D02*
X14064634Y-15458079D01*
X14064634Y-15458079D02*
X14074158Y-15439031D01*
X14074158Y-15439031D02*
X14083682Y-15410460D01*
X14083682Y-15410460D02*
X14093206Y-15362841D01*
X14093206Y-15362841D02*
X14093206Y-15324746D01*
X14093206Y-15324746D02*
X14083682Y-15277127D01*
X14083682Y-15277127D02*
X14074158Y-15248555D01*
X14074158Y-15248555D02*
X14064634Y-15229508D01*
X14064634Y-15229508D02*
X14045587Y-15200936D01*
X14045587Y-15200936D02*
X14036063Y-15191412D01*
D11*
X9223500Y-15555000D02*
X9223500Y-15630000D01*
X9186000Y-15592500D02*
X9261000Y-15592500D01*
D10*
X9559872Y-15483984D02*
X9578920Y-15483984D01*
X9578920Y-15483984D02*
X9597967Y-15493508D01*
X9597967Y-15493508D02*
X9607491Y-15503031D01*
X9607491Y-15503031D02*
X9617015Y-15522079D01*
X9617015Y-15522079D02*
X9626539Y-15560174D01*
X9626539Y-15560174D02*
X9626539Y-15607793D01*
X9626539Y-15607793D02*
X9617015Y-15645888D01*
X9617015Y-15645888D02*
X9607491Y-15664936D01*
X9607491Y-15664936D02*
X9597967Y-15674460D01*
X9597967Y-15674460D02*
X9578920Y-15683984D01*
X9578920Y-15683984D02*
X9559872Y-15683984D01*
X9559872Y-15683984D02*
X9540824Y-15674460D01*
X9540824Y-15674460D02*
X9531301Y-15664936D01*
X9531301Y-15664936D02*
X9521777Y-15645888D01*
X9521777Y-15645888D02*
X9512253Y-15607793D01*
X9512253Y-15607793D02*
X9512253Y-15560174D01*
X9512253Y-15560174D02*
X9521777Y-15522079D01*
X9521777Y-15522079D02*
X9531301Y-15503031D01*
X9531301Y-15503031D02*
X9540824Y-15493508D01*
X9540824Y-15493508D02*
X9559872Y-15483984D01*
X9712253Y-15664936D02*
X9721777Y-15674460D01*
X9721777Y-15674460D02*
X9712253Y-15683984D01*
X9712253Y-15683984D02*
X9702729Y-15674460D01*
X9702729Y-15674460D02*
X9712253Y-15664936D01*
X9712253Y-15664936D02*
X9712253Y-15683984D01*
X9788444Y-15483984D02*
X9921777Y-15483984D01*
X9921777Y-15483984D02*
X9836063Y-15683984D01*
X10093205Y-15483984D02*
X9997967Y-15483984D01*
X9997967Y-15483984D02*
X9988444Y-15579222D01*
X9988444Y-15579222D02*
X9997967Y-15569698D01*
X9997967Y-15569698D02*
X10017015Y-15560174D01*
X10017015Y-15560174D02*
X10064634Y-15560174D01*
X10064634Y-15560174D02*
X10083682Y-15569698D01*
X10083682Y-15569698D02*
X10093205Y-15579222D01*
X10093205Y-15579222D02*
X10102729Y-15598269D01*
X10102729Y-15598269D02*
X10102729Y-15645888D01*
X10102729Y-15645888D02*
X10093205Y-15664936D01*
X10093205Y-15664936D02*
X10083682Y-15674460D01*
X10083682Y-15674460D02*
X10064634Y-15683984D01*
X10064634Y-15683984D02*
X10017015Y-15683984D01*
X10017015Y-15683984D02*
X9997967Y-15674460D01*
X9997967Y-15674460D02*
X9988444Y-15664936D01*
X10226539Y-15483984D02*
X10245586Y-15483984D01*
X10245586Y-15483984D02*
X10264634Y-15493508D01*
X10264634Y-15493508D02*
X10274158Y-15503031D01*
X10274158Y-15503031D02*
X10283682Y-15522079D01*
X10283682Y-15522079D02*
X10293205Y-15560174D01*
X10293205Y-15560174D02*
X10293205Y-15607793D01*
X10293205Y-15607793D02*
X10283682Y-15645888D01*
X10283682Y-15645888D02*
X10274158Y-15664936D01*
X10274158Y-15664936D02*
X10264634Y-15674460D01*
X10264634Y-15674460D02*
X10245586Y-15683984D01*
X10245586Y-15683984D02*
X10226539Y-15683984D01*
X10226539Y-15683984D02*
X10207491Y-15674460D01*
X10207491Y-15674460D02*
X10197967Y-15664936D01*
X10197967Y-15664936D02*
X10188444Y-15645888D01*
X10188444Y-15645888D02*
X10178920Y-15607793D01*
X10178920Y-15607793D02*
X10178920Y-15560174D01*
X10178920Y-15560174D02*
X10188444Y-15522079D01*
X10188444Y-15522079D02*
X10197967Y-15503031D01*
X10197967Y-15503031D02*
X10207491Y-15493508D01*
X10207491Y-15493508D02*
X10226539Y-15483984D01*
X10378920Y-15683984D02*
X10378920Y-15550650D01*
X10378920Y-15569698D02*
X10388444Y-15560174D01*
X10388444Y-15560174D02*
X10407491Y-15550650D01*
X10407491Y-15550650D02*
X10436063Y-15550650D01*
X10436063Y-15550650D02*
X10455110Y-15560174D01*
X10455110Y-15560174D02*
X10464634Y-15579222D01*
X10464634Y-15579222D02*
X10464634Y-15683984D01*
X10464634Y-15579222D02*
X10474158Y-15560174D01*
X10474158Y-15560174D02*
X10493205Y-15550650D01*
X10493205Y-15550650D02*
X10521777Y-15550650D01*
X10521777Y-15550650D02*
X10540825Y-15560174D01*
X10540825Y-15560174D02*
X10550348Y-15579222D01*
X10550348Y-15579222D02*
X10550348Y-15683984D01*
X10645586Y-15683984D02*
X10645586Y-15550650D01*
X10645586Y-15569698D02*
X10655110Y-15560174D01*
X10655110Y-15560174D02*
X10674158Y-15550650D01*
X10674158Y-15550650D02*
X10702729Y-15550650D01*
X10702729Y-15550650D02*
X10721777Y-15560174D01*
X10721777Y-15560174D02*
X10731301Y-15579222D01*
X10731301Y-15579222D02*
X10731301Y-15683984D01*
X10731301Y-15579222D02*
X10740825Y-15560174D01*
X10740825Y-15560174D02*
X10759872Y-15550650D01*
X10759872Y-15550650D02*
X10788444Y-15550650D01*
X10788444Y-15550650D02*
X10807491Y-15560174D01*
X10807491Y-15560174D02*
X10817015Y-15579222D01*
X10817015Y-15579222D02*
X10817015Y-15683984D01*
X11207491Y-15474460D02*
X11036063Y-15731603D01*
X11464634Y-15483984D02*
X11483682Y-15483984D01*
X11483682Y-15483984D02*
X11502729Y-15493508D01*
X11502729Y-15493508D02*
X11512253Y-15503031D01*
X11512253Y-15503031D02*
X11521777Y-15522079D01*
X11521777Y-15522079D02*
X11531301Y-15560174D01*
X11531301Y-15560174D02*
X11531301Y-15607793D01*
X11531301Y-15607793D02*
X11521777Y-15645888D01*
X11521777Y-15645888D02*
X11512253Y-15664936D01*
X11512253Y-15664936D02*
X11502729Y-15674460D01*
X11502729Y-15674460D02*
X11483682Y-15683984D01*
X11483682Y-15683984D02*
X11464634Y-15683984D01*
X11464634Y-15683984D02*
X11445586Y-15674460D01*
X11445586Y-15674460D02*
X11436063Y-15664936D01*
X11436063Y-15664936D02*
X11426539Y-15645888D01*
X11426539Y-15645888D02*
X11417015Y-15607793D01*
X11417015Y-15607793D02*
X11417015Y-15560174D01*
X11417015Y-15560174D02*
X11426539Y-15522079D01*
X11426539Y-15522079D02*
X11436063Y-15503031D01*
X11436063Y-15503031D02*
X11445586Y-15493508D01*
X11445586Y-15493508D02*
X11464634Y-15483984D01*
X11617015Y-15664936D02*
X11626539Y-15674460D01*
X11626539Y-15674460D02*
X11617015Y-15683984D01*
X11617015Y-15683984D02*
X11607491Y-15674460D01*
X11607491Y-15674460D02*
X11617015Y-15664936D01*
X11617015Y-15664936D02*
X11617015Y-15683984D01*
X11750348Y-15483984D02*
X11769396Y-15483984D01*
X11769396Y-15483984D02*
X11788444Y-15493508D01*
X11788444Y-15493508D02*
X11797967Y-15503031D01*
X11797967Y-15503031D02*
X11807491Y-15522079D01*
X11807491Y-15522079D02*
X11817015Y-15560174D01*
X11817015Y-15560174D02*
X11817015Y-15607793D01*
X11817015Y-15607793D02*
X11807491Y-15645888D01*
X11807491Y-15645888D02*
X11797967Y-15664936D01*
X11797967Y-15664936D02*
X11788444Y-15674460D01*
X11788444Y-15674460D02*
X11769396Y-15683984D01*
X11769396Y-15683984D02*
X11750348Y-15683984D01*
X11750348Y-15683984D02*
X11731301Y-15674460D01*
X11731301Y-15674460D02*
X11721777Y-15664936D01*
X11721777Y-15664936D02*
X11712253Y-15645888D01*
X11712253Y-15645888D02*
X11702729Y-15607793D01*
X11702729Y-15607793D02*
X11702729Y-15560174D01*
X11702729Y-15560174D02*
X11712253Y-15522079D01*
X11712253Y-15522079D02*
X11721777Y-15503031D01*
X11721777Y-15503031D02*
X11731301Y-15493508D01*
X11731301Y-15493508D02*
X11750348Y-15483984D01*
X11893206Y-15503031D02*
X11902729Y-15493508D01*
X11902729Y-15493508D02*
X11921777Y-15483984D01*
X11921777Y-15483984D02*
X11969396Y-15483984D01*
X11969396Y-15483984D02*
X11988444Y-15493508D01*
X11988444Y-15493508D02*
X11997967Y-15503031D01*
X11997967Y-15503031D02*
X12007491Y-15522079D01*
X12007491Y-15522079D02*
X12007491Y-15541127D01*
X12007491Y-15541127D02*
X11997967Y-15569698D01*
X11997967Y-15569698D02*
X11883682Y-15683984D01*
X11883682Y-15683984D02*
X12007491Y-15683984D01*
X12102729Y-15683984D02*
X12140825Y-15683984D01*
X12140825Y-15683984D02*
X12159872Y-15674460D01*
X12159872Y-15674460D02*
X12169396Y-15664936D01*
X12169396Y-15664936D02*
X12188444Y-15636365D01*
X12188444Y-15636365D02*
X12197967Y-15598269D01*
X12197967Y-15598269D02*
X12197967Y-15522079D01*
X12197967Y-15522079D02*
X12188444Y-15503031D01*
X12188444Y-15503031D02*
X12178920Y-15493508D01*
X12178920Y-15493508D02*
X12159872Y-15483984D01*
X12159872Y-15483984D02*
X12121777Y-15483984D01*
X12121777Y-15483984D02*
X12102729Y-15493508D01*
X12102729Y-15493508D02*
X12093206Y-15503031D01*
X12093206Y-15503031D02*
X12083682Y-15522079D01*
X12083682Y-15522079D02*
X12083682Y-15569698D01*
X12083682Y-15569698D02*
X12093206Y-15588746D01*
X12093206Y-15588746D02*
X12102729Y-15598269D01*
X12102729Y-15598269D02*
X12121777Y-15607793D01*
X12121777Y-15607793D02*
X12159872Y-15607793D01*
X12159872Y-15607793D02*
X12178920Y-15598269D01*
X12178920Y-15598269D02*
X12188444Y-15588746D01*
X12188444Y-15588746D02*
X12197967Y-15569698D01*
X12378920Y-15483984D02*
X12283682Y-15483984D01*
X12283682Y-15483984D02*
X12274158Y-15579222D01*
X12274158Y-15579222D02*
X12283682Y-15569698D01*
X12283682Y-15569698D02*
X12302729Y-15560174D01*
X12302729Y-15560174D02*
X12350348Y-15560174D01*
X12350348Y-15560174D02*
X12369396Y-15569698D01*
X12369396Y-15569698D02*
X12378920Y-15579222D01*
X12378920Y-15579222D02*
X12388444Y-15598269D01*
X12388444Y-15598269D02*
X12388444Y-15645888D01*
X12388444Y-15645888D02*
X12378920Y-15664936D01*
X12378920Y-15664936D02*
X12369396Y-15674460D01*
X12369396Y-15674460D02*
X12350348Y-15683984D01*
X12350348Y-15683984D02*
X12302729Y-15683984D01*
X12302729Y-15683984D02*
X12283682Y-15674460D01*
X12283682Y-15674460D02*
X12274158Y-15664936D01*
X12464634Y-15483984D02*
X12464634Y-15522079D01*
X12540825Y-15483984D02*
X12540825Y-15522079D01*
X12836063Y-15760174D02*
X12826539Y-15750650D01*
X12826539Y-15750650D02*
X12807491Y-15722079D01*
X12807491Y-15722079D02*
X12797968Y-15703031D01*
X12797968Y-15703031D02*
X12788444Y-15674460D01*
X12788444Y-15674460D02*
X12778920Y-15626841D01*
X12778920Y-15626841D02*
X12778920Y-15588746D01*
X12778920Y-15588746D02*
X12788444Y-15541127D01*
X12788444Y-15541127D02*
X12797968Y-15512555D01*
X12797968Y-15512555D02*
X12807491Y-15493508D01*
X12807491Y-15493508D02*
X12826539Y-15464936D01*
X12826539Y-15464936D02*
X12836063Y-15455412D01*
X12997968Y-15550650D02*
X12997968Y-15683984D01*
X12950348Y-15474460D02*
X12902729Y-15617317D01*
X12902729Y-15617317D02*
X13026539Y-15617317D01*
X13255110Y-15683984D02*
X13255110Y-15483984D01*
X13340825Y-15683984D02*
X13340825Y-15579222D01*
X13340825Y-15579222D02*
X13331301Y-15560174D01*
X13331301Y-15560174D02*
X13312253Y-15550650D01*
X13312253Y-15550650D02*
X13283682Y-15550650D01*
X13283682Y-15550650D02*
X13264634Y-15560174D01*
X13264634Y-15560174D02*
X13255110Y-15569698D01*
X13464634Y-15683984D02*
X13445587Y-15674460D01*
X13445587Y-15674460D02*
X13436063Y-15664936D01*
X13436063Y-15664936D02*
X13426539Y-15645888D01*
X13426539Y-15645888D02*
X13426539Y-15588746D01*
X13426539Y-15588746D02*
X13436063Y-15569698D01*
X13436063Y-15569698D02*
X13445587Y-15560174D01*
X13445587Y-15560174D02*
X13464634Y-15550650D01*
X13464634Y-15550650D02*
X13493206Y-15550650D01*
X13493206Y-15550650D02*
X13512253Y-15560174D01*
X13512253Y-15560174D02*
X13521777Y-15569698D01*
X13521777Y-15569698D02*
X13531301Y-15588746D01*
X13531301Y-15588746D02*
X13531301Y-15645888D01*
X13531301Y-15645888D02*
X13521777Y-15664936D01*
X13521777Y-15664936D02*
X13512253Y-15674460D01*
X13512253Y-15674460D02*
X13493206Y-15683984D01*
X13493206Y-15683984D02*
X13464634Y-15683984D01*
X13645587Y-15683984D02*
X13626539Y-15674460D01*
X13626539Y-15674460D02*
X13617015Y-15655412D01*
X13617015Y-15655412D02*
X13617015Y-15483984D01*
X13797968Y-15674460D02*
X13778920Y-15683984D01*
X13778920Y-15683984D02*
X13740825Y-15683984D01*
X13740825Y-15683984D02*
X13721777Y-15674460D01*
X13721777Y-15674460D02*
X13712253Y-15655412D01*
X13712253Y-15655412D02*
X13712253Y-15579222D01*
X13712253Y-15579222D02*
X13721777Y-15560174D01*
X13721777Y-15560174D02*
X13740825Y-15550650D01*
X13740825Y-15550650D02*
X13778920Y-15550650D01*
X13778920Y-15550650D02*
X13797968Y-15560174D01*
X13797968Y-15560174D02*
X13807491Y-15579222D01*
X13807491Y-15579222D02*
X13807491Y-15598269D01*
X13807491Y-15598269D02*
X13712253Y-15617317D01*
X13883682Y-15674460D02*
X13902730Y-15683984D01*
X13902730Y-15683984D02*
X13940825Y-15683984D01*
X13940825Y-15683984D02*
X13959872Y-15674460D01*
X13959872Y-15674460D02*
X13969396Y-15655412D01*
X13969396Y-15655412D02*
X13969396Y-15645888D01*
X13969396Y-15645888D02*
X13959872Y-15626841D01*
X13959872Y-15626841D02*
X13940825Y-15617317D01*
X13940825Y-15617317D02*
X13912253Y-15617317D01*
X13912253Y-15617317D02*
X13893206Y-15607793D01*
X13893206Y-15607793D02*
X13883682Y-15588746D01*
X13883682Y-15588746D02*
X13883682Y-15579222D01*
X13883682Y-15579222D02*
X13893206Y-15560174D01*
X13893206Y-15560174D02*
X13912253Y-15550650D01*
X13912253Y-15550650D02*
X13940825Y-15550650D01*
X13940825Y-15550650D02*
X13959872Y-15560174D01*
X14036063Y-15760174D02*
X14045587Y-15750650D01*
X14045587Y-15750650D02*
X14064634Y-15722079D01*
X14064634Y-15722079D02*
X14074158Y-15703031D01*
X14074158Y-15703031D02*
X14083682Y-15674460D01*
X14083682Y-15674460D02*
X14093206Y-15626841D01*
X14093206Y-15626841D02*
X14093206Y-15588746D01*
X14093206Y-15588746D02*
X14083682Y-15541127D01*
X14083682Y-15541127D02*
X14074158Y-15512555D01*
X14074158Y-15512555D02*
X14064634Y-15493508D01*
X14064634Y-15493508D02*
X14045587Y-15464936D01*
X14045587Y-15464936D02*
X14036063Y-15455412D01*
D11*
X9249285Y-15884784D02*
X9249285Y-15828215D01*
X9192716Y-15828215D01*
X9192716Y-15884784D01*
X9249285Y-15884784D01*
D10*
X9559872Y-15747984D02*
X9578920Y-15747984D01*
X9578920Y-15747984D02*
X9597967Y-15757508D01*
X9597967Y-15757508D02*
X9607491Y-15767031D01*
X9607491Y-15767031D02*
X9617015Y-15786079D01*
X9617015Y-15786079D02*
X9626539Y-15824174D01*
X9626539Y-15824174D02*
X9626539Y-15871793D01*
X9626539Y-15871793D02*
X9617015Y-15909888D01*
X9617015Y-15909888D02*
X9607491Y-15928936D01*
X9607491Y-15928936D02*
X9597967Y-15938460D01*
X9597967Y-15938460D02*
X9578920Y-15947984D01*
X9578920Y-15947984D02*
X9559872Y-15947984D01*
X9559872Y-15947984D02*
X9540824Y-15938460D01*
X9540824Y-15938460D02*
X9531301Y-15928936D01*
X9531301Y-15928936D02*
X9521777Y-15909888D01*
X9521777Y-15909888D02*
X9512253Y-15871793D01*
X9512253Y-15871793D02*
X9512253Y-15824174D01*
X9512253Y-15824174D02*
X9521777Y-15786079D01*
X9521777Y-15786079D02*
X9531301Y-15767031D01*
X9531301Y-15767031D02*
X9540824Y-15757508D01*
X9540824Y-15757508D02*
X9559872Y-15747984D01*
X9712253Y-15928936D02*
X9721777Y-15938460D01*
X9721777Y-15938460D02*
X9712253Y-15947984D01*
X9712253Y-15947984D02*
X9702729Y-15938460D01*
X9702729Y-15938460D02*
X9712253Y-15928936D01*
X9712253Y-15928936D02*
X9712253Y-15947984D01*
X9836063Y-15833698D02*
X9817015Y-15824174D01*
X9817015Y-15824174D02*
X9807491Y-15814650D01*
X9807491Y-15814650D02*
X9797967Y-15795603D01*
X9797967Y-15795603D02*
X9797967Y-15786079D01*
X9797967Y-15786079D02*
X9807491Y-15767031D01*
X9807491Y-15767031D02*
X9817015Y-15757508D01*
X9817015Y-15757508D02*
X9836063Y-15747984D01*
X9836063Y-15747984D02*
X9874158Y-15747984D01*
X9874158Y-15747984D02*
X9893205Y-15757508D01*
X9893205Y-15757508D02*
X9902729Y-15767031D01*
X9902729Y-15767031D02*
X9912253Y-15786079D01*
X9912253Y-15786079D02*
X9912253Y-15795603D01*
X9912253Y-15795603D02*
X9902729Y-15814650D01*
X9902729Y-15814650D02*
X9893205Y-15824174D01*
X9893205Y-15824174D02*
X9874158Y-15833698D01*
X9874158Y-15833698D02*
X9836063Y-15833698D01*
X9836063Y-15833698D02*
X9817015Y-15843222D01*
X9817015Y-15843222D02*
X9807491Y-15852746D01*
X9807491Y-15852746D02*
X9797967Y-15871793D01*
X9797967Y-15871793D02*
X9797967Y-15909888D01*
X9797967Y-15909888D02*
X9807491Y-15928936D01*
X9807491Y-15928936D02*
X9817015Y-15938460D01*
X9817015Y-15938460D02*
X9836063Y-15947984D01*
X9836063Y-15947984D02*
X9874158Y-15947984D01*
X9874158Y-15947984D02*
X9893205Y-15938460D01*
X9893205Y-15938460D02*
X9902729Y-15928936D01*
X9902729Y-15928936D02*
X9912253Y-15909888D01*
X9912253Y-15909888D02*
X9912253Y-15871793D01*
X9912253Y-15871793D02*
X9902729Y-15852746D01*
X9902729Y-15852746D02*
X9893205Y-15843222D01*
X9893205Y-15843222D02*
X9874158Y-15833698D01*
X10036063Y-15747984D02*
X10055110Y-15747984D01*
X10055110Y-15747984D02*
X10074158Y-15757508D01*
X10074158Y-15757508D02*
X10083682Y-15767031D01*
X10083682Y-15767031D02*
X10093205Y-15786079D01*
X10093205Y-15786079D02*
X10102729Y-15824174D01*
X10102729Y-15824174D02*
X10102729Y-15871793D01*
X10102729Y-15871793D02*
X10093205Y-15909888D01*
X10093205Y-15909888D02*
X10083682Y-15928936D01*
X10083682Y-15928936D02*
X10074158Y-15938460D01*
X10074158Y-15938460D02*
X10055110Y-15947984D01*
X10055110Y-15947984D02*
X10036063Y-15947984D01*
X10036063Y-15947984D02*
X10017015Y-15938460D01*
X10017015Y-15938460D02*
X10007491Y-15928936D01*
X10007491Y-15928936D02*
X9997967Y-15909888D01*
X9997967Y-15909888D02*
X9988444Y-15871793D01*
X9988444Y-15871793D02*
X9988444Y-15824174D01*
X9988444Y-15824174D02*
X9997967Y-15786079D01*
X9997967Y-15786079D02*
X10007491Y-15767031D01*
X10007491Y-15767031D02*
X10017015Y-15757508D01*
X10017015Y-15757508D02*
X10036063Y-15747984D01*
X10226539Y-15747984D02*
X10245586Y-15747984D01*
X10245586Y-15747984D02*
X10264634Y-15757508D01*
X10264634Y-15757508D02*
X10274158Y-15767031D01*
X10274158Y-15767031D02*
X10283682Y-15786079D01*
X10283682Y-15786079D02*
X10293205Y-15824174D01*
X10293205Y-15824174D02*
X10293205Y-15871793D01*
X10293205Y-15871793D02*
X10283682Y-15909888D01*
X10283682Y-15909888D02*
X10274158Y-15928936D01*
X10274158Y-15928936D02*
X10264634Y-15938460D01*
X10264634Y-15938460D02*
X10245586Y-15947984D01*
X10245586Y-15947984D02*
X10226539Y-15947984D01*
X10226539Y-15947984D02*
X10207491Y-15938460D01*
X10207491Y-15938460D02*
X10197967Y-15928936D01*
X10197967Y-15928936D02*
X10188444Y-15909888D01*
X10188444Y-15909888D02*
X10178920Y-15871793D01*
X10178920Y-15871793D02*
X10178920Y-15824174D01*
X10178920Y-15824174D02*
X10188444Y-15786079D01*
X10188444Y-15786079D02*
X10197967Y-15767031D01*
X10197967Y-15767031D02*
X10207491Y-15757508D01*
X10207491Y-15757508D02*
X10226539Y-15747984D01*
X10378920Y-15947984D02*
X10378920Y-15814650D01*
X10378920Y-15833698D02*
X10388444Y-15824174D01*
X10388444Y-15824174D02*
X10407491Y-15814650D01*
X10407491Y-15814650D02*
X10436063Y-15814650D01*
X10436063Y-15814650D02*
X10455110Y-15824174D01*
X10455110Y-15824174D02*
X10464634Y-15843222D01*
X10464634Y-15843222D02*
X10464634Y-15947984D01*
X10464634Y-15843222D02*
X10474158Y-15824174D01*
X10474158Y-15824174D02*
X10493205Y-15814650D01*
X10493205Y-15814650D02*
X10521777Y-15814650D01*
X10521777Y-15814650D02*
X10540825Y-15824174D01*
X10540825Y-15824174D02*
X10550348Y-15843222D01*
X10550348Y-15843222D02*
X10550348Y-15947984D01*
X10645586Y-15947984D02*
X10645586Y-15814650D01*
X10645586Y-15833698D02*
X10655110Y-15824174D01*
X10655110Y-15824174D02*
X10674158Y-15814650D01*
X10674158Y-15814650D02*
X10702729Y-15814650D01*
X10702729Y-15814650D02*
X10721777Y-15824174D01*
X10721777Y-15824174D02*
X10731301Y-15843222D01*
X10731301Y-15843222D02*
X10731301Y-15947984D01*
X10731301Y-15843222D02*
X10740825Y-15824174D01*
X10740825Y-15824174D02*
X10759872Y-15814650D01*
X10759872Y-15814650D02*
X10788444Y-15814650D01*
X10788444Y-15814650D02*
X10807491Y-15824174D01*
X10807491Y-15824174D02*
X10817015Y-15843222D01*
X10817015Y-15843222D02*
X10817015Y-15947984D01*
X11207491Y-15738460D02*
X11036063Y-15995603D01*
X11464634Y-15747984D02*
X11483682Y-15747984D01*
X11483682Y-15747984D02*
X11502729Y-15757508D01*
X11502729Y-15757508D02*
X11512253Y-15767031D01*
X11512253Y-15767031D02*
X11521777Y-15786079D01*
X11521777Y-15786079D02*
X11531301Y-15824174D01*
X11531301Y-15824174D02*
X11531301Y-15871793D01*
X11531301Y-15871793D02*
X11521777Y-15909888D01*
X11521777Y-15909888D02*
X11512253Y-15928936D01*
X11512253Y-15928936D02*
X11502729Y-15938460D01*
X11502729Y-15938460D02*
X11483682Y-15947984D01*
X11483682Y-15947984D02*
X11464634Y-15947984D01*
X11464634Y-15947984D02*
X11445586Y-15938460D01*
X11445586Y-15938460D02*
X11436063Y-15928936D01*
X11436063Y-15928936D02*
X11426539Y-15909888D01*
X11426539Y-15909888D02*
X11417015Y-15871793D01*
X11417015Y-15871793D02*
X11417015Y-15824174D01*
X11417015Y-15824174D02*
X11426539Y-15786079D01*
X11426539Y-15786079D02*
X11436063Y-15767031D01*
X11436063Y-15767031D02*
X11445586Y-15757508D01*
X11445586Y-15757508D02*
X11464634Y-15747984D01*
X11617015Y-15928936D02*
X11626539Y-15938460D01*
X11626539Y-15938460D02*
X11617015Y-15947984D01*
X11617015Y-15947984D02*
X11607491Y-15938460D01*
X11607491Y-15938460D02*
X11617015Y-15928936D01*
X11617015Y-15928936D02*
X11617015Y-15947984D01*
X11750348Y-15747984D02*
X11769396Y-15747984D01*
X11769396Y-15747984D02*
X11788444Y-15757508D01*
X11788444Y-15757508D02*
X11797967Y-15767031D01*
X11797967Y-15767031D02*
X11807491Y-15786079D01*
X11807491Y-15786079D02*
X11817015Y-15824174D01*
X11817015Y-15824174D02*
X11817015Y-15871793D01*
X11817015Y-15871793D02*
X11807491Y-15909888D01*
X11807491Y-15909888D02*
X11797967Y-15928936D01*
X11797967Y-15928936D02*
X11788444Y-15938460D01*
X11788444Y-15938460D02*
X11769396Y-15947984D01*
X11769396Y-15947984D02*
X11750348Y-15947984D01*
X11750348Y-15947984D02*
X11731301Y-15938460D01*
X11731301Y-15938460D02*
X11721777Y-15928936D01*
X11721777Y-15928936D02*
X11712253Y-15909888D01*
X11712253Y-15909888D02*
X11702729Y-15871793D01*
X11702729Y-15871793D02*
X11702729Y-15824174D01*
X11702729Y-15824174D02*
X11712253Y-15786079D01*
X11712253Y-15786079D02*
X11721777Y-15767031D01*
X11721777Y-15767031D02*
X11731301Y-15757508D01*
X11731301Y-15757508D02*
X11750348Y-15747984D01*
X11883682Y-15747984D02*
X12007491Y-15747984D01*
X12007491Y-15747984D02*
X11940825Y-15824174D01*
X11940825Y-15824174D02*
X11969396Y-15824174D01*
X11969396Y-15824174D02*
X11988444Y-15833698D01*
X11988444Y-15833698D02*
X11997967Y-15843222D01*
X11997967Y-15843222D02*
X12007491Y-15862269D01*
X12007491Y-15862269D02*
X12007491Y-15909888D01*
X12007491Y-15909888D02*
X11997967Y-15928936D01*
X11997967Y-15928936D02*
X11988444Y-15938460D01*
X11988444Y-15938460D02*
X11969396Y-15947984D01*
X11969396Y-15947984D02*
X11912253Y-15947984D01*
X11912253Y-15947984D02*
X11893206Y-15938460D01*
X11893206Y-15938460D02*
X11883682Y-15928936D01*
X12197967Y-15947984D02*
X12083682Y-15947984D01*
X12140825Y-15947984D02*
X12140825Y-15747984D01*
X12140825Y-15747984D02*
X12121777Y-15776555D01*
X12121777Y-15776555D02*
X12102729Y-15795603D01*
X12102729Y-15795603D02*
X12083682Y-15805127D01*
X12378920Y-15747984D02*
X12283682Y-15747984D01*
X12283682Y-15747984D02*
X12274158Y-15843222D01*
X12274158Y-15843222D02*
X12283682Y-15833698D01*
X12283682Y-15833698D02*
X12302729Y-15824174D01*
X12302729Y-15824174D02*
X12350348Y-15824174D01*
X12350348Y-15824174D02*
X12369396Y-15833698D01*
X12369396Y-15833698D02*
X12378920Y-15843222D01*
X12378920Y-15843222D02*
X12388444Y-15862269D01*
X12388444Y-15862269D02*
X12388444Y-15909888D01*
X12388444Y-15909888D02*
X12378920Y-15928936D01*
X12378920Y-15928936D02*
X12369396Y-15938460D01*
X12369396Y-15938460D02*
X12350348Y-15947984D01*
X12350348Y-15947984D02*
X12302729Y-15947984D01*
X12302729Y-15947984D02*
X12283682Y-15938460D01*
X12283682Y-15938460D02*
X12274158Y-15928936D01*
X12464634Y-15747984D02*
X12464634Y-15786079D01*
X12540825Y-15747984D02*
X12540825Y-15786079D01*
X12836063Y-16024174D02*
X12826539Y-16014650D01*
X12826539Y-16014650D02*
X12807491Y-15986079D01*
X12807491Y-15986079D02*
X12797968Y-15967031D01*
X12797968Y-15967031D02*
X12788444Y-15938460D01*
X12788444Y-15938460D02*
X12778920Y-15890841D01*
X12778920Y-15890841D02*
X12778920Y-15852746D01*
X12778920Y-15852746D02*
X12788444Y-15805127D01*
X12788444Y-15805127D02*
X12797968Y-15776555D01*
X12797968Y-15776555D02*
X12807491Y-15757508D01*
X12807491Y-15757508D02*
X12826539Y-15728936D01*
X12826539Y-15728936D02*
X12836063Y-15719412D01*
X13017015Y-15947984D02*
X12902729Y-15947984D01*
X12959872Y-15947984D02*
X12959872Y-15747984D01*
X12959872Y-15747984D02*
X12940825Y-15776555D01*
X12940825Y-15776555D02*
X12921777Y-15795603D01*
X12921777Y-15795603D02*
X12902729Y-15805127D01*
X13140825Y-15747984D02*
X13159872Y-15747984D01*
X13159872Y-15747984D02*
X13178920Y-15757508D01*
X13178920Y-15757508D02*
X13188444Y-15767031D01*
X13188444Y-15767031D02*
X13197968Y-15786079D01*
X13197968Y-15786079D02*
X13207491Y-15824174D01*
X13207491Y-15824174D02*
X13207491Y-15871793D01*
X13207491Y-15871793D02*
X13197968Y-15909888D01*
X13197968Y-15909888D02*
X13188444Y-15928936D01*
X13188444Y-15928936D02*
X13178920Y-15938460D01*
X13178920Y-15938460D02*
X13159872Y-15947984D01*
X13159872Y-15947984D02*
X13140825Y-15947984D01*
X13140825Y-15947984D02*
X13121777Y-15938460D01*
X13121777Y-15938460D02*
X13112253Y-15928936D01*
X13112253Y-15928936D02*
X13102729Y-15909888D01*
X13102729Y-15909888D02*
X13093206Y-15871793D01*
X13093206Y-15871793D02*
X13093206Y-15824174D01*
X13093206Y-15824174D02*
X13102729Y-15786079D01*
X13102729Y-15786079D02*
X13112253Y-15767031D01*
X13112253Y-15767031D02*
X13121777Y-15757508D01*
X13121777Y-15757508D02*
X13140825Y-15747984D01*
X13445587Y-15947984D02*
X13445587Y-15747984D01*
X13531301Y-15947984D02*
X13531301Y-15843222D01*
X13531301Y-15843222D02*
X13521777Y-15824174D01*
X13521777Y-15824174D02*
X13502730Y-15814650D01*
X13502730Y-15814650D02*
X13474158Y-15814650D01*
X13474158Y-15814650D02*
X13455110Y-15824174D01*
X13455110Y-15824174D02*
X13445587Y-15833698D01*
X13655110Y-15947984D02*
X13636063Y-15938460D01*
X13636063Y-15938460D02*
X13626539Y-15928936D01*
X13626539Y-15928936D02*
X13617015Y-15909888D01*
X13617015Y-15909888D02*
X13617015Y-15852746D01*
X13617015Y-15852746D02*
X13626539Y-15833698D01*
X13626539Y-15833698D02*
X13636063Y-15824174D01*
X13636063Y-15824174D02*
X13655110Y-15814650D01*
X13655110Y-15814650D02*
X13683682Y-15814650D01*
X13683682Y-15814650D02*
X13702730Y-15824174D01*
X13702730Y-15824174D02*
X13712253Y-15833698D01*
X13712253Y-15833698D02*
X13721777Y-15852746D01*
X13721777Y-15852746D02*
X13721777Y-15909888D01*
X13721777Y-15909888D02*
X13712253Y-15928936D01*
X13712253Y-15928936D02*
X13702730Y-15938460D01*
X13702730Y-15938460D02*
X13683682Y-15947984D01*
X13683682Y-15947984D02*
X13655110Y-15947984D01*
X13836063Y-15947984D02*
X13817015Y-15938460D01*
X13817015Y-15938460D02*
X13807491Y-15919412D01*
X13807491Y-15919412D02*
X13807491Y-15747984D01*
X13988444Y-15938460D02*
X13969396Y-15947984D01*
X13969396Y-15947984D02*
X13931301Y-15947984D01*
X13931301Y-15947984D02*
X13912253Y-15938460D01*
X13912253Y-15938460D02*
X13902730Y-15919412D01*
X13902730Y-15919412D02*
X13902730Y-15843222D01*
X13902730Y-15843222D02*
X13912253Y-15824174D01*
X13912253Y-15824174D02*
X13931301Y-15814650D01*
X13931301Y-15814650D02*
X13969396Y-15814650D01*
X13969396Y-15814650D02*
X13988444Y-15824174D01*
X13988444Y-15824174D02*
X13997968Y-15843222D01*
X13997968Y-15843222D02*
X13997968Y-15862269D01*
X13997968Y-15862269D02*
X13902730Y-15881317D01*
X14074158Y-15938460D02*
X14093206Y-15947984D01*
X14093206Y-15947984D02*
X14131301Y-15947984D01*
X14131301Y-15947984D02*
X14150349Y-15938460D01*
X14150349Y-15938460D02*
X14159872Y-15919412D01*
X14159872Y-15919412D02*
X14159872Y-15909888D01*
X14159872Y-15909888D02*
X14150349Y-15890841D01*
X14150349Y-15890841D02*
X14131301Y-15881317D01*
X14131301Y-15881317D02*
X14102730Y-15881317D01*
X14102730Y-15881317D02*
X14083682Y-15871793D01*
X14083682Y-15871793D02*
X14074158Y-15852746D01*
X14074158Y-15852746D02*
X14074158Y-15843222D01*
X14074158Y-15843222D02*
X14083682Y-15824174D01*
X14083682Y-15824174D02*
X14102730Y-15814650D01*
X14102730Y-15814650D02*
X14131301Y-15814650D01*
X14131301Y-15814650D02*
X14150349Y-15824174D01*
X14226539Y-16024174D02*
X14236063Y-16014650D01*
X14236063Y-16014650D02*
X14255111Y-15986079D01*
X14255111Y-15986079D02*
X14264634Y-15967031D01*
X14264634Y-15967031D02*
X14274158Y-15938460D01*
X14274158Y-15938460D02*
X14283682Y-15890841D01*
X14283682Y-15890841D02*
X14283682Y-15852746D01*
X14283682Y-15852746D02*
X14274158Y-15805127D01*
X14274158Y-15805127D02*
X14264634Y-15776555D01*
X14264634Y-15776555D02*
X14255111Y-15757508D01*
X14255111Y-15757508D02*
X14236063Y-15728936D01*
X14236063Y-15728936D02*
X14226539Y-15719412D01*
D11*
X9218500Y-16163000D02*
X9261000Y-16120500D01*
X9218500Y-16078000D01*
X9176000Y-16120500D01*
X9218500Y-16163000D01*
D10*
X9559872Y-16011984D02*
X9578920Y-16011984D01*
X9578920Y-16011984D02*
X9597967Y-16021508D01*
X9597967Y-16021508D02*
X9607491Y-16031031D01*
X9607491Y-16031031D02*
X9617015Y-16050079D01*
X9617015Y-16050079D02*
X9626539Y-16088174D01*
X9626539Y-16088174D02*
X9626539Y-16135793D01*
X9626539Y-16135793D02*
X9617015Y-16173888D01*
X9617015Y-16173888D02*
X9607491Y-16192936D01*
X9607491Y-16192936D02*
X9597967Y-16202460D01*
X9597967Y-16202460D02*
X9578920Y-16211984D01*
X9578920Y-16211984D02*
X9559872Y-16211984D01*
X9559872Y-16211984D02*
X9540824Y-16202460D01*
X9540824Y-16202460D02*
X9531301Y-16192936D01*
X9531301Y-16192936D02*
X9521777Y-16173888D01*
X9521777Y-16173888D02*
X9512253Y-16135793D01*
X9512253Y-16135793D02*
X9512253Y-16088174D01*
X9512253Y-16088174D02*
X9521777Y-16050079D01*
X9521777Y-16050079D02*
X9531301Y-16031031D01*
X9531301Y-16031031D02*
X9540824Y-16021508D01*
X9540824Y-16021508D02*
X9559872Y-16011984D01*
X9712253Y-16192936D02*
X9721777Y-16202460D01*
X9721777Y-16202460D02*
X9712253Y-16211984D01*
X9712253Y-16211984D02*
X9702729Y-16202460D01*
X9702729Y-16202460D02*
X9712253Y-16192936D01*
X9712253Y-16192936D02*
X9712253Y-16211984D01*
X9836063Y-16097698D02*
X9817015Y-16088174D01*
X9817015Y-16088174D02*
X9807491Y-16078650D01*
X9807491Y-16078650D02*
X9797967Y-16059603D01*
X9797967Y-16059603D02*
X9797967Y-16050079D01*
X9797967Y-16050079D02*
X9807491Y-16031031D01*
X9807491Y-16031031D02*
X9817015Y-16021508D01*
X9817015Y-16021508D02*
X9836063Y-16011984D01*
X9836063Y-16011984D02*
X9874158Y-16011984D01*
X9874158Y-16011984D02*
X9893205Y-16021508D01*
X9893205Y-16021508D02*
X9902729Y-16031031D01*
X9902729Y-16031031D02*
X9912253Y-16050079D01*
X9912253Y-16050079D02*
X9912253Y-16059603D01*
X9912253Y-16059603D02*
X9902729Y-16078650D01*
X9902729Y-16078650D02*
X9893205Y-16088174D01*
X9893205Y-16088174D02*
X9874158Y-16097698D01*
X9874158Y-16097698D02*
X9836063Y-16097698D01*
X9836063Y-16097698D02*
X9817015Y-16107222D01*
X9817015Y-16107222D02*
X9807491Y-16116746D01*
X9807491Y-16116746D02*
X9797967Y-16135793D01*
X9797967Y-16135793D02*
X9797967Y-16173888D01*
X9797967Y-16173888D02*
X9807491Y-16192936D01*
X9807491Y-16192936D02*
X9817015Y-16202460D01*
X9817015Y-16202460D02*
X9836063Y-16211984D01*
X9836063Y-16211984D02*
X9874158Y-16211984D01*
X9874158Y-16211984D02*
X9893205Y-16202460D01*
X9893205Y-16202460D02*
X9902729Y-16192936D01*
X9902729Y-16192936D02*
X9912253Y-16173888D01*
X9912253Y-16173888D02*
X9912253Y-16135793D01*
X9912253Y-16135793D02*
X9902729Y-16116746D01*
X9902729Y-16116746D02*
X9893205Y-16107222D01*
X9893205Y-16107222D02*
X9874158Y-16097698D01*
X10093205Y-16011984D02*
X9997967Y-16011984D01*
X9997967Y-16011984D02*
X9988444Y-16107222D01*
X9988444Y-16107222D02*
X9997967Y-16097698D01*
X9997967Y-16097698D02*
X10017015Y-16088174D01*
X10017015Y-16088174D02*
X10064634Y-16088174D01*
X10064634Y-16088174D02*
X10083682Y-16097698D01*
X10083682Y-16097698D02*
X10093205Y-16107222D01*
X10093205Y-16107222D02*
X10102729Y-16126269D01*
X10102729Y-16126269D02*
X10102729Y-16173888D01*
X10102729Y-16173888D02*
X10093205Y-16192936D01*
X10093205Y-16192936D02*
X10083682Y-16202460D01*
X10083682Y-16202460D02*
X10064634Y-16211984D01*
X10064634Y-16211984D02*
X10017015Y-16211984D01*
X10017015Y-16211984D02*
X9997967Y-16202460D01*
X9997967Y-16202460D02*
X9988444Y-16192936D01*
X10226539Y-16011984D02*
X10245586Y-16011984D01*
X10245586Y-16011984D02*
X10264634Y-16021508D01*
X10264634Y-16021508D02*
X10274158Y-16031031D01*
X10274158Y-16031031D02*
X10283682Y-16050079D01*
X10283682Y-16050079D02*
X10293205Y-16088174D01*
X10293205Y-16088174D02*
X10293205Y-16135793D01*
X10293205Y-16135793D02*
X10283682Y-16173888D01*
X10283682Y-16173888D02*
X10274158Y-16192936D01*
X10274158Y-16192936D02*
X10264634Y-16202460D01*
X10264634Y-16202460D02*
X10245586Y-16211984D01*
X10245586Y-16211984D02*
X10226539Y-16211984D01*
X10226539Y-16211984D02*
X10207491Y-16202460D01*
X10207491Y-16202460D02*
X10197967Y-16192936D01*
X10197967Y-16192936D02*
X10188444Y-16173888D01*
X10188444Y-16173888D02*
X10178920Y-16135793D01*
X10178920Y-16135793D02*
X10178920Y-16088174D01*
X10178920Y-16088174D02*
X10188444Y-16050079D01*
X10188444Y-16050079D02*
X10197967Y-16031031D01*
X10197967Y-16031031D02*
X10207491Y-16021508D01*
X10207491Y-16021508D02*
X10226539Y-16011984D01*
X10378920Y-16211984D02*
X10378920Y-16078650D01*
X10378920Y-16097698D02*
X10388444Y-16088174D01*
X10388444Y-16088174D02*
X10407491Y-16078650D01*
X10407491Y-16078650D02*
X10436063Y-16078650D01*
X10436063Y-16078650D02*
X10455110Y-16088174D01*
X10455110Y-16088174D02*
X10464634Y-16107222D01*
X10464634Y-16107222D02*
X10464634Y-16211984D01*
X10464634Y-16107222D02*
X10474158Y-16088174D01*
X10474158Y-16088174D02*
X10493205Y-16078650D01*
X10493205Y-16078650D02*
X10521777Y-16078650D01*
X10521777Y-16078650D02*
X10540825Y-16088174D01*
X10540825Y-16088174D02*
X10550348Y-16107222D01*
X10550348Y-16107222D02*
X10550348Y-16211984D01*
X10645586Y-16211984D02*
X10645586Y-16078650D01*
X10645586Y-16097698D02*
X10655110Y-16088174D01*
X10655110Y-16088174D02*
X10674158Y-16078650D01*
X10674158Y-16078650D02*
X10702729Y-16078650D01*
X10702729Y-16078650D02*
X10721777Y-16088174D01*
X10721777Y-16088174D02*
X10731301Y-16107222D01*
X10731301Y-16107222D02*
X10731301Y-16211984D01*
X10731301Y-16107222D02*
X10740825Y-16088174D01*
X10740825Y-16088174D02*
X10759872Y-16078650D01*
X10759872Y-16078650D02*
X10788444Y-16078650D01*
X10788444Y-16078650D02*
X10807491Y-16088174D01*
X10807491Y-16088174D02*
X10817015Y-16107222D01*
X10817015Y-16107222D02*
X10817015Y-16211984D01*
X11207491Y-16002460D02*
X11036063Y-16259603D01*
X11464634Y-16011984D02*
X11483682Y-16011984D01*
X11483682Y-16011984D02*
X11502729Y-16021508D01*
X11502729Y-16021508D02*
X11512253Y-16031031D01*
X11512253Y-16031031D02*
X11521777Y-16050079D01*
X11521777Y-16050079D02*
X11531301Y-16088174D01*
X11531301Y-16088174D02*
X11531301Y-16135793D01*
X11531301Y-16135793D02*
X11521777Y-16173888D01*
X11521777Y-16173888D02*
X11512253Y-16192936D01*
X11512253Y-16192936D02*
X11502729Y-16202460D01*
X11502729Y-16202460D02*
X11483682Y-16211984D01*
X11483682Y-16211984D02*
X11464634Y-16211984D01*
X11464634Y-16211984D02*
X11445586Y-16202460D01*
X11445586Y-16202460D02*
X11436063Y-16192936D01*
X11436063Y-16192936D02*
X11426539Y-16173888D01*
X11426539Y-16173888D02*
X11417015Y-16135793D01*
X11417015Y-16135793D02*
X11417015Y-16088174D01*
X11417015Y-16088174D02*
X11426539Y-16050079D01*
X11426539Y-16050079D02*
X11436063Y-16031031D01*
X11436063Y-16031031D02*
X11445586Y-16021508D01*
X11445586Y-16021508D02*
X11464634Y-16011984D01*
X11617015Y-16192936D02*
X11626539Y-16202460D01*
X11626539Y-16202460D02*
X11617015Y-16211984D01*
X11617015Y-16211984D02*
X11607491Y-16202460D01*
X11607491Y-16202460D02*
X11617015Y-16192936D01*
X11617015Y-16192936D02*
X11617015Y-16211984D01*
X11750348Y-16011984D02*
X11769396Y-16011984D01*
X11769396Y-16011984D02*
X11788444Y-16021508D01*
X11788444Y-16021508D02*
X11797967Y-16031031D01*
X11797967Y-16031031D02*
X11807491Y-16050079D01*
X11807491Y-16050079D02*
X11817015Y-16088174D01*
X11817015Y-16088174D02*
X11817015Y-16135793D01*
X11817015Y-16135793D02*
X11807491Y-16173888D01*
X11807491Y-16173888D02*
X11797967Y-16192936D01*
X11797967Y-16192936D02*
X11788444Y-16202460D01*
X11788444Y-16202460D02*
X11769396Y-16211984D01*
X11769396Y-16211984D02*
X11750348Y-16211984D01*
X11750348Y-16211984D02*
X11731301Y-16202460D01*
X11731301Y-16202460D02*
X11721777Y-16192936D01*
X11721777Y-16192936D02*
X11712253Y-16173888D01*
X11712253Y-16173888D02*
X11702729Y-16135793D01*
X11702729Y-16135793D02*
X11702729Y-16088174D01*
X11702729Y-16088174D02*
X11712253Y-16050079D01*
X11712253Y-16050079D02*
X11721777Y-16031031D01*
X11721777Y-16031031D02*
X11731301Y-16021508D01*
X11731301Y-16021508D02*
X11750348Y-16011984D01*
X11883682Y-16011984D02*
X12007491Y-16011984D01*
X12007491Y-16011984D02*
X11940825Y-16088174D01*
X11940825Y-16088174D02*
X11969396Y-16088174D01*
X11969396Y-16088174D02*
X11988444Y-16097698D01*
X11988444Y-16097698D02*
X11997967Y-16107222D01*
X11997967Y-16107222D02*
X12007491Y-16126269D01*
X12007491Y-16126269D02*
X12007491Y-16173888D01*
X12007491Y-16173888D02*
X11997967Y-16192936D01*
X11997967Y-16192936D02*
X11988444Y-16202460D01*
X11988444Y-16202460D02*
X11969396Y-16211984D01*
X11969396Y-16211984D02*
X11912253Y-16211984D01*
X11912253Y-16211984D02*
X11893206Y-16202460D01*
X11893206Y-16202460D02*
X11883682Y-16192936D01*
X12074158Y-16011984D02*
X12197967Y-16011984D01*
X12197967Y-16011984D02*
X12131301Y-16088174D01*
X12131301Y-16088174D02*
X12159872Y-16088174D01*
X12159872Y-16088174D02*
X12178920Y-16097698D01*
X12178920Y-16097698D02*
X12188444Y-16107222D01*
X12188444Y-16107222D02*
X12197967Y-16126269D01*
X12197967Y-16126269D02*
X12197967Y-16173888D01*
X12197967Y-16173888D02*
X12188444Y-16192936D01*
X12188444Y-16192936D02*
X12178920Y-16202460D01*
X12178920Y-16202460D02*
X12159872Y-16211984D01*
X12159872Y-16211984D02*
X12102729Y-16211984D01*
X12102729Y-16211984D02*
X12083682Y-16202460D01*
X12083682Y-16202460D02*
X12074158Y-16192936D01*
X12378920Y-16011984D02*
X12283682Y-16011984D01*
X12283682Y-16011984D02*
X12274158Y-16107222D01*
X12274158Y-16107222D02*
X12283682Y-16097698D01*
X12283682Y-16097698D02*
X12302729Y-16088174D01*
X12302729Y-16088174D02*
X12350348Y-16088174D01*
X12350348Y-16088174D02*
X12369396Y-16097698D01*
X12369396Y-16097698D02*
X12378920Y-16107222D01*
X12378920Y-16107222D02*
X12388444Y-16126269D01*
X12388444Y-16126269D02*
X12388444Y-16173888D01*
X12388444Y-16173888D02*
X12378920Y-16192936D01*
X12378920Y-16192936D02*
X12369396Y-16202460D01*
X12369396Y-16202460D02*
X12350348Y-16211984D01*
X12350348Y-16211984D02*
X12302729Y-16211984D01*
X12302729Y-16211984D02*
X12283682Y-16202460D01*
X12283682Y-16202460D02*
X12274158Y-16192936D01*
X12464634Y-16011984D02*
X12464634Y-16050079D01*
X12540825Y-16011984D02*
X12540825Y-16050079D01*
X12836063Y-16288174D02*
X12826539Y-16278650D01*
X12826539Y-16278650D02*
X12807491Y-16250079D01*
X12807491Y-16250079D02*
X12797968Y-16231031D01*
X12797968Y-16231031D02*
X12788444Y-16202460D01*
X12788444Y-16202460D02*
X12778920Y-16154841D01*
X12778920Y-16154841D02*
X12778920Y-16116746D01*
X12778920Y-16116746D02*
X12788444Y-16069127D01*
X12788444Y-16069127D02*
X12797968Y-16040555D01*
X12797968Y-16040555D02*
X12807491Y-16021508D01*
X12807491Y-16021508D02*
X12826539Y-15992936D01*
X12826539Y-15992936D02*
X12836063Y-15983412D01*
X12902729Y-16031031D02*
X12912253Y-16021508D01*
X12912253Y-16021508D02*
X12931301Y-16011984D01*
X12931301Y-16011984D02*
X12978920Y-16011984D01*
X12978920Y-16011984D02*
X12997968Y-16021508D01*
X12997968Y-16021508D02*
X13007491Y-16031031D01*
X13007491Y-16031031D02*
X13017015Y-16050079D01*
X13017015Y-16050079D02*
X13017015Y-16069127D01*
X13017015Y-16069127D02*
X13007491Y-16097698D01*
X13007491Y-16097698D02*
X12893206Y-16211984D01*
X12893206Y-16211984D02*
X13017015Y-16211984D01*
X13197968Y-16011984D02*
X13102729Y-16011984D01*
X13102729Y-16011984D02*
X13093206Y-16107222D01*
X13093206Y-16107222D02*
X13102729Y-16097698D01*
X13102729Y-16097698D02*
X13121777Y-16088174D01*
X13121777Y-16088174D02*
X13169396Y-16088174D01*
X13169396Y-16088174D02*
X13188444Y-16097698D01*
X13188444Y-16097698D02*
X13197968Y-16107222D01*
X13197968Y-16107222D02*
X13207491Y-16126269D01*
X13207491Y-16126269D02*
X13207491Y-16173888D01*
X13207491Y-16173888D02*
X13197968Y-16192936D01*
X13197968Y-16192936D02*
X13188444Y-16202460D01*
X13188444Y-16202460D02*
X13169396Y-16211984D01*
X13169396Y-16211984D02*
X13121777Y-16211984D01*
X13121777Y-16211984D02*
X13102729Y-16202460D01*
X13102729Y-16202460D02*
X13093206Y-16192936D01*
X13445587Y-16211984D02*
X13445587Y-16011984D01*
X13531301Y-16211984D02*
X13531301Y-16107222D01*
X13531301Y-16107222D02*
X13521777Y-16088174D01*
X13521777Y-16088174D02*
X13502730Y-16078650D01*
X13502730Y-16078650D02*
X13474158Y-16078650D01*
X13474158Y-16078650D02*
X13455110Y-16088174D01*
X13455110Y-16088174D02*
X13445587Y-16097698D01*
X13655110Y-16211984D02*
X13636063Y-16202460D01*
X13636063Y-16202460D02*
X13626539Y-16192936D01*
X13626539Y-16192936D02*
X13617015Y-16173888D01*
X13617015Y-16173888D02*
X13617015Y-16116746D01*
X13617015Y-16116746D02*
X13626539Y-16097698D01*
X13626539Y-16097698D02*
X13636063Y-16088174D01*
X13636063Y-16088174D02*
X13655110Y-16078650D01*
X13655110Y-16078650D02*
X13683682Y-16078650D01*
X13683682Y-16078650D02*
X13702730Y-16088174D01*
X13702730Y-16088174D02*
X13712253Y-16097698D01*
X13712253Y-16097698D02*
X13721777Y-16116746D01*
X13721777Y-16116746D02*
X13721777Y-16173888D01*
X13721777Y-16173888D02*
X13712253Y-16192936D01*
X13712253Y-16192936D02*
X13702730Y-16202460D01*
X13702730Y-16202460D02*
X13683682Y-16211984D01*
X13683682Y-16211984D02*
X13655110Y-16211984D01*
X13836063Y-16211984D02*
X13817015Y-16202460D01*
X13817015Y-16202460D02*
X13807491Y-16183412D01*
X13807491Y-16183412D02*
X13807491Y-16011984D01*
X13988444Y-16202460D02*
X13969396Y-16211984D01*
X13969396Y-16211984D02*
X13931301Y-16211984D01*
X13931301Y-16211984D02*
X13912253Y-16202460D01*
X13912253Y-16202460D02*
X13902730Y-16183412D01*
X13902730Y-16183412D02*
X13902730Y-16107222D01*
X13902730Y-16107222D02*
X13912253Y-16088174D01*
X13912253Y-16088174D02*
X13931301Y-16078650D01*
X13931301Y-16078650D02*
X13969396Y-16078650D01*
X13969396Y-16078650D02*
X13988444Y-16088174D01*
X13988444Y-16088174D02*
X13997968Y-16107222D01*
X13997968Y-16107222D02*
X13997968Y-16126269D01*
X13997968Y-16126269D02*
X13902730Y-16145317D01*
X14074158Y-16202460D02*
X14093206Y-16211984D01*
X14093206Y-16211984D02*
X14131301Y-16211984D01*
X14131301Y-16211984D02*
X14150349Y-16202460D01*
X14150349Y-16202460D02*
X14159872Y-16183412D01*
X14159872Y-16183412D02*
X14159872Y-16173888D01*
X14159872Y-16173888D02*
X14150349Y-16154841D01*
X14150349Y-16154841D02*
X14131301Y-16145317D01*
X14131301Y-16145317D02*
X14102730Y-16145317D01*
X14102730Y-16145317D02*
X14083682Y-16135793D01*
X14083682Y-16135793D02*
X14074158Y-16116746D01*
X14074158Y-16116746D02*
X14074158Y-16107222D01*
X14074158Y-16107222D02*
X14083682Y-16088174D01*
X14083682Y-16088174D02*
X14102730Y-16078650D01*
X14102730Y-16078650D02*
X14131301Y-16078650D01*
X14131301Y-16078650D02*
X14150349Y-16088174D01*
X14226539Y-16288174D02*
X14236063Y-16278650D01*
X14236063Y-16278650D02*
X14255111Y-16250079D01*
X14255111Y-16250079D02*
X14264634Y-16231031D01*
X14264634Y-16231031D02*
X14274158Y-16202460D01*
X14274158Y-16202460D02*
X14283682Y-16154841D01*
X14283682Y-16154841D02*
X14283682Y-16116746D01*
X14283682Y-16116746D02*
X14274158Y-16069127D01*
X14274158Y-16069127D02*
X14264634Y-16040555D01*
X14264634Y-16040555D02*
X14255111Y-16021508D01*
X14255111Y-16021508D02*
X14236063Y-15992936D01*
X14236063Y-15992936D02*
X14226539Y-15983412D01*
D11*
X9171000Y-16339500D02*
X9261000Y-16429500D01*
X9261000Y-16339500D02*
X9171000Y-16429500D01*
X9261000Y-16384500D02*
G75*
G02*
X9171000Y-16384500I-45000J0D01*
G01*
X9171000Y-16384500D02*
G75*
G02*
X9261000Y-16384500I45000J0D01*
G01*
D10*
X9559872Y-16275984D02*
X9578920Y-16275984D01*
X9578920Y-16275984D02*
X9597967Y-16285508D01*
X9597967Y-16285508D02*
X9607491Y-16295031D01*
X9607491Y-16295031D02*
X9617015Y-16314079D01*
X9617015Y-16314079D02*
X9626539Y-16352174D01*
X9626539Y-16352174D02*
X9626539Y-16399793D01*
X9626539Y-16399793D02*
X9617015Y-16437888D01*
X9617015Y-16437888D02*
X9607491Y-16456936D01*
X9607491Y-16456936D02*
X9597967Y-16466460D01*
X9597967Y-16466460D02*
X9578920Y-16475984D01*
X9578920Y-16475984D02*
X9559872Y-16475984D01*
X9559872Y-16475984D02*
X9540824Y-16466460D01*
X9540824Y-16466460D02*
X9531301Y-16456936D01*
X9531301Y-16456936D02*
X9521777Y-16437888D01*
X9521777Y-16437888D02*
X9512253Y-16399793D01*
X9512253Y-16399793D02*
X9512253Y-16352174D01*
X9512253Y-16352174D02*
X9521777Y-16314079D01*
X9521777Y-16314079D02*
X9531301Y-16295031D01*
X9531301Y-16295031D02*
X9540824Y-16285508D01*
X9540824Y-16285508D02*
X9559872Y-16275984D01*
X9712253Y-16456936D02*
X9721777Y-16466460D01*
X9721777Y-16466460D02*
X9712253Y-16475984D01*
X9712253Y-16475984D02*
X9702729Y-16466460D01*
X9702729Y-16466460D02*
X9712253Y-16456936D01*
X9712253Y-16456936D02*
X9712253Y-16475984D01*
X9817015Y-16475984D02*
X9855110Y-16475984D01*
X9855110Y-16475984D02*
X9874158Y-16466460D01*
X9874158Y-16466460D02*
X9883682Y-16456936D01*
X9883682Y-16456936D02*
X9902729Y-16428365D01*
X9902729Y-16428365D02*
X9912253Y-16390269D01*
X9912253Y-16390269D02*
X9912253Y-16314079D01*
X9912253Y-16314079D02*
X9902729Y-16295031D01*
X9902729Y-16295031D02*
X9893205Y-16285508D01*
X9893205Y-16285508D02*
X9874158Y-16275984D01*
X9874158Y-16275984D02*
X9836063Y-16275984D01*
X9836063Y-16275984D02*
X9817015Y-16285508D01*
X9817015Y-16285508D02*
X9807491Y-16295031D01*
X9807491Y-16295031D02*
X9797967Y-16314079D01*
X9797967Y-16314079D02*
X9797967Y-16361698D01*
X9797967Y-16361698D02*
X9807491Y-16380746D01*
X9807491Y-16380746D02*
X9817015Y-16390269D01*
X9817015Y-16390269D02*
X9836063Y-16399793D01*
X9836063Y-16399793D02*
X9874158Y-16399793D01*
X9874158Y-16399793D02*
X9893205Y-16390269D01*
X9893205Y-16390269D02*
X9902729Y-16380746D01*
X9902729Y-16380746D02*
X9912253Y-16361698D01*
X10036063Y-16275984D02*
X10055110Y-16275984D01*
X10055110Y-16275984D02*
X10074158Y-16285508D01*
X10074158Y-16285508D02*
X10083682Y-16295031D01*
X10083682Y-16295031D02*
X10093205Y-16314079D01*
X10093205Y-16314079D02*
X10102729Y-16352174D01*
X10102729Y-16352174D02*
X10102729Y-16399793D01*
X10102729Y-16399793D02*
X10093205Y-16437888D01*
X10093205Y-16437888D02*
X10083682Y-16456936D01*
X10083682Y-16456936D02*
X10074158Y-16466460D01*
X10074158Y-16466460D02*
X10055110Y-16475984D01*
X10055110Y-16475984D02*
X10036063Y-16475984D01*
X10036063Y-16475984D02*
X10017015Y-16466460D01*
X10017015Y-16466460D02*
X10007491Y-16456936D01*
X10007491Y-16456936D02*
X9997967Y-16437888D01*
X9997967Y-16437888D02*
X9988444Y-16399793D01*
X9988444Y-16399793D02*
X9988444Y-16352174D01*
X9988444Y-16352174D02*
X9997967Y-16314079D01*
X9997967Y-16314079D02*
X10007491Y-16295031D01*
X10007491Y-16295031D02*
X10017015Y-16285508D01*
X10017015Y-16285508D02*
X10036063Y-16275984D01*
X10226539Y-16275984D02*
X10245586Y-16275984D01*
X10245586Y-16275984D02*
X10264634Y-16285508D01*
X10264634Y-16285508D02*
X10274158Y-16295031D01*
X10274158Y-16295031D02*
X10283682Y-16314079D01*
X10283682Y-16314079D02*
X10293205Y-16352174D01*
X10293205Y-16352174D02*
X10293205Y-16399793D01*
X10293205Y-16399793D02*
X10283682Y-16437888D01*
X10283682Y-16437888D02*
X10274158Y-16456936D01*
X10274158Y-16456936D02*
X10264634Y-16466460D01*
X10264634Y-16466460D02*
X10245586Y-16475984D01*
X10245586Y-16475984D02*
X10226539Y-16475984D01*
X10226539Y-16475984D02*
X10207491Y-16466460D01*
X10207491Y-16466460D02*
X10197967Y-16456936D01*
X10197967Y-16456936D02*
X10188444Y-16437888D01*
X10188444Y-16437888D02*
X10178920Y-16399793D01*
X10178920Y-16399793D02*
X10178920Y-16352174D01*
X10178920Y-16352174D02*
X10188444Y-16314079D01*
X10188444Y-16314079D02*
X10197967Y-16295031D01*
X10197967Y-16295031D02*
X10207491Y-16285508D01*
X10207491Y-16285508D02*
X10226539Y-16275984D01*
X10378920Y-16475984D02*
X10378920Y-16342650D01*
X10378920Y-16361698D02*
X10388444Y-16352174D01*
X10388444Y-16352174D02*
X10407491Y-16342650D01*
X10407491Y-16342650D02*
X10436063Y-16342650D01*
X10436063Y-16342650D02*
X10455110Y-16352174D01*
X10455110Y-16352174D02*
X10464634Y-16371222D01*
X10464634Y-16371222D02*
X10464634Y-16475984D01*
X10464634Y-16371222D02*
X10474158Y-16352174D01*
X10474158Y-16352174D02*
X10493205Y-16342650D01*
X10493205Y-16342650D02*
X10521777Y-16342650D01*
X10521777Y-16342650D02*
X10540825Y-16352174D01*
X10540825Y-16352174D02*
X10550348Y-16371222D01*
X10550348Y-16371222D02*
X10550348Y-16475984D01*
X10645586Y-16475984D02*
X10645586Y-16342650D01*
X10645586Y-16361698D02*
X10655110Y-16352174D01*
X10655110Y-16352174D02*
X10674158Y-16342650D01*
X10674158Y-16342650D02*
X10702729Y-16342650D01*
X10702729Y-16342650D02*
X10721777Y-16352174D01*
X10721777Y-16352174D02*
X10731301Y-16371222D01*
X10731301Y-16371222D02*
X10731301Y-16475984D01*
X10731301Y-16371222D02*
X10740825Y-16352174D01*
X10740825Y-16352174D02*
X10759872Y-16342650D01*
X10759872Y-16342650D02*
X10788444Y-16342650D01*
X10788444Y-16342650D02*
X10807491Y-16352174D01*
X10807491Y-16352174D02*
X10817015Y-16371222D01*
X10817015Y-16371222D02*
X10817015Y-16475984D01*
X11207491Y-16266460D02*
X11036063Y-16523603D01*
X11464634Y-16275984D02*
X11483682Y-16275984D01*
X11483682Y-16275984D02*
X11502729Y-16285508D01*
X11502729Y-16285508D02*
X11512253Y-16295031D01*
X11512253Y-16295031D02*
X11521777Y-16314079D01*
X11521777Y-16314079D02*
X11531301Y-16352174D01*
X11531301Y-16352174D02*
X11531301Y-16399793D01*
X11531301Y-16399793D02*
X11521777Y-16437888D01*
X11521777Y-16437888D02*
X11512253Y-16456936D01*
X11512253Y-16456936D02*
X11502729Y-16466460D01*
X11502729Y-16466460D02*
X11483682Y-16475984D01*
X11483682Y-16475984D02*
X11464634Y-16475984D01*
X11464634Y-16475984D02*
X11445586Y-16466460D01*
X11445586Y-16466460D02*
X11436063Y-16456936D01*
X11436063Y-16456936D02*
X11426539Y-16437888D01*
X11426539Y-16437888D02*
X11417015Y-16399793D01*
X11417015Y-16399793D02*
X11417015Y-16352174D01*
X11417015Y-16352174D02*
X11426539Y-16314079D01*
X11426539Y-16314079D02*
X11436063Y-16295031D01*
X11436063Y-16295031D02*
X11445586Y-16285508D01*
X11445586Y-16285508D02*
X11464634Y-16275984D01*
X11617015Y-16456936D02*
X11626539Y-16466460D01*
X11626539Y-16466460D02*
X11617015Y-16475984D01*
X11617015Y-16475984D02*
X11607491Y-16466460D01*
X11607491Y-16466460D02*
X11617015Y-16456936D01*
X11617015Y-16456936D02*
X11617015Y-16475984D01*
X11750348Y-16275984D02*
X11769396Y-16275984D01*
X11769396Y-16275984D02*
X11788444Y-16285508D01*
X11788444Y-16285508D02*
X11797967Y-16295031D01*
X11797967Y-16295031D02*
X11807491Y-16314079D01*
X11807491Y-16314079D02*
X11817015Y-16352174D01*
X11817015Y-16352174D02*
X11817015Y-16399793D01*
X11817015Y-16399793D02*
X11807491Y-16437888D01*
X11807491Y-16437888D02*
X11797967Y-16456936D01*
X11797967Y-16456936D02*
X11788444Y-16466460D01*
X11788444Y-16466460D02*
X11769396Y-16475984D01*
X11769396Y-16475984D02*
X11750348Y-16475984D01*
X11750348Y-16475984D02*
X11731301Y-16466460D01*
X11731301Y-16466460D02*
X11721777Y-16456936D01*
X11721777Y-16456936D02*
X11712253Y-16437888D01*
X11712253Y-16437888D02*
X11702729Y-16399793D01*
X11702729Y-16399793D02*
X11702729Y-16352174D01*
X11702729Y-16352174D02*
X11712253Y-16314079D01*
X11712253Y-16314079D02*
X11721777Y-16295031D01*
X11721777Y-16295031D02*
X11731301Y-16285508D01*
X11731301Y-16285508D02*
X11750348Y-16275984D01*
X11883682Y-16275984D02*
X12007491Y-16275984D01*
X12007491Y-16275984D02*
X11940825Y-16352174D01*
X11940825Y-16352174D02*
X11969396Y-16352174D01*
X11969396Y-16352174D02*
X11988444Y-16361698D01*
X11988444Y-16361698D02*
X11997967Y-16371222D01*
X11997967Y-16371222D02*
X12007491Y-16390269D01*
X12007491Y-16390269D02*
X12007491Y-16437888D01*
X12007491Y-16437888D02*
X11997967Y-16456936D01*
X11997967Y-16456936D02*
X11988444Y-16466460D01*
X11988444Y-16466460D02*
X11969396Y-16475984D01*
X11969396Y-16475984D02*
X11912253Y-16475984D01*
X11912253Y-16475984D02*
X11893206Y-16466460D01*
X11893206Y-16466460D02*
X11883682Y-16456936D01*
X12188444Y-16275984D02*
X12093206Y-16275984D01*
X12093206Y-16275984D02*
X12083682Y-16371222D01*
X12083682Y-16371222D02*
X12093206Y-16361698D01*
X12093206Y-16361698D02*
X12112253Y-16352174D01*
X12112253Y-16352174D02*
X12159872Y-16352174D01*
X12159872Y-16352174D02*
X12178920Y-16361698D01*
X12178920Y-16361698D02*
X12188444Y-16371222D01*
X12188444Y-16371222D02*
X12197967Y-16390269D01*
X12197967Y-16390269D02*
X12197967Y-16437888D01*
X12197967Y-16437888D02*
X12188444Y-16456936D01*
X12188444Y-16456936D02*
X12178920Y-16466460D01*
X12178920Y-16466460D02*
X12159872Y-16475984D01*
X12159872Y-16475984D02*
X12112253Y-16475984D01*
X12112253Y-16475984D02*
X12093206Y-16466460D01*
X12093206Y-16466460D02*
X12083682Y-16456936D01*
X12369396Y-16342650D02*
X12369396Y-16475984D01*
X12321777Y-16266460D02*
X12274158Y-16409317D01*
X12274158Y-16409317D02*
X12397967Y-16409317D01*
X12464634Y-16275984D02*
X12464634Y-16314079D01*
X12540825Y-16275984D02*
X12540825Y-16314079D01*
X12836063Y-16552174D02*
X12826539Y-16542650D01*
X12826539Y-16542650D02*
X12807491Y-16514079D01*
X12807491Y-16514079D02*
X12797968Y-16495031D01*
X12797968Y-16495031D02*
X12788444Y-16466460D01*
X12788444Y-16466460D02*
X12778920Y-16418841D01*
X12778920Y-16418841D02*
X12778920Y-16380746D01*
X12778920Y-16380746D02*
X12788444Y-16333127D01*
X12788444Y-16333127D02*
X12797968Y-16304555D01*
X12797968Y-16304555D02*
X12807491Y-16285508D01*
X12807491Y-16285508D02*
X12826539Y-16256936D01*
X12826539Y-16256936D02*
X12836063Y-16247412D01*
X13017015Y-16475984D02*
X12902729Y-16475984D01*
X12959872Y-16475984D02*
X12959872Y-16275984D01*
X12959872Y-16275984D02*
X12940825Y-16304555D01*
X12940825Y-16304555D02*
X12921777Y-16323603D01*
X12921777Y-16323603D02*
X12902729Y-16333127D01*
X13188444Y-16275984D02*
X13150348Y-16275984D01*
X13150348Y-16275984D02*
X13131301Y-16285508D01*
X13131301Y-16285508D02*
X13121777Y-16295031D01*
X13121777Y-16295031D02*
X13102729Y-16323603D01*
X13102729Y-16323603D02*
X13093206Y-16361698D01*
X13093206Y-16361698D02*
X13093206Y-16437888D01*
X13093206Y-16437888D02*
X13102729Y-16456936D01*
X13102729Y-16456936D02*
X13112253Y-16466460D01*
X13112253Y-16466460D02*
X13131301Y-16475984D01*
X13131301Y-16475984D02*
X13169396Y-16475984D01*
X13169396Y-16475984D02*
X13188444Y-16466460D01*
X13188444Y-16466460D02*
X13197968Y-16456936D01*
X13197968Y-16456936D02*
X13207491Y-16437888D01*
X13207491Y-16437888D02*
X13207491Y-16390269D01*
X13207491Y-16390269D02*
X13197968Y-16371222D01*
X13197968Y-16371222D02*
X13188444Y-16361698D01*
X13188444Y-16361698D02*
X13169396Y-16352174D01*
X13169396Y-16352174D02*
X13131301Y-16352174D01*
X13131301Y-16352174D02*
X13112253Y-16361698D01*
X13112253Y-16361698D02*
X13102729Y-16371222D01*
X13102729Y-16371222D02*
X13093206Y-16390269D01*
X13445587Y-16475984D02*
X13445587Y-16275984D01*
X13531301Y-16475984D02*
X13531301Y-16371222D01*
X13531301Y-16371222D02*
X13521777Y-16352174D01*
X13521777Y-16352174D02*
X13502730Y-16342650D01*
X13502730Y-16342650D02*
X13474158Y-16342650D01*
X13474158Y-16342650D02*
X13455110Y-16352174D01*
X13455110Y-16352174D02*
X13445587Y-16361698D01*
X13655110Y-16475984D02*
X13636063Y-16466460D01*
X13636063Y-16466460D02*
X13626539Y-16456936D01*
X13626539Y-16456936D02*
X13617015Y-16437888D01*
X13617015Y-16437888D02*
X13617015Y-16380746D01*
X13617015Y-16380746D02*
X13626539Y-16361698D01*
X13626539Y-16361698D02*
X13636063Y-16352174D01*
X13636063Y-16352174D02*
X13655110Y-16342650D01*
X13655110Y-16342650D02*
X13683682Y-16342650D01*
X13683682Y-16342650D02*
X13702730Y-16352174D01*
X13702730Y-16352174D02*
X13712253Y-16361698D01*
X13712253Y-16361698D02*
X13721777Y-16380746D01*
X13721777Y-16380746D02*
X13721777Y-16437888D01*
X13721777Y-16437888D02*
X13712253Y-16456936D01*
X13712253Y-16456936D02*
X13702730Y-16466460D01*
X13702730Y-16466460D02*
X13683682Y-16475984D01*
X13683682Y-16475984D02*
X13655110Y-16475984D01*
X13836063Y-16475984D02*
X13817015Y-16466460D01*
X13817015Y-16466460D02*
X13807491Y-16447412D01*
X13807491Y-16447412D02*
X13807491Y-16275984D01*
X13988444Y-16466460D02*
X13969396Y-16475984D01*
X13969396Y-16475984D02*
X13931301Y-16475984D01*
X13931301Y-16475984D02*
X13912253Y-16466460D01*
X13912253Y-16466460D02*
X13902730Y-16447412D01*
X13902730Y-16447412D02*
X13902730Y-16371222D01*
X13902730Y-16371222D02*
X13912253Y-16352174D01*
X13912253Y-16352174D02*
X13931301Y-16342650D01*
X13931301Y-16342650D02*
X13969396Y-16342650D01*
X13969396Y-16342650D02*
X13988444Y-16352174D01*
X13988444Y-16352174D02*
X13997968Y-16371222D01*
X13997968Y-16371222D02*
X13997968Y-16390269D01*
X13997968Y-16390269D02*
X13902730Y-16409317D01*
X14074158Y-16466460D02*
X14093206Y-16475984D01*
X14093206Y-16475984D02*
X14131301Y-16475984D01*
X14131301Y-16475984D02*
X14150349Y-16466460D01*
X14150349Y-16466460D02*
X14159872Y-16447412D01*
X14159872Y-16447412D02*
X14159872Y-16437888D01*
X14159872Y-16437888D02*
X14150349Y-16418841D01*
X14150349Y-16418841D02*
X14131301Y-16409317D01*
X14131301Y-16409317D02*
X14102730Y-16409317D01*
X14102730Y-16409317D02*
X14083682Y-16399793D01*
X14083682Y-16399793D02*
X14074158Y-16380746D01*
X14074158Y-16380746D02*
X14074158Y-16371222D01*
X14074158Y-16371222D02*
X14083682Y-16352174D01*
X14083682Y-16352174D02*
X14102730Y-16342650D01*
X14102730Y-16342650D02*
X14131301Y-16342650D01*
X14131301Y-16342650D02*
X14150349Y-16352174D01*
X14226539Y-16552174D02*
X14236063Y-16542650D01*
X14236063Y-16542650D02*
X14255111Y-16514079D01*
X14255111Y-16514079D02*
X14264634Y-16495031D01*
X14264634Y-16495031D02*
X14274158Y-16466460D01*
X14274158Y-16466460D02*
X14283682Y-16418841D01*
X14283682Y-16418841D02*
X14283682Y-16380746D01*
X14283682Y-16380746D02*
X14274158Y-16333127D01*
X14274158Y-16333127D02*
X14264634Y-16304555D01*
X14264634Y-16304555D02*
X14255111Y-16285508D01*
X14255111Y-16285508D02*
X14236063Y-16256936D01*
X14236063Y-16256936D02*
X14226539Y-16247412D01*
D11*
X9166000Y-16601000D02*
X9261000Y-16696000D01*
X9261000Y-16601000D02*
X9166000Y-16696000D01*
X9213500Y-16601000D02*
X9213500Y-16696000D01*
X9166000Y-16648500D02*
X9261000Y-16648500D01*
D10*
X9559872Y-16539984D02*
X9578920Y-16539984D01*
X9578920Y-16539984D02*
X9597967Y-16549508D01*
X9597967Y-16549508D02*
X9607491Y-16559031D01*
X9607491Y-16559031D02*
X9617015Y-16578079D01*
X9617015Y-16578079D02*
X9626539Y-16616174D01*
X9626539Y-16616174D02*
X9626539Y-16663793D01*
X9626539Y-16663793D02*
X9617015Y-16701888D01*
X9617015Y-16701888D02*
X9607491Y-16720936D01*
X9607491Y-16720936D02*
X9597967Y-16730460D01*
X9597967Y-16730460D02*
X9578920Y-16739984D01*
X9578920Y-16739984D02*
X9559872Y-16739984D01*
X9559872Y-16739984D02*
X9540824Y-16730460D01*
X9540824Y-16730460D02*
X9531301Y-16720936D01*
X9531301Y-16720936D02*
X9521777Y-16701888D01*
X9521777Y-16701888D02*
X9512253Y-16663793D01*
X9512253Y-16663793D02*
X9512253Y-16616174D01*
X9512253Y-16616174D02*
X9521777Y-16578079D01*
X9521777Y-16578079D02*
X9531301Y-16559031D01*
X9531301Y-16559031D02*
X9540824Y-16549508D01*
X9540824Y-16549508D02*
X9559872Y-16539984D01*
X9712253Y-16720936D02*
X9721777Y-16730460D01*
X9721777Y-16730460D02*
X9712253Y-16739984D01*
X9712253Y-16739984D02*
X9702729Y-16730460D01*
X9702729Y-16730460D02*
X9712253Y-16720936D01*
X9712253Y-16720936D02*
X9712253Y-16739984D01*
X9817015Y-16739984D02*
X9855110Y-16739984D01*
X9855110Y-16739984D02*
X9874158Y-16730460D01*
X9874158Y-16730460D02*
X9883682Y-16720936D01*
X9883682Y-16720936D02*
X9902729Y-16692365D01*
X9902729Y-16692365D02*
X9912253Y-16654269D01*
X9912253Y-16654269D02*
X9912253Y-16578079D01*
X9912253Y-16578079D02*
X9902729Y-16559031D01*
X9902729Y-16559031D02*
X9893205Y-16549508D01*
X9893205Y-16549508D02*
X9874158Y-16539984D01*
X9874158Y-16539984D02*
X9836063Y-16539984D01*
X9836063Y-16539984D02*
X9817015Y-16549508D01*
X9817015Y-16549508D02*
X9807491Y-16559031D01*
X9807491Y-16559031D02*
X9797967Y-16578079D01*
X9797967Y-16578079D02*
X9797967Y-16625698D01*
X9797967Y-16625698D02*
X9807491Y-16644746D01*
X9807491Y-16644746D02*
X9817015Y-16654269D01*
X9817015Y-16654269D02*
X9836063Y-16663793D01*
X9836063Y-16663793D02*
X9874158Y-16663793D01*
X9874158Y-16663793D02*
X9893205Y-16654269D01*
X9893205Y-16654269D02*
X9902729Y-16644746D01*
X9902729Y-16644746D02*
X9912253Y-16625698D01*
X10093205Y-16539984D02*
X9997967Y-16539984D01*
X9997967Y-16539984D02*
X9988444Y-16635222D01*
X9988444Y-16635222D02*
X9997967Y-16625698D01*
X9997967Y-16625698D02*
X10017015Y-16616174D01*
X10017015Y-16616174D02*
X10064634Y-16616174D01*
X10064634Y-16616174D02*
X10083682Y-16625698D01*
X10083682Y-16625698D02*
X10093205Y-16635222D01*
X10093205Y-16635222D02*
X10102729Y-16654269D01*
X10102729Y-16654269D02*
X10102729Y-16701888D01*
X10102729Y-16701888D02*
X10093205Y-16720936D01*
X10093205Y-16720936D02*
X10083682Y-16730460D01*
X10083682Y-16730460D02*
X10064634Y-16739984D01*
X10064634Y-16739984D02*
X10017015Y-16739984D01*
X10017015Y-16739984D02*
X9997967Y-16730460D01*
X9997967Y-16730460D02*
X9988444Y-16720936D01*
X10226539Y-16539984D02*
X10245586Y-16539984D01*
X10245586Y-16539984D02*
X10264634Y-16549508D01*
X10264634Y-16549508D02*
X10274158Y-16559031D01*
X10274158Y-16559031D02*
X10283682Y-16578079D01*
X10283682Y-16578079D02*
X10293205Y-16616174D01*
X10293205Y-16616174D02*
X10293205Y-16663793D01*
X10293205Y-16663793D02*
X10283682Y-16701888D01*
X10283682Y-16701888D02*
X10274158Y-16720936D01*
X10274158Y-16720936D02*
X10264634Y-16730460D01*
X10264634Y-16730460D02*
X10245586Y-16739984D01*
X10245586Y-16739984D02*
X10226539Y-16739984D01*
X10226539Y-16739984D02*
X10207491Y-16730460D01*
X10207491Y-16730460D02*
X10197967Y-16720936D01*
X10197967Y-16720936D02*
X10188444Y-16701888D01*
X10188444Y-16701888D02*
X10178920Y-16663793D01*
X10178920Y-16663793D02*
X10178920Y-16616174D01*
X10178920Y-16616174D02*
X10188444Y-16578079D01*
X10188444Y-16578079D02*
X10197967Y-16559031D01*
X10197967Y-16559031D02*
X10207491Y-16549508D01*
X10207491Y-16549508D02*
X10226539Y-16539984D01*
X10378920Y-16739984D02*
X10378920Y-16606650D01*
X10378920Y-16625698D02*
X10388444Y-16616174D01*
X10388444Y-16616174D02*
X10407491Y-16606650D01*
X10407491Y-16606650D02*
X10436063Y-16606650D01*
X10436063Y-16606650D02*
X10455110Y-16616174D01*
X10455110Y-16616174D02*
X10464634Y-16635222D01*
X10464634Y-16635222D02*
X10464634Y-16739984D01*
X10464634Y-16635222D02*
X10474158Y-16616174D01*
X10474158Y-16616174D02*
X10493205Y-16606650D01*
X10493205Y-16606650D02*
X10521777Y-16606650D01*
X10521777Y-16606650D02*
X10540825Y-16616174D01*
X10540825Y-16616174D02*
X10550348Y-16635222D01*
X10550348Y-16635222D02*
X10550348Y-16739984D01*
X10645586Y-16739984D02*
X10645586Y-16606650D01*
X10645586Y-16625698D02*
X10655110Y-16616174D01*
X10655110Y-16616174D02*
X10674158Y-16606650D01*
X10674158Y-16606650D02*
X10702729Y-16606650D01*
X10702729Y-16606650D02*
X10721777Y-16616174D01*
X10721777Y-16616174D02*
X10731301Y-16635222D01*
X10731301Y-16635222D02*
X10731301Y-16739984D01*
X10731301Y-16635222D02*
X10740825Y-16616174D01*
X10740825Y-16616174D02*
X10759872Y-16606650D01*
X10759872Y-16606650D02*
X10788444Y-16606650D01*
X10788444Y-16606650D02*
X10807491Y-16616174D01*
X10807491Y-16616174D02*
X10817015Y-16635222D01*
X10817015Y-16635222D02*
X10817015Y-16739984D01*
X11207491Y-16530460D02*
X11036063Y-16787603D01*
X11464634Y-16539984D02*
X11483682Y-16539984D01*
X11483682Y-16539984D02*
X11502729Y-16549508D01*
X11502729Y-16549508D02*
X11512253Y-16559031D01*
X11512253Y-16559031D02*
X11521777Y-16578079D01*
X11521777Y-16578079D02*
X11531301Y-16616174D01*
X11531301Y-16616174D02*
X11531301Y-16663793D01*
X11531301Y-16663793D02*
X11521777Y-16701888D01*
X11521777Y-16701888D02*
X11512253Y-16720936D01*
X11512253Y-16720936D02*
X11502729Y-16730460D01*
X11502729Y-16730460D02*
X11483682Y-16739984D01*
X11483682Y-16739984D02*
X11464634Y-16739984D01*
X11464634Y-16739984D02*
X11445586Y-16730460D01*
X11445586Y-16730460D02*
X11436063Y-16720936D01*
X11436063Y-16720936D02*
X11426539Y-16701888D01*
X11426539Y-16701888D02*
X11417015Y-16663793D01*
X11417015Y-16663793D02*
X11417015Y-16616174D01*
X11417015Y-16616174D02*
X11426539Y-16578079D01*
X11426539Y-16578079D02*
X11436063Y-16559031D01*
X11436063Y-16559031D02*
X11445586Y-16549508D01*
X11445586Y-16549508D02*
X11464634Y-16539984D01*
X11617015Y-16720936D02*
X11626539Y-16730460D01*
X11626539Y-16730460D02*
X11617015Y-16739984D01*
X11617015Y-16739984D02*
X11607491Y-16730460D01*
X11607491Y-16730460D02*
X11617015Y-16720936D01*
X11617015Y-16720936D02*
X11617015Y-16739984D01*
X11750348Y-16539984D02*
X11769396Y-16539984D01*
X11769396Y-16539984D02*
X11788444Y-16549508D01*
X11788444Y-16549508D02*
X11797967Y-16559031D01*
X11797967Y-16559031D02*
X11807491Y-16578079D01*
X11807491Y-16578079D02*
X11817015Y-16616174D01*
X11817015Y-16616174D02*
X11817015Y-16663793D01*
X11817015Y-16663793D02*
X11807491Y-16701888D01*
X11807491Y-16701888D02*
X11797967Y-16720936D01*
X11797967Y-16720936D02*
X11788444Y-16730460D01*
X11788444Y-16730460D02*
X11769396Y-16739984D01*
X11769396Y-16739984D02*
X11750348Y-16739984D01*
X11750348Y-16739984D02*
X11731301Y-16730460D01*
X11731301Y-16730460D02*
X11721777Y-16720936D01*
X11721777Y-16720936D02*
X11712253Y-16701888D01*
X11712253Y-16701888D02*
X11702729Y-16663793D01*
X11702729Y-16663793D02*
X11702729Y-16616174D01*
X11702729Y-16616174D02*
X11712253Y-16578079D01*
X11712253Y-16578079D02*
X11721777Y-16559031D01*
X11721777Y-16559031D02*
X11731301Y-16549508D01*
X11731301Y-16549508D02*
X11750348Y-16539984D01*
X11883682Y-16539984D02*
X12007491Y-16539984D01*
X12007491Y-16539984D02*
X11940825Y-16616174D01*
X11940825Y-16616174D02*
X11969396Y-16616174D01*
X11969396Y-16616174D02*
X11988444Y-16625698D01*
X11988444Y-16625698D02*
X11997967Y-16635222D01*
X11997967Y-16635222D02*
X12007491Y-16654269D01*
X12007491Y-16654269D02*
X12007491Y-16701888D01*
X12007491Y-16701888D02*
X11997967Y-16720936D01*
X11997967Y-16720936D02*
X11988444Y-16730460D01*
X11988444Y-16730460D02*
X11969396Y-16739984D01*
X11969396Y-16739984D02*
X11912253Y-16739984D01*
X11912253Y-16739984D02*
X11893206Y-16730460D01*
X11893206Y-16730460D02*
X11883682Y-16720936D01*
X12074158Y-16539984D02*
X12207491Y-16539984D01*
X12207491Y-16539984D02*
X12121777Y-16739984D01*
X12369396Y-16606650D02*
X12369396Y-16739984D01*
X12321777Y-16530460D02*
X12274158Y-16673317D01*
X12274158Y-16673317D02*
X12397967Y-16673317D01*
X12464634Y-16539984D02*
X12464634Y-16578079D01*
X12540825Y-16539984D02*
X12540825Y-16578079D01*
X12836063Y-16816174D02*
X12826539Y-16806650D01*
X12826539Y-16806650D02*
X12807491Y-16778079D01*
X12807491Y-16778079D02*
X12797968Y-16759031D01*
X12797968Y-16759031D02*
X12788444Y-16730460D01*
X12788444Y-16730460D02*
X12778920Y-16682841D01*
X12778920Y-16682841D02*
X12778920Y-16644746D01*
X12778920Y-16644746D02*
X12788444Y-16597127D01*
X12788444Y-16597127D02*
X12797968Y-16568555D01*
X12797968Y-16568555D02*
X12807491Y-16549508D01*
X12807491Y-16549508D02*
X12826539Y-16520936D01*
X12826539Y-16520936D02*
X12836063Y-16511412D01*
X12940825Y-16625698D02*
X12921777Y-16616174D01*
X12921777Y-16616174D02*
X12912253Y-16606650D01*
X12912253Y-16606650D02*
X12902729Y-16587603D01*
X12902729Y-16587603D02*
X12902729Y-16578079D01*
X12902729Y-16578079D02*
X12912253Y-16559031D01*
X12912253Y-16559031D02*
X12921777Y-16549508D01*
X12921777Y-16549508D02*
X12940825Y-16539984D01*
X12940825Y-16539984D02*
X12978920Y-16539984D01*
X12978920Y-16539984D02*
X12997968Y-16549508D01*
X12997968Y-16549508D02*
X13007491Y-16559031D01*
X13007491Y-16559031D02*
X13017015Y-16578079D01*
X13017015Y-16578079D02*
X13017015Y-16587603D01*
X13017015Y-16587603D02*
X13007491Y-16606650D01*
X13007491Y-16606650D02*
X12997968Y-16616174D01*
X12997968Y-16616174D02*
X12978920Y-16625698D01*
X12978920Y-16625698D02*
X12940825Y-16625698D01*
X12940825Y-16625698D02*
X12921777Y-16635222D01*
X12921777Y-16635222D02*
X12912253Y-16644746D01*
X12912253Y-16644746D02*
X12902729Y-16663793D01*
X12902729Y-16663793D02*
X12902729Y-16701888D01*
X12902729Y-16701888D02*
X12912253Y-16720936D01*
X12912253Y-16720936D02*
X12921777Y-16730460D01*
X12921777Y-16730460D02*
X12940825Y-16739984D01*
X12940825Y-16739984D02*
X12978920Y-16739984D01*
X12978920Y-16739984D02*
X12997968Y-16730460D01*
X12997968Y-16730460D02*
X13007491Y-16720936D01*
X13007491Y-16720936D02*
X13017015Y-16701888D01*
X13017015Y-16701888D02*
X13017015Y-16663793D01*
X13017015Y-16663793D02*
X13007491Y-16644746D01*
X13007491Y-16644746D02*
X12997968Y-16635222D01*
X12997968Y-16635222D02*
X12978920Y-16625698D01*
X13255110Y-16739984D02*
X13255110Y-16539984D01*
X13340825Y-16739984D02*
X13340825Y-16635222D01*
X13340825Y-16635222D02*
X13331301Y-16616174D01*
X13331301Y-16616174D02*
X13312253Y-16606650D01*
X13312253Y-16606650D02*
X13283682Y-16606650D01*
X13283682Y-16606650D02*
X13264634Y-16616174D01*
X13264634Y-16616174D02*
X13255110Y-16625698D01*
X13464634Y-16739984D02*
X13445587Y-16730460D01*
X13445587Y-16730460D02*
X13436063Y-16720936D01*
X13436063Y-16720936D02*
X13426539Y-16701888D01*
X13426539Y-16701888D02*
X13426539Y-16644746D01*
X13426539Y-16644746D02*
X13436063Y-16625698D01*
X13436063Y-16625698D02*
X13445587Y-16616174D01*
X13445587Y-16616174D02*
X13464634Y-16606650D01*
X13464634Y-16606650D02*
X13493206Y-16606650D01*
X13493206Y-16606650D02*
X13512253Y-16616174D01*
X13512253Y-16616174D02*
X13521777Y-16625698D01*
X13521777Y-16625698D02*
X13531301Y-16644746D01*
X13531301Y-16644746D02*
X13531301Y-16701888D01*
X13531301Y-16701888D02*
X13521777Y-16720936D01*
X13521777Y-16720936D02*
X13512253Y-16730460D01*
X13512253Y-16730460D02*
X13493206Y-16739984D01*
X13493206Y-16739984D02*
X13464634Y-16739984D01*
X13645587Y-16739984D02*
X13626539Y-16730460D01*
X13626539Y-16730460D02*
X13617015Y-16711412D01*
X13617015Y-16711412D02*
X13617015Y-16539984D01*
X13797968Y-16730460D02*
X13778920Y-16739984D01*
X13778920Y-16739984D02*
X13740825Y-16739984D01*
X13740825Y-16739984D02*
X13721777Y-16730460D01*
X13721777Y-16730460D02*
X13712253Y-16711412D01*
X13712253Y-16711412D02*
X13712253Y-16635222D01*
X13712253Y-16635222D02*
X13721777Y-16616174D01*
X13721777Y-16616174D02*
X13740825Y-16606650D01*
X13740825Y-16606650D02*
X13778920Y-16606650D01*
X13778920Y-16606650D02*
X13797968Y-16616174D01*
X13797968Y-16616174D02*
X13807491Y-16635222D01*
X13807491Y-16635222D02*
X13807491Y-16654269D01*
X13807491Y-16654269D02*
X13712253Y-16673317D01*
X13883682Y-16730460D02*
X13902730Y-16739984D01*
X13902730Y-16739984D02*
X13940825Y-16739984D01*
X13940825Y-16739984D02*
X13959872Y-16730460D01*
X13959872Y-16730460D02*
X13969396Y-16711412D01*
X13969396Y-16711412D02*
X13969396Y-16701888D01*
X13969396Y-16701888D02*
X13959872Y-16682841D01*
X13959872Y-16682841D02*
X13940825Y-16673317D01*
X13940825Y-16673317D02*
X13912253Y-16673317D01*
X13912253Y-16673317D02*
X13893206Y-16663793D01*
X13893206Y-16663793D02*
X13883682Y-16644746D01*
X13883682Y-16644746D02*
X13883682Y-16635222D01*
X13883682Y-16635222D02*
X13893206Y-16616174D01*
X13893206Y-16616174D02*
X13912253Y-16606650D01*
X13912253Y-16606650D02*
X13940825Y-16606650D01*
X13940825Y-16606650D02*
X13959872Y-16616174D01*
X14036063Y-16816174D02*
X14045587Y-16806650D01*
X14045587Y-16806650D02*
X14064634Y-16778079D01*
X14064634Y-16778079D02*
X14074158Y-16759031D01*
X14074158Y-16759031D02*
X14083682Y-16730460D01*
X14083682Y-16730460D02*
X14093206Y-16682841D01*
X14093206Y-16682841D02*
X14093206Y-16644746D01*
X14093206Y-16644746D02*
X14083682Y-16597127D01*
X14083682Y-16597127D02*
X14074158Y-16568555D01*
X14074158Y-16568555D02*
X14064634Y-16549508D01*
X14064634Y-16549508D02*
X14045587Y-16520936D01*
X14045587Y-16520936D02*
X14036063Y-16511412D01*
D12*
X9159400Y-16861700D02*
X9261000Y-16963300D01*
X9261000Y-16861700D02*
X9159400Y-16963300D01*
X9246121Y-16948421D02*
X9246121Y-16876579D01*
X9174279Y-16876579D01*
X9174279Y-16948421D01*
X9246121Y-16948421D01*
D10*
X9626539Y-17003984D02*
X9512253Y-17003984D01*
X9569396Y-17003984D02*
X9569396Y-16803984D01*
X9569396Y-16803984D02*
X9550348Y-16832555D01*
X9550348Y-16832555D02*
X9531301Y-16851603D01*
X9531301Y-16851603D02*
X9512253Y-16861127D01*
X9712253Y-16984936D02*
X9721777Y-16994460D01*
X9721777Y-16994460D02*
X9712253Y-17003984D01*
X9712253Y-17003984D02*
X9702729Y-16994460D01*
X9702729Y-16994460D02*
X9712253Y-16984936D01*
X9712253Y-16984936D02*
X9712253Y-17003984D01*
X9845586Y-16803984D02*
X9864634Y-16803984D01*
X9864634Y-16803984D02*
X9883682Y-16813508D01*
X9883682Y-16813508D02*
X9893205Y-16823031D01*
X9893205Y-16823031D02*
X9902729Y-16842079D01*
X9902729Y-16842079D02*
X9912253Y-16880174D01*
X9912253Y-16880174D02*
X9912253Y-16927793D01*
X9912253Y-16927793D02*
X9902729Y-16965889D01*
X9902729Y-16965889D02*
X9893205Y-16984936D01*
X9893205Y-16984936D02*
X9883682Y-16994460D01*
X9883682Y-16994460D02*
X9864634Y-17003984D01*
X9864634Y-17003984D02*
X9845586Y-17003984D01*
X9845586Y-17003984D02*
X9826539Y-16994460D01*
X9826539Y-16994460D02*
X9817015Y-16984936D01*
X9817015Y-16984936D02*
X9807491Y-16965889D01*
X9807491Y-16965889D02*
X9797967Y-16927793D01*
X9797967Y-16927793D02*
X9797967Y-16880174D01*
X9797967Y-16880174D02*
X9807491Y-16842079D01*
X9807491Y-16842079D02*
X9817015Y-16823031D01*
X9817015Y-16823031D02*
X9826539Y-16813508D01*
X9826539Y-16813508D02*
X9845586Y-16803984D01*
X10102729Y-17003984D02*
X9988444Y-17003984D01*
X10045586Y-17003984D02*
X10045586Y-16803984D01*
X10045586Y-16803984D02*
X10026539Y-16832555D01*
X10026539Y-16832555D02*
X10007491Y-16851603D01*
X10007491Y-16851603D02*
X9988444Y-16861127D01*
X10274158Y-16803984D02*
X10236063Y-16803984D01*
X10236063Y-16803984D02*
X10217015Y-16813508D01*
X10217015Y-16813508D02*
X10207491Y-16823031D01*
X10207491Y-16823031D02*
X10188444Y-16851603D01*
X10188444Y-16851603D02*
X10178920Y-16889698D01*
X10178920Y-16889698D02*
X10178920Y-16965889D01*
X10178920Y-16965889D02*
X10188444Y-16984936D01*
X10188444Y-16984936D02*
X10197967Y-16994460D01*
X10197967Y-16994460D02*
X10217015Y-17003984D01*
X10217015Y-17003984D02*
X10255110Y-17003984D01*
X10255110Y-17003984D02*
X10274158Y-16994460D01*
X10274158Y-16994460D02*
X10283682Y-16984936D01*
X10283682Y-16984936D02*
X10293205Y-16965889D01*
X10293205Y-16965889D02*
X10293205Y-16918270D01*
X10293205Y-16918270D02*
X10283682Y-16899222D01*
X10283682Y-16899222D02*
X10274158Y-16889698D01*
X10274158Y-16889698D02*
X10255110Y-16880174D01*
X10255110Y-16880174D02*
X10217015Y-16880174D01*
X10217015Y-16880174D02*
X10197967Y-16889698D01*
X10197967Y-16889698D02*
X10188444Y-16899222D01*
X10188444Y-16899222D02*
X10178920Y-16918270D01*
X10378920Y-17003984D02*
X10378920Y-16870650D01*
X10378920Y-16889698D02*
X10388444Y-16880174D01*
X10388444Y-16880174D02*
X10407491Y-16870650D01*
X10407491Y-16870650D02*
X10436063Y-16870650D01*
X10436063Y-16870650D02*
X10455110Y-16880174D01*
X10455110Y-16880174D02*
X10464634Y-16899222D01*
X10464634Y-16899222D02*
X10464634Y-17003984D01*
X10464634Y-16899222D02*
X10474158Y-16880174D01*
X10474158Y-16880174D02*
X10493205Y-16870650D01*
X10493205Y-16870650D02*
X10521777Y-16870650D01*
X10521777Y-16870650D02*
X10540825Y-16880174D01*
X10540825Y-16880174D02*
X10550348Y-16899222D01*
X10550348Y-16899222D02*
X10550348Y-17003984D01*
X10645586Y-17003984D02*
X10645586Y-16870650D01*
X10645586Y-16889698D02*
X10655110Y-16880174D01*
X10655110Y-16880174D02*
X10674158Y-16870650D01*
X10674158Y-16870650D02*
X10702729Y-16870650D01*
X10702729Y-16870650D02*
X10721777Y-16880174D01*
X10721777Y-16880174D02*
X10731301Y-16899222D01*
X10731301Y-16899222D02*
X10731301Y-17003984D01*
X10731301Y-16899222D02*
X10740825Y-16880174D01*
X10740825Y-16880174D02*
X10759872Y-16870650D01*
X10759872Y-16870650D02*
X10788444Y-16870650D01*
X10788444Y-16870650D02*
X10807491Y-16880174D01*
X10807491Y-16880174D02*
X10817015Y-16899222D01*
X10817015Y-16899222D02*
X10817015Y-17003984D01*
X11207491Y-16794460D02*
X11036063Y-17051603D01*
X11464634Y-16803984D02*
X11483682Y-16803984D01*
X11483682Y-16803984D02*
X11502729Y-16813508D01*
X11502729Y-16813508D02*
X11512253Y-16823031D01*
X11512253Y-16823031D02*
X11521777Y-16842079D01*
X11521777Y-16842079D02*
X11531301Y-16880174D01*
X11531301Y-16880174D02*
X11531301Y-16927793D01*
X11531301Y-16927793D02*
X11521777Y-16965889D01*
X11521777Y-16965889D02*
X11512253Y-16984936D01*
X11512253Y-16984936D02*
X11502729Y-16994460D01*
X11502729Y-16994460D02*
X11483682Y-17003984D01*
X11483682Y-17003984D02*
X11464634Y-17003984D01*
X11464634Y-17003984D02*
X11445586Y-16994460D01*
X11445586Y-16994460D02*
X11436063Y-16984936D01*
X11436063Y-16984936D02*
X11426539Y-16965889D01*
X11426539Y-16965889D02*
X11417015Y-16927793D01*
X11417015Y-16927793D02*
X11417015Y-16880174D01*
X11417015Y-16880174D02*
X11426539Y-16842079D01*
X11426539Y-16842079D02*
X11436063Y-16823031D01*
X11436063Y-16823031D02*
X11445586Y-16813508D01*
X11445586Y-16813508D02*
X11464634Y-16803984D01*
X11617015Y-16984936D02*
X11626539Y-16994460D01*
X11626539Y-16994460D02*
X11617015Y-17003984D01*
X11617015Y-17003984D02*
X11607491Y-16994460D01*
X11607491Y-16994460D02*
X11617015Y-16984936D01*
X11617015Y-16984936D02*
X11617015Y-17003984D01*
X11750348Y-16803984D02*
X11769396Y-16803984D01*
X11769396Y-16803984D02*
X11788444Y-16813508D01*
X11788444Y-16813508D02*
X11797967Y-16823031D01*
X11797967Y-16823031D02*
X11807491Y-16842079D01*
X11807491Y-16842079D02*
X11817015Y-16880174D01*
X11817015Y-16880174D02*
X11817015Y-16927793D01*
X11817015Y-16927793D02*
X11807491Y-16965889D01*
X11807491Y-16965889D02*
X11797967Y-16984936D01*
X11797967Y-16984936D02*
X11788444Y-16994460D01*
X11788444Y-16994460D02*
X11769396Y-17003984D01*
X11769396Y-17003984D02*
X11750348Y-17003984D01*
X11750348Y-17003984D02*
X11731301Y-16994460D01*
X11731301Y-16994460D02*
X11721777Y-16984936D01*
X11721777Y-16984936D02*
X11712253Y-16965889D01*
X11712253Y-16965889D02*
X11702729Y-16927793D01*
X11702729Y-16927793D02*
X11702729Y-16880174D01*
X11702729Y-16880174D02*
X11712253Y-16842079D01*
X11712253Y-16842079D02*
X11721777Y-16823031D01*
X11721777Y-16823031D02*
X11731301Y-16813508D01*
X11731301Y-16813508D02*
X11750348Y-16803984D01*
X11988444Y-16870650D02*
X11988444Y-17003984D01*
X11940825Y-16794460D02*
X11893206Y-16937317D01*
X11893206Y-16937317D02*
X12017015Y-16937317D01*
X12131301Y-16803984D02*
X12150348Y-16803984D01*
X12150348Y-16803984D02*
X12169396Y-16813508D01*
X12169396Y-16813508D02*
X12178920Y-16823031D01*
X12178920Y-16823031D02*
X12188444Y-16842079D01*
X12188444Y-16842079D02*
X12197967Y-16880174D01*
X12197967Y-16880174D02*
X12197967Y-16927793D01*
X12197967Y-16927793D02*
X12188444Y-16965889D01*
X12188444Y-16965889D02*
X12178920Y-16984936D01*
X12178920Y-16984936D02*
X12169396Y-16994460D01*
X12169396Y-16994460D02*
X12150348Y-17003984D01*
X12150348Y-17003984D02*
X12131301Y-17003984D01*
X12131301Y-17003984D02*
X12112253Y-16994460D01*
X12112253Y-16994460D02*
X12102729Y-16984936D01*
X12102729Y-16984936D02*
X12093206Y-16965889D01*
X12093206Y-16965889D02*
X12083682Y-16927793D01*
X12083682Y-16927793D02*
X12083682Y-16880174D01*
X12083682Y-16880174D02*
X12093206Y-16842079D01*
X12093206Y-16842079D02*
X12102729Y-16823031D01*
X12102729Y-16823031D02*
X12112253Y-16813508D01*
X12112253Y-16813508D02*
X12131301Y-16803984D01*
X12321777Y-16803984D02*
X12340825Y-16803984D01*
X12340825Y-16803984D02*
X12359872Y-16813508D01*
X12359872Y-16813508D02*
X12369396Y-16823031D01*
X12369396Y-16823031D02*
X12378920Y-16842079D01*
X12378920Y-16842079D02*
X12388444Y-16880174D01*
X12388444Y-16880174D02*
X12388444Y-16927793D01*
X12388444Y-16927793D02*
X12378920Y-16965889D01*
X12378920Y-16965889D02*
X12369396Y-16984936D01*
X12369396Y-16984936D02*
X12359872Y-16994460D01*
X12359872Y-16994460D02*
X12340825Y-17003984D01*
X12340825Y-17003984D02*
X12321777Y-17003984D01*
X12321777Y-17003984D02*
X12302729Y-16994460D01*
X12302729Y-16994460D02*
X12293206Y-16984936D01*
X12293206Y-16984936D02*
X12283682Y-16965889D01*
X12283682Y-16965889D02*
X12274158Y-16927793D01*
X12274158Y-16927793D02*
X12274158Y-16880174D01*
X12274158Y-16880174D02*
X12283682Y-16842079D01*
X12283682Y-16842079D02*
X12293206Y-16823031D01*
X12293206Y-16823031D02*
X12302729Y-16813508D01*
X12302729Y-16813508D02*
X12321777Y-16803984D01*
X12464634Y-16803984D02*
X12464634Y-16842079D01*
X12540825Y-16803984D02*
X12540825Y-16842079D01*
X12836063Y-17080174D02*
X12826539Y-17070650D01*
X12826539Y-17070650D02*
X12807491Y-17042079D01*
X12807491Y-17042079D02*
X12797968Y-17023031D01*
X12797968Y-17023031D02*
X12788444Y-16994460D01*
X12788444Y-16994460D02*
X12778920Y-16946841D01*
X12778920Y-16946841D02*
X12778920Y-16908746D01*
X12778920Y-16908746D02*
X12788444Y-16861127D01*
X12788444Y-16861127D02*
X12797968Y-16832555D01*
X12797968Y-16832555D02*
X12807491Y-16813508D01*
X12807491Y-16813508D02*
X12826539Y-16784936D01*
X12826539Y-16784936D02*
X12836063Y-16775412D01*
X12893206Y-16803984D02*
X13017015Y-16803984D01*
X13017015Y-16803984D02*
X12950348Y-16880174D01*
X12950348Y-16880174D02*
X12978920Y-16880174D01*
X12978920Y-16880174D02*
X12997968Y-16889698D01*
X12997968Y-16889698D02*
X13007491Y-16899222D01*
X13007491Y-16899222D02*
X13017015Y-16918270D01*
X13017015Y-16918270D02*
X13017015Y-16965889D01*
X13017015Y-16965889D02*
X13007491Y-16984936D01*
X13007491Y-16984936D02*
X12997968Y-16994460D01*
X12997968Y-16994460D02*
X12978920Y-17003984D01*
X12978920Y-17003984D02*
X12921777Y-17003984D01*
X12921777Y-17003984D02*
X12902729Y-16994460D01*
X12902729Y-16994460D02*
X12893206Y-16984936D01*
X13140825Y-16803984D02*
X13159872Y-16803984D01*
X13159872Y-16803984D02*
X13178920Y-16813508D01*
X13178920Y-16813508D02*
X13188444Y-16823031D01*
X13188444Y-16823031D02*
X13197968Y-16842079D01*
X13197968Y-16842079D02*
X13207491Y-16880174D01*
X13207491Y-16880174D02*
X13207491Y-16927793D01*
X13207491Y-16927793D02*
X13197968Y-16965889D01*
X13197968Y-16965889D02*
X13188444Y-16984936D01*
X13188444Y-16984936D02*
X13178920Y-16994460D01*
X13178920Y-16994460D02*
X13159872Y-17003984D01*
X13159872Y-17003984D02*
X13140825Y-17003984D01*
X13140825Y-17003984D02*
X13121777Y-16994460D01*
X13121777Y-16994460D02*
X13112253Y-16984936D01*
X13112253Y-16984936D02*
X13102729Y-16965889D01*
X13102729Y-16965889D02*
X13093206Y-16927793D01*
X13093206Y-16927793D02*
X13093206Y-16880174D01*
X13093206Y-16880174D02*
X13102729Y-16842079D01*
X13102729Y-16842079D02*
X13112253Y-16823031D01*
X13112253Y-16823031D02*
X13121777Y-16813508D01*
X13121777Y-16813508D02*
X13140825Y-16803984D01*
X13445587Y-17003984D02*
X13445587Y-16803984D01*
X13531301Y-17003984D02*
X13531301Y-16899222D01*
X13531301Y-16899222D02*
X13521777Y-16880174D01*
X13521777Y-16880174D02*
X13502730Y-16870650D01*
X13502730Y-16870650D02*
X13474158Y-16870650D01*
X13474158Y-16870650D02*
X13455110Y-16880174D01*
X13455110Y-16880174D02*
X13445587Y-16889698D01*
X13655110Y-17003984D02*
X13636063Y-16994460D01*
X13636063Y-16994460D02*
X13626539Y-16984936D01*
X13626539Y-16984936D02*
X13617015Y-16965889D01*
X13617015Y-16965889D02*
X13617015Y-16908746D01*
X13617015Y-16908746D02*
X13626539Y-16889698D01*
X13626539Y-16889698D02*
X13636063Y-16880174D01*
X13636063Y-16880174D02*
X13655110Y-16870650D01*
X13655110Y-16870650D02*
X13683682Y-16870650D01*
X13683682Y-16870650D02*
X13702730Y-16880174D01*
X13702730Y-16880174D02*
X13712253Y-16889698D01*
X13712253Y-16889698D02*
X13721777Y-16908746D01*
X13721777Y-16908746D02*
X13721777Y-16965889D01*
X13721777Y-16965889D02*
X13712253Y-16984936D01*
X13712253Y-16984936D02*
X13702730Y-16994460D01*
X13702730Y-16994460D02*
X13683682Y-17003984D01*
X13683682Y-17003984D02*
X13655110Y-17003984D01*
X13836063Y-17003984D02*
X13817015Y-16994460D01*
X13817015Y-16994460D02*
X13807491Y-16975412D01*
X13807491Y-16975412D02*
X13807491Y-16803984D01*
X13988444Y-16994460D02*
X13969396Y-17003984D01*
X13969396Y-17003984D02*
X13931301Y-17003984D01*
X13931301Y-17003984D02*
X13912253Y-16994460D01*
X13912253Y-16994460D02*
X13902730Y-16975412D01*
X13902730Y-16975412D02*
X13902730Y-16899222D01*
X13902730Y-16899222D02*
X13912253Y-16880174D01*
X13912253Y-16880174D02*
X13931301Y-16870650D01*
X13931301Y-16870650D02*
X13969396Y-16870650D01*
X13969396Y-16870650D02*
X13988444Y-16880174D01*
X13988444Y-16880174D02*
X13997968Y-16899222D01*
X13997968Y-16899222D02*
X13997968Y-16918270D01*
X13997968Y-16918270D02*
X13902730Y-16937317D01*
X14074158Y-16994460D02*
X14093206Y-17003984D01*
X14093206Y-17003984D02*
X14131301Y-17003984D01*
X14131301Y-17003984D02*
X14150349Y-16994460D01*
X14150349Y-16994460D02*
X14159872Y-16975412D01*
X14159872Y-16975412D02*
X14159872Y-16965889D01*
X14159872Y-16965889D02*
X14150349Y-16946841D01*
X14150349Y-16946841D02*
X14131301Y-16937317D01*
X14131301Y-16937317D02*
X14102730Y-16937317D01*
X14102730Y-16937317D02*
X14083682Y-16927793D01*
X14083682Y-16927793D02*
X14074158Y-16908746D01*
X14074158Y-16908746D02*
X14074158Y-16899222D01*
X14074158Y-16899222D02*
X14083682Y-16880174D01*
X14083682Y-16880174D02*
X14102730Y-16870650D01*
X14102730Y-16870650D02*
X14131301Y-16870650D01*
X14131301Y-16870650D02*
X14150349Y-16880174D01*
X14226539Y-17080174D02*
X14236063Y-17070650D01*
X14236063Y-17070650D02*
X14255111Y-17042079D01*
X14255111Y-17042079D02*
X14264634Y-17023031D01*
X14264634Y-17023031D02*
X14274158Y-16994460D01*
X14274158Y-16994460D02*
X14283682Y-16946841D01*
X14283682Y-16946841D02*
X14283682Y-16908746D01*
X14283682Y-16908746D02*
X14274158Y-16861127D01*
X14274158Y-16861127D02*
X14264634Y-16832555D01*
X14264634Y-16832555D02*
X14255111Y-16813508D01*
X14255111Y-16813508D02*
X14236063Y-16784936D01*
X14236063Y-16784936D02*
X14226539Y-16775412D01*
D13*
X9151000Y-17121500D02*
X9261000Y-17231500D01*
X9261000Y-17121500D02*
X9151000Y-17231500D01*
X9206000Y-17231500D02*
X9261000Y-17176500D01*
X9206000Y-17121500D01*
X9151000Y-17176500D01*
X9206000Y-17231500D01*
D10*
X9626539Y-17267984D02*
X9512253Y-17267984D01*
X9569396Y-17267984D02*
X9569396Y-17067984D01*
X9569396Y-17067984D02*
X9550348Y-17096555D01*
X9550348Y-17096555D02*
X9531301Y-17115603D01*
X9531301Y-17115603D02*
X9512253Y-17125127D01*
X9712253Y-17248936D02*
X9721777Y-17258460D01*
X9721777Y-17258460D02*
X9712253Y-17267984D01*
X9712253Y-17267984D02*
X9702729Y-17258460D01*
X9702729Y-17258460D02*
X9712253Y-17248936D01*
X9712253Y-17248936D02*
X9712253Y-17267984D01*
X9912253Y-17267984D02*
X9797967Y-17267984D01*
X9855110Y-17267984D02*
X9855110Y-17067984D01*
X9855110Y-17067984D02*
X9836063Y-17096555D01*
X9836063Y-17096555D02*
X9817015Y-17115603D01*
X9817015Y-17115603D02*
X9797967Y-17125127D01*
X10036063Y-17067984D02*
X10055110Y-17067984D01*
X10055110Y-17067984D02*
X10074158Y-17077508D01*
X10074158Y-17077508D02*
X10083682Y-17087031D01*
X10083682Y-17087031D02*
X10093205Y-17106079D01*
X10093205Y-17106079D02*
X10102729Y-17144174D01*
X10102729Y-17144174D02*
X10102729Y-17191793D01*
X10102729Y-17191793D02*
X10093205Y-17229889D01*
X10093205Y-17229889D02*
X10083682Y-17248936D01*
X10083682Y-17248936D02*
X10074158Y-17258460D01*
X10074158Y-17258460D02*
X10055110Y-17267984D01*
X10055110Y-17267984D02*
X10036063Y-17267984D01*
X10036063Y-17267984D02*
X10017015Y-17258460D01*
X10017015Y-17258460D02*
X10007491Y-17248936D01*
X10007491Y-17248936D02*
X9997967Y-17229889D01*
X9997967Y-17229889D02*
X9988444Y-17191793D01*
X9988444Y-17191793D02*
X9988444Y-17144174D01*
X9988444Y-17144174D02*
X9997967Y-17106079D01*
X9997967Y-17106079D02*
X10007491Y-17087031D01*
X10007491Y-17087031D02*
X10017015Y-17077508D01*
X10017015Y-17077508D02*
X10036063Y-17067984D01*
X10226539Y-17067984D02*
X10245586Y-17067984D01*
X10245586Y-17067984D02*
X10264634Y-17077508D01*
X10264634Y-17077508D02*
X10274158Y-17087031D01*
X10274158Y-17087031D02*
X10283682Y-17106079D01*
X10283682Y-17106079D02*
X10293205Y-17144174D01*
X10293205Y-17144174D02*
X10293205Y-17191793D01*
X10293205Y-17191793D02*
X10283682Y-17229889D01*
X10283682Y-17229889D02*
X10274158Y-17248936D01*
X10274158Y-17248936D02*
X10264634Y-17258460D01*
X10264634Y-17258460D02*
X10245586Y-17267984D01*
X10245586Y-17267984D02*
X10226539Y-17267984D01*
X10226539Y-17267984D02*
X10207491Y-17258460D01*
X10207491Y-17258460D02*
X10197967Y-17248936D01*
X10197967Y-17248936D02*
X10188444Y-17229889D01*
X10188444Y-17229889D02*
X10178920Y-17191793D01*
X10178920Y-17191793D02*
X10178920Y-17144174D01*
X10178920Y-17144174D02*
X10188444Y-17106079D01*
X10188444Y-17106079D02*
X10197967Y-17087031D01*
X10197967Y-17087031D02*
X10207491Y-17077508D01*
X10207491Y-17077508D02*
X10226539Y-17067984D01*
X10378920Y-17267984D02*
X10378920Y-17134650D01*
X10378920Y-17153698D02*
X10388444Y-17144174D01*
X10388444Y-17144174D02*
X10407491Y-17134650D01*
X10407491Y-17134650D02*
X10436063Y-17134650D01*
X10436063Y-17134650D02*
X10455110Y-17144174D01*
X10455110Y-17144174D02*
X10464634Y-17163222D01*
X10464634Y-17163222D02*
X10464634Y-17267984D01*
X10464634Y-17163222D02*
X10474158Y-17144174D01*
X10474158Y-17144174D02*
X10493205Y-17134650D01*
X10493205Y-17134650D02*
X10521777Y-17134650D01*
X10521777Y-17134650D02*
X10540825Y-17144174D01*
X10540825Y-17144174D02*
X10550348Y-17163222D01*
X10550348Y-17163222D02*
X10550348Y-17267984D01*
X10645586Y-17267984D02*
X10645586Y-17134650D01*
X10645586Y-17153698D02*
X10655110Y-17144174D01*
X10655110Y-17144174D02*
X10674158Y-17134650D01*
X10674158Y-17134650D02*
X10702729Y-17134650D01*
X10702729Y-17134650D02*
X10721777Y-17144174D01*
X10721777Y-17144174D02*
X10731301Y-17163222D01*
X10731301Y-17163222D02*
X10731301Y-17267984D01*
X10731301Y-17163222D02*
X10740825Y-17144174D01*
X10740825Y-17144174D02*
X10759872Y-17134650D01*
X10759872Y-17134650D02*
X10788444Y-17134650D01*
X10788444Y-17134650D02*
X10807491Y-17144174D01*
X10807491Y-17144174D02*
X10817015Y-17163222D01*
X10817015Y-17163222D02*
X10817015Y-17267984D01*
X11207491Y-17058460D02*
X11036063Y-17315603D01*
X11464634Y-17067984D02*
X11483682Y-17067984D01*
X11483682Y-17067984D02*
X11502729Y-17077508D01*
X11502729Y-17077508D02*
X11512253Y-17087031D01*
X11512253Y-17087031D02*
X11521777Y-17106079D01*
X11521777Y-17106079D02*
X11531301Y-17144174D01*
X11531301Y-17144174D02*
X11531301Y-17191793D01*
X11531301Y-17191793D02*
X11521777Y-17229889D01*
X11521777Y-17229889D02*
X11512253Y-17248936D01*
X11512253Y-17248936D02*
X11502729Y-17258460D01*
X11502729Y-17258460D02*
X11483682Y-17267984D01*
X11483682Y-17267984D02*
X11464634Y-17267984D01*
X11464634Y-17267984D02*
X11445586Y-17258460D01*
X11445586Y-17258460D02*
X11436063Y-17248936D01*
X11436063Y-17248936D02*
X11426539Y-17229889D01*
X11426539Y-17229889D02*
X11417015Y-17191793D01*
X11417015Y-17191793D02*
X11417015Y-17144174D01*
X11417015Y-17144174D02*
X11426539Y-17106079D01*
X11426539Y-17106079D02*
X11436063Y-17087031D01*
X11436063Y-17087031D02*
X11445586Y-17077508D01*
X11445586Y-17077508D02*
X11464634Y-17067984D01*
X11617015Y-17248936D02*
X11626539Y-17258460D01*
X11626539Y-17258460D02*
X11617015Y-17267984D01*
X11617015Y-17267984D02*
X11607491Y-17258460D01*
X11607491Y-17258460D02*
X11617015Y-17248936D01*
X11617015Y-17248936D02*
X11617015Y-17267984D01*
X11750348Y-17067984D02*
X11769396Y-17067984D01*
X11769396Y-17067984D02*
X11788444Y-17077508D01*
X11788444Y-17077508D02*
X11797967Y-17087031D01*
X11797967Y-17087031D02*
X11807491Y-17106079D01*
X11807491Y-17106079D02*
X11817015Y-17144174D01*
X11817015Y-17144174D02*
X11817015Y-17191793D01*
X11817015Y-17191793D02*
X11807491Y-17229889D01*
X11807491Y-17229889D02*
X11797967Y-17248936D01*
X11797967Y-17248936D02*
X11788444Y-17258460D01*
X11788444Y-17258460D02*
X11769396Y-17267984D01*
X11769396Y-17267984D02*
X11750348Y-17267984D01*
X11750348Y-17267984D02*
X11731301Y-17258460D01*
X11731301Y-17258460D02*
X11721777Y-17248936D01*
X11721777Y-17248936D02*
X11712253Y-17229889D01*
X11712253Y-17229889D02*
X11702729Y-17191793D01*
X11702729Y-17191793D02*
X11702729Y-17144174D01*
X11702729Y-17144174D02*
X11712253Y-17106079D01*
X11712253Y-17106079D02*
X11721777Y-17087031D01*
X11721777Y-17087031D02*
X11731301Y-17077508D01*
X11731301Y-17077508D02*
X11750348Y-17067984D01*
X11988444Y-17134650D02*
X11988444Y-17267984D01*
X11940825Y-17058460D02*
X11893206Y-17201317D01*
X11893206Y-17201317D02*
X12017015Y-17201317D01*
X12074158Y-17067984D02*
X12197967Y-17067984D01*
X12197967Y-17067984D02*
X12131301Y-17144174D01*
X12131301Y-17144174D02*
X12159872Y-17144174D01*
X12159872Y-17144174D02*
X12178920Y-17153698D01*
X12178920Y-17153698D02*
X12188444Y-17163222D01*
X12188444Y-17163222D02*
X12197967Y-17182270D01*
X12197967Y-17182270D02*
X12197967Y-17229889D01*
X12197967Y-17229889D02*
X12188444Y-17248936D01*
X12188444Y-17248936D02*
X12178920Y-17258460D01*
X12178920Y-17258460D02*
X12159872Y-17267984D01*
X12159872Y-17267984D02*
X12102729Y-17267984D01*
X12102729Y-17267984D02*
X12083682Y-17258460D01*
X12083682Y-17258460D02*
X12074158Y-17248936D01*
X12264634Y-17067984D02*
X12388444Y-17067984D01*
X12388444Y-17067984D02*
X12321777Y-17144174D01*
X12321777Y-17144174D02*
X12350348Y-17144174D01*
X12350348Y-17144174D02*
X12369396Y-17153698D01*
X12369396Y-17153698D02*
X12378920Y-17163222D01*
X12378920Y-17163222D02*
X12388444Y-17182270D01*
X12388444Y-17182270D02*
X12388444Y-17229889D01*
X12388444Y-17229889D02*
X12378920Y-17248936D01*
X12378920Y-17248936D02*
X12369396Y-17258460D01*
X12369396Y-17258460D02*
X12350348Y-17267984D01*
X12350348Y-17267984D02*
X12293206Y-17267984D01*
X12293206Y-17267984D02*
X12274158Y-17258460D01*
X12274158Y-17258460D02*
X12264634Y-17248936D01*
X12464634Y-17067984D02*
X12464634Y-17106079D01*
X12540825Y-17067984D02*
X12540825Y-17106079D01*
X12836063Y-17344174D02*
X12826539Y-17334650D01*
X12826539Y-17334650D02*
X12807491Y-17306079D01*
X12807491Y-17306079D02*
X12797968Y-17287031D01*
X12797968Y-17287031D02*
X12788444Y-17258460D01*
X12788444Y-17258460D02*
X12778920Y-17210841D01*
X12778920Y-17210841D02*
X12778920Y-17172746D01*
X12778920Y-17172746D02*
X12788444Y-17125127D01*
X12788444Y-17125127D02*
X12797968Y-17096555D01*
X12797968Y-17096555D02*
X12807491Y-17077508D01*
X12807491Y-17077508D02*
X12826539Y-17048936D01*
X12826539Y-17048936D02*
X12836063Y-17039412D01*
X12997968Y-17134650D02*
X12997968Y-17267984D01*
X12950348Y-17058460D02*
X12902729Y-17201317D01*
X12902729Y-17201317D02*
X13026539Y-17201317D01*
X13255110Y-17267984D02*
X13255110Y-17067984D01*
X13340825Y-17267984D02*
X13340825Y-17163222D01*
X13340825Y-17163222D02*
X13331301Y-17144174D01*
X13331301Y-17144174D02*
X13312253Y-17134650D01*
X13312253Y-17134650D02*
X13283682Y-17134650D01*
X13283682Y-17134650D02*
X13264634Y-17144174D01*
X13264634Y-17144174D02*
X13255110Y-17153698D01*
X13464634Y-17267984D02*
X13445587Y-17258460D01*
X13445587Y-17258460D02*
X13436063Y-17248936D01*
X13436063Y-17248936D02*
X13426539Y-17229889D01*
X13426539Y-17229889D02*
X13426539Y-17172746D01*
X13426539Y-17172746D02*
X13436063Y-17153698D01*
X13436063Y-17153698D02*
X13445587Y-17144174D01*
X13445587Y-17144174D02*
X13464634Y-17134650D01*
X13464634Y-17134650D02*
X13493206Y-17134650D01*
X13493206Y-17134650D02*
X13512253Y-17144174D01*
X13512253Y-17144174D02*
X13521777Y-17153698D01*
X13521777Y-17153698D02*
X13531301Y-17172746D01*
X13531301Y-17172746D02*
X13531301Y-17229889D01*
X13531301Y-17229889D02*
X13521777Y-17248936D01*
X13521777Y-17248936D02*
X13512253Y-17258460D01*
X13512253Y-17258460D02*
X13493206Y-17267984D01*
X13493206Y-17267984D02*
X13464634Y-17267984D01*
X13645587Y-17267984D02*
X13626539Y-17258460D01*
X13626539Y-17258460D02*
X13617015Y-17239412D01*
X13617015Y-17239412D02*
X13617015Y-17067984D01*
X13797968Y-17258460D02*
X13778920Y-17267984D01*
X13778920Y-17267984D02*
X13740825Y-17267984D01*
X13740825Y-17267984D02*
X13721777Y-17258460D01*
X13721777Y-17258460D02*
X13712253Y-17239412D01*
X13712253Y-17239412D02*
X13712253Y-17163222D01*
X13712253Y-17163222D02*
X13721777Y-17144174D01*
X13721777Y-17144174D02*
X13740825Y-17134650D01*
X13740825Y-17134650D02*
X13778920Y-17134650D01*
X13778920Y-17134650D02*
X13797968Y-17144174D01*
X13797968Y-17144174D02*
X13807491Y-17163222D01*
X13807491Y-17163222D02*
X13807491Y-17182270D01*
X13807491Y-17182270D02*
X13712253Y-17201317D01*
X13883682Y-17258460D02*
X13902730Y-17267984D01*
X13902730Y-17267984D02*
X13940825Y-17267984D01*
X13940825Y-17267984D02*
X13959872Y-17258460D01*
X13959872Y-17258460D02*
X13969396Y-17239412D01*
X13969396Y-17239412D02*
X13969396Y-17229889D01*
X13969396Y-17229889D02*
X13959872Y-17210841D01*
X13959872Y-17210841D02*
X13940825Y-17201317D01*
X13940825Y-17201317D02*
X13912253Y-17201317D01*
X13912253Y-17201317D02*
X13893206Y-17191793D01*
X13893206Y-17191793D02*
X13883682Y-17172746D01*
X13883682Y-17172746D02*
X13883682Y-17163222D01*
X13883682Y-17163222D02*
X13893206Y-17144174D01*
X13893206Y-17144174D02*
X13912253Y-17134650D01*
X13912253Y-17134650D02*
X13940825Y-17134650D01*
X13940825Y-17134650D02*
X13959872Y-17144174D01*
X14036063Y-17344174D02*
X14045587Y-17334650D01*
X14045587Y-17334650D02*
X14064634Y-17306079D01*
X14064634Y-17306079D02*
X14074158Y-17287031D01*
X14074158Y-17287031D02*
X14083682Y-17258460D01*
X14083682Y-17258460D02*
X14093206Y-17210841D01*
X14093206Y-17210841D02*
X14093206Y-17172746D01*
X14093206Y-17172746D02*
X14083682Y-17125127D01*
X14083682Y-17125127D02*
X14074158Y-17096555D01*
X14074158Y-17096555D02*
X14064634Y-17077508D01*
X14064634Y-17077508D02*
X14045587Y-17048936D01*
X14045587Y-17048936D02*
X14036063Y-17039412D01*
D14*
X9197000Y-17376500D02*
X9197000Y-17504500D01*
X9133000Y-17440500D02*
X9261000Y-17440500D01*
X9261000Y-17440500D02*
G75*
G02*
X9133000Y-17440500I-64000J0D01*
G01*
X9133000Y-17440500D02*
G75*
G02*
X9261000Y-17440500I64000J0D01*
G01*
D10*
X9626539Y-17531984D02*
X9512253Y-17531984D01*
X9569396Y-17531984D02*
X9569396Y-17331984D01*
X9569396Y-17331984D02*
X9550348Y-17360555D01*
X9550348Y-17360555D02*
X9531301Y-17379603D01*
X9531301Y-17379603D02*
X9512253Y-17389127D01*
X9712253Y-17512936D02*
X9721777Y-17522460D01*
X9721777Y-17522460D02*
X9712253Y-17531984D01*
X9712253Y-17531984D02*
X9702729Y-17522460D01*
X9702729Y-17522460D02*
X9712253Y-17512936D01*
X9712253Y-17512936D02*
X9712253Y-17531984D01*
X9797967Y-17351031D02*
X9807491Y-17341508D01*
X9807491Y-17341508D02*
X9826539Y-17331984D01*
X9826539Y-17331984D02*
X9874158Y-17331984D01*
X9874158Y-17331984D02*
X9893205Y-17341508D01*
X9893205Y-17341508D02*
X9902729Y-17351031D01*
X9902729Y-17351031D02*
X9912253Y-17370079D01*
X9912253Y-17370079D02*
X9912253Y-17389127D01*
X9912253Y-17389127D02*
X9902729Y-17417698D01*
X9902729Y-17417698D02*
X9788444Y-17531984D01*
X9788444Y-17531984D02*
X9912253Y-17531984D01*
X10026539Y-17417698D02*
X10007491Y-17408174D01*
X10007491Y-17408174D02*
X9997967Y-17398650D01*
X9997967Y-17398650D02*
X9988444Y-17379603D01*
X9988444Y-17379603D02*
X9988444Y-17370079D01*
X9988444Y-17370079D02*
X9997967Y-17351031D01*
X9997967Y-17351031D02*
X10007491Y-17341508D01*
X10007491Y-17341508D02*
X10026539Y-17331984D01*
X10026539Y-17331984D02*
X10064634Y-17331984D01*
X10064634Y-17331984D02*
X10083682Y-17341508D01*
X10083682Y-17341508D02*
X10093205Y-17351031D01*
X10093205Y-17351031D02*
X10102729Y-17370079D01*
X10102729Y-17370079D02*
X10102729Y-17379603D01*
X10102729Y-17379603D02*
X10093205Y-17398650D01*
X10093205Y-17398650D02*
X10083682Y-17408174D01*
X10083682Y-17408174D02*
X10064634Y-17417698D01*
X10064634Y-17417698D02*
X10026539Y-17417698D01*
X10026539Y-17417698D02*
X10007491Y-17427222D01*
X10007491Y-17427222D02*
X9997967Y-17436746D01*
X9997967Y-17436746D02*
X9988444Y-17455793D01*
X9988444Y-17455793D02*
X9988444Y-17493889D01*
X9988444Y-17493889D02*
X9997967Y-17512936D01*
X9997967Y-17512936D02*
X10007491Y-17522460D01*
X10007491Y-17522460D02*
X10026539Y-17531984D01*
X10026539Y-17531984D02*
X10064634Y-17531984D01*
X10064634Y-17531984D02*
X10083682Y-17522460D01*
X10083682Y-17522460D02*
X10093205Y-17512936D01*
X10093205Y-17512936D02*
X10102729Y-17493889D01*
X10102729Y-17493889D02*
X10102729Y-17455793D01*
X10102729Y-17455793D02*
X10093205Y-17436746D01*
X10093205Y-17436746D02*
X10083682Y-17427222D01*
X10083682Y-17427222D02*
X10064634Y-17417698D01*
X10226539Y-17331984D02*
X10245586Y-17331984D01*
X10245586Y-17331984D02*
X10264634Y-17341508D01*
X10264634Y-17341508D02*
X10274158Y-17351031D01*
X10274158Y-17351031D02*
X10283682Y-17370079D01*
X10283682Y-17370079D02*
X10293205Y-17408174D01*
X10293205Y-17408174D02*
X10293205Y-17455793D01*
X10293205Y-17455793D02*
X10283682Y-17493889D01*
X10283682Y-17493889D02*
X10274158Y-17512936D01*
X10274158Y-17512936D02*
X10264634Y-17522460D01*
X10264634Y-17522460D02*
X10245586Y-17531984D01*
X10245586Y-17531984D02*
X10226539Y-17531984D01*
X10226539Y-17531984D02*
X10207491Y-17522460D01*
X10207491Y-17522460D02*
X10197967Y-17512936D01*
X10197967Y-17512936D02*
X10188444Y-17493889D01*
X10188444Y-17493889D02*
X10178920Y-17455793D01*
X10178920Y-17455793D02*
X10178920Y-17408174D01*
X10178920Y-17408174D02*
X10188444Y-17370079D01*
X10188444Y-17370079D02*
X10197967Y-17351031D01*
X10197967Y-17351031D02*
X10207491Y-17341508D01*
X10207491Y-17341508D02*
X10226539Y-17331984D01*
X10378920Y-17531984D02*
X10378920Y-17398650D01*
X10378920Y-17417698D02*
X10388444Y-17408174D01*
X10388444Y-17408174D02*
X10407491Y-17398650D01*
X10407491Y-17398650D02*
X10436063Y-17398650D01*
X10436063Y-17398650D02*
X10455110Y-17408174D01*
X10455110Y-17408174D02*
X10464634Y-17427222D01*
X10464634Y-17427222D02*
X10464634Y-17531984D01*
X10464634Y-17427222D02*
X10474158Y-17408174D01*
X10474158Y-17408174D02*
X10493205Y-17398650D01*
X10493205Y-17398650D02*
X10521777Y-17398650D01*
X10521777Y-17398650D02*
X10540825Y-17408174D01*
X10540825Y-17408174D02*
X10550348Y-17427222D01*
X10550348Y-17427222D02*
X10550348Y-17531984D01*
X10645586Y-17531984D02*
X10645586Y-17398650D01*
X10645586Y-17417698D02*
X10655110Y-17408174D01*
X10655110Y-17408174D02*
X10674158Y-17398650D01*
X10674158Y-17398650D02*
X10702729Y-17398650D01*
X10702729Y-17398650D02*
X10721777Y-17408174D01*
X10721777Y-17408174D02*
X10731301Y-17427222D01*
X10731301Y-17427222D02*
X10731301Y-17531984D01*
X10731301Y-17427222D02*
X10740825Y-17408174D01*
X10740825Y-17408174D02*
X10759872Y-17398650D01*
X10759872Y-17398650D02*
X10788444Y-17398650D01*
X10788444Y-17398650D02*
X10807491Y-17408174D01*
X10807491Y-17408174D02*
X10817015Y-17427222D01*
X10817015Y-17427222D02*
X10817015Y-17531984D01*
X11207491Y-17322460D02*
X11036063Y-17579603D01*
X11464634Y-17331984D02*
X11483682Y-17331984D01*
X11483682Y-17331984D02*
X11502729Y-17341508D01*
X11502729Y-17341508D02*
X11512253Y-17351031D01*
X11512253Y-17351031D02*
X11521777Y-17370079D01*
X11521777Y-17370079D02*
X11531301Y-17408174D01*
X11531301Y-17408174D02*
X11531301Y-17455793D01*
X11531301Y-17455793D02*
X11521777Y-17493889D01*
X11521777Y-17493889D02*
X11512253Y-17512936D01*
X11512253Y-17512936D02*
X11502729Y-17522460D01*
X11502729Y-17522460D02*
X11483682Y-17531984D01*
X11483682Y-17531984D02*
X11464634Y-17531984D01*
X11464634Y-17531984D02*
X11445586Y-17522460D01*
X11445586Y-17522460D02*
X11436063Y-17512936D01*
X11436063Y-17512936D02*
X11426539Y-17493889D01*
X11426539Y-17493889D02*
X11417015Y-17455793D01*
X11417015Y-17455793D02*
X11417015Y-17408174D01*
X11417015Y-17408174D02*
X11426539Y-17370079D01*
X11426539Y-17370079D02*
X11436063Y-17351031D01*
X11436063Y-17351031D02*
X11445586Y-17341508D01*
X11445586Y-17341508D02*
X11464634Y-17331984D01*
X11617015Y-17512936D02*
X11626539Y-17522460D01*
X11626539Y-17522460D02*
X11617015Y-17531984D01*
X11617015Y-17531984D02*
X11607491Y-17522460D01*
X11607491Y-17522460D02*
X11617015Y-17512936D01*
X11617015Y-17512936D02*
X11617015Y-17531984D01*
X11750348Y-17331984D02*
X11769396Y-17331984D01*
X11769396Y-17331984D02*
X11788444Y-17341508D01*
X11788444Y-17341508D02*
X11797967Y-17351031D01*
X11797967Y-17351031D02*
X11807491Y-17370079D01*
X11807491Y-17370079D02*
X11817015Y-17408174D01*
X11817015Y-17408174D02*
X11817015Y-17455793D01*
X11817015Y-17455793D02*
X11807491Y-17493889D01*
X11807491Y-17493889D02*
X11797967Y-17512936D01*
X11797967Y-17512936D02*
X11788444Y-17522460D01*
X11788444Y-17522460D02*
X11769396Y-17531984D01*
X11769396Y-17531984D02*
X11750348Y-17531984D01*
X11750348Y-17531984D02*
X11731301Y-17522460D01*
X11731301Y-17522460D02*
X11721777Y-17512936D01*
X11721777Y-17512936D02*
X11712253Y-17493889D01*
X11712253Y-17493889D02*
X11702729Y-17455793D01*
X11702729Y-17455793D02*
X11702729Y-17408174D01*
X11702729Y-17408174D02*
X11712253Y-17370079D01*
X11712253Y-17370079D02*
X11721777Y-17351031D01*
X11721777Y-17351031D02*
X11731301Y-17341508D01*
X11731301Y-17341508D02*
X11750348Y-17331984D01*
X11997967Y-17331984D02*
X11902729Y-17331984D01*
X11902729Y-17331984D02*
X11893206Y-17427222D01*
X11893206Y-17427222D02*
X11902729Y-17417698D01*
X11902729Y-17417698D02*
X11921777Y-17408174D01*
X11921777Y-17408174D02*
X11969396Y-17408174D01*
X11969396Y-17408174D02*
X11988444Y-17417698D01*
X11988444Y-17417698D02*
X11997967Y-17427222D01*
X11997967Y-17427222D02*
X12007491Y-17446270D01*
X12007491Y-17446270D02*
X12007491Y-17493889D01*
X12007491Y-17493889D02*
X11997967Y-17512936D01*
X11997967Y-17512936D02*
X11988444Y-17522460D01*
X11988444Y-17522460D02*
X11969396Y-17531984D01*
X11969396Y-17531984D02*
X11921777Y-17531984D01*
X11921777Y-17531984D02*
X11902729Y-17522460D01*
X11902729Y-17522460D02*
X11893206Y-17512936D01*
X12131301Y-17331984D02*
X12150348Y-17331984D01*
X12150348Y-17331984D02*
X12169396Y-17341508D01*
X12169396Y-17341508D02*
X12178920Y-17351031D01*
X12178920Y-17351031D02*
X12188444Y-17370079D01*
X12188444Y-17370079D02*
X12197967Y-17408174D01*
X12197967Y-17408174D02*
X12197967Y-17455793D01*
X12197967Y-17455793D02*
X12188444Y-17493889D01*
X12188444Y-17493889D02*
X12178920Y-17512936D01*
X12178920Y-17512936D02*
X12169396Y-17522460D01*
X12169396Y-17522460D02*
X12150348Y-17531984D01*
X12150348Y-17531984D02*
X12131301Y-17531984D01*
X12131301Y-17531984D02*
X12112253Y-17522460D01*
X12112253Y-17522460D02*
X12102729Y-17512936D01*
X12102729Y-17512936D02*
X12093206Y-17493889D01*
X12093206Y-17493889D02*
X12083682Y-17455793D01*
X12083682Y-17455793D02*
X12083682Y-17408174D01*
X12083682Y-17408174D02*
X12093206Y-17370079D01*
X12093206Y-17370079D02*
X12102729Y-17351031D01*
X12102729Y-17351031D02*
X12112253Y-17341508D01*
X12112253Y-17341508D02*
X12131301Y-17331984D01*
X12369396Y-17398650D02*
X12369396Y-17531984D01*
X12321777Y-17322460D02*
X12274158Y-17465317D01*
X12274158Y-17465317D02*
X12397967Y-17465317D01*
X12464634Y-17331984D02*
X12464634Y-17370079D01*
X12540825Y-17331984D02*
X12540825Y-17370079D01*
X12836063Y-17608174D02*
X12826539Y-17598650D01*
X12826539Y-17598650D02*
X12807491Y-17570079D01*
X12807491Y-17570079D02*
X12797968Y-17551031D01*
X12797968Y-17551031D02*
X12788444Y-17522460D01*
X12788444Y-17522460D02*
X12778920Y-17474841D01*
X12778920Y-17474841D02*
X12778920Y-17436746D01*
X12778920Y-17436746D02*
X12788444Y-17389127D01*
X12788444Y-17389127D02*
X12797968Y-17360555D01*
X12797968Y-17360555D02*
X12807491Y-17341508D01*
X12807491Y-17341508D02*
X12826539Y-17312936D01*
X12826539Y-17312936D02*
X12836063Y-17303412D01*
X12997968Y-17331984D02*
X12959872Y-17331984D01*
X12959872Y-17331984D02*
X12940825Y-17341508D01*
X12940825Y-17341508D02*
X12931301Y-17351031D01*
X12931301Y-17351031D02*
X12912253Y-17379603D01*
X12912253Y-17379603D02*
X12902729Y-17417698D01*
X12902729Y-17417698D02*
X12902729Y-17493889D01*
X12902729Y-17493889D02*
X12912253Y-17512936D01*
X12912253Y-17512936D02*
X12921777Y-17522460D01*
X12921777Y-17522460D02*
X12940825Y-17531984D01*
X12940825Y-17531984D02*
X12978920Y-17531984D01*
X12978920Y-17531984D02*
X12997968Y-17522460D01*
X12997968Y-17522460D02*
X13007491Y-17512936D01*
X13007491Y-17512936D02*
X13017015Y-17493889D01*
X13017015Y-17493889D02*
X13017015Y-17446270D01*
X13017015Y-17446270D02*
X13007491Y-17427222D01*
X13007491Y-17427222D02*
X12997968Y-17417698D01*
X12997968Y-17417698D02*
X12978920Y-17408174D01*
X12978920Y-17408174D02*
X12940825Y-17408174D01*
X12940825Y-17408174D02*
X12921777Y-17417698D01*
X12921777Y-17417698D02*
X12912253Y-17427222D01*
X12912253Y-17427222D02*
X12902729Y-17446270D01*
X13255110Y-17531984D02*
X13255110Y-17331984D01*
X13340825Y-17531984D02*
X13340825Y-17427222D01*
X13340825Y-17427222D02*
X13331301Y-17408174D01*
X13331301Y-17408174D02*
X13312253Y-17398650D01*
X13312253Y-17398650D02*
X13283682Y-17398650D01*
X13283682Y-17398650D02*
X13264634Y-17408174D01*
X13264634Y-17408174D02*
X13255110Y-17417698D01*
X13464634Y-17531984D02*
X13445587Y-17522460D01*
X13445587Y-17522460D02*
X13436063Y-17512936D01*
X13436063Y-17512936D02*
X13426539Y-17493889D01*
X13426539Y-17493889D02*
X13426539Y-17436746D01*
X13426539Y-17436746D02*
X13436063Y-17417698D01*
X13436063Y-17417698D02*
X13445587Y-17408174D01*
X13445587Y-17408174D02*
X13464634Y-17398650D01*
X13464634Y-17398650D02*
X13493206Y-17398650D01*
X13493206Y-17398650D02*
X13512253Y-17408174D01*
X13512253Y-17408174D02*
X13521777Y-17417698D01*
X13521777Y-17417698D02*
X13531301Y-17436746D01*
X13531301Y-17436746D02*
X13531301Y-17493889D01*
X13531301Y-17493889D02*
X13521777Y-17512936D01*
X13521777Y-17512936D02*
X13512253Y-17522460D01*
X13512253Y-17522460D02*
X13493206Y-17531984D01*
X13493206Y-17531984D02*
X13464634Y-17531984D01*
X13645587Y-17531984D02*
X13626539Y-17522460D01*
X13626539Y-17522460D02*
X13617015Y-17503412D01*
X13617015Y-17503412D02*
X13617015Y-17331984D01*
X13797968Y-17522460D02*
X13778920Y-17531984D01*
X13778920Y-17531984D02*
X13740825Y-17531984D01*
X13740825Y-17531984D02*
X13721777Y-17522460D01*
X13721777Y-17522460D02*
X13712253Y-17503412D01*
X13712253Y-17503412D02*
X13712253Y-17427222D01*
X13712253Y-17427222D02*
X13721777Y-17408174D01*
X13721777Y-17408174D02*
X13740825Y-17398650D01*
X13740825Y-17398650D02*
X13778920Y-17398650D01*
X13778920Y-17398650D02*
X13797968Y-17408174D01*
X13797968Y-17408174D02*
X13807491Y-17427222D01*
X13807491Y-17427222D02*
X13807491Y-17446270D01*
X13807491Y-17446270D02*
X13712253Y-17465317D01*
X13883682Y-17522460D02*
X13902730Y-17531984D01*
X13902730Y-17531984D02*
X13940825Y-17531984D01*
X13940825Y-17531984D02*
X13959872Y-17522460D01*
X13959872Y-17522460D02*
X13969396Y-17503412D01*
X13969396Y-17503412D02*
X13969396Y-17493889D01*
X13969396Y-17493889D02*
X13959872Y-17474841D01*
X13959872Y-17474841D02*
X13940825Y-17465317D01*
X13940825Y-17465317D02*
X13912253Y-17465317D01*
X13912253Y-17465317D02*
X13893206Y-17455793D01*
X13893206Y-17455793D02*
X13883682Y-17436746D01*
X13883682Y-17436746D02*
X13883682Y-17427222D01*
X13883682Y-17427222D02*
X13893206Y-17408174D01*
X13893206Y-17408174D02*
X13912253Y-17398650D01*
X13912253Y-17398650D02*
X13940825Y-17398650D01*
X13940825Y-17398650D02*
X13959872Y-17408174D01*
X14036063Y-17608174D02*
X14045587Y-17598650D01*
X14045587Y-17598650D02*
X14064634Y-17570079D01*
X14064634Y-17570079D02*
X14074158Y-17551031D01*
X14074158Y-17551031D02*
X14083682Y-17522460D01*
X14083682Y-17522460D02*
X14093206Y-17474841D01*
X14093206Y-17474841D02*
X14093206Y-17436746D01*
X14093206Y-17436746D02*
X14083682Y-17389127D01*
X14083682Y-17389127D02*
X14074158Y-17360555D01*
X14074158Y-17360555D02*
X14064634Y-17341508D01*
X14064634Y-17341508D02*
X14045587Y-17312936D01*
X14045587Y-17312936D02*
X14036063Y-17303412D01*
D15*
X9241962Y-17750462D02*
X9241962Y-17658538D01*
X9150038Y-17658538D01*
X9150038Y-17750462D01*
X9241962Y-17750462D01*
X9261000Y-17704500D02*
G75*
G02*
X9131000Y-17704500I-65000J0D01*
G01*
X9131000Y-17704500D02*
G75*
G02*
X9261000Y-17704500I65000J0D01*
G01*
D10*
X9626539Y-17795984D02*
X9512253Y-17795984D01*
X9569396Y-17795984D02*
X9569396Y-17595984D01*
X9569396Y-17595984D02*
X9550348Y-17624555D01*
X9550348Y-17624555D02*
X9531301Y-17643603D01*
X9531301Y-17643603D02*
X9512253Y-17653127D01*
X9712253Y-17776936D02*
X9721777Y-17786460D01*
X9721777Y-17786460D02*
X9712253Y-17795984D01*
X9712253Y-17795984D02*
X9702729Y-17786460D01*
X9702729Y-17786460D02*
X9712253Y-17776936D01*
X9712253Y-17776936D02*
X9712253Y-17795984D01*
X9788444Y-17595984D02*
X9912253Y-17595984D01*
X9912253Y-17595984D02*
X9845586Y-17672174D01*
X9845586Y-17672174D02*
X9874158Y-17672174D01*
X9874158Y-17672174D02*
X9893205Y-17681698D01*
X9893205Y-17681698D02*
X9902729Y-17691222D01*
X9902729Y-17691222D02*
X9912253Y-17710270D01*
X9912253Y-17710270D02*
X9912253Y-17757889D01*
X9912253Y-17757889D02*
X9902729Y-17776936D01*
X9902729Y-17776936D02*
X9893205Y-17786460D01*
X9893205Y-17786460D02*
X9874158Y-17795984D01*
X9874158Y-17795984D02*
X9817015Y-17795984D01*
X9817015Y-17795984D02*
X9797967Y-17786460D01*
X9797967Y-17786460D02*
X9788444Y-17776936D01*
X10036063Y-17595984D02*
X10055110Y-17595984D01*
X10055110Y-17595984D02*
X10074158Y-17605508D01*
X10074158Y-17605508D02*
X10083682Y-17615031D01*
X10083682Y-17615031D02*
X10093205Y-17634079D01*
X10093205Y-17634079D02*
X10102729Y-17672174D01*
X10102729Y-17672174D02*
X10102729Y-17719793D01*
X10102729Y-17719793D02*
X10093205Y-17757889D01*
X10093205Y-17757889D02*
X10083682Y-17776936D01*
X10083682Y-17776936D02*
X10074158Y-17786460D01*
X10074158Y-17786460D02*
X10055110Y-17795984D01*
X10055110Y-17795984D02*
X10036063Y-17795984D01*
X10036063Y-17795984D02*
X10017015Y-17786460D01*
X10017015Y-17786460D02*
X10007491Y-17776936D01*
X10007491Y-17776936D02*
X9997967Y-17757889D01*
X9997967Y-17757889D02*
X9988444Y-17719793D01*
X9988444Y-17719793D02*
X9988444Y-17672174D01*
X9988444Y-17672174D02*
X9997967Y-17634079D01*
X9997967Y-17634079D02*
X10007491Y-17615031D01*
X10007491Y-17615031D02*
X10017015Y-17605508D01*
X10017015Y-17605508D02*
X10036063Y-17595984D01*
X10226539Y-17595984D02*
X10245586Y-17595984D01*
X10245586Y-17595984D02*
X10264634Y-17605508D01*
X10264634Y-17605508D02*
X10274158Y-17615031D01*
X10274158Y-17615031D02*
X10283682Y-17634079D01*
X10283682Y-17634079D02*
X10293205Y-17672174D01*
X10293205Y-17672174D02*
X10293205Y-17719793D01*
X10293205Y-17719793D02*
X10283682Y-17757889D01*
X10283682Y-17757889D02*
X10274158Y-17776936D01*
X10274158Y-17776936D02*
X10264634Y-17786460D01*
X10264634Y-17786460D02*
X10245586Y-17795984D01*
X10245586Y-17795984D02*
X10226539Y-17795984D01*
X10226539Y-17795984D02*
X10207491Y-17786460D01*
X10207491Y-17786460D02*
X10197967Y-17776936D01*
X10197967Y-17776936D02*
X10188444Y-17757889D01*
X10188444Y-17757889D02*
X10178920Y-17719793D01*
X10178920Y-17719793D02*
X10178920Y-17672174D01*
X10178920Y-17672174D02*
X10188444Y-17634079D01*
X10188444Y-17634079D02*
X10197967Y-17615031D01*
X10197967Y-17615031D02*
X10207491Y-17605508D01*
X10207491Y-17605508D02*
X10226539Y-17595984D01*
X10378920Y-17795984D02*
X10378920Y-17662650D01*
X10378920Y-17681698D02*
X10388444Y-17672174D01*
X10388444Y-17672174D02*
X10407491Y-17662650D01*
X10407491Y-17662650D02*
X10436063Y-17662650D01*
X10436063Y-17662650D02*
X10455110Y-17672174D01*
X10455110Y-17672174D02*
X10464634Y-17691222D01*
X10464634Y-17691222D02*
X10464634Y-17795984D01*
X10464634Y-17691222D02*
X10474158Y-17672174D01*
X10474158Y-17672174D02*
X10493205Y-17662650D01*
X10493205Y-17662650D02*
X10521777Y-17662650D01*
X10521777Y-17662650D02*
X10540825Y-17672174D01*
X10540825Y-17672174D02*
X10550348Y-17691222D01*
X10550348Y-17691222D02*
X10550348Y-17795984D01*
X10645586Y-17795984D02*
X10645586Y-17662650D01*
X10645586Y-17681698D02*
X10655110Y-17672174D01*
X10655110Y-17672174D02*
X10674158Y-17662650D01*
X10674158Y-17662650D02*
X10702729Y-17662650D01*
X10702729Y-17662650D02*
X10721777Y-17672174D01*
X10721777Y-17672174D02*
X10731301Y-17691222D01*
X10731301Y-17691222D02*
X10731301Y-17795984D01*
X10731301Y-17691222D02*
X10740825Y-17672174D01*
X10740825Y-17672174D02*
X10759872Y-17662650D01*
X10759872Y-17662650D02*
X10788444Y-17662650D01*
X10788444Y-17662650D02*
X10807491Y-17672174D01*
X10807491Y-17672174D02*
X10817015Y-17691222D01*
X10817015Y-17691222D02*
X10817015Y-17795984D01*
X11207491Y-17586460D02*
X11036063Y-17843603D01*
X11464634Y-17595984D02*
X11483682Y-17595984D01*
X11483682Y-17595984D02*
X11502729Y-17605508D01*
X11502729Y-17605508D02*
X11512253Y-17615031D01*
X11512253Y-17615031D02*
X11521777Y-17634079D01*
X11521777Y-17634079D02*
X11531301Y-17672174D01*
X11531301Y-17672174D02*
X11531301Y-17719793D01*
X11531301Y-17719793D02*
X11521777Y-17757889D01*
X11521777Y-17757889D02*
X11512253Y-17776936D01*
X11512253Y-17776936D02*
X11502729Y-17786460D01*
X11502729Y-17786460D02*
X11483682Y-17795984D01*
X11483682Y-17795984D02*
X11464634Y-17795984D01*
X11464634Y-17795984D02*
X11445586Y-17786460D01*
X11445586Y-17786460D02*
X11436063Y-17776936D01*
X11436063Y-17776936D02*
X11426539Y-17757889D01*
X11426539Y-17757889D02*
X11417015Y-17719793D01*
X11417015Y-17719793D02*
X11417015Y-17672174D01*
X11417015Y-17672174D02*
X11426539Y-17634079D01*
X11426539Y-17634079D02*
X11436063Y-17615031D01*
X11436063Y-17615031D02*
X11445586Y-17605508D01*
X11445586Y-17605508D02*
X11464634Y-17595984D01*
X11617015Y-17776936D02*
X11626539Y-17786460D01*
X11626539Y-17786460D02*
X11617015Y-17795984D01*
X11617015Y-17795984D02*
X11607491Y-17786460D01*
X11607491Y-17786460D02*
X11617015Y-17776936D01*
X11617015Y-17776936D02*
X11617015Y-17795984D01*
X11750348Y-17595984D02*
X11769396Y-17595984D01*
X11769396Y-17595984D02*
X11788444Y-17605508D01*
X11788444Y-17605508D02*
X11797967Y-17615031D01*
X11797967Y-17615031D02*
X11807491Y-17634079D01*
X11807491Y-17634079D02*
X11817015Y-17672174D01*
X11817015Y-17672174D02*
X11817015Y-17719793D01*
X11817015Y-17719793D02*
X11807491Y-17757889D01*
X11807491Y-17757889D02*
X11797967Y-17776936D01*
X11797967Y-17776936D02*
X11788444Y-17786460D01*
X11788444Y-17786460D02*
X11769396Y-17795984D01*
X11769396Y-17795984D02*
X11750348Y-17795984D01*
X11750348Y-17795984D02*
X11731301Y-17786460D01*
X11731301Y-17786460D02*
X11721777Y-17776936D01*
X11721777Y-17776936D02*
X11712253Y-17757889D01*
X11712253Y-17757889D02*
X11702729Y-17719793D01*
X11702729Y-17719793D02*
X11702729Y-17672174D01*
X11702729Y-17672174D02*
X11712253Y-17634079D01*
X11712253Y-17634079D02*
X11721777Y-17615031D01*
X11721777Y-17615031D02*
X11731301Y-17605508D01*
X11731301Y-17605508D02*
X11750348Y-17595984D01*
X11997967Y-17595984D02*
X11902729Y-17595984D01*
X11902729Y-17595984D02*
X11893206Y-17691222D01*
X11893206Y-17691222D02*
X11902729Y-17681698D01*
X11902729Y-17681698D02*
X11921777Y-17672174D01*
X11921777Y-17672174D02*
X11969396Y-17672174D01*
X11969396Y-17672174D02*
X11988444Y-17681698D01*
X11988444Y-17681698D02*
X11997967Y-17691222D01*
X11997967Y-17691222D02*
X12007491Y-17710270D01*
X12007491Y-17710270D02*
X12007491Y-17757889D01*
X12007491Y-17757889D02*
X11997967Y-17776936D01*
X11997967Y-17776936D02*
X11988444Y-17786460D01*
X11988444Y-17786460D02*
X11969396Y-17795984D01*
X11969396Y-17795984D02*
X11921777Y-17795984D01*
X11921777Y-17795984D02*
X11902729Y-17786460D01*
X11902729Y-17786460D02*
X11893206Y-17776936D01*
X12197967Y-17795984D02*
X12083682Y-17795984D01*
X12140825Y-17795984D02*
X12140825Y-17595984D01*
X12140825Y-17595984D02*
X12121777Y-17624555D01*
X12121777Y-17624555D02*
X12102729Y-17643603D01*
X12102729Y-17643603D02*
X12083682Y-17653127D01*
X12274158Y-17615031D02*
X12283682Y-17605508D01*
X12283682Y-17605508D02*
X12302729Y-17595984D01*
X12302729Y-17595984D02*
X12350348Y-17595984D01*
X12350348Y-17595984D02*
X12369396Y-17605508D01*
X12369396Y-17605508D02*
X12378920Y-17615031D01*
X12378920Y-17615031D02*
X12388444Y-17634079D01*
X12388444Y-17634079D02*
X12388444Y-17653127D01*
X12388444Y-17653127D02*
X12378920Y-17681698D01*
X12378920Y-17681698D02*
X12264634Y-17795984D01*
X12264634Y-17795984D02*
X12388444Y-17795984D01*
X12464634Y-17595984D02*
X12464634Y-17634079D01*
X12540825Y-17595984D02*
X12540825Y-17634079D01*
X12836063Y-17872174D02*
X12826539Y-17862650D01*
X12826539Y-17862650D02*
X12807491Y-17834079D01*
X12807491Y-17834079D02*
X12797968Y-17815031D01*
X12797968Y-17815031D02*
X12788444Y-17786460D01*
X12788444Y-17786460D02*
X12778920Y-17738841D01*
X12778920Y-17738841D02*
X12778920Y-17700746D01*
X12778920Y-17700746D02*
X12788444Y-17653127D01*
X12788444Y-17653127D02*
X12797968Y-17624555D01*
X12797968Y-17624555D02*
X12807491Y-17605508D01*
X12807491Y-17605508D02*
X12826539Y-17576936D01*
X12826539Y-17576936D02*
X12836063Y-17567412D01*
X12997968Y-17662650D02*
X12997968Y-17795984D01*
X12950348Y-17586460D02*
X12902729Y-17729317D01*
X12902729Y-17729317D02*
X13026539Y-17729317D01*
X13255110Y-17795984D02*
X13255110Y-17595984D01*
X13340825Y-17795984D02*
X13340825Y-17691222D01*
X13340825Y-17691222D02*
X13331301Y-17672174D01*
X13331301Y-17672174D02*
X13312253Y-17662650D01*
X13312253Y-17662650D02*
X13283682Y-17662650D01*
X13283682Y-17662650D02*
X13264634Y-17672174D01*
X13264634Y-17672174D02*
X13255110Y-17681698D01*
X13464634Y-17795984D02*
X13445587Y-17786460D01*
X13445587Y-17786460D02*
X13436063Y-17776936D01*
X13436063Y-17776936D02*
X13426539Y-17757889D01*
X13426539Y-17757889D02*
X13426539Y-17700746D01*
X13426539Y-17700746D02*
X13436063Y-17681698D01*
X13436063Y-17681698D02*
X13445587Y-17672174D01*
X13445587Y-17672174D02*
X13464634Y-17662650D01*
X13464634Y-17662650D02*
X13493206Y-17662650D01*
X13493206Y-17662650D02*
X13512253Y-17672174D01*
X13512253Y-17672174D02*
X13521777Y-17681698D01*
X13521777Y-17681698D02*
X13531301Y-17700746D01*
X13531301Y-17700746D02*
X13531301Y-17757889D01*
X13531301Y-17757889D02*
X13521777Y-17776936D01*
X13521777Y-17776936D02*
X13512253Y-17786460D01*
X13512253Y-17786460D02*
X13493206Y-17795984D01*
X13493206Y-17795984D02*
X13464634Y-17795984D01*
X13645587Y-17795984D02*
X13626539Y-17786460D01*
X13626539Y-17786460D02*
X13617015Y-17767412D01*
X13617015Y-17767412D02*
X13617015Y-17595984D01*
X13797968Y-17786460D02*
X13778920Y-17795984D01*
X13778920Y-17795984D02*
X13740825Y-17795984D01*
X13740825Y-17795984D02*
X13721777Y-17786460D01*
X13721777Y-17786460D02*
X13712253Y-17767412D01*
X13712253Y-17767412D02*
X13712253Y-17691222D01*
X13712253Y-17691222D02*
X13721777Y-17672174D01*
X13721777Y-17672174D02*
X13740825Y-17662650D01*
X13740825Y-17662650D02*
X13778920Y-17662650D01*
X13778920Y-17662650D02*
X13797968Y-17672174D01*
X13797968Y-17672174D02*
X13807491Y-17691222D01*
X13807491Y-17691222D02*
X13807491Y-17710270D01*
X13807491Y-17710270D02*
X13712253Y-17729317D01*
X13883682Y-17786460D02*
X13902730Y-17795984D01*
X13902730Y-17795984D02*
X13940825Y-17795984D01*
X13940825Y-17795984D02*
X13959872Y-17786460D01*
X13959872Y-17786460D02*
X13969396Y-17767412D01*
X13969396Y-17767412D02*
X13969396Y-17757889D01*
X13969396Y-17757889D02*
X13959872Y-17738841D01*
X13959872Y-17738841D02*
X13940825Y-17729317D01*
X13940825Y-17729317D02*
X13912253Y-17729317D01*
X13912253Y-17729317D02*
X13893206Y-17719793D01*
X13893206Y-17719793D02*
X13883682Y-17700746D01*
X13883682Y-17700746D02*
X13883682Y-17691222D01*
X13883682Y-17691222D02*
X13893206Y-17672174D01*
X13893206Y-17672174D02*
X13912253Y-17662650D01*
X13912253Y-17662650D02*
X13940825Y-17662650D01*
X13940825Y-17662650D02*
X13959872Y-17672174D01*
X14036063Y-17872174D02*
X14045587Y-17862650D01*
X14045587Y-17862650D02*
X14064634Y-17834079D01*
X14064634Y-17834079D02*
X14074158Y-17815031D01*
X14074158Y-17815031D02*
X14083682Y-17786460D01*
X14083682Y-17786460D02*
X14093206Y-17738841D01*
X14093206Y-17738841D02*
X14093206Y-17700746D01*
X14093206Y-17700746D02*
X14083682Y-17653127D01*
X14083682Y-17653127D02*
X14074158Y-17624555D01*
X14074158Y-17624555D02*
X14064634Y-17605508D01*
X14064634Y-17605508D02*
X14045587Y-17576936D01*
X14045587Y-17576936D02*
X14036063Y-17567412D01*
M02*
