%TF.GenerationSoftware,KiCad,Pcbnew,8.0.0*%
%TF.CreationDate,2024-03-12T19:20:21+01:00*%
%TF.ProjectId,Powerbank,506f7765-7262-4616-9e6b-2e6b69636164,1.0*%
%TF.SameCoordinates,Original*%
%TF.FileFunction,Drillmap*%
%TF.FilePolarity,Positive*%
%FSLAX45Y45*%
G04 Gerber Fmt 4.5, Leading zero omitted, Abs format (unit mm)*
G04 Created by KiCad (PCBNEW 8.0.0) date 2024-03-12 19:20:21*
%MOMM*%
%LPD*%
G01*
G04 APERTURE LIST*
%ADD10C,0.200000*%
%ADD11C,0.180000*%
G04 APERTURE END LIST*
D10*
X9271000Y-7493000D02*
X18224500Y-7493000D01*
X18224500Y-14414500D01*
X9271000Y-14414500D01*
X9271000Y-7493000D01*
D11*
X15785000Y-7720500D02*
X15965000Y-7900500D01*
X15965000Y-7720500D02*
X15785000Y-7900500D01*
X15785000Y-11784500D02*
X15965000Y-11964500D01*
X15965000Y-11784500D02*
X15785000Y-11964500D01*
X17309000Y-7720500D02*
X17489000Y-7900500D01*
X17489000Y-7720500D02*
X17309000Y-7900500D01*
X17309000Y-11784500D02*
X17489000Y-11964500D01*
X17489000Y-11784500D02*
X17309000Y-11964500D01*
D10*
X9521777Y-14735984D02*
X9521777Y-14535984D01*
X9521777Y-14535984D02*
X9569396Y-14535984D01*
X9569396Y-14535984D02*
X9597967Y-14545508D01*
X9597967Y-14545508D02*
X9617015Y-14564555D01*
X9617015Y-14564555D02*
X9626539Y-14583603D01*
X9626539Y-14583603D02*
X9636063Y-14621698D01*
X9636063Y-14621698D02*
X9636063Y-14650269D01*
X9636063Y-14650269D02*
X9626539Y-14688365D01*
X9626539Y-14688365D02*
X9617015Y-14707412D01*
X9617015Y-14707412D02*
X9597967Y-14726460D01*
X9597967Y-14726460D02*
X9569396Y-14735984D01*
X9569396Y-14735984D02*
X9521777Y-14735984D01*
X9721777Y-14735984D02*
X9721777Y-14602650D01*
X9721777Y-14640746D02*
X9731301Y-14621698D01*
X9731301Y-14621698D02*
X9740824Y-14612174D01*
X9740824Y-14612174D02*
X9759872Y-14602650D01*
X9759872Y-14602650D02*
X9778920Y-14602650D01*
X9845586Y-14735984D02*
X9845586Y-14602650D01*
X9845586Y-14535984D02*
X9836063Y-14545508D01*
X9836063Y-14545508D02*
X9845586Y-14555031D01*
X9845586Y-14555031D02*
X9855110Y-14545508D01*
X9855110Y-14545508D02*
X9845586Y-14535984D01*
X9845586Y-14535984D02*
X9845586Y-14555031D01*
X9969396Y-14735984D02*
X9950348Y-14726460D01*
X9950348Y-14726460D02*
X9940824Y-14707412D01*
X9940824Y-14707412D02*
X9940824Y-14535984D01*
X10074158Y-14735984D02*
X10055110Y-14726460D01*
X10055110Y-14726460D02*
X10045586Y-14707412D01*
X10045586Y-14707412D02*
X10045586Y-14535984D01*
X10302729Y-14735984D02*
X10302729Y-14535984D01*
X10302729Y-14535984D02*
X10369396Y-14678841D01*
X10369396Y-14678841D02*
X10436063Y-14535984D01*
X10436063Y-14535984D02*
X10436063Y-14735984D01*
X10617015Y-14735984D02*
X10617015Y-14631222D01*
X10617015Y-14631222D02*
X10607491Y-14612174D01*
X10607491Y-14612174D02*
X10588444Y-14602650D01*
X10588444Y-14602650D02*
X10550348Y-14602650D01*
X10550348Y-14602650D02*
X10531301Y-14612174D01*
X10617015Y-14726460D02*
X10597967Y-14735984D01*
X10597967Y-14735984D02*
X10550348Y-14735984D01*
X10550348Y-14735984D02*
X10531301Y-14726460D01*
X10531301Y-14726460D02*
X10521777Y-14707412D01*
X10521777Y-14707412D02*
X10521777Y-14688365D01*
X10521777Y-14688365D02*
X10531301Y-14669317D01*
X10531301Y-14669317D02*
X10550348Y-14659793D01*
X10550348Y-14659793D02*
X10597967Y-14659793D01*
X10597967Y-14659793D02*
X10617015Y-14650269D01*
X10712253Y-14602650D02*
X10712253Y-14802650D01*
X10712253Y-14612174D02*
X10731301Y-14602650D01*
X10731301Y-14602650D02*
X10769396Y-14602650D01*
X10769396Y-14602650D02*
X10788444Y-14612174D01*
X10788444Y-14612174D02*
X10797967Y-14621698D01*
X10797967Y-14621698D02*
X10807491Y-14640746D01*
X10807491Y-14640746D02*
X10807491Y-14697888D01*
X10807491Y-14697888D02*
X10797967Y-14716936D01*
X10797967Y-14716936D02*
X10788444Y-14726460D01*
X10788444Y-14726460D02*
X10769396Y-14735984D01*
X10769396Y-14735984D02*
X10731301Y-14735984D01*
X10731301Y-14735984D02*
X10712253Y-14726460D01*
X10893205Y-14716936D02*
X10902729Y-14726460D01*
X10902729Y-14726460D02*
X10893205Y-14735984D01*
X10893205Y-14735984D02*
X10883682Y-14726460D01*
X10883682Y-14726460D02*
X10893205Y-14716936D01*
X10893205Y-14716936D02*
X10893205Y-14735984D01*
X10893205Y-14612174D02*
X10902729Y-14621698D01*
X10902729Y-14621698D02*
X10893205Y-14631222D01*
X10893205Y-14631222D02*
X10883682Y-14621698D01*
X10883682Y-14621698D02*
X10893205Y-14612174D01*
X10893205Y-14612174D02*
X10893205Y-14631222D01*
D11*
X9081000Y-14974500D02*
X9261000Y-15154500D01*
X9261000Y-14974500D02*
X9081000Y-15154500D01*
D10*
X9626539Y-15155984D02*
X9512253Y-15155984D01*
X9569396Y-15155984D02*
X9569396Y-14955984D01*
X9569396Y-14955984D02*
X9550348Y-14984555D01*
X9550348Y-14984555D02*
X9531301Y-15003603D01*
X9531301Y-15003603D02*
X9512253Y-15013127D01*
X9712253Y-15136936D02*
X9721777Y-15146460D01*
X9721777Y-15146460D02*
X9712253Y-15155984D01*
X9712253Y-15155984D02*
X9702729Y-15146460D01*
X9702729Y-15146460D02*
X9712253Y-15136936D01*
X9712253Y-15136936D02*
X9712253Y-15155984D01*
X9836063Y-15041698D02*
X9817015Y-15032174D01*
X9817015Y-15032174D02*
X9807491Y-15022650D01*
X9807491Y-15022650D02*
X9797967Y-15003603D01*
X9797967Y-15003603D02*
X9797967Y-14994079D01*
X9797967Y-14994079D02*
X9807491Y-14975031D01*
X9807491Y-14975031D02*
X9817015Y-14965508D01*
X9817015Y-14965508D02*
X9836063Y-14955984D01*
X9836063Y-14955984D02*
X9874158Y-14955984D01*
X9874158Y-14955984D02*
X9893205Y-14965508D01*
X9893205Y-14965508D02*
X9902729Y-14975031D01*
X9902729Y-14975031D02*
X9912253Y-14994079D01*
X9912253Y-14994079D02*
X9912253Y-15003603D01*
X9912253Y-15003603D02*
X9902729Y-15022650D01*
X9902729Y-15022650D02*
X9893205Y-15032174D01*
X9893205Y-15032174D02*
X9874158Y-15041698D01*
X9874158Y-15041698D02*
X9836063Y-15041698D01*
X9836063Y-15041698D02*
X9817015Y-15051222D01*
X9817015Y-15051222D02*
X9807491Y-15060746D01*
X9807491Y-15060746D02*
X9797967Y-15079793D01*
X9797967Y-15079793D02*
X9797967Y-15117888D01*
X9797967Y-15117888D02*
X9807491Y-15136936D01*
X9807491Y-15136936D02*
X9817015Y-15146460D01*
X9817015Y-15146460D02*
X9836063Y-15155984D01*
X9836063Y-15155984D02*
X9874158Y-15155984D01*
X9874158Y-15155984D02*
X9893205Y-15146460D01*
X9893205Y-15146460D02*
X9902729Y-15136936D01*
X9902729Y-15136936D02*
X9912253Y-15117888D01*
X9912253Y-15117888D02*
X9912253Y-15079793D01*
X9912253Y-15079793D02*
X9902729Y-15060746D01*
X9902729Y-15060746D02*
X9893205Y-15051222D01*
X9893205Y-15051222D02*
X9874158Y-15041698D01*
X10036063Y-14955984D02*
X10055110Y-14955984D01*
X10055110Y-14955984D02*
X10074158Y-14965508D01*
X10074158Y-14965508D02*
X10083682Y-14975031D01*
X10083682Y-14975031D02*
X10093205Y-14994079D01*
X10093205Y-14994079D02*
X10102729Y-15032174D01*
X10102729Y-15032174D02*
X10102729Y-15079793D01*
X10102729Y-15079793D02*
X10093205Y-15117888D01*
X10093205Y-15117888D02*
X10083682Y-15136936D01*
X10083682Y-15136936D02*
X10074158Y-15146460D01*
X10074158Y-15146460D02*
X10055110Y-15155984D01*
X10055110Y-15155984D02*
X10036063Y-15155984D01*
X10036063Y-15155984D02*
X10017015Y-15146460D01*
X10017015Y-15146460D02*
X10007491Y-15136936D01*
X10007491Y-15136936D02*
X9997967Y-15117888D01*
X9997967Y-15117888D02*
X9988444Y-15079793D01*
X9988444Y-15079793D02*
X9988444Y-15032174D01*
X9988444Y-15032174D02*
X9997967Y-14994079D01*
X9997967Y-14994079D02*
X10007491Y-14975031D01*
X10007491Y-14975031D02*
X10017015Y-14965508D01*
X10017015Y-14965508D02*
X10036063Y-14955984D01*
X10226539Y-14955984D02*
X10245586Y-14955984D01*
X10245586Y-14955984D02*
X10264634Y-14965508D01*
X10264634Y-14965508D02*
X10274158Y-14975031D01*
X10274158Y-14975031D02*
X10283682Y-14994079D01*
X10283682Y-14994079D02*
X10293205Y-15032174D01*
X10293205Y-15032174D02*
X10293205Y-15079793D01*
X10293205Y-15079793D02*
X10283682Y-15117888D01*
X10283682Y-15117888D02*
X10274158Y-15136936D01*
X10274158Y-15136936D02*
X10264634Y-15146460D01*
X10264634Y-15146460D02*
X10245586Y-15155984D01*
X10245586Y-15155984D02*
X10226539Y-15155984D01*
X10226539Y-15155984D02*
X10207491Y-15146460D01*
X10207491Y-15146460D02*
X10197967Y-15136936D01*
X10197967Y-15136936D02*
X10188444Y-15117888D01*
X10188444Y-15117888D02*
X10178920Y-15079793D01*
X10178920Y-15079793D02*
X10178920Y-15032174D01*
X10178920Y-15032174D02*
X10188444Y-14994079D01*
X10188444Y-14994079D02*
X10197967Y-14975031D01*
X10197967Y-14975031D02*
X10207491Y-14965508D01*
X10207491Y-14965508D02*
X10226539Y-14955984D01*
X10378920Y-15155984D02*
X10378920Y-15022650D01*
X10378920Y-15041698D02*
X10388444Y-15032174D01*
X10388444Y-15032174D02*
X10407491Y-15022650D01*
X10407491Y-15022650D02*
X10436063Y-15022650D01*
X10436063Y-15022650D02*
X10455110Y-15032174D01*
X10455110Y-15032174D02*
X10464634Y-15051222D01*
X10464634Y-15051222D02*
X10464634Y-15155984D01*
X10464634Y-15051222D02*
X10474158Y-15032174D01*
X10474158Y-15032174D02*
X10493205Y-15022650D01*
X10493205Y-15022650D02*
X10521777Y-15022650D01*
X10521777Y-15022650D02*
X10540825Y-15032174D01*
X10540825Y-15032174D02*
X10550348Y-15051222D01*
X10550348Y-15051222D02*
X10550348Y-15155984D01*
X10645586Y-15155984D02*
X10645586Y-15022650D01*
X10645586Y-15041698D02*
X10655110Y-15032174D01*
X10655110Y-15032174D02*
X10674158Y-15022650D01*
X10674158Y-15022650D02*
X10702729Y-15022650D01*
X10702729Y-15022650D02*
X10721777Y-15032174D01*
X10721777Y-15032174D02*
X10731301Y-15051222D01*
X10731301Y-15051222D02*
X10731301Y-15155984D01*
X10731301Y-15051222D02*
X10740825Y-15032174D01*
X10740825Y-15032174D02*
X10759872Y-15022650D01*
X10759872Y-15022650D02*
X10788444Y-15022650D01*
X10788444Y-15022650D02*
X10807491Y-15032174D01*
X10807491Y-15032174D02*
X10817015Y-15051222D01*
X10817015Y-15051222D02*
X10817015Y-15155984D01*
X11207491Y-14946460D02*
X11036063Y-15203603D01*
X11464634Y-14955984D02*
X11483682Y-14955984D01*
X11483682Y-14955984D02*
X11502729Y-14965508D01*
X11502729Y-14965508D02*
X11512253Y-14975031D01*
X11512253Y-14975031D02*
X11521777Y-14994079D01*
X11521777Y-14994079D02*
X11531301Y-15032174D01*
X11531301Y-15032174D02*
X11531301Y-15079793D01*
X11531301Y-15079793D02*
X11521777Y-15117888D01*
X11521777Y-15117888D02*
X11512253Y-15136936D01*
X11512253Y-15136936D02*
X11502729Y-15146460D01*
X11502729Y-15146460D02*
X11483682Y-15155984D01*
X11483682Y-15155984D02*
X11464634Y-15155984D01*
X11464634Y-15155984D02*
X11445586Y-15146460D01*
X11445586Y-15146460D02*
X11436063Y-15136936D01*
X11436063Y-15136936D02*
X11426539Y-15117888D01*
X11426539Y-15117888D02*
X11417015Y-15079793D01*
X11417015Y-15079793D02*
X11417015Y-15032174D01*
X11417015Y-15032174D02*
X11426539Y-14994079D01*
X11426539Y-14994079D02*
X11436063Y-14975031D01*
X11436063Y-14975031D02*
X11445586Y-14965508D01*
X11445586Y-14965508D02*
X11464634Y-14955984D01*
X11617015Y-15136936D02*
X11626539Y-15146460D01*
X11626539Y-15146460D02*
X11617015Y-15155984D01*
X11617015Y-15155984D02*
X11607491Y-15146460D01*
X11607491Y-15146460D02*
X11617015Y-15136936D01*
X11617015Y-15136936D02*
X11617015Y-15155984D01*
X11750348Y-14955984D02*
X11769396Y-14955984D01*
X11769396Y-14955984D02*
X11788444Y-14965508D01*
X11788444Y-14965508D02*
X11797967Y-14975031D01*
X11797967Y-14975031D02*
X11807491Y-14994079D01*
X11807491Y-14994079D02*
X11817015Y-15032174D01*
X11817015Y-15032174D02*
X11817015Y-15079793D01*
X11817015Y-15079793D02*
X11807491Y-15117888D01*
X11807491Y-15117888D02*
X11797967Y-15136936D01*
X11797967Y-15136936D02*
X11788444Y-15146460D01*
X11788444Y-15146460D02*
X11769396Y-15155984D01*
X11769396Y-15155984D02*
X11750348Y-15155984D01*
X11750348Y-15155984D02*
X11731301Y-15146460D01*
X11731301Y-15146460D02*
X11721777Y-15136936D01*
X11721777Y-15136936D02*
X11712253Y-15117888D01*
X11712253Y-15117888D02*
X11702729Y-15079793D01*
X11702729Y-15079793D02*
X11702729Y-15032174D01*
X11702729Y-15032174D02*
X11712253Y-14994079D01*
X11712253Y-14994079D02*
X11721777Y-14975031D01*
X11721777Y-14975031D02*
X11731301Y-14965508D01*
X11731301Y-14965508D02*
X11750348Y-14955984D01*
X11883682Y-14955984D02*
X12017015Y-14955984D01*
X12017015Y-14955984D02*
X11931301Y-15155984D01*
X12131301Y-14955984D02*
X12150348Y-14955984D01*
X12150348Y-14955984D02*
X12169396Y-14965508D01*
X12169396Y-14965508D02*
X12178920Y-14975031D01*
X12178920Y-14975031D02*
X12188444Y-14994079D01*
X12188444Y-14994079D02*
X12197967Y-15032174D01*
X12197967Y-15032174D02*
X12197967Y-15079793D01*
X12197967Y-15079793D02*
X12188444Y-15117888D01*
X12188444Y-15117888D02*
X12178920Y-15136936D01*
X12178920Y-15136936D02*
X12169396Y-15146460D01*
X12169396Y-15146460D02*
X12150348Y-15155984D01*
X12150348Y-15155984D02*
X12131301Y-15155984D01*
X12131301Y-15155984D02*
X12112253Y-15146460D01*
X12112253Y-15146460D02*
X12102729Y-15136936D01*
X12102729Y-15136936D02*
X12093206Y-15117888D01*
X12093206Y-15117888D02*
X12083682Y-15079793D01*
X12083682Y-15079793D02*
X12083682Y-15032174D01*
X12083682Y-15032174D02*
X12093206Y-14994079D01*
X12093206Y-14994079D02*
X12102729Y-14975031D01*
X12102729Y-14975031D02*
X12112253Y-14965508D01*
X12112253Y-14965508D02*
X12131301Y-14955984D01*
X12293206Y-15155984D02*
X12331301Y-15155984D01*
X12331301Y-15155984D02*
X12350348Y-15146460D01*
X12350348Y-15146460D02*
X12359872Y-15136936D01*
X12359872Y-15136936D02*
X12378920Y-15108365D01*
X12378920Y-15108365D02*
X12388444Y-15070269D01*
X12388444Y-15070269D02*
X12388444Y-14994079D01*
X12388444Y-14994079D02*
X12378920Y-14975031D01*
X12378920Y-14975031D02*
X12369396Y-14965508D01*
X12369396Y-14965508D02*
X12350348Y-14955984D01*
X12350348Y-14955984D02*
X12312253Y-14955984D01*
X12312253Y-14955984D02*
X12293206Y-14965508D01*
X12293206Y-14965508D02*
X12283682Y-14975031D01*
X12283682Y-14975031D02*
X12274158Y-14994079D01*
X12274158Y-14994079D02*
X12274158Y-15041698D01*
X12274158Y-15041698D02*
X12283682Y-15060746D01*
X12283682Y-15060746D02*
X12293206Y-15070269D01*
X12293206Y-15070269D02*
X12312253Y-15079793D01*
X12312253Y-15079793D02*
X12350348Y-15079793D01*
X12350348Y-15079793D02*
X12369396Y-15070269D01*
X12369396Y-15070269D02*
X12378920Y-15060746D01*
X12378920Y-15060746D02*
X12388444Y-15041698D01*
X12464634Y-14955984D02*
X12464634Y-14994079D01*
X12540825Y-14955984D02*
X12540825Y-14994079D01*
X12836063Y-15232174D02*
X12826539Y-15222650D01*
X12826539Y-15222650D02*
X12807491Y-15194079D01*
X12807491Y-15194079D02*
X12797968Y-15175031D01*
X12797968Y-15175031D02*
X12788444Y-15146460D01*
X12788444Y-15146460D02*
X12778920Y-15098841D01*
X12778920Y-15098841D02*
X12778920Y-15060746D01*
X12778920Y-15060746D02*
X12788444Y-15013127D01*
X12788444Y-15013127D02*
X12797968Y-14984555D01*
X12797968Y-14984555D02*
X12807491Y-14965508D01*
X12807491Y-14965508D02*
X12826539Y-14936936D01*
X12826539Y-14936936D02*
X12836063Y-14927412D01*
X12997968Y-15022650D02*
X12997968Y-15155984D01*
X12950348Y-14946460D02*
X12902729Y-15089317D01*
X12902729Y-15089317D02*
X13026539Y-15089317D01*
X13255110Y-15155984D02*
X13255110Y-14955984D01*
X13340825Y-15155984D02*
X13340825Y-15051222D01*
X13340825Y-15051222D02*
X13331301Y-15032174D01*
X13331301Y-15032174D02*
X13312253Y-15022650D01*
X13312253Y-15022650D02*
X13283682Y-15022650D01*
X13283682Y-15022650D02*
X13264634Y-15032174D01*
X13264634Y-15032174D02*
X13255110Y-15041698D01*
X13464634Y-15155984D02*
X13445587Y-15146460D01*
X13445587Y-15146460D02*
X13436063Y-15136936D01*
X13436063Y-15136936D02*
X13426539Y-15117888D01*
X13426539Y-15117888D02*
X13426539Y-15060746D01*
X13426539Y-15060746D02*
X13436063Y-15041698D01*
X13436063Y-15041698D02*
X13445587Y-15032174D01*
X13445587Y-15032174D02*
X13464634Y-15022650D01*
X13464634Y-15022650D02*
X13493206Y-15022650D01*
X13493206Y-15022650D02*
X13512253Y-15032174D01*
X13512253Y-15032174D02*
X13521777Y-15041698D01*
X13521777Y-15041698D02*
X13531301Y-15060746D01*
X13531301Y-15060746D02*
X13531301Y-15117888D01*
X13531301Y-15117888D02*
X13521777Y-15136936D01*
X13521777Y-15136936D02*
X13512253Y-15146460D01*
X13512253Y-15146460D02*
X13493206Y-15155984D01*
X13493206Y-15155984D02*
X13464634Y-15155984D01*
X13645587Y-15155984D02*
X13626539Y-15146460D01*
X13626539Y-15146460D02*
X13617015Y-15127412D01*
X13617015Y-15127412D02*
X13617015Y-14955984D01*
X13797968Y-15146460D02*
X13778920Y-15155984D01*
X13778920Y-15155984D02*
X13740825Y-15155984D01*
X13740825Y-15155984D02*
X13721777Y-15146460D01*
X13721777Y-15146460D02*
X13712253Y-15127412D01*
X13712253Y-15127412D02*
X13712253Y-15051222D01*
X13712253Y-15051222D02*
X13721777Y-15032174D01*
X13721777Y-15032174D02*
X13740825Y-15022650D01*
X13740825Y-15022650D02*
X13778920Y-15022650D01*
X13778920Y-15022650D02*
X13797968Y-15032174D01*
X13797968Y-15032174D02*
X13807491Y-15051222D01*
X13807491Y-15051222D02*
X13807491Y-15070269D01*
X13807491Y-15070269D02*
X13712253Y-15089317D01*
X13883682Y-15146460D02*
X13902730Y-15155984D01*
X13902730Y-15155984D02*
X13940825Y-15155984D01*
X13940825Y-15155984D02*
X13959872Y-15146460D01*
X13959872Y-15146460D02*
X13969396Y-15127412D01*
X13969396Y-15127412D02*
X13969396Y-15117888D01*
X13969396Y-15117888D02*
X13959872Y-15098841D01*
X13959872Y-15098841D02*
X13940825Y-15089317D01*
X13940825Y-15089317D02*
X13912253Y-15089317D01*
X13912253Y-15089317D02*
X13893206Y-15079793D01*
X13893206Y-15079793D02*
X13883682Y-15060746D01*
X13883682Y-15060746D02*
X13883682Y-15051222D01*
X13883682Y-15051222D02*
X13893206Y-15032174D01*
X13893206Y-15032174D02*
X13912253Y-15022650D01*
X13912253Y-15022650D02*
X13940825Y-15022650D01*
X13940825Y-15022650D02*
X13959872Y-15032174D01*
X14036063Y-15232174D02*
X14045587Y-15222650D01*
X14045587Y-15222650D02*
X14064634Y-15194079D01*
X14064634Y-15194079D02*
X14074158Y-15175031D01*
X14074158Y-15175031D02*
X14083682Y-15146460D01*
X14083682Y-15146460D02*
X14093206Y-15098841D01*
X14093206Y-15098841D02*
X14093206Y-15060746D01*
X14093206Y-15060746D02*
X14083682Y-15013127D01*
X14083682Y-15013127D02*
X14074158Y-14984555D01*
X14074158Y-14984555D02*
X14064634Y-14965508D01*
X14064634Y-14965508D02*
X14045587Y-14936936D01*
X14045587Y-14936936D02*
X14036063Y-14927412D01*
X14397968Y-15232174D02*
X14388444Y-15222650D01*
X14388444Y-15222650D02*
X14369396Y-15194079D01*
X14369396Y-15194079D02*
X14359872Y-15175031D01*
X14359872Y-15175031D02*
X14350349Y-15146460D01*
X14350349Y-15146460D02*
X14340825Y-15098841D01*
X14340825Y-15098841D02*
X14340825Y-15060746D01*
X14340825Y-15060746D02*
X14350349Y-15013127D01*
X14350349Y-15013127D02*
X14359872Y-14984555D01*
X14359872Y-14984555D02*
X14369396Y-14965508D01*
X14369396Y-14965508D02*
X14388444Y-14936936D01*
X14388444Y-14936936D02*
X14397968Y-14927412D01*
X14474158Y-15022650D02*
X14474158Y-15155984D01*
X14474158Y-15041698D02*
X14483682Y-15032174D01*
X14483682Y-15032174D02*
X14502730Y-15022650D01*
X14502730Y-15022650D02*
X14531301Y-15022650D01*
X14531301Y-15022650D02*
X14550349Y-15032174D01*
X14550349Y-15032174D02*
X14559872Y-15051222D01*
X14559872Y-15051222D02*
X14559872Y-15155984D01*
X14683682Y-15155984D02*
X14664634Y-15146460D01*
X14664634Y-15146460D02*
X14655111Y-15136936D01*
X14655111Y-15136936D02*
X14645587Y-15117888D01*
X14645587Y-15117888D02*
X14645587Y-15060746D01*
X14645587Y-15060746D02*
X14655111Y-15041698D01*
X14655111Y-15041698D02*
X14664634Y-15032174D01*
X14664634Y-15032174D02*
X14683682Y-15022650D01*
X14683682Y-15022650D02*
X14712253Y-15022650D01*
X14712253Y-15022650D02*
X14731301Y-15032174D01*
X14731301Y-15032174D02*
X14740825Y-15041698D01*
X14740825Y-15041698D02*
X14750349Y-15060746D01*
X14750349Y-15060746D02*
X14750349Y-15117888D01*
X14750349Y-15117888D02*
X14740825Y-15136936D01*
X14740825Y-15136936D02*
X14731301Y-15146460D01*
X14731301Y-15146460D02*
X14712253Y-15155984D01*
X14712253Y-15155984D02*
X14683682Y-15155984D01*
X14807492Y-15022650D02*
X14883682Y-15022650D01*
X14836063Y-14955984D02*
X14836063Y-15127412D01*
X14836063Y-15127412D02*
X14845587Y-15146460D01*
X14845587Y-15146460D02*
X14864634Y-15155984D01*
X14864634Y-15155984D02*
X14883682Y-15155984D01*
X15102730Y-15022650D02*
X15102730Y-15222650D01*
X15102730Y-15032174D02*
X15121777Y-15022650D01*
X15121777Y-15022650D02*
X15159873Y-15022650D01*
X15159873Y-15022650D02*
X15178920Y-15032174D01*
X15178920Y-15032174D02*
X15188444Y-15041698D01*
X15188444Y-15041698D02*
X15197968Y-15060746D01*
X15197968Y-15060746D02*
X15197968Y-15117888D01*
X15197968Y-15117888D02*
X15188444Y-15136936D01*
X15188444Y-15136936D02*
X15178920Y-15146460D01*
X15178920Y-15146460D02*
X15159873Y-15155984D01*
X15159873Y-15155984D02*
X15121777Y-15155984D01*
X15121777Y-15155984D02*
X15102730Y-15146460D01*
X15312253Y-15155984D02*
X15293206Y-15146460D01*
X15293206Y-15146460D02*
X15283682Y-15127412D01*
X15283682Y-15127412D02*
X15283682Y-14955984D01*
X15474158Y-15155984D02*
X15474158Y-15051222D01*
X15474158Y-15051222D02*
X15464634Y-15032174D01*
X15464634Y-15032174D02*
X15445587Y-15022650D01*
X15445587Y-15022650D02*
X15407492Y-15022650D01*
X15407492Y-15022650D02*
X15388444Y-15032174D01*
X15474158Y-15146460D02*
X15455111Y-15155984D01*
X15455111Y-15155984D02*
X15407492Y-15155984D01*
X15407492Y-15155984D02*
X15388444Y-15146460D01*
X15388444Y-15146460D02*
X15378920Y-15127412D01*
X15378920Y-15127412D02*
X15378920Y-15108365D01*
X15378920Y-15108365D02*
X15388444Y-15089317D01*
X15388444Y-15089317D02*
X15407492Y-15079793D01*
X15407492Y-15079793D02*
X15455111Y-15079793D01*
X15455111Y-15079793D02*
X15474158Y-15070269D01*
X15540825Y-15022650D02*
X15617015Y-15022650D01*
X15569396Y-14955984D02*
X15569396Y-15127412D01*
X15569396Y-15127412D02*
X15578920Y-15146460D01*
X15578920Y-15146460D02*
X15597968Y-15155984D01*
X15597968Y-15155984D02*
X15617015Y-15155984D01*
X15759873Y-15146460D02*
X15740825Y-15155984D01*
X15740825Y-15155984D02*
X15702730Y-15155984D01*
X15702730Y-15155984D02*
X15683682Y-15146460D01*
X15683682Y-15146460D02*
X15674158Y-15127412D01*
X15674158Y-15127412D02*
X15674158Y-15051222D01*
X15674158Y-15051222D02*
X15683682Y-15032174D01*
X15683682Y-15032174D02*
X15702730Y-15022650D01*
X15702730Y-15022650D02*
X15740825Y-15022650D01*
X15740825Y-15022650D02*
X15759873Y-15032174D01*
X15759873Y-15032174D02*
X15769396Y-15051222D01*
X15769396Y-15051222D02*
X15769396Y-15070269D01*
X15769396Y-15070269D02*
X15674158Y-15089317D01*
X15940825Y-15155984D02*
X15940825Y-14955984D01*
X15940825Y-15146460D02*
X15921777Y-15155984D01*
X15921777Y-15155984D02*
X15883682Y-15155984D01*
X15883682Y-15155984D02*
X15864634Y-15146460D01*
X15864634Y-15146460D02*
X15855111Y-15136936D01*
X15855111Y-15136936D02*
X15845587Y-15117888D01*
X15845587Y-15117888D02*
X15845587Y-15060746D01*
X15845587Y-15060746D02*
X15855111Y-15041698D01*
X15855111Y-15041698D02*
X15864634Y-15032174D01*
X15864634Y-15032174D02*
X15883682Y-15022650D01*
X15883682Y-15022650D02*
X15921777Y-15022650D01*
X15921777Y-15022650D02*
X15940825Y-15032174D01*
X16017015Y-15232174D02*
X16026539Y-15222650D01*
X16026539Y-15222650D02*
X16045587Y-15194079D01*
X16045587Y-15194079D02*
X16055111Y-15175031D01*
X16055111Y-15175031D02*
X16064634Y-15146460D01*
X16064634Y-15146460D02*
X16074158Y-15098841D01*
X16074158Y-15098841D02*
X16074158Y-15060746D01*
X16074158Y-15060746D02*
X16064634Y-15013127D01*
X16064634Y-15013127D02*
X16055111Y-14984555D01*
X16055111Y-14984555D02*
X16045587Y-14965508D01*
X16045587Y-14965508D02*
X16026539Y-14936936D01*
X16026539Y-14936936D02*
X16017015Y-14927412D01*
M02*
