G04 #@! TF.GenerationSoftware,KiCad,Pcbnew,8.0.0*
G04 #@! TF.CreationDate,2024-03-12T19:17:37+01:00*
G04 #@! TF.ProjectId,Powerbank,506f7765-7262-4616-9e6b-2e6b69636164,1.0*
G04 #@! TF.SameCoordinates,Original*
G04 #@! TF.FileFunction,Copper,L2,Bot*
G04 #@! TF.FilePolarity,Positive*
%FSLAX46Y46*%
G04 Gerber Fmt 4.6, Leading zero omitted, Abs format (unit mm)*
G04 Created by KiCad (PCBNEW 8.0.0) date 2024-03-12 19:17:37*
%MOMM*%
%LPD*%
G01*
G04 APERTURE LIST*
G04 #@! TA.AperFunction,ComponentPad*
%ADD10C,1.700000*%
G04 #@! TD*
G04 #@! TA.AperFunction,ComponentPad*
%ADD11R,1.550000X1.550000*%
G04 #@! TD*
G04 #@! TA.AperFunction,ComponentPad*
%ADD12C,1.550000*%
G04 #@! TD*
G04 #@! TA.AperFunction,ComponentPad*
%ADD13R,1.700000X1.700000*%
G04 #@! TD*
G04 #@! TA.AperFunction,ComponentPad*
%ADD14C,2.000000*%
G04 #@! TD*
G04 #@! TA.AperFunction,ComponentPad*
%ADD15R,1.650000X1.650000*%
G04 #@! TD*
G04 #@! TA.AperFunction,ComponentPad*
%ADD16C,1.650000*%
G04 #@! TD*
G04 #@! TA.AperFunction,ComponentPad*
%ADD17R,1.750000X1.750000*%
G04 #@! TD*
G04 #@! TA.AperFunction,ComponentPad*
%ADD18C,1.750000*%
G04 #@! TD*
G04 #@! TA.AperFunction,ComponentPad*
%ADD19R,1.600000X1.600000*%
G04 #@! TD*
G04 #@! TA.AperFunction,ComponentPad*
%ADD20C,1.600000*%
G04 #@! TD*
G04 #@! TA.AperFunction,ComponentPad*
%ADD21C,1.727200*%
G04 #@! TD*
G04 #@! TA.AperFunction,ComponentPad*
%ADD22R,1.727200X1.727200*%
G04 #@! TD*
G04 #@! TA.AperFunction,ComponentPad*
%ADD23R,2.080000X2.080000*%
G04 #@! TD*
G04 #@! TA.AperFunction,ComponentPad*
%ADD24C,1.920000*%
G04 #@! TD*
G04 #@! TA.AperFunction,ComponentPad*
%ADD25R,2.200000X2.200000*%
G04 #@! TD*
G04 #@! TA.AperFunction,ComponentPad*
%ADD26O,2.200000X2.200000*%
G04 #@! TD*
G04 #@! TA.AperFunction,ComponentPad*
%ADD27R,1.900000X1.900000*%
G04 #@! TD*
G04 #@! TA.AperFunction,ComponentPad*
%ADD28C,1.900000*%
G04 #@! TD*
G04 #@! TA.AperFunction,ComponentPad*
%ADD29C,1.950000*%
G04 #@! TD*
G04 #@! TA.AperFunction,ComponentPad*
%ADD30R,1.950000X1.950000*%
G04 #@! TD*
G04 #@! TA.AperFunction,ViaPad*
%ADD31C,1.200000*%
G04 #@! TD*
G04 APERTURE END LIST*
D10*
X141478000Y-100330000D03*
X141478000Y-97830000D03*
D11*
X151130000Y-90456000D03*
D12*
X151130000Y-79756000D03*
D13*
X151765000Y-124460000D03*
D10*
X163449000Y-124460000D03*
D14*
X101600000Y-139700000D03*
D13*
X130937000Y-113538000D03*
D10*
X130937000Y-125730000D03*
D15*
X144780000Y-105410000D03*
D16*
X144780000Y-110410000D03*
D17*
X109728000Y-108585000D03*
D18*
X122682000Y-108585000D03*
D13*
X141224000Y-116586000D03*
D10*
X152908000Y-116586000D03*
D14*
X167640000Y-124460000D03*
D19*
X112395000Y-91440000D03*
D20*
X120269000Y-91440000D03*
D17*
X109728000Y-100965000D03*
D18*
X122682000Y-100965000D03*
D10*
X149225000Y-102870000D03*
X154225000Y-102870000D03*
D15*
X148590000Y-133350000D03*
D16*
X153589990Y-133350000D03*
D14*
X101600000Y-124460000D03*
D13*
X149606000Y-124460000D03*
D10*
X137922000Y-124460000D03*
D21*
X173990000Y-80645000D03*
X173990000Y-85725000D03*
X158750000Y-85725000D03*
D22*
X173990000Y-83185000D03*
X158750000Y-88265000D03*
D21*
X173990000Y-116205000D03*
X158750000Y-116205000D03*
X158750000Y-113665000D03*
X158750000Y-111125000D03*
X158750000Y-108585000D03*
X158750000Y-106045000D03*
X158750000Y-103505000D03*
X158750000Y-100965000D03*
X158750000Y-98425000D03*
X158750000Y-95885000D03*
X158750000Y-93345000D03*
X158750000Y-90805000D03*
X158750000Y-80645000D03*
X158750000Y-83185000D03*
X173990000Y-111125000D03*
X173990000Y-90805000D03*
X173990000Y-93345000D03*
X173990000Y-95885000D03*
X173990000Y-98425000D03*
X173990000Y-100965000D03*
X173990000Y-103505000D03*
X173990000Y-106045000D03*
X173990000Y-108585000D03*
X173990000Y-88265000D03*
X173990000Y-113665000D03*
D14*
X118491000Y-95377000D03*
X112395000Y-95377000D03*
D15*
X145825600Y-113411000D03*
D16*
X140825600Y-113411000D03*
D19*
X123190000Y-87630000D03*
D20*
X123190000Y-95504000D03*
D23*
X148590000Y-129540000D03*
D24*
X151130000Y-129540000D03*
X153670000Y-129540000D03*
D15*
X126365000Y-99695000D03*
D16*
X126365000Y-104695000D03*
D25*
X101600000Y-135890000D03*
D26*
X101600000Y-128270000D03*
D15*
X114173000Y-115570000D03*
D16*
X119173000Y-115570000D03*
D19*
X153670000Y-79756000D03*
D20*
X153670000Y-87630000D03*
D14*
X154940000Y-97663000D03*
X154940000Y-91567000D03*
D13*
X134239000Y-113538000D03*
D10*
X134239000Y-125730000D03*
D27*
X107010200Y-130810000D03*
D28*
X131394200Y-130810000D03*
D15*
X131953000Y-111125000D03*
D16*
X136952990Y-111125000D03*
D19*
X126111000Y-87630000D03*
D20*
X126111000Y-96012000D03*
D29*
X103455000Y-111120000D03*
X103455000Y-107620000D03*
X103455000Y-104120000D03*
D30*
X103455000Y-100620000D03*
D23*
X142240000Y-129540000D03*
D24*
X139700000Y-129540000D03*
X137160000Y-129540000D03*
D17*
X109728000Y-104775000D03*
D18*
X122682000Y-104775000D03*
D11*
X143272500Y-84582000D03*
D12*
X132572500Y-84582000D03*
D14*
X167640000Y-137160000D03*
D19*
X146050000Y-79756000D03*
D20*
X146050000Y-87630000D03*
D17*
X109855000Y-111633000D03*
D18*
X122809000Y-111633000D03*
D15*
X130175000Y-104140000D03*
D16*
X130175000Y-109140000D03*
D15*
X140335000Y-134620000D03*
D16*
X145334990Y-134620000D03*
D15*
X122652405Y-115697000D03*
D16*
X127652395Y-115697000D03*
D13*
X144780000Y-90170000D03*
D10*
X144780000Y-102362000D03*
D15*
X138557000Y-112649000D03*
D16*
X138557000Y-117648990D03*
D15*
X126111000Y-106553000D03*
D16*
X126111000Y-111553000D03*
X151765000Y-112395000D03*
X148590000Y-110490000D03*
X151765000Y-108585000D03*
D31*
X139705029Y-109849971D03*
G04 #@! TA.AperFunction,Conductor*
G36*
X171393039Y-122574685D02*
G01*
X171438794Y-122627489D01*
X171450000Y-122679000D01*
X171450000Y-138939970D01*
X171430315Y-139007009D01*
X171377511Y-139052764D01*
X171324975Y-139063966D01*
X102536935Y-138495470D01*
X102470061Y-138475232D01*
X102461797Y-138469327D01*
X102423511Y-138439527D01*
X102204811Y-138321172D01*
X102204802Y-138321169D01*
X101969616Y-138240429D01*
X101724335Y-138199500D01*
X101475665Y-138199500D01*
X101230383Y-138240429D01*
X100995197Y-138321169D01*
X100995188Y-138321172D01*
X100776488Y-138439527D01*
X100776485Y-138439529D01*
X100757907Y-138453989D01*
X100692913Y-138479629D01*
X100680723Y-138480129D01*
X94737975Y-138431016D01*
X94671101Y-138410778D01*
X94625784Y-138357598D01*
X94615000Y-138307020D01*
X94615000Y-137037870D01*
X99999500Y-137037870D01*
X99999501Y-137037876D01*
X100005908Y-137097483D01*
X100056202Y-137232328D01*
X100056206Y-137232335D01*
X100142452Y-137347544D01*
X100142455Y-137347547D01*
X100257664Y-137433793D01*
X100257671Y-137433797D01*
X100392517Y-137484091D01*
X100392516Y-137484091D01*
X100399444Y-137484835D01*
X100452127Y-137490500D01*
X102747872Y-137490499D01*
X102807483Y-137484091D01*
X102942331Y-137433796D01*
X103057546Y-137347546D01*
X103143796Y-137232331D01*
X103170772Y-137160005D01*
X166134357Y-137160005D01*
X166154890Y-137407812D01*
X166154892Y-137407824D01*
X166215936Y-137648881D01*
X166315826Y-137876606D01*
X166451833Y-138084782D01*
X166451836Y-138084785D01*
X166620256Y-138267738D01*
X166816491Y-138420474D01*
X167035190Y-138538828D01*
X167270386Y-138619571D01*
X167515665Y-138660500D01*
X167764335Y-138660500D01*
X168009614Y-138619571D01*
X168244810Y-138538828D01*
X168463509Y-138420474D01*
X168659744Y-138267738D01*
X168828164Y-138084785D01*
X168964173Y-137876607D01*
X169064063Y-137648881D01*
X169125108Y-137407821D01*
X169125109Y-137407812D01*
X169145643Y-137160005D01*
X169145643Y-137159994D01*
X169125109Y-136912187D01*
X169125107Y-136912175D01*
X169064063Y-136671118D01*
X168964173Y-136443393D01*
X168828166Y-136235217D01*
X168806557Y-136211744D01*
X168659744Y-136052262D01*
X168463509Y-135899526D01*
X168463507Y-135899525D01*
X168463506Y-135899524D01*
X168244811Y-135781172D01*
X168244802Y-135781169D01*
X168009616Y-135700429D01*
X167764335Y-135659500D01*
X167515665Y-135659500D01*
X167270383Y-135700429D01*
X167035197Y-135781169D01*
X167035188Y-135781172D01*
X166816493Y-135899524D01*
X166620257Y-136052261D01*
X166451833Y-136235217D01*
X166315826Y-136443393D01*
X166215936Y-136671118D01*
X166154892Y-136912175D01*
X166154890Y-136912187D01*
X166134357Y-137159994D01*
X166134357Y-137160005D01*
X103170772Y-137160005D01*
X103194091Y-137097483D01*
X103200500Y-137037873D01*
X103200499Y-135492870D01*
X139009500Y-135492870D01*
X139009501Y-135492876D01*
X139015908Y-135552483D01*
X139066202Y-135687328D01*
X139066206Y-135687335D01*
X139152452Y-135802544D01*
X139152455Y-135802547D01*
X139267664Y-135888793D01*
X139267671Y-135888797D01*
X139402517Y-135939091D01*
X139402516Y-135939091D01*
X139409444Y-135939835D01*
X139462127Y-135945500D01*
X141207872Y-135945499D01*
X141267483Y-135939091D01*
X141402331Y-135888796D01*
X141517546Y-135802546D01*
X141603796Y-135687331D01*
X141654091Y-135552483D01*
X141660500Y-135492873D01*
X141660500Y-134620001D01*
X144004427Y-134620001D01*
X144024640Y-134851044D01*
X144024641Y-134851051D01*
X144084668Y-135075074D01*
X144084669Y-135075076D01*
X144084670Y-135075079D01*
X144182689Y-135285282D01*
X144315720Y-135475269D01*
X144479721Y-135639270D01*
X144669708Y-135772301D01*
X144879911Y-135870320D01*
X145103940Y-135930349D01*
X145268975Y-135944787D01*
X145334988Y-135950563D01*
X145334990Y-135950563D01*
X145334992Y-135950563D01*
X145392884Y-135945498D01*
X145566040Y-135930349D01*
X145790069Y-135870320D01*
X146000272Y-135772301D01*
X146190259Y-135639270D01*
X146354260Y-135475269D01*
X146487291Y-135285282D01*
X146585310Y-135075079D01*
X146645339Y-134851050D01*
X146665553Y-134620000D01*
X146665447Y-134618793D01*
X146659225Y-134547669D01*
X146645339Y-134388950D01*
X146600838Y-134222870D01*
X147264500Y-134222870D01*
X147264501Y-134222876D01*
X147270908Y-134282483D01*
X147321202Y-134417328D01*
X147321206Y-134417335D01*
X147407452Y-134532544D01*
X147407455Y-134532547D01*
X147522664Y-134618793D01*
X147522671Y-134618797D01*
X147657517Y-134669091D01*
X147657516Y-134669091D01*
X147664444Y-134669835D01*
X147717127Y-134675500D01*
X149462872Y-134675499D01*
X149522483Y-134669091D01*
X149657331Y-134618796D01*
X149772546Y-134532546D01*
X149858796Y-134417331D01*
X149909091Y-134282483D01*
X149915500Y-134222873D01*
X149915500Y-133350001D01*
X152259427Y-133350001D01*
X152279640Y-133581044D01*
X152279641Y-133581051D01*
X152339668Y-133805074D01*
X152339669Y-133805076D01*
X152339670Y-133805079D01*
X152437689Y-134015282D01*
X152570720Y-134205269D01*
X152734721Y-134369270D01*
X152924708Y-134502301D01*
X153134911Y-134600320D01*
X153358940Y-134660349D01*
X153523975Y-134674787D01*
X153589988Y-134680563D01*
X153589990Y-134680563D01*
X153589992Y-134680563D01*
X153647884Y-134675498D01*
X153821040Y-134660349D01*
X154045069Y-134600320D01*
X154255272Y-134502301D01*
X154445259Y-134369270D01*
X154609260Y-134205269D01*
X154742291Y-134015282D01*
X154840310Y-133805079D01*
X154900339Y-133581050D01*
X154918831Y-133369678D01*
X154920553Y-133350001D01*
X154920553Y-133349998D01*
X154900339Y-133118955D01*
X154900339Y-133118950D01*
X154840310Y-132894921D01*
X154742291Y-132684719D01*
X154742289Y-132684716D01*
X154742288Y-132684714D01*
X154609263Y-132494735D01*
X154609258Y-132494729D01*
X154445259Y-132330730D01*
X154376614Y-132282664D01*
X154255272Y-132197699D01*
X154045069Y-132099680D01*
X154045066Y-132099679D01*
X154045064Y-132099678D01*
X153821041Y-132039651D01*
X153821034Y-132039650D01*
X153589992Y-132019437D01*
X153589988Y-132019437D01*
X153358945Y-132039650D01*
X153358938Y-132039651D01*
X153134907Y-132099681D01*
X152924708Y-132197699D01*
X152924704Y-132197701D01*
X152734725Y-132330726D01*
X152734719Y-132330731D01*
X152570721Y-132494729D01*
X152570716Y-132494735D01*
X152437691Y-132684714D01*
X152437689Y-132684718D01*
X152339671Y-132894917D01*
X152279641Y-133118948D01*
X152279640Y-133118955D01*
X152259427Y-133349998D01*
X152259427Y-133350001D01*
X149915500Y-133350001D01*
X149915499Y-132477128D01*
X149909091Y-132417517D01*
X149858796Y-132282669D01*
X149858795Y-132282668D01*
X149858793Y-132282664D01*
X149772547Y-132167455D01*
X149772544Y-132167452D01*
X149657335Y-132081206D01*
X149657328Y-132081202D01*
X149522482Y-132030908D01*
X149522483Y-132030908D01*
X149462883Y-132024501D01*
X149462881Y-132024500D01*
X149462873Y-132024500D01*
X149462864Y-132024500D01*
X147717129Y-132024500D01*
X147717123Y-132024501D01*
X147657516Y-132030908D01*
X147522671Y-132081202D01*
X147522664Y-132081206D01*
X147407455Y-132167452D01*
X147407452Y-132167455D01*
X147321206Y-132282664D01*
X147321202Y-132282671D01*
X147270908Y-132417517D01*
X147264501Y-132477116D01*
X147264501Y-132477123D01*
X147264500Y-132477135D01*
X147264500Y-134222870D01*
X146600838Y-134222870D01*
X146585310Y-134164921D01*
X146487291Y-133954719D01*
X146487289Y-133954716D01*
X146487288Y-133954714D01*
X146354263Y-133764735D01*
X146354258Y-133764729D01*
X146190259Y-133600730D01*
X146190253Y-133600726D01*
X146000272Y-133467699D01*
X145790069Y-133369680D01*
X145790066Y-133369679D01*
X145790064Y-133369678D01*
X145566041Y-133309651D01*
X145566034Y-133309650D01*
X145334992Y-133289437D01*
X145334988Y-133289437D01*
X145103945Y-133309650D01*
X145103938Y-133309651D01*
X144879907Y-133369681D01*
X144669708Y-133467699D01*
X144669704Y-133467701D01*
X144479725Y-133600726D01*
X144479719Y-133600731D01*
X144315721Y-133764729D01*
X144315716Y-133764735D01*
X144182691Y-133954714D01*
X144182689Y-133954718D01*
X144084671Y-134164917D01*
X144024641Y-134388948D01*
X144024640Y-134388955D01*
X144004427Y-134619998D01*
X144004427Y-134620001D01*
X141660500Y-134620001D01*
X141660499Y-133747128D01*
X141654091Y-133687517D01*
X141614381Y-133581050D01*
X141603797Y-133552671D01*
X141603793Y-133552664D01*
X141517547Y-133437455D01*
X141517544Y-133437452D01*
X141402335Y-133351206D01*
X141402328Y-133351202D01*
X141267482Y-133300908D01*
X141267483Y-133300908D01*
X141207883Y-133294501D01*
X141207881Y-133294500D01*
X141207873Y-133294500D01*
X141207864Y-133294500D01*
X139462129Y-133294500D01*
X139462123Y-133294501D01*
X139402516Y-133300908D01*
X139267671Y-133351202D01*
X139267664Y-133351206D01*
X139152455Y-133437452D01*
X139152452Y-133437455D01*
X139066206Y-133552664D01*
X139066202Y-133552671D01*
X139015908Y-133687517D01*
X139009501Y-133747116D01*
X139009501Y-133747123D01*
X139009500Y-133747135D01*
X139009500Y-135492870D01*
X103200499Y-135492870D01*
X103200499Y-134742128D01*
X103194091Y-134682517D01*
X103193362Y-134680563D01*
X103143797Y-134547671D01*
X103143793Y-134547664D01*
X103057547Y-134432455D01*
X103057544Y-134432452D01*
X102942335Y-134346206D01*
X102942328Y-134346202D01*
X102807482Y-134295908D01*
X102807483Y-134295908D01*
X102747883Y-134289501D01*
X102747881Y-134289500D01*
X102747873Y-134289500D01*
X102747864Y-134289500D01*
X100452129Y-134289500D01*
X100452123Y-134289501D01*
X100392516Y-134295908D01*
X100257671Y-134346202D01*
X100257664Y-134346206D01*
X100142455Y-134432452D01*
X100142452Y-134432455D01*
X100056206Y-134547664D01*
X100056202Y-134547671D01*
X100005908Y-134682517D01*
X99999501Y-134742116D01*
X99999501Y-134742123D01*
X99999500Y-134742135D01*
X99999500Y-137037870D01*
X94615000Y-137037870D01*
X94615000Y-131410000D01*
X105560200Y-131410000D01*
X105560200Y-131807844D01*
X105566601Y-131867372D01*
X105566603Y-131867379D01*
X105616845Y-132002086D01*
X105616849Y-132002093D01*
X105703009Y-132117187D01*
X105703012Y-132117190D01*
X105818106Y-132203350D01*
X105818113Y-132203354D01*
X105952820Y-132253596D01*
X105952827Y-132253598D01*
X106012355Y-132259999D01*
X106012372Y-132260000D01*
X106410200Y-132260000D01*
X106410200Y-131410000D01*
X107610200Y-131410000D01*
X107610200Y-132260000D01*
X108008028Y-132260000D01*
X108008044Y-132259999D01*
X108067572Y-132253598D01*
X108067579Y-132253596D01*
X108202286Y-132203354D01*
X108202293Y-132203350D01*
X108317387Y-132117190D01*
X108317390Y-132117187D01*
X108403550Y-132002093D01*
X108403554Y-132002086D01*
X108453796Y-131867379D01*
X108453798Y-131867372D01*
X108460199Y-131807844D01*
X108460200Y-131807827D01*
X108460200Y-131410000D01*
X107610200Y-131410000D01*
X106410200Y-131410000D01*
X105560200Y-131410000D01*
X94615000Y-131410000D01*
X94615000Y-130882409D01*
X106460200Y-130882409D01*
X106497682Y-131022292D01*
X106570090Y-131147708D01*
X106672492Y-131250110D01*
X106797908Y-131322518D01*
X106937791Y-131360000D01*
X107082609Y-131360000D01*
X107222492Y-131322518D01*
X107347908Y-131250110D01*
X107450310Y-131147708D01*
X107522718Y-131022292D01*
X107560200Y-130882409D01*
X107560200Y-130810005D01*
X129938729Y-130810005D01*
X129958579Y-131049559D01*
X130017589Y-131282589D01*
X130114151Y-131502729D01*
X130245627Y-131703966D01*
X130245629Y-131703969D01*
X130408436Y-131880825D01*
X130408439Y-131880827D01*
X130408442Y-131880830D01*
X130598124Y-132028466D01*
X130598130Y-132028470D01*
X130598133Y-132028472D01*
X130809544Y-132142882D01*
X130809547Y-132142883D01*
X131036899Y-132220933D01*
X131036901Y-132220933D01*
X131036903Y-132220934D01*
X131274008Y-132260500D01*
X131274009Y-132260500D01*
X131514391Y-132260500D01*
X131514392Y-132260500D01*
X131751497Y-132220934D01*
X131978856Y-132142882D01*
X132190267Y-132028472D01*
X132379964Y-131880825D01*
X132542771Y-131703969D01*
X132674249Y-131502728D01*
X132770810Y-131282591D01*
X132829820Y-131049563D01*
X132843699Y-130882070D01*
X132849671Y-130810005D01*
X132849671Y-130809994D01*
X132833779Y-130618212D01*
X132829820Y-130570437D01*
X132770810Y-130337409D01*
X132674249Y-130117272D01*
X132542771Y-129916031D01*
X132379964Y-129739175D01*
X132379959Y-129739171D01*
X132379957Y-129739169D01*
X132190275Y-129591533D01*
X132190269Y-129591529D01*
X132095061Y-129540005D01*
X135694495Y-129540005D01*
X135714482Y-129781210D01*
X135773900Y-130015849D01*
X135871126Y-130237502D01*
X136003506Y-130440126D01*
X136003509Y-130440130D01*
X136003511Y-130440132D01*
X136167440Y-130618207D01*
X136167443Y-130618209D01*
X136167446Y-130618212D01*
X136358436Y-130766866D01*
X136358441Y-130766869D01*
X136358445Y-130766872D01*
X136571313Y-130882070D01*
X136800240Y-130960661D01*
X137038980Y-131000500D01*
X137038981Y-131000500D01*
X137281019Y-131000500D01*
X137281020Y-131000500D01*
X137519760Y-130960661D01*
X137748687Y-130882070D01*
X137961555Y-130766872D01*
X138152560Y-130618207D01*
X138316489Y-130440132D01*
X138326190Y-130425282D01*
X138379336Y-130379925D01*
X138448567Y-130370501D01*
X138511903Y-130400002D01*
X138533808Y-130425281D01*
X138543511Y-130440132D01*
X138707440Y-130618207D01*
X138707443Y-130618209D01*
X138707446Y-130618212D01*
X138898436Y-130766866D01*
X138898441Y-130766869D01*
X138898445Y-130766872D01*
X139111313Y-130882070D01*
X139340240Y-130960661D01*
X139578980Y-131000500D01*
X139578981Y-131000500D01*
X139821019Y-131000500D01*
X139821020Y-131000500D01*
X140059760Y-130960661D01*
X140288687Y-130882070D01*
X140501555Y-130766872D01*
X140549570Y-130729499D01*
X140614561Y-130703857D01*
X140683102Y-130717422D01*
X140733427Y-130765890D01*
X140741914Y-130784019D01*
X140756203Y-130822329D01*
X140756206Y-130822335D01*
X140842452Y-130937544D01*
X140842455Y-130937547D01*
X140957664Y-131023793D01*
X140957671Y-131023797D01*
X141092517Y-131074091D01*
X141092516Y-131074091D01*
X141099444Y-131074835D01*
X141152127Y-131080500D01*
X143327872Y-131080499D01*
X143387483Y-131074091D01*
X143522331Y-131023796D01*
X143637546Y-130937546D01*
X143723796Y-130822331D01*
X143774091Y-130687483D01*
X143780500Y-130627873D01*
X143780500Y-130627870D01*
X147049500Y-130627870D01*
X147049501Y-130627876D01*
X147055908Y-130687483D01*
X147106202Y-130822328D01*
X147106206Y-130822335D01*
X147192452Y-130937544D01*
X147192455Y-130937547D01*
X147307664Y-131023793D01*
X147307671Y-131023797D01*
X147442517Y-131074091D01*
X147442516Y-131074091D01*
X147449444Y-131074835D01*
X147502127Y-131080500D01*
X149677872Y-131080499D01*
X149737483Y-131074091D01*
X149872331Y-131023796D01*
X149987546Y-130937546D01*
X150073796Y-130822331D01*
X150078395Y-130810000D01*
X150088085Y-130784021D01*
X150129955Y-130728087D01*
X150195419Y-130703669D01*
X150263692Y-130718520D01*
X150280426Y-130729497D01*
X150328445Y-130766872D01*
X150541313Y-130882070D01*
X150770240Y-130960661D01*
X151008980Y-131000500D01*
X151008981Y-131000500D01*
X151251019Y-131000500D01*
X151251020Y-131000500D01*
X151489760Y-130960661D01*
X151718687Y-130882070D01*
X151931555Y-130766872D01*
X152122560Y-130618207D01*
X152286489Y-130440132D01*
X152296190Y-130425282D01*
X152349336Y-130379925D01*
X152418567Y-130370501D01*
X152481903Y-130400002D01*
X152503808Y-130425281D01*
X152513511Y-130440132D01*
X152677440Y-130618207D01*
X152677443Y-130618209D01*
X152677446Y-130618212D01*
X152868436Y-130766866D01*
X152868441Y-130766869D01*
X152868445Y-130766872D01*
X153081313Y-130882070D01*
X153310240Y-130960661D01*
X153548980Y-131000500D01*
X153548981Y-131000500D01*
X153791019Y-131000500D01*
X153791020Y-131000500D01*
X154029760Y-130960661D01*
X154258687Y-130882070D01*
X154471555Y-130766872D01*
X154662560Y-130618207D01*
X154826489Y-130440132D01*
X154958873Y-130237503D01*
X155056100Y-130015849D01*
X155115517Y-129781214D01*
X155129049Y-129617913D01*
X155135505Y-129540005D01*
X155135505Y-129539994D01*
X155115517Y-129298789D01*
X155115517Y-129298786D01*
X155056100Y-129064151D01*
X154958873Y-128842497D01*
X154919687Y-128782518D01*
X154826493Y-128639873D01*
X154826490Y-128639870D01*
X154826489Y-128639868D01*
X154662560Y-128461793D01*
X154662555Y-128461789D01*
X154662553Y-128461787D01*
X154471563Y-128313133D01*
X154471552Y-128313126D01*
X154258693Y-128197933D01*
X154258690Y-128197932D01*
X154258687Y-128197930D01*
X154258681Y-128197928D01*
X154258679Y-128197927D01*
X154029762Y-128119339D01*
X153870600Y-128092779D01*
X153791020Y-128079500D01*
X153548980Y-128079500D01*
X153489295Y-128089459D01*
X153310237Y-128119339D01*
X153081320Y-128197927D01*
X153081306Y-128197933D01*
X152868447Y-128313126D01*
X152868436Y-128313133D01*
X152677446Y-128461787D01*
X152677443Y-128461790D01*
X152677440Y-128461792D01*
X152677440Y-128461793D01*
X152641250Y-128501105D01*
X152513512Y-128639866D01*
X152513510Y-128639868D01*
X152503807Y-128654721D01*
X152450660Y-128700076D01*
X152381428Y-128709498D01*
X152318093Y-128679995D01*
X152296193Y-128654721D01*
X152286489Y-128639868D01*
X152286487Y-128639866D01*
X152122560Y-128461793D01*
X152122555Y-128461789D01*
X152122553Y-128461787D01*
X151931563Y-128313133D01*
X151931552Y-128313126D01*
X151718693Y-128197933D01*
X151718690Y-128197932D01*
X151718687Y-128197930D01*
X151718681Y-128197928D01*
X151718679Y-128197927D01*
X151489762Y-128119339D01*
X151330600Y-128092779D01*
X151251020Y-128079500D01*
X151008980Y-128079500D01*
X150949295Y-128089459D01*
X150770237Y-128119339D01*
X150541320Y-128197927D01*
X150541306Y-128197933D01*
X150328447Y-128313126D01*
X150328443Y-128313128D01*
X150280429Y-128350500D01*
X150215435Y-128376142D01*
X150146895Y-128362575D01*
X150096570Y-128314107D01*
X150088085Y-128295979D01*
X150073797Y-128257671D01*
X150073793Y-128257664D01*
X149987547Y-128142455D01*
X149987544Y-128142452D01*
X149872335Y-128056206D01*
X149872328Y-128056202D01*
X149737482Y-128005908D01*
X149737483Y-128005908D01*
X149677883Y-127999501D01*
X149677881Y-127999500D01*
X149677873Y-127999500D01*
X149677864Y-127999500D01*
X147502129Y-127999500D01*
X147502123Y-127999501D01*
X147442516Y-128005908D01*
X147307671Y-128056202D01*
X147307664Y-128056206D01*
X147192455Y-128142452D01*
X147192452Y-128142455D01*
X147106206Y-128257664D01*
X147106202Y-128257671D01*
X147055908Y-128392517D01*
X147049501Y-128452116D01*
X147049501Y-128452123D01*
X147049500Y-128452135D01*
X147049500Y-130627870D01*
X143780500Y-130627870D01*
X143780499Y-128452128D01*
X143774091Y-128392517D01*
X143762923Y-128362575D01*
X143723797Y-128257671D01*
X143723793Y-128257664D01*
X143637547Y-128142455D01*
X143637544Y-128142452D01*
X143522335Y-128056206D01*
X143522328Y-128056202D01*
X143387482Y-128005908D01*
X143387483Y-128005908D01*
X143327883Y-127999501D01*
X143327881Y-127999500D01*
X143327873Y-127999500D01*
X143327864Y-127999500D01*
X141152129Y-127999500D01*
X141152123Y-127999501D01*
X141092516Y-128005908D01*
X140957671Y-128056202D01*
X140957664Y-128056206D01*
X140842455Y-128142452D01*
X140842452Y-128142455D01*
X140756206Y-128257664D01*
X140756201Y-128257674D01*
X140741913Y-128295981D01*
X140700041Y-128351914D01*
X140634577Y-128376330D01*
X140566304Y-128361477D01*
X140549569Y-128350499D01*
X140501557Y-128313129D01*
X140501552Y-128313126D01*
X140288693Y-128197933D01*
X140288690Y-128197932D01*
X140288687Y-128197930D01*
X140288681Y-128197928D01*
X140288679Y-128197927D01*
X140059762Y-128119339D01*
X139900600Y-128092779D01*
X139821020Y-128079500D01*
X139578980Y-128079500D01*
X139519295Y-128089459D01*
X139340237Y-128119339D01*
X139111320Y-128197927D01*
X139111306Y-128197933D01*
X138898447Y-128313126D01*
X138898436Y-128313133D01*
X138707446Y-128461787D01*
X138707443Y-128461790D01*
X138707440Y-128461792D01*
X138707440Y-128461793D01*
X138671250Y-128501105D01*
X138543512Y-128639866D01*
X138543510Y-128639868D01*
X138533807Y-128654721D01*
X138480660Y-128700076D01*
X138411428Y-128709498D01*
X138348093Y-128679995D01*
X138326193Y-128654721D01*
X138316489Y-128639868D01*
X138316487Y-128639866D01*
X138152560Y-128461793D01*
X138152555Y-128461789D01*
X138152553Y-128461787D01*
X137961563Y-128313133D01*
X137961552Y-128313126D01*
X137748693Y-128197933D01*
X137748690Y-128197932D01*
X137748687Y-128197930D01*
X137748681Y-128197928D01*
X137748679Y-128197927D01*
X137519762Y-128119339D01*
X137360600Y-128092779D01*
X137281020Y-128079500D01*
X137038980Y-128079500D01*
X136979295Y-128089459D01*
X136800237Y-128119339D01*
X136571320Y-128197927D01*
X136571306Y-128197933D01*
X136358447Y-128313126D01*
X136358436Y-128313133D01*
X136167446Y-128461787D01*
X136167443Y-128461790D01*
X136167440Y-128461792D01*
X136167440Y-128461793D01*
X136105966Y-128528571D01*
X136003506Y-128639873D01*
X135871126Y-128842497D01*
X135773900Y-129064150D01*
X135714482Y-129298789D01*
X135694495Y-129539994D01*
X135694495Y-129540005D01*
X132095061Y-129540005D01*
X131978857Y-129477118D01*
X131978852Y-129477116D01*
X131751500Y-129399066D01*
X131555747Y-129366401D01*
X131514392Y-129359500D01*
X131274008Y-129359500D01*
X131232653Y-129366401D01*
X131036899Y-129399066D01*
X130809547Y-129477116D01*
X130809542Y-129477118D01*
X130598130Y-129591529D01*
X130598124Y-129591533D01*
X130408442Y-129739169D01*
X130408439Y-129739172D01*
X130245630Y-129916029D01*
X130245627Y-129916033D01*
X130114151Y-130117270D01*
X130017589Y-130337410D01*
X129958579Y-130570440D01*
X129938729Y-130809994D01*
X129938729Y-130810005D01*
X107560200Y-130810005D01*
X107560200Y-130737591D01*
X107522718Y-130597708D01*
X107450310Y-130472292D01*
X107347908Y-130369890D01*
X107222492Y-130297482D01*
X107082609Y-130260000D01*
X106937791Y-130260000D01*
X106797908Y-130297482D01*
X106672492Y-130369890D01*
X106570090Y-130472292D01*
X106497682Y-130597708D01*
X106460200Y-130737591D01*
X106460200Y-130882409D01*
X94615000Y-130882409D01*
X94615000Y-130210000D01*
X105560200Y-130210000D01*
X106410200Y-130210000D01*
X106410200Y-129360000D01*
X107610200Y-129360000D01*
X107610200Y-130210000D01*
X108460200Y-130210000D01*
X108460200Y-129812172D01*
X108460199Y-129812155D01*
X108453798Y-129752627D01*
X108453796Y-129752620D01*
X108403554Y-129617913D01*
X108403550Y-129617906D01*
X108317390Y-129502812D01*
X108317387Y-129502809D01*
X108202293Y-129416649D01*
X108202286Y-129416645D01*
X108067579Y-129366403D01*
X108067572Y-129366401D01*
X108008044Y-129360000D01*
X107610200Y-129360000D01*
X106410200Y-129360000D01*
X106012355Y-129360000D01*
X105952827Y-129366401D01*
X105952820Y-129366403D01*
X105818113Y-129416645D01*
X105818106Y-129416649D01*
X105703012Y-129502809D01*
X105703009Y-129502812D01*
X105616849Y-129617906D01*
X105616845Y-129617913D01*
X105566603Y-129752620D01*
X105566601Y-129752627D01*
X105560200Y-129812155D01*
X105560200Y-130210000D01*
X94615000Y-130210000D01*
X94615000Y-128870000D01*
X100116700Y-128870000D01*
X100169980Y-128998631D01*
X100301568Y-129213362D01*
X100301571Y-129213367D01*
X100465130Y-129404869D01*
X100656632Y-129568428D01*
X100656637Y-129568431D01*
X100871362Y-129700015D01*
X100871375Y-129700021D01*
X100999999Y-129753299D01*
X101000000Y-129753299D01*
X101000000Y-128870000D01*
X102200000Y-128870000D01*
X102200000Y-129753299D01*
X102328624Y-129700021D01*
X102328637Y-129700015D01*
X102543362Y-129568431D01*
X102543367Y-129568428D01*
X102734869Y-129404869D01*
X102898428Y-129213367D01*
X102898431Y-129213362D01*
X103030019Y-128998631D01*
X103083300Y-128870000D01*
X102200000Y-128870000D01*
X101000000Y-128870000D01*
X100116700Y-128870000D01*
X94615000Y-128870000D01*
X94615000Y-128342409D01*
X101050000Y-128342409D01*
X101087482Y-128482292D01*
X101159890Y-128607708D01*
X101262292Y-128710110D01*
X101387708Y-128782518D01*
X101527591Y-128820000D01*
X101672409Y-128820000D01*
X101812292Y-128782518D01*
X101937708Y-128710110D01*
X102040110Y-128607708D01*
X102112518Y-128482292D01*
X102150000Y-128342409D01*
X102150000Y-128197591D01*
X102112518Y-128057708D01*
X102040110Y-127932292D01*
X101937708Y-127829890D01*
X101812292Y-127757482D01*
X101672409Y-127720000D01*
X101527591Y-127720000D01*
X101387708Y-127757482D01*
X101262292Y-127829890D01*
X101159890Y-127932292D01*
X101087482Y-128057708D01*
X101050000Y-128197591D01*
X101050000Y-128342409D01*
X94615000Y-128342409D01*
X94615000Y-127670000D01*
X100116700Y-127670000D01*
X101000000Y-127670000D01*
X101000000Y-126786700D01*
X102200000Y-126786700D01*
X102200000Y-127670000D01*
X103083300Y-127670000D01*
X103083299Y-127669999D01*
X103030019Y-127541368D01*
X102898431Y-127326637D01*
X102898428Y-127326632D01*
X102734869Y-127135130D01*
X102590216Y-127011584D01*
X130503941Y-127011584D01*
X130701677Y-127064568D01*
X130701684Y-127064569D01*
X130936998Y-127085157D01*
X130937002Y-127085157D01*
X131172315Y-127064569D01*
X131172322Y-127064568D01*
X131370057Y-127011584D01*
X130937001Y-126578528D01*
X130937000Y-126578528D01*
X130503941Y-127011584D01*
X102590216Y-127011584D01*
X102543367Y-126971571D01*
X102543362Y-126971568D01*
X102328631Y-126839980D01*
X102200000Y-126786700D01*
X101000000Y-126786700D01*
X100999999Y-126786700D01*
X100871368Y-126839980D01*
X100656637Y-126971568D01*
X100656632Y-126971571D01*
X100465130Y-127135130D01*
X100301571Y-127326632D01*
X100301568Y-127326637D01*
X100169980Y-127541368D01*
X100116700Y-127669999D01*
X100116700Y-127670000D01*
X94615000Y-127670000D01*
X94615000Y-125857476D01*
X101051051Y-125857476D01*
X101230506Y-125919083D01*
X101475707Y-125960000D01*
X101724293Y-125960000D01*
X101969493Y-125919083D01*
X102148947Y-125857476D01*
X102148947Y-125857475D01*
X102021473Y-125730001D01*
X129581843Y-125730001D01*
X129602430Y-125965315D01*
X129602432Y-125965326D01*
X129655413Y-126163056D01*
X129655414Y-126163056D01*
X130029228Y-125789244D01*
X130487000Y-125789244D01*
X130517667Y-125903694D01*
X130576910Y-126006306D01*
X130660694Y-126090090D01*
X130763306Y-126149333D01*
X130877756Y-126180000D01*
X130996244Y-126180000D01*
X131110694Y-126149333D01*
X131213306Y-126090090D01*
X131297090Y-126006306D01*
X131356333Y-125903694D01*
X131387000Y-125789244D01*
X131387000Y-125730001D01*
X131785528Y-125730001D01*
X132218584Y-126163057D01*
X132271568Y-125965322D01*
X132271569Y-125965315D01*
X132292157Y-125730001D01*
X132292157Y-125730000D01*
X132883341Y-125730000D01*
X132903936Y-125965403D01*
X132903938Y-125965413D01*
X132965094Y-126193655D01*
X132965096Y-126193659D01*
X132965097Y-126193663D01*
X133064965Y-126407830D01*
X133064967Y-126407834D01*
X133173281Y-126562521D01*
X133200505Y-126601401D01*
X133367599Y-126768495D01*
X133464384Y-126836265D01*
X133561165Y-126904032D01*
X133561167Y-126904033D01*
X133561170Y-126904035D01*
X133775337Y-127003903D01*
X134003592Y-127065063D01*
X134191918Y-127081539D01*
X134238999Y-127085659D01*
X134239000Y-127085659D01*
X134239001Y-127085659D01*
X134278234Y-127082226D01*
X134474408Y-127065063D01*
X134702663Y-127003903D01*
X134916830Y-126904035D01*
X135110401Y-126768495D01*
X135277495Y-126601401D01*
X135413035Y-126407830D01*
X135512903Y-126193663D01*
X135574063Y-125965408D01*
X135594659Y-125730000D01*
X135574063Y-125494592D01*
X135524208Y-125308528D01*
X135512905Y-125266344D01*
X135512904Y-125266343D01*
X135512903Y-125266337D01*
X135413035Y-125052171D01*
X135382621Y-125008734D01*
X135277494Y-124858597D01*
X135110402Y-124691506D01*
X135110395Y-124691501D01*
X134916834Y-124555967D01*
X134916830Y-124555965D01*
X134795732Y-124499496D01*
X134711033Y-124460000D01*
X136566341Y-124460000D01*
X136586936Y-124695403D01*
X136586938Y-124695413D01*
X136648094Y-124923655D01*
X136648096Y-124923659D01*
X136648097Y-124923663D01*
X136747965Y-125137830D01*
X136747967Y-125137834D01*
X136847514Y-125280000D01*
X136883505Y-125331401D01*
X137050599Y-125498495D01*
X137133162Y-125556306D01*
X137244165Y-125634032D01*
X137244167Y-125634033D01*
X137244170Y-125634035D01*
X137458337Y-125733903D01*
X137686592Y-125795063D01*
X137863034Y-125810500D01*
X137921999Y-125815659D01*
X137922000Y-125815659D01*
X137922001Y-125815659D01*
X137980966Y-125810500D01*
X138157408Y-125795063D01*
X138385663Y-125733903D01*
X138599830Y-125634035D01*
X138793401Y-125498495D01*
X138934026Y-125357870D01*
X148255500Y-125357870D01*
X148255501Y-125357876D01*
X148261908Y-125417483D01*
X148312202Y-125552328D01*
X148312206Y-125552335D01*
X148398452Y-125667544D01*
X148398455Y-125667547D01*
X148513664Y-125753793D01*
X148513671Y-125753797D01*
X148648517Y-125804091D01*
X148648516Y-125804091D01*
X148655444Y-125804835D01*
X148708127Y-125810500D01*
X150503872Y-125810499D01*
X150563483Y-125804091D01*
X150642165Y-125774743D01*
X150711856Y-125769759D01*
X150728828Y-125774741D01*
X150807517Y-125804091D01*
X150867127Y-125810500D01*
X152662872Y-125810499D01*
X152722483Y-125804091D01*
X152857331Y-125753796D01*
X152972546Y-125667546D01*
X153058796Y-125552331D01*
X153109091Y-125417483D01*
X153115500Y-125357873D01*
X153115499Y-124460000D01*
X162093341Y-124460000D01*
X162113936Y-124695403D01*
X162113938Y-124695413D01*
X162175094Y-124923655D01*
X162175096Y-124923659D01*
X162175097Y-124923663D01*
X162274965Y-125137830D01*
X162274967Y-125137834D01*
X162374514Y-125280000D01*
X162410505Y-125331401D01*
X162577599Y-125498495D01*
X162660162Y-125556306D01*
X162771165Y-125634032D01*
X162771167Y-125634033D01*
X162771170Y-125634035D01*
X162985337Y-125733903D01*
X163213592Y-125795063D01*
X163390034Y-125810500D01*
X163448999Y-125815659D01*
X163449000Y-125815659D01*
X163449001Y-125815659D01*
X163507966Y-125810500D01*
X163684408Y-125795063D01*
X163912663Y-125733903D01*
X164126830Y-125634035D01*
X164320401Y-125498495D01*
X164487495Y-125331401D01*
X164623035Y-125137830D01*
X164722903Y-124923663D01*
X164784063Y-124695408D01*
X164804659Y-124460005D01*
X166134357Y-124460005D01*
X166154890Y-124707812D01*
X166154892Y-124707824D01*
X166215936Y-124948881D01*
X166315826Y-125176606D01*
X166451833Y-125384782D01*
X166451836Y-125384785D01*
X166620256Y-125567738D01*
X166816491Y-125720474D01*
X167035190Y-125838828D01*
X167224138Y-125903694D01*
X167268964Y-125919083D01*
X167270386Y-125919571D01*
X167515665Y-125960500D01*
X167764335Y-125960500D01*
X168009614Y-125919571D01*
X168244810Y-125838828D01*
X168463509Y-125720474D01*
X168659744Y-125567738D01*
X168828164Y-125384785D01*
X168964173Y-125176607D01*
X169064063Y-124948881D01*
X169125108Y-124707821D01*
X169126460Y-124691505D01*
X169145643Y-124460005D01*
X169145643Y-124459994D01*
X169125109Y-124212187D01*
X169125107Y-124212175D01*
X169064063Y-123971118D01*
X168964173Y-123743393D01*
X168828166Y-123535217D01*
X168798062Y-123502516D01*
X168659744Y-123352262D01*
X168463509Y-123199526D01*
X168463507Y-123199525D01*
X168463506Y-123199524D01*
X168244811Y-123081172D01*
X168244802Y-123081169D01*
X168009616Y-123000429D01*
X167764335Y-122959500D01*
X167515665Y-122959500D01*
X167270383Y-123000429D01*
X167035197Y-123081169D01*
X167035188Y-123081172D01*
X166816493Y-123199524D01*
X166620257Y-123352261D01*
X166451833Y-123535217D01*
X166315826Y-123743393D01*
X166215936Y-123971118D01*
X166154892Y-124212175D01*
X166154890Y-124212187D01*
X166134357Y-124459994D01*
X166134357Y-124460005D01*
X164804659Y-124460005D01*
X164804659Y-124460000D01*
X164804658Y-124459994D01*
X164798967Y-124394937D01*
X164784063Y-124224592D01*
X164722903Y-123996337D01*
X164623035Y-123782171D01*
X164595883Y-123743393D01*
X164487494Y-123588597D01*
X164320402Y-123421506D01*
X164320395Y-123421501D01*
X164126834Y-123285967D01*
X164126830Y-123285965D01*
X164126828Y-123285964D01*
X163912663Y-123186097D01*
X163912659Y-123186096D01*
X163912655Y-123186094D01*
X163684413Y-123124938D01*
X163684403Y-123124936D01*
X163449001Y-123104341D01*
X163448999Y-123104341D01*
X163213596Y-123124936D01*
X163213586Y-123124938D01*
X162985344Y-123186094D01*
X162985335Y-123186098D01*
X162771171Y-123285964D01*
X162771169Y-123285965D01*
X162577597Y-123421505D01*
X162410505Y-123588597D01*
X162274965Y-123782169D01*
X162274964Y-123782171D01*
X162175098Y-123996335D01*
X162175094Y-123996344D01*
X162113938Y-124224586D01*
X162113936Y-124224596D01*
X162093341Y-124459999D01*
X162093341Y-124460000D01*
X153115499Y-124460000D01*
X153115499Y-123562128D01*
X153109091Y-123502517D01*
X153058796Y-123367669D01*
X153058795Y-123367668D01*
X153058793Y-123367664D01*
X152972547Y-123252455D01*
X152972544Y-123252452D01*
X152857335Y-123166206D01*
X152857328Y-123166202D01*
X152722482Y-123115908D01*
X152722483Y-123115908D01*
X152662883Y-123109501D01*
X152662881Y-123109500D01*
X152662873Y-123109500D01*
X152662864Y-123109500D01*
X150867129Y-123109500D01*
X150867123Y-123109501D01*
X150807514Y-123115909D01*
X150728832Y-123145255D01*
X150659140Y-123150239D01*
X150642168Y-123145255D01*
X150563485Y-123115909D01*
X150563483Y-123115908D01*
X150503883Y-123109501D01*
X150503881Y-123109500D01*
X150503873Y-123109500D01*
X150503864Y-123109500D01*
X148708129Y-123109500D01*
X148708123Y-123109501D01*
X148648516Y-123115908D01*
X148513671Y-123166202D01*
X148513664Y-123166206D01*
X148398455Y-123252452D01*
X148398452Y-123252455D01*
X148312206Y-123367664D01*
X148312202Y-123367671D01*
X148261908Y-123502517D01*
X148258393Y-123535215D01*
X148255501Y-123562123D01*
X148255500Y-123562135D01*
X148255500Y-125357870D01*
X138934026Y-125357870D01*
X138960495Y-125331401D01*
X139096035Y-125137830D01*
X139195903Y-124923663D01*
X139257063Y-124695408D01*
X139277659Y-124460000D01*
X139277658Y-124459994D01*
X139271967Y-124394937D01*
X139257063Y-124224592D01*
X139195903Y-123996337D01*
X139096035Y-123782171D01*
X139068883Y-123743393D01*
X138960494Y-123588597D01*
X138793402Y-123421506D01*
X138793395Y-123421501D01*
X138599834Y-123285967D01*
X138599830Y-123285965D01*
X138599828Y-123285964D01*
X138385663Y-123186097D01*
X138385659Y-123186096D01*
X138385655Y-123186094D01*
X138157413Y-123124938D01*
X138157403Y-123124936D01*
X137922001Y-123104341D01*
X137921999Y-123104341D01*
X137686596Y-123124936D01*
X137686586Y-123124938D01*
X137458344Y-123186094D01*
X137458335Y-123186098D01*
X137244171Y-123285964D01*
X137244169Y-123285965D01*
X137050597Y-123421505D01*
X136883505Y-123588597D01*
X136747965Y-123782169D01*
X136747964Y-123782171D01*
X136648098Y-123996335D01*
X136648094Y-123996344D01*
X136586938Y-124224586D01*
X136586936Y-124224596D01*
X136566341Y-124459999D01*
X136566341Y-124460000D01*
X134711033Y-124460000D01*
X134702663Y-124456097D01*
X134702659Y-124456096D01*
X134702655Y-124456094D01*
X134474413Y-124394938D01*
X134474403Y-124394936D01*
X134239001Y-124374341D01*
X134238999Y-124374341D01*
X134003596Y-124394936D01*
X134003586Y-124394938D01*
X133775344Y-124456094D01*
X133775335Y-124456098D01*
X133561171Y-124555964D01*
X133561169Y-124555965D01*
X133367597Y-124691505D01*
X133200505Y-124858597D01*
X133064965Y-125052169D01*
X133064964Y-125052171D01*
X132965098Y-125266335D01*
X132965094Y-125266344D01*
X132903938Y-125494586D01*
X132903936Y-125494596D01*
X132883341Y-125729999D01*
X132883341Y-125730000D01*
X132292157Y-125730000D01*
X132292157Y-125729998D01*
X132271569Y-125494684D01*
X132271568Y-125494677D01*
X132218584Y-125296941D01*
X131785528Y-125729999D01*
X131785528Y-125730001D01*
X131387000Y-125730001D01*
X131387000Y-125670756D01*
X131356333Y-125556306D01*
X131297090Y-125453694D01*
X131213306Y-125369910D01*
X131110694Y-125310667D01*
X130996244Y-125280000D01*
X130877756Y-125280000D01*
X130763306Y-125310667D01*
X130660694Y-125369910D01*
X130576910Y-125453694D01*
X130517667Y-125556306D01*
X130487000Y-125670756D01*
X130487000Y-125789244D01*
X130029228Y-125789244D01*
X130088472Y-125730000D01*
X129655414Y-125296942D01*
X129655413Y-125296942D01*
X129602432Y-125494673D01*
X129602430Y-125494684D01*
X129581843Y-125729998D01*
X129581843Y-125730001D01*
X102021473Y-125730001D01*
X101600001Y-125308528D01*
X101600000Y-125308528D01*
X101051051Y-125857475D01*
X101051051Y-125857476D01*
X94615000Y-125857476D01*
X94615000Y-124460005D01*
X100094859Y-124460005D01*
X100115385Y-124707729D01*
X100115387Y-124707738D01*
X100176412Y-124948717D01*
X100202737Y-125008733D01*
X100711976Y-124499496D01*
X101300000Y-124499496D01*
X101320444Y-124575796D01*
X101359940Y-124644205D01*
X101415795Y-124700060D01*
X101484204Y-124739556D01*
X101560504Y-124760000D01*
X101639496Y-124760000D01*
X101715796Y-124739556D01*
X101784205Y-124700060D01*
X101840060Y-124644205D01*
X101879556Y-124575796D01*
X101900000Y-124499496D01*
X101900000Y-124460001D01*
X102448528Y-124460001D01*
X102997261Y-125008734D01*
X102997262Y-125008733D01*
X103023584Y-124948727D01*
X103023588Y-124948716D01*
X103084610Y-124707750D01*
X103084614Y-124707729D01*
X103105141Y-124460005D01*
X103105141Y-124459994D01*
X103104181Y-124448414D01*
X130503942Y-124448414D01*
X130937000Y-124881472D01*
X130937001Y-124881472D01*
X131370056Y-124448414D01*
X131370056Y-124448413D01*
X131172326Y-124395432D01*
X131172315Y-124395430D01*
X130937002Y-124374843D01*
X130936998Y-124374843D01*
X130701684Y-124395430D01*
X130701673Y-124395432D01*
X130503942Y-124448413D01*
X130503942Y-124448414D01*
X103104181Y-124448414D01*
X103084614Y-124212270D01*
X103084612Y-124212261D01*
X103023587Y-123971280D01*
X102997262Y-123911265D01*
X102997261Y-123911264D01*
X102448528Y-124459999D01*
X102448528Y-124460001D01*
X101900000Y-124460001D01*
X101900000Y-124420504D01*
X101879556Y-124344204D01*
X101840060Y-124275795D01*
X101784205Y-124219940D01*
X101715796Y-124180444D01*
X101639496Y-124160000D01*
X101560504Y-124160000D01*
X101484204Y-124180444D01*
X101415795Y-124219940D01*
X101359940Y-124275795D01*
X101320444Y-124344204D01*
X101300000Y-124420504D01*
X101300000Y-124499496D01*
X100711976Y-124499496D01*
X100751472Y-124460000D01*
X100202737Y-123911265D01*
X100176411Y-123971285D01*
X100115387Y-124212261D01*
X100115385Y-124212270D01*
X100094859Y-124459994D01*
X100094859Y-124460005D01*
X94615000Y-124460005D01*
X94615000Y-123062523D01*
X101051051Y-123062523D01*
X101600000Y-123611472D01*
X101600001Y-123611472D01*
X102148948Y-123062523D01*
X101969488Y-123000915D01*
X101724293Y-122960000D01*
X101475707Y-122960000D01*
X101230511Y-123000915D01*
X101051051Y-123062523D01*
X94615000Y-123062523D01*
X94615000Y-122679000D01*
X94634685Y-122611961D01*
X94687489Y-122566206D01*
X94739000Y-122555000D01*
X95885000Y-122555000D01*
X98425000Y-122555000D01*
X171326000Y-122555000D01*
X171393039Y-122574685D01*
G37*
G04 #@! TD.AperFunction*
G04 #@! TA.AperFunction,Conductor*
G36*
X98425000Y-122555000D02*
G01*
X95885000Y-122555000D01*
X95885000Y-118745000D01*
X98425000Y-118745000D01*
X98425000Y-122555000D01*
G37*
G04 #@! TD.AperFunction*
G04 #@! TA.AperFunction,Conductor*
G36*
X177108039Y-76219685D02*
G01*
X177153794Y-76272489D01*
X177165000Y-76324000D01*
X177165000Y-119256000D01*
X177145315Y-119323039D01*
X177092511Y-119368794D01*
X177041000Y-119380000D01*
X175160039Y-119380000D01*
X175093000Y-119360315D01*
X175047245Y-119307511D01*
X175037301Y-119238353D01*
X175049553Y-119199707D01*
X175056210Y-119186640D01*
X175056211Y-119186639D01*
X175112171Y-119014409D01*
X175130476Y-118898837D01*
X175140500Y-118835551D01*
X175140500Y-118654448D01*
X175124019Y-118550397D01*
X175112171Y-118475591D01*
X175056211Y-118303361D01*
X175056211Y-118303360D01*
X175027740Y-118247484D01*
X174973996Y-118142006D01*
X174960396Y-118123287D01*
X174867558Y-117995505D01*
X174867554Y-117995500D01*
X174739499Y-117867445D01*
X174739494Y-117867441D01*
X174592993Y-117761003D01*
X174592992Y-117761002D01*
X174477490Y-117702150D01*
X174426694Y-117654176D01*
X174409899Y-117586355D01*
X174432437Y-117520220D01*
X174487152Y-117476769D01*
X174493488Y-117474397D01*
X174539831Y-117458488D01*
X174738649Y-117350893D01*
X174917046Y-117212040D01*
X175016832Y-117103643D01*
X175070149Y-117045727D01*
X175070150Y-117045725D01*
X175070156Y-117045719D01*
X175193802Y-116856465D01*
X175284611Y-116649441D01*
X175340107Y-116430293D01*
X175356266Y-116235281D01*
X175358775Y-116205006D01*
X175358775Y-116204993D01*
X175343867Y-116025080D01*
X175340107Y-115979707D01*
X175284611Y-115760559D01*
X175193802Y-115553535D01*
X175070156Y-115364281D01*
X175070153Y-115364278D01*
X175070149Y-115364272D01*
X174917049Y-115197963D01*
X174917048Y-115197962D01*
X174917046Y-115197960D01*
X174738649Y-115059107D01*
X174738647Y-115059106D01*
X174738646Y-115059105D01*
X174738639Y-115059100D01*
X174710836Y-115044055D01*
X174661244Y-114994837D01*
X174646135Y-114926620D01*
X174670306Y-114861064D01*
X174710836Y-114825945D01*
X174738639Y-114810899D01*
X174738642Y-114810896D01*
X174738649Y-114810893D01*
X174917046Y-114672040D01*
X175034272Y-114544699D01*
X175070149Y-114505727D01*
X175070150Y-114505725D01*
X175070156Y-114505719D01*
X175193802Y-114316465D01*
X175284611Y-114109441D01*
X175340107Y-113890293D01*
X175353757Y-113725563D01*
X175358775Y-113665006D01*
X175358775Y-113664993D01*
X175345707Y-113507294D01*
X175340107Y-113439707D01*
X175284611Y-113220559D01*
X175193802Y-113013535D01*
X175190512Y-113008500D01*
X175087011Y-112850080D01*
X175070156Y-112824281D01*
X175070153Y-112824278D01*
X175070149Y-112824272D01*
X174917049Y-112657963D01*
X174917048Y-112657962D01*
X174917046Y-112657960D01*
X174738649Y-112519107D01*
X174738647Y-112519106D01*
X174738646Y-112519105D01*
X174738639Y-112519100D01*
X174710836Y-112504055D01*
X174661244Y-112454837D01*
X174646135Y-112386620D01*
X174670306Y-112321064D01*
X174710836Y-112285945D01*
X174738639Y-112270899D01*
X174738642Y-112270896D01*
X174738649Y-112270893D01*
X174917046Y-112132040D01*
X175031317Y-112007909D01*
X175070149Y-111965727D01*
X175070150Y-111965725D01*
X175070156Y-111965719D01*
X175193802Y-111776465D01*
X175284611Y-111569441D01*
X175340107Y-111350293D01*
X175351490Y-111212916D01*
X175358775Y-111125006D01*
X175358775Y-111124993D01*
X175340107Y-110899710D01*
X175340107Y-110899707D01*
X175284611Y-110680559D01*
X175193802Y-110473535D01*
X175191860Y-110470563D01*
X175115520Y-110353716D01*
X175070156Y-110284281D01*
X175070153Y-110284278D01*
X175070149Y-110284272D01*
X174917049Y-110117963D01*
X174917048Y-110117962D01*
X174917046Y-110117960D01*
X174738649Y-109979107D01*
X174738647Y-109979106D01*
X174738646Y-109979105D01*
X174738639Y-109979100D01*
X174710836Y-109964055D01*
X174661244Y-109914837D01*
X174646135Y-109846620D01*
X174670306Y-109781064D01*
X174710836Y-109745945D01*
X174738639Y-109730899D01*
X174738642Y-109730896D01*
X174738649Y-109730893D01*
X174917046Y-109592040D01*
X175070156Y-109425719D01*
X175193802Y-109236465D01*
X175284611Y-109029441D01*
X175340107Y-108810293D01*
X175348477Y-108709277D01*
X175358775Y-108585006D01*
X175358775Y-108584993D01*
X175340107Y-108359710D01*
X175340107Y-108359707D01*
X175284611Y-108140559D01*
X175193802Y-107933535D01*
X175190245Y-107928091D01*
X175070157Y-107744283D01*
X175070149Y-107744272D01*
X174917049Y-107577963D01*
X174917048Y-107577962D01*
X174917046Y-107577960D01*
X174738649Y-107439107D01*
X174738647Y-107439106D01*
X174738646Y-107439105D01*
X174738639Y-107439100D01*
X174710836Y-107424055D01*
X174661244Y-107374837D01*
X174646135Y-107306620D01*
X174670306Y-107241064D01*
X174710836Y-107205945D01*
X174738639Y-107190899D01*
X174738642Y-107190896D01*
X174738649Y-107190893D01*
X174917046Y-107052040D01*
X175070156Y-106885719D01*
X175193802Y-106696465D01*
X175284611Y-106489441D01*
X175340107Y-106270293D01*
X175358775Y-106045000D01*
X175358775Y-106044993D01*
X175340107Y-105819710D01*
X175340107Y-105819707D01*
X175284611Y-105600559D01*
X175193802Y-105393535D01*
X175178722Y-105370454D01*
X175122372Y-105284204D01*
X175070156Y-105204281D01*
X175070153Y-105204278D01*
X175070149Y-105204272D01*
X174917049Y-105037963D01*
X174917048Y-105037962D01*
X174917046Y-105037960D01*
X174738649Y-104899107D01*
X174738647Y-104899106D01*
X174738646Y-104899105D01*
X174738639Y-104899100D01*
X174710836Y-104884055D01*
X174661244Y-104834837D01*
X174646135Y-104766620D01*
X174670306Y-104701064D01*
X174710836Y-104665945D01*
X174738639Y-104650899D01*
X174738642Y-104650896D01*
X174738649Y-104650893D01*
X174917046Y-104512040D01*
X175070156Y-104345719D01*
X175193802Y-104156465D01*
X175284611Y-103949441D01*
X175340107Y-103730293D01*
X175355651Y-103542701D01*
X175358775Y-103505006D01*
X175358775Y-103504993D01*
X175343446Y-103320000D01*
X175340107Y-103279707D01*
X175284611Y-103060559D01*
X175193802Y-102853535D01*
X175175592Y-102825663D01*
X175070157Y-102664283D01*
X175070149Y-102664272D01*
X174917049Y-102497963D01*
X174917048Y-102497962D01*
X174917046Y-102497960D01*
X174738649Y-102359107D01*
X174738647Y-102359106D01*
X174738646Y-102359105D01*
X174738639Y-102359100D01*
X174710836Y-102344055D01*
X174661244Y-102294837D01*
X174646135Y-102226620D01*
X174670306Y-102161064D01*
X174710836Y-102125945D01*
X174738639Y-102110899D01*
X174738642Y-102110896D01*
X174738649Y-102110893D01*
X174917046Y-101972040D01*
X175070156Y-101805719D01*
X175193802Y-101616465D01*
X175284611Y-101409441D01*
X175340107Y-101190293D01*
X175353643Y-101026936D01*
X175358775Y-100965006D01*
X175358775Y-100964993D01*
X175341982Y-100762335D01*
X175340107Y-100739707D01*
X175284611Y-100520559D01*
X175193802Y-100313535D01*
X175190245Y-100308091D01*
X175070157Y-100124283D01*
X175070149Y-100124272D01*
X174917049Y-99957963D01*
X174917048Y-99957962D01*
X174917046Y-99957960D01*
X174738649Y-99819107D01*
X174738647Y-99819106D01*
X174738646Y-99819105D01*
X174738639Y-99819100D01*
X174710836Y-99804055D01*
X174661244Y-99754837D01*
X174646135Y-99686620D01*
X174670306Y-99621064D01*
X174710836Y-99585945D01*
X174738639Y-99570899D01*
X174738642Y-99570896D01*
X174738649Y-99570893D01*
X174917046Y-99432040D01*
X175016832Y-99323643D01*
X175070149Y-99265727D01*
X175070150Y-99265725D01*
X175070156Y-99265719D01*
X175193802Y-99076465D01*
X175284611Y-98869441D01*
X175340107Y-98650293D01*
X175347574Y-98560175D01*
X175358775Y-98425006D01*
X175358775Y-98424993D01*
X175340107Y-98199710D01*
X175340107Y-98199707D01*
X175284611Y-97980559D01*
X175193802Y-97773535D01*
X175191986Y-97770756D01*
X175117212Y-97656306D01*
X175070156Y-97584281D01*
X175070153Y-97584278D01*
X175070149Y-97584272D01*
X174917049Y-97417963D01*
X174917048Y-97417962D01*
X174917046Y-97417960D01*
X174738649Y-97279107D01*
X174738647Y-97279106D01*
X174738646Y-97279105D01*
X174738639Y-97279100D01*
X174710836Y-97264055D01*
X174661244Y-97214837D01*
X174646135Y-97146620D01*
X174670306Y-97081064D01*
X174710836Y-97045945D01*
X174738639Y-97030899D01*
X174738642Y-97030896D01*
X174738649Y-97030893D01*
X174917046Y-96892040D01*
X175058653Y-96738215D01*
X175070149Y-96725727D01*
X175070150Y-96725725D01*
X175070156Y-96725719D01*
X175193802Y-96536465D01*
X175284611Y-96329441D01*
X175340107Y-96110293D01*
X175347574Y-96020175D01*
X175358775Y-95885006D01*
X175358775Y-95884993D01*
X175340107Y-95659710D01*
X175340107Y-95659707D01*
X175284611Y-95440559D01*
X175193802Y-95233535D01*
X175070156Y-95044281D01*
X175070153Y-95044278D01*
X175070149Y-95044272D01*
X174917049Y-94877963D01*
X174917048Y-94877962D01*
X174917046Y-94877960D01*
X174738649Y-94739107D01*
X174738647Y-94739106D01*
X174738646Y-94739105D01*
X174738639Y-94739100D01*
X174710836Y-94724055D01*
X174661244Y-94674837D01*
X174646135Y-94606620D01*
X174670306Y-94541064D01*
X174710836Y-94505945D01*
X174738639Y-94490899D01*
X174738642Y-94490896D01*
X174738649Y-94490893D01*
X174917046Y-94352040D01*
X175016832Y-94243643D01*
X175070149Y-94185727D01*
X175070150Y-94185725D01*
X175070156Y-94185719D01*
X175193802Y-93996465D01*
X175284611Y-93789441D01*
X175340107Y-93570293D01*
X175358775Y-93345000D01*
X175358775Y-93344993D01*
X175340107Y-93119710D01*
X175340107Y-93119707D01*
X175284611Y-92900559D01*
X175193802Y-92693535D01*
X175181521Y-92674738D01*
X175131088Y-92597544D01*
X175070156Y-92504281D01*
X175070153Y-92504278D01*
X175070149Y-92504272D01*
X174917049Y-92337963D01*
X174917048Y-92337962D01*
X174917046Y-92337960D01*
X174738649Y-92199107D01*
X174738647Y-92199106D01*
X174738646Y-92199105D01*
X174738639Y-92199100D01*
X174710836Y-92184055D01*
X174661244Y-92134837D01*
X174646135Y-92066620D01*
X174670306Y-92001064D01*
X174710836Y-91965945D01*
X174738639Y-91950899D01*
X174738642Y-91950896D01*
X174738649Y-91950893D01*
X174917046Y-91812040D01*
X175043389Y-91674796D01*
X175070149Y-91645727D01*
X175070150Y-91645725D01*
X175070156Y-91645719D01*
X175193802Y-91456465D01*
X175284611Y-91249441D01*
X175340107Y-91030293D01*
X175358775Y-90805000D01*
X175358775Y-90804993D01*
X175341860Y-90600861D01*
X175340107Y-90579707D01*
X175284611Y-90360559D01*
X175193802Y-90153535D01*
X175184632Y-90139500D01*
X175070157Y-89964283D01*
X175070149Y-89964272D01*
X174917049Y-89797963D01*
X174917048Y-89797962D01*
X174917046Y-89797960D01*
X174738649Y-89659107D01*
X174738647Y-89659106D01*
X174738646Y-89659105D01*
X174738639Y-89659100D01*
X174710836Y-89644055D01*
X174661244Y-89594837D01*
X174646135Y-89526620D01*
X174670306Y-89461064D01*
X174710836Y-89425945D01*
X174738639Y-89410899D01*
X174738642Y-89410896D01*
X174738649Y-89410893D01*
X174917046Y-89272040D01*
X175070156Y-89105719D01*
X175193802Y-88916465D01*
X175284611Y-88709441D01*
X175340107Y-88490293D01*
X175347574Y-88400175D01*
X175358775Y-88265006D01*
X175358775Y-88264993D01*
X175343155Y-88076488D01*
X175340107Y-88039707D01*
X175284611Y-87820559D01*
X175193802Y-87613535D01*
X175070156Y-87424281D01*
X175070153Y-87424278D01*
X175070149Y-87424272D01*
X174917045Y-87257959D01*
X174738646Y-87119105D01*
X174738639Y-87119100D01*
X174710836Y-87104055D01*
X174661244Y-87054837D01*
X174646135Y-86986620D01*
X174670306Y-86921064D01*
X174710836Y-86885945D01*
X174738639Y-86870899D01*
X174738642Y-86870896D01*
X174738649Y-86870893D01*
X174917046Y-86732040D01*
X175070156Y-86565719D01*
X175193802Y-86376465D01*
X175284611Y-86169441D01*
X175340107Y-85950293D01*
X175349004Y-85842918D01*
X175358775Y-85725006D01*
X175358775Y-85724993D01*
X175340107Y-85499710D01*
X175340107Y-85499707D01*
X175284611Y-85280559D01*
X175193802Y-85073535D01*
X175070156Y-84884281D01*
X175070153Y-84884278D01*
X175070149Y-84884272D01*
X174932755Y-84735024D01*
X174901832Y-84672370D01*
X174909692Y-84602944D01*
X174953839Y-84548788D01*
X174980652Y-84534859D01*
X175095684Y-84491955D01*
X175095693Y-84491950D01*
X175210787Y-84405790D01*
X175210790Y-84405787D01*
X175296950Y-84290693D01*
X175296954Y-84290686D01*
X175347196Y-84155979D01*
X175347198Y-84155972D01*
X175353599Y-84096444D01*
X175353600Y-84096427D01*
X175353600Y-83535000D01*
X174358422Y-83535000D01*
X174396502Y-83496920D01*
X174463381Y-83381081D01*
X174498000Y-83251880D01*
X174498000Y-83118120D01*
X174463381Y-82988919D01*
X174396502Y-82873080D01*
X174358422Y-82835000D01*
X175353600Y-82835000D01*
X175353600Y-82273572D01*
X175353599Y-82273555D01*
X175347198Y-82214027D01*
X175347196Y-82214020D01*
X175296954Y-82079313D01*
X175296950Y-82079306D01*
X175210790Y-81964212D01*
X175210787Y-81964209D01*
X175095693Y-81878049D01*
X175095686Y-81878045D01*
X174980651Y-81835140D01*
X174924717Y-81793269D01*
X174900300Y-81727804D01*
X174915152Y-81659531D01*
X174932749Y-81634981D01*
X175070156Y-81485719D01*
X175193802Y-81296465D01*
X175284611Y-81089441D01*
X175340107Y-80870293D01*
X175351167Y-80736817D01*
X175358775Y-80645006D01*
X175358775Y-80644993D01*
X175340107Y-80419710D01*
X175340107Y-80419707D01*
X175284611Y-80200559D01*
X175193802Y-79993535D01*
X175183867Y-79978329D01*
X175070157Y-79804283D01*
X175070149Y-79804272D01*
X174917049Y-79637963D01*
X174917048Y-79637962D01*
X174917046Y-79637960D01*
X174738649Y-79499107D01*
X174712390Y-79484896D01*
X174539832Y-79391512D01*
X174539826Y-79391510D01*
X174493522Y-79375614D01*
X174436507Y-79335229D01*
X174410376Y-79270429D01*
X174423427Y-79201789D01*
X174471516Y-79151101D01*
X174477472Y-79147857D01*
X174592994Y-79088996D01*
X174739501Y-78982553D01*
X174867553Y-78854501D01*
X174973996Y-78707994D01*
X175056211Y-78546639D01*
X175112171Y-78374409D01*
X175126765Y-78282259D01*
X175140500Y-78195551D01*
X175140500Y-78014448D01*
X175124019Y-77910397D01*
X175112171Y-77835591D01*
X175056211Y-77663361D01*
X175056211Y-77663360D01*
X175027740Y-77607484D01*
X174973996Y-77502006D01*
X174960396Y-77483287D01*
X174867558Y-77355505D01*
X174867554Y-77355500D01*
X174739499Y-77227445D01*
X174739494Y-77227441D01*
X174592997Y-77121006D01*
X174592996Y-77121005D01*
X174592994Y-77121004D01*
X174541300Y-77094664D01*
X174431639Y-77038788D01*
X174431636Y-77038787D01*
X174259410Y-76982829D01*
X174080551Y-76954500D01*
X174080546Y-76954500D01*
X173899454Y-76954500D01*
X173899449Y-76954500D01*
X173720589Y-76982829D01*
X173548363Y-77038787D01*
X173548360Y-77038788D01*
X173387002Y-77121006D01*
X173240505Y-77227441D01*
X173240500Y-77227445D01*
X173112445Y-77355500D01*
X173112441Y-77355505D01*
X173006006Y-77502002D01*
X172923788Y-77663360D01*
X172923787Y-77663363D01*
X172867829Y-77835589D01*
X172839500Y-78014448D01*
X172839500Y-78195551D01*
X172867829Y-78374410D01*
X172923787Y-78546636D01*
X172923788Y-78546639D01*
X173006006Y-78707997D01*
X173112441Y-78854494D01*
X173112445Y-78854499D01*
X173240500Y-78982554D01*
X173240505Y-78982558D01*
X173368287Y-79075396D01*
X173387006Y-79088996D01*
X173502509Y-79147848D01*
X173553305Y-79195823D01*
X173570100Y-79263644D01*
X173547562Y-79329779D01*
X173492847Y-79373230D01*
X173486478Y-79375614D01*
X173440169Y-79391512D01*
X173440167Y-79391512D01*
X173241352Y-79499106D01*
X173062955Y-79637959D01*
X173062950Y-79637963D01*
X172909850Y-79804272D01*
X172909842Y-79804283D01*
X172786198Y-79993533D01*
X172695388Y-80200560D01*
X172639892Y-80419710D01*
X172621225Y-80644993D01*
X172621225Y-80645006D01*
X172639892Y-80870289D01*
X172695388Y-81089439D01*
X172786198Y-81296466D01*
X172909842Y-81485716D01*
X172909844Y-81485719D01*
X173047245Y-81634976D01*
X173078167Y-81697629D01*
X173070307Y-81767055D01*
X173026160Y-81821211D01*
X172999349Y-81835140D01*
X172884311Y-81878046D01*
X172884306Y-81878049D01*
X172769212Y-81964209D01*
X172769209Y-81964212D01*
X172683049Y-82079306D01*
X172683045Y-82079313D01*
X172632803Y-82214020D01*
X172632801Y-82214027D01*
X172626400Y-82273555D01*
X172626400Y-82835000D01*
X173621578Y-82835000D01*
X173583498Y-82873080D01*
X173516619Y-82988919D01*
X173482000Y-83118120D01*
X173482000Y-83251880D01*
X173516619Y-83381081D01*
X173583498Y-83496920D01*
X173621578Y-83535000D01*
X172626400Y-83535000D01*
X172626400Y-84096444D01*
X172632801Y-84155972D01*
X172632803Y-84155979D01*
X172683045Y-84290686D01*
X172683049Y-84290693D01*
X172769209Y-84405787D01*
X172769212Y-84405790D01*
X172884306Y-84491950D01*
X172884313Y-84491954D01*
X172999348Y-84534859D01*
X173055282Y-84576730D01*
X173079699Y-84642194D01*
X173064848Y-84710467D01*
X173047245Y-84735024D01*
X172909845Y-84884279D01*
X172909842Y-84884283D01*
X172786198Y-85073533D01*
X172695388Y-85280560D01*
X172639892Y-85499710D01*
X172621225Y-85724993D01*
X172621225Y-85725006D01*
X172639892Y-85950289D01*
X172695388Y-86169439D01*
X172786198Y-86376466D01*
X172909842Y-86565716D01*
X172909850Y-86565727D01*
X173047244Y-86714975D01*
X173062954Y-86732040D01*
X173241351Y-86870893D01*
X173269165Y-86885945D01*
X173318755Y-86935165D01*
X173333863Y-87003382D01*
X173309692Y-87068937D01*
X173269165Y-87104055D01*
X173241352Y-87119106D01*
X173062955Y-87257959D01*
X172909850Y-87424272D01*
X172909842Y-87424283D01*
X172786198Y-87613533D01*
X172695388Y-87820560D01*
X172639892Y-88039710D01*
X172621225Y-88264993D01*
X172621225Y-88265006D01*
X172639892Y-88490289D01*
X172695388Y-88709439D01*
X172786198Y-88916466D01*
X172909842Y-89105716D01*
X172909850Y-89105727D01*
X173062950Y-89272036D01*
X173062954Y-89272040D01*
X173241351Y-89410893D01*
X173269165Y-89425945D01*
X173318755Y-89475165D01*
X173333863Y-89543382D01*
X173309692Y-89608937D01*
X173269165Y-89644055D01*
X173241352Y-89659106D01*
X173062955Y-89797959D01*
X173062950Y-89797963D01*
X172909850Y-89964272D01*
X172909842Y-89964283D01*
X172786198Y-90153533D01*
X172695388Y-90360560D01*
X172639892Y-90579710D01*
X172621225Y-90804993D01*
X172621225Y-90805006D01*
X172639892Y-91030289D01*
X172695388Y-91249439D01*
X172786198Y-91456466D01*
X172909842Y-91645716D01*
X172909850Y-91645727D01*
X172988810Y-91731499D01*
X173062954Y-91812040D01*
X173241351Y-91950893D01*
X173269165Y-91965945D01*
X173318755Y-92015165D01*
X173333863Y-92083382D01*
X173309692Y-92148937D01*
X173269165Y-92184055D01*
X173241352Y-92199106D01*
X173062955Y-92337959D01*
X173062950Y-92337963D01*
X172909850Y-92504272D01*
X172909842Y-92504283D01*
X172786198Y-92693533D01*
X172695388Y-92900560D01*
X172639892Y-93119710D01*
X172621225Y-93344993D01*
X172621225Y-93345006D01*
X172639892Y-93570289D01*
X172695388Y-93789439D01*
X172786198Y-93996466D01*
X172909842Y-94185716D01*
X172909850Y-94185727D01*
X173062950Y-94352036D01*
X173062954Y-94352040D01*
X173241351Y-94490893D01*
X173269165Y-94505945D01*
X173318755Y-94555165D01*
X173333863Y-94623382D01*
X173309692Y-94688937D01*
X173269165Y-94724054D01*
X173260866Y-94728545D01*
X173241352Y-94739106D01*
X173062955Y-94877959D01*
X173062950Y-94877963D01*
X172909850Y-95044272D01*
X172909842Y-95044283D01*
X172786198Y-95233533D01*
X172695388Y-95440560D01*
X172639892Y-95659710D01*
X172621225Y-95884993D01*
X172621225Y-95885006D01*
X172639892Y-96110289D01*
X172695388Y-96329439D01*
X172786198Y-96536466D01*
X172909842Y-96725716D01*
X172909850Y-96725727D01*
X173049569Y-96877500D01*
X173062954Y-96892040D01*
X173241351Y-97030893D01*
X173269165Y-97045945D01*
X173318755Y-97095165D01*
X173333863Y-97163382D01*
X173309692Y-97228937D01*
X173269165Y-97264055D01*
X173241352Y-97279106D01*
X173062955Y-97417959D01*
X173062950Y-97417963D01*
X172909850Y-97584272D01*
X172909842Y-97584283D01*
X172786198Y-97773533D01*
X172695388Y-97980560D01*
X172639892Y-98199710D01*
X172621225Y-98424993D01*
X172621225Y-98425006D01*
X172639892Y-98650289D01*
X172695388Y-98869439D01*
X172786198Y-99076466D01*
X172909842Y-99265716D01*
X172909850Y-99265727D01*
X173062950Y-99432036D01*
X173062954Y-99432040D01*
X173241351Y-99570893D01*
X173269165Y-99585945D01*
X173318755Y-99635165D01*
X173333863Y-99703382D01*
X173309692Y-99768937D01*
X173269165Y-99804055D01*
X173241352Y-99819106D01*
X173062955Y-99957959D01*
X173062950Y-99957963D01*
X172909850Y-100124272D01*
X172909842Y-100124283D01*
X172786198Y-100313533D01*
X172695388Y-100520560D01*
X172639892Y-100739710D01*
X172621225Y-100964993D01*
X172621225Y-100965006D01*
X172639892Y-101190289D01*
X172695388Y-101409439D01*
X172786198Y-101616466D01*
X172909842Y-101805716D01*
X172909850Y-101805727D01*
X173045008Y-101952546D01*
X173062954Y-101972040D01*
X173241351Y-102110893D01*
X173269165Y-102125945D01*
X173318755Y-102175165D01*
X173333863Y-102243382D01*
X173309692Y-102308937D01*
X173269165Y-102344055D01*
X173241352Y-102359106D01*
X173062955Y-102497959D01*
X173062950Y-102497963D01*
X172909850Y-102664272D01*
X172909842Y-102664283D01*
X172786198Y-102853533D01*
X172695388Y-103060560D01*
X172639892Y-103279710D01*
X172621225Y-103504993D01*
X172621225Y-103505006D01*
X172639892Y-103730289D01*
X172695388Y-103949439D01*
X172786198Y-104156466D01*
X172909842Y-104345716D01*
X172909850Y-104345727D01*
X173018688Y-104463955D01*
X173062954Y-104512040D01*
X173241351Y-104650893D01*
X173269165Y-104665945D01*
X173318755Y-104715165D01*
X173333863Y-104783382D01*
X173309692Y-104848937D01*
X173269165Y-104884055D01*
X173241352Y-104899106D01*
X173062955Y-105037959D01*
X173062950Y-105037963D01*
X172909850Y-105204272D01*
X172909842Y-105204283D01*
X172786198Y-105393533D01*
X172695388Y-105600560D01*
X172639892Y-105819710D01*
X172621225Y-106044993D01*
X172621225Y-106045006D01*
X172639892Y-106270289D01*
X172695388Y-106489439D01*
X172786198Y-106696466D01*
X172909842Y-106885716D01*
X172909850Y-106885727D01*
X173062950Y-107052036D01*
X173062954Y-107052040D01*
X173241351Y-107190893D01*
X173269165Y-107205945D01*
X173318755Y-107255165D01*
X173333863Y-107323382D01*
X173309692Y-107388937D01*
X173269165Y-107424055D01*
X173241352Y-107439106D01*
X173062955Y-107577959D01*
X173062950Y-107577963D01*
X172909850Y-107744272D01*
X172909842Y-107744283D01*
X172786198Y-107933533D01*
X172695388Y-108140560D01*
X172639892Y-108359710D01*
X172621225Y-108584993D01*
X172621225Y-108585006D01*
X172639892Y-108810289D01*
X172695388Y-109029439D01*
X172786198Y-109236466D01*
X172909842Y-109425716D01*
X172909850Y-109425727D01*
X173062950Y-109592036D01*
X173062954Y-109592040D01*
X173241351Y-109730893D01*
X173269165Y-109745945D01*
X173318755Y-109795165D01*
X173333863Y-109863382D01*
X173309692Y-109928937D01*
X173269165Y-109964055D01*
X173241352Y-109979106D01*
X173062955Y-110117959D01*
X173062950Y-110117963D01*
X172909850Y-110284272D01*
X172909842Y-110284283D01*
X172786198Y-110473533D01*
X172695388Y-110680560D01*
X172639892Y-110899710D01*
X172621225Y-111124993D01*
X172621225Y-111125006D01*
X172639892Y-111350289D01*
X172695388Y-111569439D01*
X172786198Y-111776466D01*
X172909842Y-111965716D01*
X172909850Y-111965727D01*
X173050955Y-112119006D01*
X173062954Y-112132040D01*
X173241351Y-112270893D01*
X173269165Y-112285945D01*
X173318755Y-112335165D01*
X173333863Y-112403382D01*
X173309692Y-112468937D01*
X173269165Y-112504055D01*
X173241352Y-112519106D01*
X173062955Y-112657959D01*
X173062950Y-112657963D01*
X172909850Y-112824272D01*
X172909842Y-112824283D01*
X172786198Y-113013533D01*
X172695388Y-113220560D01*
X172639892Y-113439710D01*
X172621225Y-113664993D01*
X172621225Y-113665006D01*
X172639892Y-113890289D01*
X172695388Y-114109439D01*
X172786198Y-114316466D01*
X172909842Y-114505716D01*
X172909850Y-114505727D01*
X173053085Y-114661320D01*
X173062954Y-114672040D01*
X173241351Y-114810893D01*
X173269165Y-114825945D01*
X173318755Y-114875165D01*
X173333863Y-114943382D01*
X173309692Y-115008937D01*
X173269165Y-115044055D01*
X173241352Y-115059106D01*
X173062955Y-115197959D01*
X173062950Y-115197963D01*
X172909850Y-115364272D01*
X172909842Y-115364283D01*
X172786198Y-115553533D01*
X172695388Y-115760560D01*
X172639892Y-115979710D01*
X172621225Y-116204993D01*
X172621225Y-116205006D01*
X172639892Y-116430289D01*
X172695388Y-116649439D01*
X172786198Y-116856466D01*
X172909842Y-117045716D01*
X172909850Y-117045727D01*
X173062950Y-117212036D01*
X173062954Y-117212040D01*
X173241351Y-117350893D01*
X173440169Y-117458488D01*
X173486479Y-117474386D01*
X173543491Y-117514769D01*
X173569622Y-117579569D01*
X173556572Y-117648209D01*
X173508484Y-117698897D01*
X173502510Y-117702150D01*
X173387004Y-117761004D01*
X173240505Y-117867441D01*
X173240500Y-117867445D01*
X173112445Y-117995500D01*
X173112441Y-117995505D01*
X173006006Y-118142002D01*
X172923788Y-118303360D01*
X172923787Y-118303363D01*
X172867829Y-118475589D01*
X172839500Y-118654448D01*
X172839500Y-118835551D01*
X172867829Y-119014410D01*
X172923787Y-119186636D01*
X172923789Y-119186640D01*
X172930447Y-119199707D01*
X172943342Y-119268376D01*
X172917065Y-119333116D01*
X172859958Y-119373372D01*
X172819961Y-119380000D01*
X159920039Y-119380000D01*
X159853000Y-119360315D01*
X159807245Y-119307511D01*
X159797301Y-119238353D01*
X159809553Y-119199707D01*
X159816210Y-119186640D01*
X159816211Y-119186639D01*
X159872171Y-119014409D01*
X159890476Y-118898837D01*
X159900500Y-118835551D01*
X159900500Y-118654448D01*
X159884019Y-118550397D01*
X159872171Y-118475591D01*
X159816211Y-118303361D01*
X159816211Y-118303360D01*
X159787740Y-118247484D01*
X159733996Y-118142006D01*
X159720396Y-118123287D01*
X159627558Y-117995505D01*
X159627554Y-117995500D01*
X159499499Y-117867445D01*
X159499494Y-117867441D01*
X159352993Y-117761003D01*
X159352992Y-117761002D01*
X159237490Y-117702150D01*
X159186694Y-117654176D01*
X159169899Y-117586355D01*
X159192437Y-117520220D01*
X159247152Y-117476769D01*
X159253488Y-117474397D01*
X159299831Y-117458488D01*
X159498649Y-117350893D01*
X159677046Y-117212040D01*
X159776832Y-117103643D01*
X159830149Y-117045727D01*
X159830150Y-117045725D01*
X159830156Y-117045719D01*
X159953802Y-116856465D01*
X160044611Y-116649441D01*
X160100107Y-116430293D01*
X160116266Y-116235281D01*
X160118775Y-116205006D01*
X160118775Y-116204993D01*
X160103867Y-116025080D01*
X160100107Y-115979707D01*
X160044611Y-115760559D01*
X159953802Y-115553535D01*
X159830156Y-115364281D01*
X159830153Y-115364278D01*
X159830149Y-115364272D01*
X159677049Y-115197963D01*
X159677048Y-115197962D01*
X159677046Y-115197960D01*
X159498649Y-115059107D01*
X159498647Y-115059106D01*
X159498646Y-115059105D01*
X159498639Y-115059100D01*
X159470836Y-115044055D01*
X159421244Y-114994837D01*
X159406135Y-114926620D01*
X159430306Y-114861064D01*
X159470836Y-114825945D01*
X159498639Y-114810899D01*
X159498642Y-114810896D01*
X159498649Y-114810893D01*
X159677046Y-114672040D01*
X159794272Y-114544699D01*
X159830149Y-114505727D01*
X159830150Y-114505725D01*
X159830156Y-114505719D01*
X159953802Y-114316465D01*
X160044611Y-114109441D01*
X160100107Y-113890293D01*
X160113757Y-113725563D01*
X160118775Y-113665006D01*
X160118775Y-113664993D01*
X160105707Y-113507294D01*
X160100107Y-113439707D01*
X160044611Y-113220559D01*
X159953802Y-113013535D01*
X159950512Y-113008500D01*
X159847011Y-112850080D01*
X159830156Y-112824281D01*
X159830153Y-112824278D01*
X159830149Y-112824272D01*
X159677049Y-112657963D01*
X159677048Y-112657962D01*
X159677046Y-112657960D01*
X159498649Y-112519107D01*
X159498647Y-112519106D01*
X159498646Y-112519105D01*
X159498639Y-112519100D01*
X159470836Y-112504055D01*
X159421244Y-112454837D01*
X159406135Y-112386620D01*
X159430306Y-112321064D01*
X159470836Y-112285945D01*
X159498639Y-112270899D01*
X159498642Y-112270896D01*
X159498649Y-112270893D01*
X159677046Y-112132040D01*
X159791317Y-112007909D01*
X159830149Y-111965727D01*
X159830150Y-111965725D01*
X159830156Y-111965719D01*
X159953802Y-111776465D01*
X160044611Y-111569441D01*
X160100107Y-111350293D01*
X160111490Y-111212916D01*
X160118775Y-111125006D01*
X160118775Y-111124993D01*
X160100107Y-110899710D01*
X160100107Y-110899707D01*
X160044611Y-110680559D01*
X159953802Y-110473535D01*
X159951860Y-110470563D01*
X159875520Y-110353716D01*
X159830156Y-110284281D01*
X159830153Y-110284278D01*
X159830149Y-110284272D01*
X159677049Y-110117963D01*
X159677048Y-110117962D01*
X159677046Y-110117960D01*
X159498649Y-109979107D01*
X159498647Y-109979106D01*
X159498646Y-109979105D01*
X159498639Y-109979100D01*
X159470836Y-109964055D01*
X159421244Y-109914837D01*
X159406135Y-109846620D01*
X159430306Y-109781064D01*
X159470836Y-109745945D01*
X159498639Y-109730899D01*
X159498642Y-109730896D01*
X159498649Y-109730893D01*
X159677046Y-109592040D01*
X159830156Y-109425719D01*
X159953802Y-109236465D01*
X160044611Y-109029441D01*
X160100107Y-108810293D01*
X160108477Y-108709277D01*
X160118775Y-108585006D01*
X160118775Y-108584993D01*
X160100107Y-108359710D01*
X160100107Y-108359707D01*
X160044611Y-108140559D01*
X159953802Y-107933535D01*
X159950245Y-107928091D01*
X159830157Y-107744283D01*
X159830149Y-107744272D01*
X159677049Y-107577963D01*
X159677048Y-107577962D01*
X159677046Y-107577960D01*
X159498649Y-107439107D01*
X159498647Y-107439106D01*
X159498646Y-107439105D01*
X159498639Y-107439100D01*
X159470836Y-107424055D01*
X159421244Y-107374837D01*
X159406135Y-107306620D01*
X159430306Y-107241064D01*
X159470836Y-107205945D01*
X159498639Y-107190899D01*
X159498642Y-107190896D01*
X159498649Y-107190893D01*
X159677046Y-107052040D01*
X159830156Y-106885719D01*
X159953802Y-106696465D01*
X160044611Y-106489441D01*
X160100107Y-106270293D01*
X160118775Y-106045000D01*
X160118775Y-106044993D01*
X160100107Y-105819710D01*
X160100107Y-105819707D01*
X160044611Y-105600559D01*
X159953802Y-105393535D01*
X159938722Y-105370454D01*
X159882372Y-105284204D01*
X159830156Y-105204281D01*
X159830153Y-105204278D01*
X159830149Y-105204272D01*
X159677049Y-105037963D01*
X159677048Y-105037962D01*
X159677046Y-105037960D01*
X159498649Y-104899107D01*
X159498647Y-104899106D01*
X159498646Y-104899105D01*
X159498639Y-104899100D01*
X159470836Y-104884055D01*
X159421244Y-104834837D01*
X159406135Y-104766620D01*
X159430306Y-104701064D01*
X159470836Y-104665945D01*
X159498639Y-104650899D01*
X159498642Y-104650896D01*
X159498649Y-104650893D01*
X159677046Y-104512040D01*
X159830156Y-104345719D01*
X159953802Y-104156465D01*
X160044611Y-103949441D01*
X160100107Y-103730293D01*
X160115651Y-103542701D01*
X160118775Y-103505006D01*
X160118775Y-103504993D01*
X160103446Y-103320000D01*
X160100107Y-103279707D01*
X160044611Y-103060559D01*
X159953802Y-102853535D01*
X159935592Y-102825663D01*
X159830157Y-102664283D01*
X159830149Y-102664272D01*
X159677049Y-102497963D01*
X159677048Y-102497962D01*
X159677046Y-102497960D01*
X159498649Y-102359107D01*
X159498647Y-102359106D01*
X159498646Y-102359105D01*
X159498639Y-102359100D01*
X159470836Y-102344055D01*
X159421244Y-102294837D01*
X159406135Y-102226620D01*
X159430306Y-102161064D01*
X159470836Y-102125945D01*
X159498639Y-102110899D01*
X159498642Y-102110896D01*
X159498649Y-102110893D01*
X159677046Y-101972040D01*
X159830156Y-101805719D01*
X159953802Y-101616465D01*
X160044611Y-101409441D01*
X160100107Y-101190293D01*
X160113643Y-101026936D01*
X160118775Y-100965006D01*
X160118775Y-100964993D01*
X160101982Y-100762335D01*
X160100107Y-100739707D01*
X160044611Y-100520559D01*
X159953802Y-100313535D01*
X159950245Y-100308091D01*
X159830157Y-100124283D01*
X159830149Y-100124272D01*
X159677049Y-99957963D01*
X159677048Y-99957962D01*
X159677046Y-99957960D01*
X159498649Y-99819107D01*
X159498647Y-99819106D01*
X159498646Y-99819105D01*
X159498639Y-99819100D01*
X159470836Y-99804055D01*
X159421244Y-99754837D01*
X159406135Y-99686620D01*
X159430306Y-99621064D01*
X159470836Y-99585945D01*
X159498639Y-99570899D01*
X159498642Y-99570896D01*
X159498649Y-99570893D01*
X159677046Y-99432040D01*
X159776832Y-99323643D01*
X159830149Y-99265727D01*
X159830150Y-99265725D01*
X159830156Y-99265719D01*
X159953802Y-99076465D01*
X160044611Y-98869441D01*
X160100107Y-98650293D01*
X160107574Y-98560175D01*
X160118775Y-98425006D01*
X160118775Y-98424993D01*
X160100107Y-98199710D01*
X160100107Y-98199707D01*
X160044611Y-97980559D01*
X159953802Y-97773535D01*
X159951986Y-97770756D01*
X159877212Y-97656306D01*
X159830156Y-97584281D01*
X159830153Y-97584278D01*
X159830149Y-97584272D01*
X159677049Y-97417963D01*
X159677048Y-97417962D01*
X159677046Y-97417960D01*
X159498649Y-97279107D01*
X159498647Y-97279106D01*
X159498646Y-97279105D01*
X159498639Y-97279100D01*
X159470836Y-97264055D01*
X159421244Y-97214837D01*
X159406135Y-97146620D01*
X159430306Y-97081064D01*
X159470836Y-97045945D01*
X159498639Y-97030899D01*
X159498642Y-97030896D01*
X159498649Y-97030893D01*
X159677046Y-96892040D01*
X159818653Y-96738215D01*
X159830149Y-96725727D01*
X159830150Y-96725725D01*
X159830156Y-96725719D01*
X159953802Y-96536465D01*
X160044611Y-96329441D01*
X160100107Y-96110293D01*
X160107574Y-96020175D01*
X160118775Y-95885006D01*
X160118775Y-95884993D01*
X160100107Y-95659710D01*
X160100107Y-95659707D01*
X160044611Y-95440559D01*
X159953802Y-95233535D01*
X159830156Y-95044281D01*
X159830153Y-95044278D01*
X159830149Y-95044272D01*
X159677049Y-94877963D01*
X159677048Y-94877962D01*
X159677046Y-94877960D01*
X159498649Y-94739107D01*
X159498647Y-94739106D01*
X159498646Y-94739105D01*
X159498639Y-94739100D01*
X159470836Y-94724055D01*
X159421244Y-94674837D01*
X159406135Y-94606620D01*
X159430306Y-94541064D01*
X159470836Y-94505945D01*
X159498639Y-94490899D01*
X159498642Y-94490896D01*
X159498649Y-94490893D01*
X159677046Y-94352040D01*
X159776832Y-94243643D01*
X159830149Y-94185727D01*
X159830150Y-94185725D01*
X159830156Y-94185719D01*
X159953802Y-93996465D01*
X160044611Y-93789441D01*
X160100107Y-93570293D01*
X160118775Y-93345000D01*
X160118775Y-93344993D01*
X160100107Y-93119710D01*
X160100107Y-93119707D01*
X160044611Y-92900559D01*
X159953802Y-92693535D01*
X159941521Y-92674738D01*
X159891088Y-92597544D01*
X159830156Y-92504281D01*
X159830153Y-92504278D01*
X159830149Y-92504272D01*
X159677049Y-92337963D01*
X159677048Y-92337962D01*
X159677046Y-92337960D01*
X159498649Y-92199107D01*
X159498647Y-92199106D01*
X159498646Y-92199105D01*
X159498639Y-92199100D01*
X159470836Y-92184055D01*
X159421244Y-92134837D01*
X159406135Y-92066620D01*
X159430306Y-92001064D01*
X159470836Y-91965945D01*
X159498639Y-91950899D01*
X159498642Y-91950896D01*
X159498649Y-91950893D01*
X159677046Y-91812040D01*
X159803389Y-91674796D01*
X159830149Y-91645727D01*
X159830150Y-91645725D01*
X159830156Y-91645719D01*
X159953802Y-91456465D01*
X160044611Y-91249441D01*
X160100107Y-91030293D01*
X160118775Y-90805000D01*
X160118775Y-90804993D01*
X160101860Y-90600861D01*
X160100107Y-90579707D01*
X160044611Y-90360559D01*
X159953802Y-90153535D01*
X159944632Y-90139500D01*
X159830157Y-89964283D01*
X159830149Y-89964272D01*
X159692755Y-89815024D01*
X159661832Y-89752370D01*
X159669692Y-89682944D01*
X159713839Y-89628788D01*
X159740652Y-89614859D01*
X159855684Y-89571955D01*
X159855693Y-89571950D01*
X159970787Y-89485790D01*
X159970790Y-89485787D01*
X160056950Y-89370693D01*
X160056954Y-89370686D01*
X160107196Y-89235979D01*
X160107198Y-89235972D01*
X160113599Y-89176444D01*
X160113600Y-89176427D01*
X160113600Y-88615000D01*
X159118422Y-88615000D01*
X159156502Y-88576920D01*
X159223381Y-88461081D01*
X159258000Y-88331880D01*
X159258000Y-88198120D01*
X159223381Y-88068919D01*
X159156502Y-87953080D01*
X159118422Y-87915000D01*
X160113600Y-87915000D01*
X160113600Y-87353572D01*
X160113599Y-87353555D01*
X160107198Y-87294027D01*
X160107196Y-87294020D01*
X160056954Y-87159313D01*
X160056950Y-87159306D01*
X159970790Y-87044212D01*
X159970787Y-87044209D01*
X159855693Y-86958049D01*
X159855686Y-86958045D01*
X159740651Y-86915140D01*
X159684717Y-86873269D01*
X159660300Y-86807804D01*
X159675152Y-86739531D01*
X159692749Y-86714981D01*
X159830156Y-86565719D01*
X159953802Y-86376465D01*
X160044611Y-86169441D01*
X160100107Y-85950293D01*
X160109004Y-85842918D01*
X160118775Y-85725006D01*
X160118775Y-85724993D01*
X160100107Y-85499710D01*
X160100107Y-85499707D01*
X160044611Y-85280559D01*
X159953802Y-85073535D01*
X159830156Y-84884281D01*
X159830153Y-84884278D01*
X159830149Y-84884272D01*
X159677049Y-84717963D01*
X159677048Y-84717962D01*
X159677046Y-84717960D01*
X159498649Y-84579107D01*
X159498647Y-84579106D01*
X159498646Y-84579105D01*
X159498639Y-84579100D01*
X159470836Y-84564055D01*
X159421244Y-84514837D01*
X159406135Y-84446620D01*
X159430306Y-84381064D01*
X159470836Y-84345945D01*
X159498639Y-84330899D01*
X159498642Y-84330896D01*
X159498649Y-84330893D01*
X159677046Y-84192040D01*
X159830156Y-84025719D01*
X159953802Y-83836465D01*
X160044611Y-83629441D01*
X160100107Y-83410293D01*
X160109111Y-83301628D01*
X160118775Y-83185006D01*
X160118775Y-83184993D01*
X160105707Y-83027294D01*
X160100107Y-82959707D01*
X160044611Y-82740559D01*
X159953802Y-82533535D01*
X159830156Y-82344281D01*
X159830153Y-82344278D01*
X159830149Y-82344272D01*
X159677045Y-82177959D01*
X159498646Y-82039105D01*
X159498639Y-82039100D01*
X159470836Y-82024055D01*
X159421244Y-81974837D01*
X159406135Y-81906620D01*
X159430306Y-81841064D01*
X159470836Y-81805945D01*
X159498639Y-81790899D01*
X159498642Y-81790896D01*
X159498649Y-81790893D01*
X159677046Y-81652040D01*
X159830156Y-81485719D01*
X159953802Y-81296465D01*
X160044611Y-81089441D01*
X160100107Y-80870293D01*
X160111167Y-80736817D01*
X160118775Y-80645006D01*
X160118775Y-80644993D01*
X160100107Y-80419710D01*
X160100107Y-80419707D01*
X160044611Y-80200559D01*
X159953802Y-79993535D01*
X159943867Y-79978329D01*
X159830157Y-79804283D01*
X159830149Y-79804272D01*
X159677049Y-79637963D01*
X159677048Y-79637962D01*
X159677046Y-79637960D01*
X159498649Y-79499107D01*
X159472390Y-79484896D01*
X159299832Y-79391512D01*
X159299826Y-79391510D01*
X159253522Y-79375614D01*
X159196507Y-79335229D01*
X159170376Y-79270429D01*
X159183427Y-79201789D01*
X159231516Y-79151101D01*
X159237472Y-79147857D01*
X159352994Y-79088996D01*
X159499501Y-78982553D01*
X159627553Y-78854501D01*
X159733996Y-78707994D01*
X159816211Y-78546639D01*
X159872171Y-78374409D01*
X159886765Y-78282259D01*
X159900500Y-78195551D01*
X159900500Y-78014448D01*
X159884019Y-77910397D01*
X159872171Y-77835591D01*
X159816211Y-77663361D01*
X159816211Y-77663360D01*
X159787740Y-77607484D01*
X159733996Y-77502006D01*
X159720396Y-77483287D01*
X159627558Y-77355505D01*
X159627554Y-77355500D01*
X159499499Y-77227445D01*
X159499494Y-77227441D01*
X159352997Y-77121006D01*
X159352996Y-77121005D01*
X159352994Y-77121004D01*
X159301300Y-77094664D01*
X159191639Y-77038788D01*
X159191636Y-77038787D01*
X159019410Y-76982829D01*
X158840551Y-76954500D01*
X158840546Y-76954500D01*
X158659454Y-76954500D01*
X158659449Y-76954500D01*
X158480589Y-76982829D01*
X158308363Y-77038787D01*
X158308360Y-77038788D01*
X158147002Y-77121006D01*
X158000505Y-77227441D01*
X158000500Y-77227445D01*
X157872445Y-77355500D01*
X157872441Y-77355505D01*
X157766006Y-77502002D01*
X157683788Y-77663360D01*
X157683787Y-77663363D01*
X157627829Y-77835589D01*
X157599500Y-78014448D01*
X157599500Y-78195551D01*
X157627829Y-78374410D01*
X157683787Y-78546636D01*
X157683788Y-78546639D01*
X157766006Y-78707997D01*
X157872441Y-78854494D01*
X157872445Y-78854499D01*
X158000500Y-78982554D01*
X158000505Y-78982558D01*
X158128287Y-79075396D01*
X158147006Y-79088996D01*
X158262509Y-79147848D01*
X158313305Y-79195823D01*
X158330100Y-79263644D01*
X158307562Y-79329779D01*
X158252847Y-79373230D01*
X158246478Y-79375614D01*
X158200169Y-79391512D01*
X158200167Y-79391512D01*
X158001352Y-79499106D01*
X157822955Y-79637959D01*
X157822950Y-79637963D01*
X157669850Y-79804272D01*
X157669842Y-79804283D01*
X157546198Y-79993533D01*
X157455388Y-80200560D01*
X157399892Y-80419710D01*
X157381225Y-80644993D01*
X157381225Y-80645006D01*
X157399892Y-80870289D01*
X157455388Y-81089439D01*
X157546198Y-81296466D01*
X157669842Y-81485716D01*
X157669850Y-81485727D01*
X157807244Y-81634975D01*
X157822954Y-81652040D01*
X158001351Y-81790893D01*
X158029165Y-81805945D01*
X158078755Y-81855165D01*
X158093863Y-81923382D01*
X158069692Y-81988937D01*
X158029165Y-82024055D01*
X158001352Y-82039106D01*
X157822955Y-82177959D01*
X157669850Y-82344272D01*
X157669842Y-82344283D01*
X157546198Y-82533533D01*
X157455388Y-82740560D01*
X157399892Y-82959710D01*
X157381225Y-83184993D01*
X157381225Y-83185006D01*
X157399892Y-83410289D01*
X157455388Y-83629439D01*
X157546198Y-83836466D01*
X157669842Y-84025716D01*
X157669850Y-84025727D01*
X157789757Y-84155979D01*
X157822954Y-84192040D01*
X158001351Y-84330893D01*
X158029165Y-84345945D01*
X158078755Y-84395165D01*
X158093863Y-84463382D01*
X158069692Y-84528937D01*
X158029165Y-84564055D01*
X158001352Y-84579106D01*
X157822955Y-84717959D01*
X157822950Y-84717963D01*
X157669850Y-84884272D01*
X157669842Y-84884283D01*
X157546198Y-85073533D01*
X157455388Y-85280560D01*
X157399892Y-85499710D01*
X157381225Y-85724993D01*
X157381225Y-85725006D01*
X157399892Y-85950289D01*
X157455388Y-86169439D01*
X157546198Y-86376466D01*
X157608911Y-86472455D01*
X157669844Y-86565719D01*
X157807245Y-86714976D01*
X157838167Y-86777629D01*
X157830307Y-86847055D01*
X157786160Y-86901211D01*
X157759349Y-86915140D01*
X157644311Y-86958046D01*
X157644306Y-86958049D01*
X157529212Y-87044209D01*
X157529209Y-87044212D01*
X157443049Y-87159306D01*
X157443045Y-87159313D01*
X157392803Y-87294020D01*
X157392801Y-87294027D01*
X157386400Y-87353555D01*
X157386400Y-87915000D01*
X158381578Y-87915000D01*
X158343498Y-87953080D01*
X158276619Y-88068919D01*
X158242000Y-88198120D01*
X158242000Y-88331880D01*
X158276619Y-88461081D01*
X158343498Y-88576920D01*
X158381578Y-88615000D01*
X157386400Y-88615000D01*
X157386400Y-89176444D01*
X157392801Y-89235972D01*
X157392803Y-89235979D01*
X157443045Y-89370686D01*
X157443049Y-89370693D01*
X157529209Y-89485787D01*
X157529212Y-89485790D01*
X157644306Y-89571950D01*
X157644313Y-89571954D01*
X157759348Y-89614859D01*
X157815282Y-89656730D01*
X157839699Y-89722194D01*
X157824848Y-89790467D01*
X157807245Y-89815024D01*
X157669845Y-89964279D01*
X157669842Y-89964283D01*
X157546198Y-90153533D01*
X157455388Y-90360560D01*
X157399892Y-90579710D01*
X157381225Y-90804993D01*
X157381225Y-90805006D01*
X157399892Y-91030289D01*
X157455388Y-91249439D01*
X157546198Y-91456466D01*
X157669842Y-91645716D01*
X157669850Y-91645727D01*
X157748810Y-91731499D01*
X157822954Y-91812040D01*
X158001351Y-91950893D01*
X158029165Y-91965945D01*
X158078755Y-92015165D01*
X158093863Y-92083382D01*
X158069692Y-92148937D01*
X158029165Y-92184055D01*
X158001352Y-92199106D01*
X157822955Y-92337959D01*
X157822950Y-92337963D01*
X157669850Y-92504272D01*
X157669842Y-92504283D01*
X157546198Y-92693533D01*
X157455388Y-92900560D01*
X157399892Y-93119710D01*
X157381225Y-93344993D01*
X157381225Y-93345006D01*
X157399892Y-93570289D01*
X157455388Y-93789439D01*
X157546198Y-93996466D01*
X157669842Y-94185716D01*
X157669850Y-94185727D01*
X157822950Y-94352036D01*
X157822954Y-94352040D01*
X158001351Y-94490893D01*
X158029165Y-94505945D01*
X158078755Y-94555165D01*
X158093863Y-94623382D01*
X158069692Y-94688937D01*
X158029165Y-94724054D01*
X158020866Y-94728545D01*
X158001352Y-94739106D01*
X157822955Y-94877959D01*
X157822950Y-94877963D01*
X157669850Y-95044272D01*
X157669842Y-95044283D01*
X157546198Y-95233533D01*
X157455388Y-95440560D01*
X157399892Y-95659710D01*
X157381225Y-95884993D01*
X157381225Y-95885006D01*
X157399892Y-96110289D01*
X157455388Y-96329439D01*
X157546198Y-96536466D01*
X157669842Y-96725716D01*
X157669850Y-96725727D01*
X157809569Y-96877500D01*
X157822954Y-96892040D01*
X158001351Y-97030893D01*
X158029165Y-97045945D01*
X158078755Y-97095165D01*
X158093863Y-97163382D01*
X158069692Y-97228937D01*
X158029165Y-97264055D01*
X158001352Y-97279106D01*
X157822955Y-97417959D01*
X157822950Y-97417963D01*
X157669850Y-97584272D01*
X157669842Y-97584283D01*
X157546198Y-97773533D01*
X157455388Y-97980560D01*
X157399892Y-98199710D01*
X157381225Y-98424993D01*
X157381225Y-98425006D01*
X157399892Y-98650289D01*
X157455388Y-98869439D01*
X157546198Y-99076466D01*
X157669842Y-99265716D01*
X157669850Y-99265727D01*
X157822950Y-99432036D01*
X157822954Y-99432040D01*
X158001351Y-99570893D01*
X158029165Y-99585945D01*
X158078755Y-99635165D01*
X158093863Y-99703382D01*
X158069692Y-99768937D01*
X158029165Y-99804055D01*
X158001352Y-99819106D01*
X157822955Y-99957959D01*
X157822950Y-99957963D01*
X157669850Y-100124272D01*
X157669842Y-100124283D01*
X157546198Y-100313533D01*
X157455388Y-100520560D01*
X157399892Y-100739710D01*
X157381225Y-100964993D01*
X157381225Y-100965006D01*
X157399892Y-101190289D01*
X157455388Y-101409439D01*
X157546198Y-101616466D01*
X157669842Y-101805716D01*
X157669850Y-101805727D01*
X157805008Y-101952546D01*
X157822954Y-101972040D01*
X158001351Y-102110893D01*
X158029165Y-102125945D01*
X158078755Y-102175165D01*
X158093863Y-102243382D01*
X158069692Y-102308937D01*
X158029165Y-102344055D01*
X158001352Y-102359106D01*
X157822955Y-102497959D01*
X157822950Y-102497963D01*
X157669850Y-102664272D01*
X157669842Y-102664283D01*
X157546198Y-102853533D01*
X157455388Y-103060560D01*
X157399892Y-103279710D01*
X157381225Y-103504993D01*
X157381225Y-103505006D01*
X157399892Y-103730289D01*
X157455388Y-103949439D01*
X157546198Y-104156466D01*
X157669842Y-104345716D01*
X157669850Y-104345727D01*
X157778688Y-104463955D01*
X157822954Y-104512040D01*
X158001351Y-104650893D01*
X158029165Y-104665945D01*
X158078755Y-104715165D01*
X158093863Y-104783382D01*
X158069692Y-104848937D01*
X158029165Y-104884055D01*
X158001352Y-104899106D01*
X157822955Y-105037959D01*
X157822950Y-105037963D01*
X157669850Y-105204272D01*
X157669842Y-105204283D01*
X157546198Y-105393533D01*
X157455388Y-105600560D01*
X157399892Y-105819710D01*
X157381225Y-106044993D01*
X157381225Y-106045006D01*
X157399892Y-106270289D01*
X157455388Y-106489439D01*
X157546198Y-106696466D01*
X157669842Y-106885716D01*
X157669850Y-106885727D01*
X157822950Y-107052036D01*
X157822954Y-107052040D01*
X158001351Y-107190893D01*
X158029165Y-107205945D01*
X158078755Y-107255165D01*
X158093863Y-107323382D01*
X158069692Y-107388937D01*
X158029165Y-107424055D01*
X158001352Y-107439106D01*
X157822955Y-107577959D01*
X157822950Y-107577963D01*
X157669850Y-107744272D01*
X157669842Y-107744283D01*
X157546198Y-107933533D01*
X157455388Y-108140560D01*
X157399892Y-108359710D01*
X157381225Y-108584993D01*
X157381225Y-108585006D01*
X157399892Y-108810289D01*
X157455388Y-109029439D01*
X157546198Y-109236466D01*
X157669842Y-109425716D01*
X157669850Y-109425727D01*
X157822950Y-109592036D01*
X157822954Y-109592040D01*
X158001351Y-109730893D01*
X158029165Y-109745945D01*
X158078755Y-109795165D01*
X158093863Y-109863382D01*
X158069692Y-109928937D01*
X158029165Y-109964055D01*
X158001352Y-109979106D01*
X157822955Y-110117959D01*
X157822950Y-110117963D01*
X157669850Y-110284272D01*
X157669842Y-110284283D01*
X157546198Y-110473533D01*
X157455388Y-110680560D01*
X157399892Y-110899710D01*
X157381225Y-111124993D01*
X157381225Y-111125006D01*
X157399892Y-111350289D01*
X157455388Y-111569439D01*
X157546198Y-111776466D01*
X157669842Y-111965716D01*
X157669850Y-111965727D01*
X157810955Y-112119006D01*
X157822954Y-112132040D01*
X158001351Y-112270893D01*
X158029165Y-112285945D01*
X158078755Y-112335165D01*
X158093863Y-112403382D01*
X158069692Y-112468937D01*
X158029165Y-112504055D01*
X158001352Y-112519106D01*
X157822955Y-112657959D01*
X157822950Y-112657963D01*
X157669850Y-112824272D01*
X157669842Y-112824283D01*
X157546198Y-113013533D01*
X157455388Y-113220560D01*
X157399892Y-113439710D01*
X157381225Y-113664993D01*
X157381225Y-113665006D01*
X157399892Y-113890289D01*
X157455388Y-114109439D01*
X157546198Y-114316466D01*
X157669842Y-114505716D01*
X157669850Y-114505727D01*
X157813085Y-114661320D01*
X157822954Y-114672040D01*
X158001351Y-114810893D01*
X158029165Y-114825945D01*
X158078755Y-114875165D01*
X158093863Y-114943382D01*
X158069692Y-115008937D01*
X158029165Y-115044055D01*
X158001352Y-115059106D01*
X157822955Y-115197959D01*
X157822950Y-115197963D01*
X157669850Y-115364272D01*
X157669842Y-115364283D01*
X157546198Y-115553533D01*
X157455388Y-115760560D01*
X157399892Y-115979710D01*
X157381225Y-116204993D01*
X157381225Y-116205006D01*
X157399892Y-116430289D01*
X157455388Y-116649439D01*
X157546198Y-116856466D01*
X157669842Y-117045716D01*
X157669850Y-117045727D01*
X157822950Y-117212036D01*
X157822954Y-117212040D01*
X158001351Y-117350893D01*
X158200169Y-117458488D01*
X158246479Y-117474386D01*
X158303491Y-117514769D01*
X158329622Y-117579569D01*
X158316572Y-117648209D01*
X158268484Y-117698897D01*
X158262510Y-117702150D01*
X158147004Y-117761004D01*
X158000505Y-117867441D01*
X158000500Y-117867445D01*
X157872445Y-117995500D01*
X157872441Y-117995505D01*
X157766006Y-118142002D01*
X157683788Y-118303360D01*
X157683787Y-118303363D01*
X157627829Y-118475589D01*
X157599500Y-118654448D01*
X157599500Y-118835551D01*
X157627829Y-119014410D01*
X157683787Y-119186636D01*
X157683789Y-119186640D01*
X157690447Y-119199707D01*
X157703342Y-119268376D01*
X157677065Y-119333116D01*
X157619958Y-119373372D01*
X157579961Y-119380000D01*
X98425000Y-119380000D01*
X98425000Y-118803444D01*
X137897519Y-118803444D01*
X138102090Y-118898837D01*
X138102099Y-118898841D01*
X138326031Y-118958842D01*
X138326041Y-118958844D01*
X138556999Y-118979051D01*
X138557001Y-118979051D01*
X138787958Y-118958844D01*
X138787968Y-118958842D01*
X139011900Y-118898841D01*
X139011909Y-118898837D01*
X139216480Y-118803444D01*
X138557001Y-118143964D01*
X138557000Y-118143964D01*
X137897519Y-118803444D01*
X98425000Y-118803444D01*
X98425000Y-118745000D01*
X95885000Y-118745000D01*
X95885000Y-119380000D01*
X94739000Y-119380000D01*
X94671961Y-119360315D01*
X94626206Y-119307511D01*
X94615000Y-119256000D01*
X94615000Y-117648990D01*
X137226939Y-117648990D01*
X137247145Y-117879948D01*
X137247147Y-117879958D01*
X137307148Y-118103890D01*
X137307153Y-118103904D01*
X137402543Y-118308470D01*
X137402544Y-118308470D01*
X138006073Y-117704942D01*
X138132000Y-117704942D01*
X138160963Y-117813034D01*
X138216916Y-117909946D01*
X138296044Y-117989074D01*
X138392956Y-118045027D01*
X138501048Y-118073990D01*
X138612952Y-118073990D01*
X138721044Y-118045027D01*
X138817956Y-117989074D01*
X138897084Y-117909946D01*
X138953037Y-117813034D01*
X138982000Y-117704942D01*
X138982000Y-117648990D01*
X139051974Y-117648990D01*
X139711454Y-118308470D01*
X139806847Y-118103899D01*
X139806851Y-118103890D01*
X139863714Y-117891671D01*
X139900079Y-117832011D01*
X139962925Y-117801481D01*
X140032301Y-117809775D01*
X140057798Y-117824496D01*
X140115173Y-117867447D01*
X140131668Y-117879795D01*
X140131671Y-117879797D01*
X140266517Y-117930091D01*
X140266516Y-117930091D01*
X140273444Y-117930835D01*
X140326127Y-117936500D01*
X142121872Y-117936499D01*
X142181483Y-117930091D01*
X142316331Y-117879796D01*
X142431546Y-117793546D01*
X142457281Y-117759168D01*
X152229805Y-117759168D01*
X152230421Y-117759600D01*
X152444507Y-117859429D01*
X152444516Y-117859433D01*
X152672673Y-117920567D01*
X152672684Y-117920569D01*
X152907998Y-117941157D01*
X152908002Y-117941157D01*
X153143315Y-117920569D01*
X153143326Y-117920567D01*
X153371483Y-117859433D01*
X153371492Y-117859429D01*
X153585578Y-117759600D01*
X153585579Y-117759599D01*
X153586194Y-117759168D01*
X152908001Y-117080975D01*
X152908000Y-117080975D01*
X152229805Y-117759168D01*
X142457281Y-117759168D01*
X142517796Y-117678331D01*
X142568091Y-117543483D01*
X142574500Y-117483873D01*
X142574500Y-116586001D01*
X151552843Y-116586001D01*
X151573430Y-116821315D01*
X151573432Y-116821326D01*
X151634566Y-117049483D01*
X151634570Y-117049492D01*
X151734399Y-117263577D01*
X151734830Y-117264193D01*
X152353781Y-116645244D01*
X152458000Y-116645244D01*
X152488667Y-116759694D01*
X152547910Y-116862306D01*
X152631694Y-116946090D01*
X152734306Y-117005333D01*
X152848756Y-117036000D01*
X152967244Y-117036000D01*
X153081694Y-117005333D01*
X153184306Y-116946090D01*
X153268090Y-116862306D01*
X153327333Y-116759694D01*
X153358000Y-116645244D01*
X153358000Y-116586001D01*
X153402975Y-116586001D01*
X154081168Y-117264194D01*
X154081599Y-117263579D01*
X154081600Y-117263578D01*
X154181429Y-117049492D01*
X154181433Y-117049483D01*
X154242567Y-116821326D01*
X154242569Y-116821315D01*
X154263157Y-116586001D01*
X154263157Y-116585998D01*
X154242569Y-116350684D01*
X154242567Y-116350673D01*
X154181433Y-116122516D01*
X154181430Y-116122507D01*
X154081598Y-115908418D01*
X154081168Y-115907805D01*
X153402975Y-116585999D01*
X153402975Y-116586001D01*
X153358000Y-116586001D01*
X153358000Y-116526756D01*
X153327333Y-116412306D01*
X153268090Y-116309694D01*
X153184306Y-116225910D01*
X153081694Y-116166667D01*
X152967244Y-116136000D01*
X152848756Y-116136000D01*
X152734306Y-116166667D01*
X152631694Y-116225910D01*
X152547910Y-116309694D01*
X152488667Y-116412306D01*
X152458000Y-116526756D01*
X152458000Y-116645244D01*
X152353781Y-116645244D01*
X152413025Y-116586000D01*
X151734831Y-115907806D01*
X151734398Y-115908424D01*
X151634570Y-116122507D01*
X151634566Y-116122516D01*
X151573432Y-116350673D01*
X151573430Y-116350684D01*
X151552843Y-116585998D01*
X151552843Y-116586001D01*
X142574500Y-116586001D01*
X142574499Y-115688128D01*
X142568091Y-115628517D01*
X142567134Y-115625952D01*
X142517797Y-115493671D01*
X142517793Y-115493664D01*
X142457281Y-115412831D01*
X152229806Y-115412831D01*
X152908000Y-116091025D01*
X152908001Y-116091025D01*
X153586193Y-115412830D01*
X153585577Y-115412399D01*
X153371492Y-115312570D01*
X153371483Y-115312566D01*
X153143326Y-115251432D01*
X153143315Y-115251430D01*
X152908002Y-115230843D01*
X152907998Y-115230843D01*
X152672684Y-115251430D01*
X152672673Y-115251432D01*
X152444516Y-115312566D01*
X152444507Y-115312570D01*
X152230424Y-115412398D01*
X152229806Y-115412831D01*
X142457281Y-115412831D01*
X142431547Y-115378455D01*
X142431544Y-115378452D01*
X142316335Y-115292206D01*
X142316328Y-115292202D01*
X142181482Y-115241908D01*
X142181483Y-115241908D01*
X142121883Y-115235501D01*
X142121881Y-115235500D01*
X142121873Y-115235500D01*
X142121864Y-115235500D01*
X140326129Y-115235500D01*
X140326123Y-115235501D01*
X140266516Y-115241908D01*
X140131671Y-115292202D01*
X140131664Y-115292206D01*
X140016455Y-115378452D01*
X140016452Y-115378455D01*
X139930206Y-115493664D01*
X139930202Y-115493671D01*
X139879908Y-115628517D01*
X139873501Y-115688116D01*
X139873501Y-115688123D01*
X139873500Y-115688135D01*
X139873500Y-116870304D01*
X139853815Y-116937343D01*
X139801011Y-116983098D01*
X139731853Y-116993042D01*
X139727969Y-116992420D01*
X139711454Y-116989508D01*
X139051974Y-117648989D01*
X139051974Y-117648990D01*
X138982000Y-117648990D01*
X138982000Y-117593038D01*
X138953037Y-117484946D01*
X138897084Y-117388034D01*
X138817956Y-117308906D01*
X138721044Y-117252953D01*
X138612952Y-117223990D01*
X138501048Y-117223990D01*
X138392956Y-117252953D01*
X138296044Y-117308906D01*
X138216916Y-117388034D01*
X138160963Y-117484946D01*
X138132000Y-117593038D01*
X138132000Y-117704942D01*
X138006073Y-117704942D01*
X138062025Y-117648990D01*
X138062025Y-117648989D01*
X137402545Y-116989509D01*
X137307152Y-117194080D01*
X137307148Y-117194089D01*
X137247147Y-117418021D01*
X137247145Y-117418031D01*
X137226939Y-117648989D01*
X137226939Y-117648990D01*
X94615000Y-117648990D01*
X94615000Y-115920000D01*
X112848000Y-115920000D01*
X112848000Y-116442844D01*
X112854401Y-116502372D01*
X112854403Y-116502379D01*
X112904645Y-116637086D01*
X112904649Y-116637093D01*
X112990809Y-116752187D01*
X112990812Y-116752190D01*
X113105906Y-116838350D01*
X113105913Y-116838354D01*
X113240620Y-116888596D01*
X113240627Y-116888598D01*
X113300155Y-116894999D01*
X113300172Y-116895000D01*
X113823000Y-116895000D01*
X113823000Y-115920000D01*
X112848000Y-115920000D01*
X94615000Y-115920000D01*
X94615000Y-115625952D01*
X113748000Y-115625952D01*
X113776963Y-115734044D01*
X113832916Y-115830956D01*
X113912044Y-115910084D01*
X114008956Y-115966037D01*
X114117048Y-115995000D01*
X114228952Y-115995000D01*
X114337044Y-115966037D01*
X114416781Y-115920000D01*
X114523000Y-115920000D01*
X114523000Y-116895000D01*
X115045828Y-116895000D01*
X115045844Y-116894999D01*
X115105372Y-116888598D01*
X115105379Y-116888596D01*
X115240086Y-116838354D01*
X115240093Y-116838350D01*
X115355187Y-116752190D01*
X115355190Y-116752187D01*
X115441350Y-116637093D01*
X115441354Y-116637086D01*
X115491596Y-116502379D01*
X115491598Y-116502372D01*
X115497999Y-116442844D01*
X115498000Y-116442827D01*
X115498000Y-115920000D01*
X114523000Y-115920000D01*
X114416781Y-115920000D01*
X114433956Y-115910084D01*
X114513084Y-115830956D01*
X114569037Y-115734044D01*
X114598000Y-115625952D01*
X114598000Y-115570001D01*
X117842437Y-115570001D01*
X117862650Y-115801044D01*
X117862651Y-115801051D01*
X117922678Y-116025074D01*
X117922679Y-116025076D01*
X117922680Y-116025079D01*
X118020699Y-116235282D01*
X118153730Y-116425269D01*
X118317731Y-116589270D01*
X118507718Y-116722301D01*
X118717921Y-116820320D01*
X118941950Y-116880349D01*
X119106985Y-116894787D01*
X119172998Y-116900563D01*
X119173000Y-116900563D01*
X119173002Y-116900563D01*
X119236586Y-116895000D01*
X119404050Y-116880349D01*
X119628079Y-116820320D01*
X119838282Y-116722301D01*
X120028269Y-116589270D01*
X120192270Y-116425269D01*
X120325301Y-116235282D01*
X120413098Y-116047000D01*
X121327405Y-116047000D01*
X121327405Y-116569844D01*
X121333806Y-116629372D01*
X121333808Y-116629379D01*
X121384050Y-116764086D01*
X121384054Y-116764093D01*
X121470214Y-116879187D01*
X121470217Y-116879190D01*
X121585311Y-116965350D01*
X121585318Y-116965354D01*
X121720025Y-117015596D01*
X121720032Y-117015598D01*
X121779560Y-117021999D01*
X121779577Y-117022000D01*
X122302405Y-117022000D01*
X122302405Y-116047000D01*
X121327405Y-116047000D01*
X120413098Y-116047000D01*
X120423320Y-116025079D01*
X120483349Y-115801050D01*
X120487557Y-115752952D01*
X122227405Y-115752952D01*
X122256368Y-115861044D01*
X122312321Y-115957956D01*
X122391449Y-116037084D01*
X122488361Y-116093037D01*
X122596453Y-116122000D01*
X122708357Y-116122000D01*
X122816449Y-116093037D01*
X122896186Y-116047000D01*
X123002405Y-116047000D01*
X123002405Y-117022000D01*
X123525233Y-117022000D01*
X123525249Y-117021999D01*
X123584777Y-117015598D01*
X123584784Y-117015596D01*
X123719491Y-116965354D01*
X123719498Y-116965350D01*
X123834592Y-116879190D01*
X123834595Y-116879187D01*
X123920755Y-116764093D01*
X123920759Y-116764086D01*
X123971001Y-116629379D01*
X123971003Y-116629372D01*
X123977404Y-116569844D01*
X123977405Y-116569827D01*
X123977405Y-116047000D01*
X123002405Y-116047000D01*
X122896186Y-116047000D01*
X122913361Y-116037084D01*
X122992489Y-115957956D01*
X123048442Y-115861044D01*
X123077405Y-115752952D01*
X123077405Y-115697001D01*
X126321832Y-115697001D01*
X126342045Y-115928044D01*
X126342046Y-115928051D01*
X126402073Y-116152074D01*
X126402074Y-116152076D01*
X126402075Y-116152079D01*
X126500094Y-116362282D01*
X126633125Y-116552269D01*
X126797126Y-116716270D01*
X126987113Y-116849301D01*
X127197316Y-116947320D01*
X127421345Y-117007349D01*
X127586380Y-117021787D01*
X127652393Y-117027563D01*
X127652395Y-117027563D01*
X127652397Y-117027563D01*
X127715981Y-117022000D01*
X127883445Y-117007349D01*
X128107474Y-116947320D01*
X128317677Y-116849301D01*
X128507664Y-116716270D01*
X128671665Y-116552269D01*
X128712091Y-116494535D01*
X137897519Y-116494535D01*
X138557000Y-117154015D01*
X138557001Y-117154015D01*
X139216480Y-116494534D01*
X139216480Y-116494533D01*
X139011914Y-116399143D01*
X139011900Y-116399138D01*
X138787968Y-116339137D01*
X138787958Y-116339135D01*
X138557001Y-116318929D01*
X138556999Y-116318929D01*
X138326041Y-116339135D01*
X138326031Y-116339137D01*
X138102099Y-116399138D01*
X138102090Y-116399142D01*
X137897519Y-116494535D01*
X128712091Y-116494535D01*
X128804696Y-116362282D01*
X128902715Y-116152079D01*
X128962744Y-115928050D01*
X128982958Y-115697000D01*
X128982182Y-115688135D01*
X128976967Y-115628517D01*
X128962744Y-115465950D01*
X128902715Y-115241921D01*
X128804696Y-115031719D01*
X128804694Y-115031716D01*
X128804693Y-115031714D01*
X128671668Y-114841735D01*
X128671663Y-114841729D01*
X128507664Y-114677730D01*
X128439977Y-114630335D01*
X128317677Y-114544699D01*
X128107474Y-114446680D01*
X128107471Y-114446679D01*
X128107469Y-114446678D01*
X127883446Y-114386651D01*
X127883439Y-114386650D01*
X127652397Y-114366437D01*
X127652393Y-114366437D01*
X127421350Y-114386650D01*
X127421343Y-114386651D01*
X127197312Y-114446681D01*
X126987113Y-114544699D01*
X126987109Y-114544701D01*
X126797130Y-114677726D01*
X126797124Y-114677731D01*
X126633126Y-114841729D01*
X126633121Y-114841735D01*
X126500096Y-115031714D01*
X126500094Y-115031718D01*
X126402076Y-115241917D01*
X126342046Y-115465948D01*
X126342045Y-115465955D01*
X126321832Y-115696998D01*
X126321832Y-115697001D01*
X123077405Y-115697001D01*
X123077405Y-115641048D01*
X123048442Y-115532956D01*
X122992489Y-115436044D01*
X122913361Y-115356916D01*
X122816449Y-115300963D01*
X122708357Y-115272000D01*
X122596453Y-115272000D01*
X122488361Y-115300963D01*
X122391449Y-115356916D01*
X122312321Y-115436044D01*
X122256368Y-115532956D01*
X122227405Y-115641048D01*
X122227405Y-115752952D01*
X120487557Y-115752952D01*
X120503563Y-115570000D01*
X120484053Y-115347000D01*
X121327405Y-115347000D01*
X122302405Y-115347000D01*
X122302405Y-114372000D01*
X123002405Y-114372000D01*
X123002405Y-115347000D01*
X123977405Y-115347000D01*
X123977405Y-114824172D01*
X123977404Y-114824155D01*
X123971003Y-114764627D01*
X123971001Y-114764620D01*
X123920759Y-114629913D01*
X123920755Y-114629906D01*
X123834595Y-114514812D01*
X123834592Y-114514809D01*
X123719498Y-114428649D01*
X123719491Y-114428645D01*
X123584784Y-114378403D01*
X123584777Y-114378401D01*
X123525249Y-114372000D01*
X123002405Y-114372000D01*
X122302405Y-114372000D01*
X121779560Y-114372000D01*
X121720032Y-114378401D01*
X121720025Y-114378403D01*
X121585318Y-114428645D01*
X121585311Y-114428649D01*
X121470217Y-114514809D01*
X121470214Y-114514812D01*
X121384054Y-114629906D01*
X121384050Y-114629913D01*
X121333808Y-114764620D01*
X121333806Y-114764627D01*
X121327405Y-114824155D01*
X121327405Y-115347000D01*
X120484053Y-115347000D01*
X120483349Y-115338950D01*
X120423320Y-115114921D01*
X120325301Y-114904719D01*
X120325299Y-114904716D01*
X120325298Y-114904714D01*
X120192273Y-114714735D01*
X120192268Y-114714729D01*
X120028269Y-114550730D01*
X119976973Y-114514812D01*
X119838282Y-114417699D01*
X119628079Y-114319680D01*
X119628076Y-114319679D01*
X119628074Y-114319678D01*
X119404051Y-114259651D01*
X119404044Y-114259650D01*
X119173002Y-114239437D01*
X119172998Y-114239437D01*
X118941955Y-114259650D01*
X118941948Y-114259651D01*
X118717917Y-114319681D01*
X118507718Y-114417699D01*
X118507714Y-114417701D01*
X118317735Y-114550726D01*
X118317729Y-114550731D01*
X118153731Y-114714729D01*
X118153726Y-114714735D01*
X118020701Y-114904714D01*
X118020699Y-114904718D01*
X117922681Y-115114917D01*
X117862651Y-115338948D01*
X117862650Y-115338955D01*
X117842437Y-115569998D01*
X117842437Y-115570001D01*
X114598000Y-115570001D01*
X114598000Y-115514048D01*
X114569037Y-115405956D01*
X114513084Y-115309044D01*
X114433956Y-115229916D01*
X114337044Y-115173963D01*
X114228952Y-115145000D01*
X114117048Y-115145000D01*
X114008956Y-115173963D01*
X113912044Y-115229916D01*
X113832916Y-115309044D01*
X113776963Y-115405956D01*
X113748000Y-115514048D01*
X113748000Y-115625952D01*
X94615000Y-115625952D01*
X94615000Y-115220000D01*
X112848000Y-115220000D01*
X113823000Y-115220000D01*
X113823000Y-114245000D01*
X114523000Y-114245000D01*
X114523000Y-115220000D01*
X115498000Y-115220000D01*
X115498000Y-114697172D01*
X115497999Y-114697155D01*
X115491598Y-114637627D01*
X115491596Y-114637620D01*
X115441354Y-114502913D01*
X115441350Y-114502906D01*
X115355190Y-114387812D01*
X115355187Y-114387809D01*
X115240093Y-114301649D01*
X115240086Y-114301645D01*
X115105379Y-114251403D01*
X115105372Y-114251401D01*
X115045844Y-114245000D01*
X114523000Y-114245000D01*
X113823000Y-114245000D01*
X113300155Y-114245000D01*
X113240627Y-114251401D01*
X113240620Y-114251403D01*
X113105913Y-114301645D01*
X113105906Y-114301649D01*
X112990812Y-114387809D01*
X112990809Y-114387812D01*
X112904649Y-114502906D01*
X112904645Y-114502913D01*
X112854403Y-114637620D01*
X112854401Y-114637627D01*
X112848000Y-114697155D01*
X112848000Y-115220000D01*
X94615000Y-115220000D01*
X94615000Y-111120005D01*
X101974945Y-111120005D01*
X101995130Y-111363605D01*
X102055138Y-111600573D01*
X102153328Y-111824424D01*
X102193742Y-111886283D01*
X102820098Y-111259926D01*
X102829979Y-111309598D01*
X102878978Y-111427890D01*
X102950112Y-111534351D01*
X103040649Y-111624888D01*
X103147110Y-111696022D01*
X103265402Y-111745021D01*
X103315072Y-111754901D01*
X102687944Y-112382028D01*
X102860468Y-112475394D01*
X102860476Y-112475397D01*
X103091664Y-112554765D01*
X103332779Y-112595000D01*
X103577221Y-112595000D01*
X103818335Y-112554765D01*
X104049523Y-112475397D01*
X104049531Y-112475394D01*
X104222054Y-112382028D01*
X103823026Y-111983000D01*
X108480000Y-111983000D01*
X108480000Y-112555844D01*
X108486401Y-112615372D01*
X108486403Y-112615379D01*
X108536645Y-112750086D01*
X108536649Y-112750093D01*
X108622809Y-112865187D01*
X108622812Y-112865190D01*
X108737906Y-112951350D01*
X108737913Y-112951354D01*
X108872620Y-113001596D01*
X108872627Y-113001598D01*
X108932155Y-113007999D01*
X108932172Y-113008000D01*
X109505000Y-113008000D01*
X109505000Y-111983000D01*
X108480000Y-111983000D01*
X103823026Y-111983000D01*
X103594927Y-111754901D01*
X103644598Y-111745021D01*
X103762890Y-111696022D01*
X103869351Y-111624888D01*
X103959888Y-111534351D01*
X104031022Y-111427890D01*
X104080021Y-111309598D01*
X104089901Y-111259927D01*
X104716256Y-111886283D01*
X104756671Y-111824425D01*
X104756672Y-111824423D01*
X104813207Y-111695535D01*
X109380000Y-111695535D01*
X109412370Y-111816343D01*
X109474905Y-111924657D01*
X109563343Y-112013095D01*
X109671657Y-112075630D01*
X109792465Y-112108000D01*
X109917535Y-112108000D01*
X110038343Y-112075630D01*
X110146657Y-112013095D01*
X110176752Y-111983000D01*
X110205000Y-111983000D01*
X110205000Y-113008000D01*
X110777828Y-113008000D01*
X110777844Y-113007999D01*
X110837372Y-113001598D01*
X110837379Y-113001596D01*
X110972086Y-112951354D01*
X110972093Y-112951350D01*
X111087187Y-112865190D01*
X111087190Y-112865187D01*
X111173350Y-112750093D01*
X111173354Y-112750086D01*
X111223596Y-112615379D01*
X111223598Y-112615372D01*
X111229999Y-112555844D01*
X111230000Y-112555827D01*
X111230000Y-111983000D01*
X110205000Y-111983000D01*
X110176752Y-111983000D01*
X110235095Y-111924657D01*
X110297630Y-111816343D01*
X110330000Y-111695535D01*
X110330000Y-111633006D01*
X121428786Y-111633006D01*
X121447608Y-111860168D01*
X121447610Y-111860179D01*
X121503569Y-112081155D01*
X121595137Y-112289908D01*
X121719814Y-112480742D01*
X121788850Y-112555735D01*
X121866540Y-112640129D01*
X121874208Y-112648458D01*
X121874212Y-112648461D01*
X122054090Y-112788466D01*
X122054094Y-112788469D01*
X122054096Y-112788470D01*
X122054099Y-112788472D01*
X122167930Y-112850074D01*
X122254574Y-112896963D01*
X122366529Y-112935397D01*
X122470173Y-112970979D01*
X122470175Y-112970979D01*
X122470177Y-112970980D01*
X122695023Y-113008500D01*
X122695024Y-113008500D01*
X122922976Y-113008500D01*
X122922977Y-113008500D01*
X123147823Y-112970980D01*
X123363426Y-112896963D01*
X123563906Y-112788469D01*
X123667994Y-112707454D01*
X125451519Y-112707454D01*
X125656090Y-112802847D01*
X125656099Y-112802851D01*
X125880031Y-112862852D01*
X125880041Y-112862854D01*
X126110999Y-112883061D01*
X126111001Y-112883061D01*
X126341958Y-112862854D01*
X126341968Y-112862852D01*
X126565900Y-112802851D01*
X126565909Y-112802847D01*
X126770480Y-112707454D01*
X126111001Y-112047974D01*
X126111000Y-112047974D01*
X125451519Y-112707454D01*
X123667994Y-112707454D01*
X123743794Y-112648456D01*
X123898183Y-112480745D01*
X124022862Y-112289909D01*
X124114430Y-112081155D01*
X124170390Y-111860176D01*
X124170391Y-111860168D01*
X124189214Y-111633006D01*
X124189214Y-111632993D01*
X124182586Y-111553000D01*
X124780939Y-111553000D01*
X124801145Y-111783958D01*
X124801147Y-111783968D01*
X124861148Y-112007900D01*
X124861153Y-112007914D01*
X124956543Y-112212480D01*
X124956544Y-112212480D01*
X125560073Y-111608952D01*
X125686000Y-111608952D01*
X125714963Y-111717044D01*
X125770916Y-111813956D01*
X125850044Y-111893084D01*
X125946956Y-111949037D01*
X126055048Y-111978000D01*
X126166952Y-111978000D01*
X126275044Y-111949037D01*
X126371956Y-111893084D01*
X126451084Y-111813956D01*
X126507037Y-111717044D01*
X126536000Y-111608952D01*
X126536000Y-111553000D01*
X126605974Y-111553000D01*
X127265454Y-112212480D01*
X127360847Y-112007909D01*
X127360851Y-112007900D01*
X127420852Y-111783968D01*
X127420854Y-111783958D01*
X127441061Y-111553000D01*
X127441061Y-111552999D01*
X127420854Y-111322041D01*
X127420852Y-111322031D01*
X127360851Y-111098099D01*
X127360848Y-111098090D01*
X127265454Y-110893518D01*
X126605974Y-111552999D01*
X126605974Y-111553000D01*
X126536000Y-111553000D01*
X126536000Y-111497048D01*
X126507037Y-111388956D01*
X126451084Y-111292044D01*
X126371956Y-111212916D01*
X126275044Y-111156963D01*
X126166952Y-111128000D01*
X126055048Y-111128000D01*
X125946956Y-111156963D01*
X125850044Y-111212916D01*
X125770916Y-111292044D01*
X125714963Y-111388956D01*
X125686000Y-111497048D01*
X125686000Y-111608952D01*
X125560073Y-111608952D01*
X125616025Y-111553000D01*
X125616025Y-111552999D01*
X124956545Y-110893519D01*
X124861152Y-111098090D01*
X124861148Y-111098099D01*
X124801147Y-111322031D01*
X124801145Y-111322041D01*
X124780939Y-111552999D01*
X124780939Y-111553000D01*
X124182586Y-111553000D01*
X124170391Y-111405831D01*
X124170389Y-111405820D01*
X124114430Y-111184844D01*
X124022862Y-110976091D01*
X123898185Y-110785257D01*
X123829064Y-110710172D01*
X123743794Y-110617544D01*
X123743793Y-110617543D01*
X123743791Y-110617541D01*
X123743787Y-110617538D01*
X123563909Y-110477533D01*
X123563900Y-110477527D01*
X123417953Y-110398545D01*
X125451519Y-110398545D01*
X126111000Y-111058025D01*
X126111001Y-111058025D01*
X126770480Y-110398544D01*
X126770480Y-110398543D01*
X126565914Y-110303153D01*
X126565900Y-110303148D01*
X126341968Y-110243147D01*
X126341958Y-110243145D01*
X126111001Y-110222939D01*
X126110999Y-110222939D01*
X125880041Y-110243145D01*
X125880031Y-110243147D01*
X125656099Y-110303148D01*
X125656090Y-110303152D01*
X125451519Y-110398545D01*
X123417953Y-110398545D01*
X123363432Y-110369040D01*
X123363429Y-110369039D01*
X123363426Y-110369037D01*
X123363420Y-110369035D01*
X123363418Y-110369034D01*
X123147826Y-110295020D01*
X122979188Y-110266880D01*
X122922977Y-110257500D01*
X122695023Y-110257500D01*
X122653667Y-110264401D01*
X122470173Y-110295020D01*
X122254581Y-110369034D01*
X122254567Y-110369040D01*
X122054099Y-110477527D01*
X122054090Y-110477533D01*
X121874212Y-110617538D01*
X121874208Y-110617541D01*
X121719814Y-110785257D01*
X121595137Y-110976091D01*
X121503569Y-111184844D01*
X121447610Y-111405820D01*
X121447608Y-111405831D01*
X121428786Y-111632993D01*
X121428786Y-111633006D01*
X110330000Y-111633006D01*
X110330000Y-111570465D01*
X110297630Y-111449657D01*
X110235095Y-111341343D01*
X110146657Y-111252905D01*
X110038343Y-111190370D01*
X109917535Y-111158000D01*
X109792465Y-111158000D01*
X109671657Y-111190370D01*
X109563343Y-111252905D01*
X109474905Y-111341343D01*
X109412370Y-111449657D01*
X109380000Y-111570465D01*
X109380000Y-111695535D01*
X104813207Y-111695535D01*
X104854861Y-111600573D01*
X104914869Y-111363605D01*
X104921548Y-111283000D01*
X108480000Y-111283000D01*
X109505000Y-111283000D01*
X109505000Y-110258000D01*
X110205000Y-110258000D01*
X110205000Y-111283000D01*
X111230000Y-111283000D01*
X111230000Y-110710172D01*
X111229999Y-110710155D01*
X111223598Y-110650627D01*
X111223596Y-110650620D01*
X111173354Y-110515913D01*
X111173350Y-110515906D01*
X111087190Y-110400812D01*
X111087187Y-110400809D01*
X110972093Y-110314649D01*
X110972086Y-110314645D01*
X110837379Y-110264403D01*
X110837372Y-110264401D01*
X110777844Y-110258000D01*
X110205000Y-110258000D01*
X109505000Y-110258000D01*
X108932155Y-110258000D01*
X108872627Y-110264401D01*
X108872620Y-110264403D01*
X108737913Y-110314645D01*
X108737906Y-110314649D01*
X108622812Y-110400809D01*
X108622809Y-110400812D01*
X108536649Y-110515906D01*
X108536645Y-110515913D01*
X108486403Y-110650620D01*
X108486401Y-110650627D01*
X108480000Y-110710155D01*
X108480000Y-111283000D01*
X104921548Y-111283000D01*
X104935055Y-111120005D01*
X104935055Y-111119994D01*
X104914869Y-110876394D01*
X104854861Y-110639426D01*
X104756669Y-110415570D01*
X104716256Y-110353715D01*
X104089900Y-110980071D01*
X104080021Y-110930402D01*
X104031022Y-110812110D01*
X103959888Y-110705649D01*
X103869351Y-110615112D01*
X103762890Y-110543978D01*
X103644598Y-110494979D01*
X103594925Y-110485098D01*
X104222054Y-109857970D01*
X104049532Y-109764605D01*
X104049523Y-109764602D01*
X103818335Y-109685234D01*
X103577221Y-109645000D01*
X103332779Y-109645000D01*
X103091664Y-109685234D01*
X102860476Y-109764602D01*
X102860462Y-109764608D01*
X102687944Y-109857969D01*
X103315073Y-110485098D01*
X103265402Y-110494979D01*
X103147110Y-110543978D01*
X103040649Y-110615112D01*
X102950112Y-110705649D01*
X102878978Y-110812110D01*
X102829979Y-110930402D01*
X102820098Y-110980073D01*
X102193741Y-110353716D01*
X102153329Y-110415572D01*
X102055138Y-110639426D01*
X101995130Y-110876394D01*
X101974945Y-111119994D01*
X101974945Y-111120005D01*
X94615000Y-111120005D01*
X94615000Y-109507870D01*
X108352500Y-109507870D01*
X108352501Y-109507876D01*
X108358908Y-109567483D01*
X108409202Y-109702328D01*
X108409206Y-109702335D01*
X108495452Y-109817544D01*
X108495455Y-109817547D01*
X108610664Y-109903793D01*
X108610671Y-109903797D01*
X108745517Y-109954091D01*
X108745516Y-109954091D01*
X108752444Y-109954835D01*
X108805127Y-109960500D01*
X110650872Y-109960499D01*
X110710483Y-109954091D01*
X110845331Y-109903796D01*
X110960546Y-109817546D01*
X111046796Y-109702331D01*
X111097091Y-109567483D01*
X111103500Y-109507873D01*
X111103500Y-108585006D01*
X121301786Y-108585006D01*
X121320608Y-108812168D01*
X121320610Y-108812179D01*
X121376569Y-109033155D01*
X121468137Y-109241908D01*
X121592814Y-109432742D01*
X121747208Y-109600458D01*
X121747212Y-109600461D01*
X121923022Y-109737300D01*
X121927094Y-109740469D01*
X121927096Y-109740470D01*
X121927099Y-109740472D01*
X121971699Y-109764608D01*
X122127574Y-109848963D01*
X122193257Y-109871512D01*
X122343173Y-109922979D01*
X122343175Y-109922979D01*
X122343177Y-109922980D01*
X122568023Y-109960500D01*
X122568024Y-109960500D01*
X122795976Y-109960500D01*
X122795977Y-109960500D01*
X123020823Y-109922980D01*
X123236426Y-109848963D01*
X123436906Y-109740469D01*
X123616794Y-109600456D01*
X123771183Y-109432745D01*
X123895862Y-109241909D01*
X123940563Y-109140001D01*
X128844437Y-109140001D01*
X128864650Y-109371044D01*
X128864651Y-109371051D01*
X128924678Y-109595074D01*
X128924679Y-109595076D01*
X128924680Y-109595079D01*
X129022699Y-109805282D01*
X129155730Y-109995269D01*
X129319731Y-110159270D01*
X129509718Y-110292301D01*
X129719921Y-110390320D01*
X129943950Y-110450349D01*
X130108985Y-110464787D01*
X130174998Y-110470563D01*
X130175000Y-110470563D01*
X130175002Y-110470563D01*
X130232762Y-110465509D01*
X130406050Y-110450349D01*
X130471408Y-110432836D01*
X130541255Y-110434499D01*
X130599118Y-110473661D01*
X130626623Y-110537889D01*
X130627500Y-110552611D01*
X130627500Y-111997870D01*
X130627501Y-111997876D01*
X130633131Y-112050247D01*
X130620724Y-112119006D01*
X130573113Y-112170143D01*
X130509841Y-112187500D01*
X130039129Y-112187500D01*
X130039123Y-112187501D01*
X129979516Y-112193908D01*
X129844671Y-112244202D01*
X129844664Y-112244206D01*
X129729455Y-112330452D01*
X129729452Y-112330455D01*
X129643206Y-112445664D01*
X129643202Y-112445671D01*
X129592908Y-112580517D01*
X129588014Y-112626044D01*
X129586501Y-112640123D01*
X129586500Y-112640135D01*
X129586500Y-114435870D01*
X129586501Y-114435876D01*
X129592908Y-114495483D01*
X129643202Y-114630328D01*
X129643206Y-114630335D01*
X129729452Y-114745544D01*
X129729455Y-114745547D01*
X129844664Y-114831793D01*
X129844671Y-114831797D01*
X129979517Y-114882091D01*
X129979516Y-114882091D01*
X129986444Y-114882835D01*
X130039127Y-114888500D01*
X131834872Y-114888499D01*
X131894483Y-114882091D01*
X132029331Y-114831796D01*
X132144546Y-114745546D01*
X132230796Y-114630331D01*
X132281091Y-114495483D01*
X132287500Y-114435873D01*
X132287499Y-112640128D01*
X132281869Y-112587752D01*
X132294276Y-112518993D01*
X132341887Y-112467856D01*
X132405159Y-112450499D01*
X132770842Y-112450499D01*
X132837881Y-112470184D01*
X132883636Y-112522988D01*
X132894131Y-112587755D01*
X132888500Y-112640119D01*
X132888500Y-114435870D01*
X132888501Y-114435876D01*
X132894908Y-114495483D01*
X132945202Y-114630328D01*
X132945206Y-114630335D01*
X133031452Y-114745544D01*
X133031455Y-114745547D01*
X133146664Y-114831793D01*
X133146671Y-114831797D01*
X133281517Y-114882091D01*
X133281516Y-114882091D01*
X133288444Y-114882835D01*
X133341127Y-114888500D01*
X135136872Y-114888499D01*
X135196483Y-114882091D01*
X135331331Y-114831796D01*
X135446546Y-114745546D01*
X135532796Y-114630331D01*
X135583091Y-114495483D01*
X135589500Y-114435873D01*
X135589499Y-112640128D01*
X135583091Y-112580517D01*
X135573882Y-112555827D01*
X135532797Y-112445671D01*
X135532793Y-112445664D01*
X135446547Y-112330455D01*
X135446544Y-112330452D01*
X135331335Y-112244206D01*
X135331328Y-112244202D01*
X135196482Y-112193908D01*
X135196483Y-112193908D01*
X135136883Y-112187501D01*
X135136881Y-112187500D01*
X135136873Y-112187500D01*
X135136865Y-112187500D01*
X133396158Y-112187500D01*
X133329119Y-112167815D01*
X133283364Y-112115011D01*
X133272869Y-112050244D01*
X133278499Y-111997880D01*
X133278500Y-111997873D01*
X133278500Y-111125001D01*
X135622427Y-111125001D01*
X135642640Y-111356044D01*
X135642641Y-111356051D01*
X135702668Y-111580074D01*
X135702669Y-111580076D01*
X135702670Y-111580079D01*
X135800689Y-111790282D01*
X135933720Y-111980269D01*
X136097721Y-112144270D01*
X136287708Y-112277301D01*
X136497911Y-112375320D01*
X136721940Y-112435349D01*
X136886975Y-112449787D01*
X136952988Y-112455563D01*
X136952990Y-112455563D01*
X136952991Y-112455563D01*
X136966216Y-112454405D01*
X137096694Y-112442990D01*
X137165192Y-112456756D01*
X137215375Y-112505371D01*
X137231500Y-112566518D01*
X137231500Y-113521870D01*
X137231501Y-113521876D01*
X137237908Y-113581483D01*
X137288202Y-113716328D01*
X137288206Y-113716335D01*
X137374452Y-113831544D01*
X137374455Y-113831547D01*
X137489664Y-113917793D01*
X137489671Y-113917797D01*
X137624517Y-113968091D01*
X137624516Y-113968091D01*
X137631444Y-113968835D01*
X137684127Y-113974500D01*
X139429872Y-113974499D01*
X139489483Y-113968091D01*
X139495770Y-113965745D01*
X139565459Y-113960756D01*
X139626785Y-113994236D01*
X139651493Y-114029519D01*
X139673298Y-114076281D01*
X139673299Y-114076282D01*
X139806330Y-114266269D01*
X139970331Y-114430270D01*
X140160318Y-114563301D01*
X140370521Y-114661320D01*
X140594550Y-114721349D01*
X140759585Y-114735787D01*
X140825598Y-114741563D01*
X140825600Y-114741563D01*
X140825602Y-114741563D01*
X140889186Y-114736000D01*
X141056650Y-114721349D01*
X141280679Y-114661320D01*
X141490882Y-114563301D01*
X141680869Y-114430270D01*
X141844870Y-114266269D01*
X141977901Y-114076282D01*
X142075920Y-113866079D01*
X142104076Y-113761000D01*
X144500600Y-113761000D01*
X144500600Y-114283844D01*
X144507001Y-114343372D01*
X144507003Y-114343379D01*
X144557245Y-114478086D01*
X144557249Y-114478093D01*
X144643409Y-114593187D01*
X144643412Y-114593190D01*
X144758506Y-114679350D01*
X144758513Y-114679354D01*
X144893220Y-114729596D01*
X144893227Y-114729598D01*
X144952755Y-114735999D01*
X144952772Y-114736000D01*
X145475600Y-114736000D01*
X145475600Y-113761000D01*
X144500600Y-113761000D01*
X142104076Y-113761000D01*
X142135949Y-113642050D01*
X142151268Y-113466952D01*
X145400600Y-113466952D01*
X145429563Y-113575044D01*
X145485516Y-113671956D01*
X145564644Y-113751084D01*
X145661556Y-113807037D01*
X145769648Y-113836000D01*
X145881552Y-113836000D01*
X145989644Y-113807037D01*
X146069381Y-113761000D01*
X146175600Y-113761000D01*
X146175600Y-114736000D01*
X146698428Y-114736000D01*
X146698444Y-114735999D01*
X146757972Y-114729598D01*
X146757979Y-114729596D01*
X146892686Y-114679354D01*
X146892693Y-114679350D01*
X147007787Y-114593190D01*
X147007790Y-114593187D01*
X147093950Y-114478093D01*
X147093954Y-114478086D01*
X147144196Y-114343379D01*
X147144198Y-114343372D01*
X147150599Y-114283844D01*
X147150600Y-114283827D01*
X147150600Y-113761000D01*
X146175600Y-113761000D01*
X146069381Y-113761000D01*
X146086556Y-113751084D01*
X146165684Y-113671956D01*
X146221637Y-113575044D01*
X146250600Y-113466952D01*
X146250600Y-113355048D01*
X146221637Y-113246956D01*
X146165684Y-113150044D01*
X146086556Y-113070916D01*
X145989644Y-113014963D01*
X145881552Y-112986000D01*
X145769648Y-112986000D01*
X145661556Y-113014963D01*
X145564644Y-113070916D01*
X145485516Y-113150044D01*
X145429563Y-113246956D01*
X145400600Y-113355048D01*
X145400600Y-113466952D01*
X142151268Y-113466952D01*
X142153651Y-113439710D01*
X142156163Y-113411001D01*
X142156163Y-113410998D01*
X142139502Y-113220560D01*
X142135949Y-113179950D01*
X142104076Y-113061000D01*
X144500600Y-113061000D01*
X145475600Y-113061000D01*
X145475600Y-112086000D01*
X146175600Y-112086000D01*
X146175600Y-113061000D01*
X147150600Y-113061000D01*
X147150600Y-112538172D01*
X147150599Y-112538155D01*
X147144198Y-112478627D01*
X147144196Y-112478620D01*
X147113008Y-112395001D01*
X150434437Y-112395001D01*
X150454650Y-112626044D01*
X150454651Y-112626051D01*
X150514678Y-112850074D01*
X150514679Y-112850076D01*
X150514680Y-112850079D01*
X150612699Y-113060282D01*
X150745730Y-113250269D01*
X150909731Y-113414270D01*
X151099718Y-113547301D01*
X151309921Y-113645320D01*
X151533950Y-113705349D01*
X151698985Y-113719787D01*
X151764998Y-113725563D01*
X151765000Y-113725563D01*
X151765002Y-113725563D01*
X151822762Y-113720509D01*
X151996050Y-113705349D01*
X152220079Y-113645320D01*
X152430282Y-113547301D01*
X152620269Y-113414270D01*
X152784270Y-113250269D01*
X152917301Y-113060282D01*
X153015320Y-112850079D01*
X153075349Y-112626050D01*
X153095563Y-112395000D01*
X153094118Y-112378488D01*
X153089169Y-112321920D01*
X153075349Y-112163950D01*
X153015320Y-111939921D01*
X152917301Y-111729719D01*
X152917299Y-111729716D01*
X152917298Y-111729714D01*
X152784273Y-111539735D01*
X152784268Y-111539729D01*
X152620269Y-111375730D01*
X152602953Y-111363605D01*
X152430282Y-111242699D01*
X152220079Y-111144680D01*
X152220076Y-111144679D01*
X152220074Y-111144678D01*
X151996051Y-111084651D01*
X151996044Y-111084650D01*
X151765002Y-111064437D01*
X151764998Y-111064437D01*
X151533955Y-111084650D01*
X151533948Y-111084651D01*
X151309917Y-111144681D01*
X151099718Y-111242699D01*
X151099714Y-111242701D01*
X150909735Y-111375726D01*
X150909729Y-111375731D01*
X150745731Y-111539729D01*
X150745726Y-111539735D01*
X150612701Y-111729714D01*
X150612699Y-111729718D01*
X150514681Y-111939917D01*
X150454651Y-112163948D01*
X150454650Y-112163955D01*
X150434437Y-112394998D01*
X150434437Y-112395001D01*
X147113008Y-112395001D01*
X147093954Y-112343913D01*
X147093950Y-112343906D01*
X147007790Y-112228812D01*
X147007787Y-112228809D01*
X146892693Y-112142649D01*
X146892686Y-112142645D01*
X146757979Y-112092403D01*
X146757972Y-112092401D01*
X146698444Y-112086000D01*
X146175600Y-112086000D01*
X145475600Y-112086000D01*
X144952755Y-112086000D01*
X144893227Y-112092401D01*
X144893220Y-112092403D01*
X144758513Y-112142645D01*
X144758506Y-112142649D01*
X144643412Y-112228809D01*
X144643409Y-112228812D01*
X144557249Y-112343906D01*
X144557245Y-112343913D01*
X144507003Y-112478620D01*
X144507001Y-112478627D01*
X144500600Y-112538155D01*
X144500600Y-113061000D01*
X142104076Y-113061000D01*
X142075920Y-112955921D01*
X141977901Y-112745719D01*
X141977899Y-112745716D01*
X141977898Y-112745714D01*
X141844873Y-112555735D01*
X141844868Y-112555729D01*
X141680869Y-112391730D01*
X141667013Y-112382028D01*
X141490882Y-112258699D01*
X141280679Y-112160680D01*
X141280676Y-112160679D01*
X141280674Y-112160678D01*
X141056651Y-112100651D01*
X141056644Y-112100650D01*
X140825602Y-112080437D01*
X140825598Y-112080437D01*
X140594555Y-112100650D01*
X140594548Y-112100651D01*
X140370517Y-112160681D01*
X140160318Y-112258699D01*
X140160314Y-112258702D01*
X140077622Y-112316603D01*
X140011416Y-112338930D01*
X139943648Y-112321920D01*
X139895836Y-112270971D01*
X139882499Y-112215028D01*
X139882499Y-111776129D01*
X139882498Y-111776123D01*
X139876091Y-111716516D01*
X139825797Y-111581671D01*
X139825793Y-111581664D01*
X139812910Y-111564454D01*
X144120519Y-111564454D01*
X144325090Y-111659847D01*
X144325099Y-111659851D01*
X144549031Y-111719852D01*
X144549041Y-111719854D01*
X144779999Y-111740061D01*
X144780001Y-111740061D01*
X145010958Y-111719854D01*
X145010968Y-111719852D01*
X145234900Y-111659851D01*
X145234909Y-111659847D01*
X145267919Y-111644454D01*
X147930519Y-111644454D01*
X148135090Y-111739847D01*
X148135099Y-111739851D01*
X148359031Y-111799852D01*
X148359041Y-111799854D01*
X148589999Y-111820061D01*
X148590001Y-111820061D01*
X148820958Y-111799854D01*
X148820968Y-111799852D01*
X149044900Y-111739851D01*
X149044909Y-111739847D01*
X149249480Y-111644454D01*
X148590001Y-110984974D01*
X148590000Y-110984974D01*
X147930519Y-111644454D01*
X145267919Y-111644454D01*
X145439480Y-111564454D01*
X144780001Y-110904974D01*
X144780000Y-110904974D01*
X144120519Y-111564454D01*
X139812910Y-111564454D01*
X139739547Y-111466455D01*
X139739544Y-111466452D01*
X139624335Y-111380206D01*
X139624328Y-111380202D01*
X139489482Y-111329908D01*
X139489483Y-111329908D01*
X139429883Y-111323501D01*
X139429881Y-111323500D01*
X139429873Y-111323500D01*
X139429865Y-111323500D01*
X138401509Y-111323500D01*
X138334470Y-111303815D01*
X138288715Y-111251011D01*
X138277981Y-111188693D01*
X138283553Y-111125002D01*
X138283553Y-111124998D01*
X138270525Y-110976091D01*
X138263339Y-110893950D01*
X138203310Y-110669921D01*
X138105291Y-110459719D01*
X138105289Y-110459716D01*
X138105288Y-110459714D01*
X138070478Y-110410000D01*
X143449939Y-110410000D01*
X143470145Y-110640958D01*
X143470147Y-110640968D01*
X143530148Y-110864900D01*
X143530153Y-110864914D01*
X143625543Y-111069480D01*
X143625544Y-111069480D01*
X144229073Y-110465952D01*
X144355000Y-110465952D01*
X144383963Y-110574044D01*
X144439916Y-110670956D01*
X144519044Y-110750084D01*
X144615956Y-110806037D01*
X144724048Y-110835000D01*
X144835952Y-110835000D01*
X144944044Y-110806037D01*
X145040956Y-110750084D01*
X145120084Y-110670956D01*
X145176037Y-110574044D01*
X145205000Y-110465952D01*
X145205000Y-110410000D01*
X145274974Y-110410000D01*
X145934454Y-111069480D01*
X146029847Y-110864909D01*
X146029851Y-110864900D01*
X146089852Y-110640968D01*
X146089854Y-110640958D01*
X146103062Y-110490000D01*
X147259939Y-110490000D01*
X147280145Y-110720958D01*
X147280147Y-110720968D01*
X147340148Y-110944900D01*
X147340153Y-110944914D01*
X147435543Y-111149480D01*
X147435544Y-111149480D01*
X148039073Y-110545952D01*
X148165000Y-110545952D01*
X148193963Y-110654044D01*
X148249916Y-110750956D01*
X148329044Y-110830084D01*
X148425956Y-110886037D01*
X148534048Y-110915000D01*
X148645952Y-110915000D01*
X148754044Y-110886037D01*
X148850956Y-110830084D01*
X148930084Y-110750956D01*
X148986037Y-110654044D01*
X149015000Y-110545952D01*
X149015000Y-110490000D01*
X149084974Y-110490000D01*
X149744454Y-111149480D01*
X149839847Y-110944909D01*
X149839851Y-110944900D01*
X149899852Y-110720968D01*
X149899854Y-110720958D01*
X149920061Y-110490000D01*
X149920061Y-110489999D01*
X149899854Y-110259041D01*
X149899852Y-110259031D01*
X149839851Y-110035099D01*
X149839848Y-110035090D01*
X149744454Y-109830518D01*
X149084974Y-110489999D01*
X149084974Y-110490000D01*
X149015000Y-110490000D01*
X149015000Y-110434048D01*
X148986037Y-110325956D01*
X148930084Y-110229044D01*
X148850956Y-110149916D01*
X148754044Y-110093963D01*
X148645952Y-110065000D01*
X148534048Y-110065000D01*
X148425956Y-110093963D01*
X148329044Y-110149916D01*
X148249916Y-110229044D01*
X148193963Y-110325956D01*
X148165000Y-110434048D01*
X148165000Y-110545952D01*
X148039073Y-110545952D01*
X148095025Y-110490000D01*
X148095025Y-110489999D01*
X147435545Y-109830519D01*
X147340152Y-110035090D01*
X147340148Y-110035099D01*
X147280147Y-110259031D01*
X147280145Y-110259041D01*
X147259939Y-110489999D01*
X147259939Y-110490000D01*
X146103062Y-110490000D01*
X146110061Y-110410000D01*
X146110061Y-110409999D01*
X146089854Y-110179041D01*
X146089852Y-110179031D01*
X146029851Y-109955099D01*
X146029848Y-109955090D01*
X145934454Y-109750518D01*
X145274974Y-110409999D01*
X145274974Y-110410000D01*
X145205000Y-110410000D01*
X145205000Y-110354048D01*
X145176037Y-110245956D01*
X145120084Y-110149044D01*
X145040956Y-110069916D01*
X144944044Y-110013963D01*
X144835952Y-109985000D01*
X144724048Y-109985000D01*
X144615956Y-110013963D01*
X144519044Y-110069916D01*
X144439916Y-110149044D01*
X144383963Y-110245956D01*
X144355000Y-110354048D01*
X144355000Y-110465952D01*
X144229073Y-110465952D01*
X144285025Y-110410000D01*
X144285025Y-110409999D01*
X143625545Y-109750519D01*
X143530152Y-109955090D01*
X143530148Y-109955099D01*
X143470147Y-110179031D01*
X143470145Y-110179041D01*
X143449939Y-110409999D01*
X143449939Y-110410000D01*
X138070478Y-110410000D01*
X137972263Y-110269735D01*
X137972258Y-110269729D01*
X137808259Y-110105730D01*
X137791454Y-110093963D01*
X137618272Y-109972699D01*
X137408069Y-109874680D01*
X137408066Y-109874679D01*
X137408064Y-109874678D01*
X137184041Y-109814651D01*
X137184034Y-109814650D01*
X136952992Y-109794437D01*
X136952988Y-109794437D01*
X136721945Y-109814650D01*
X136721938Y-109814651D01*
X136497907Y-109874681D01*
X136287708Y-109972699D01*
X136287704Y-109972701D01*
X136097725Y-110105726D01*
X136097719Y-110105731D01*
X135933721Y-110269729D01*
X135933716Y-110269735D01*
X135800691Y-110459714D01*
X135800689Y-110459718D01*
X135702671Y-110669917D01*
X135642641Y-110893948D01*
X135642640Y-110893955D01*
X135622427Y-111124998D01*
X135622427Y-111125001D01*
X133278500Y-111125001D01*
X133278499Y-110252128D01*
X133272091Y-110192517D01*
X133259690Y-110159269D01*
X133221797Y-110057671D01*
X133221793Y-110057664D01*
X133135547Y-109942455D01*
X133135544Y-109942452D01*
X133020335Y-109856206D01*
X133020328Y-109856202D01*
X132885482Y-109805908D01*
X132885483Y-109805908D01*
X132825883Y-109799501D01*
X132825881Y-109799500D01*
X132825873Y-109799500D01*
X132825865Y-109799500D01*
X131524638Y-109799500D01*
X131457599Y-109779815D01*
X131411844Y-109727011D01*
X131401900Y-109657853D01*
X131412256Y-109623096D01*
X131425317Y-109595085D01*
X131425320Y-109595079D01*
X131485349Y-109371050D01*
X131495454Y-109255545D01*
X144120519Y-109255545D01*
X144780000Y-109915025D01*
X144780001Y-109915025D01*
X145359479Y-109335545D01*
X147930519Y-109335545D01*
X148590000Y-109995025D01*
X148590001Y-109995025D01*
X149249480Y-109335544D01*
X149249480Y-109335543D01*
X149044914Y-109240153D01*
X149044900Y-109240148D01*
X148820968Y-109180147D01*
X148820958Y-109180145D01*
X148590001Y-109159939D01*
X148589999Y-109159939D01*
X148359041Y-109180145D01*
X148359031Y-109180147D01*
X148135099Y-109240148D01*
X148135090Y-109240152D01*
X147930519Y-109335545D01*
X145359479Y-109335545D01*
X145439480Y-109255544D01*
X145439480Y-109255543D01*
X145234914Y-109160153D01*
X145234900Y-109160148D01*
X145010968Y-109100147D01*
X145010958Y-109100145D01*
X144780001Y-109079939D01*
X144779999Y-109079939D01*
X144549041Y-109100145D01*
X144549031Y-109100147D01*
X144325099Y-109160148D01*
X144325090Y-109160152D01*
X144120519Y-109255545D01*
X131495454Y-109255545D01*
X131505563Y-109140000D01*
X131485349Y-108908950D01*
X131425320Y-108684921D01*
X131378726Y-108585001D01*
X150434437Y-108585001D01*
X150454650Y-108816044D01*
X150454651Y-108816051D01*
X150514678Y-109040074D01*
X150514679Y-109040076D01*
X150514680Y-109040079D01*
X150612699Y-109250282D01*
X150745730Y-109440269D01*
X150909731Y-109604270D01*
X151099718Y-109737301D01*
X151309921Y-109835320D01*
X151533950Y-109895349D01*
X151698985Y-109909787D01*
X151764998Y-109915563D01*
X151765000Y-109915563D01*
X151765002Y-109915563D01*
X151822762Y-109910509D01*
X151996050Y-109895349D01*
X152220079Y-109835320D01*
X152430282Y-109737301D01*
X152620269Y-109604270D01*
X152784270Y-109440269D01*
X152917301Y-109250282D01*
X153015320Y-109040079D01*
X153075349Y-108816050D01*
X153092675Y-108618007D01*
X153095563Y-108585001D01*
X153095563Y-108584998D01*
X153075853Y-108359710D01*
X153075349Y-108353950D01*
X153015320Y-108129921D01*
X152917301Y-107919719D01*
X152917299Y-107919716D01*
X152917298Y-107919714D01*
X152784273Y-107729735D01*
X152784268Y-107729729D01*
X152620269Y-107565730D01*
X152620263Y-107565726D01*
X152430282Y-107432699D01*
X152220079Y-107334680D01*
X152220076Y-107334679D01*
X152220074Y-107334678D01*
X151996051Y-107274651D01*
X151996044Y-107274650D01*
X151765002Y-107254437D01*
X151764998Y-107254437D01*
X151533955Y-107274650D01*
X151533948Y-107274651D01*
X151309917Y-107334681D01*
X151099718Y-107432699D01*
X151099714Y-107432701D01*
X150909735Y-107565726D01*
X150909729Y-107565731D01*
X150745731Y-107729729D01*
X150745726Y-107729735D01*
X150612701Y-107919714D01*
X150612699Y-107919718D01*
X150514681Y-108129917D01*
X150454651Y-108353948D01*
X150454650Y-108353955D01*
X150434437Y-108584998D01*
X150434437Y-108585001D01*
X131378726Y-108585001D01*
X131327301Y-108474719D01*
X131327299Y-108474716D01*
X131327298Y-108474714D01*
X131194273Y-108284735D01*
X131194268Y-108284729D01*
X131030269Y-108120730D01*
X131001712Y-108100734D01*
X130840282Y-107987699D01*
X130630079Y-107889680D01*
X130630076Y-107889679D01*
X130630074Y-107889678D01*
X130406051Y-107829651D01*
X130406044Y-107829650D01*
X130175002Y-107809437D01*
X130174998Y-107809437D01*
X129943955Y-107829650D01*
X129943948Y-107829651D01*
X129719917Y-107889681D01*
X129509718Y-107987699D01*
X129509714Y-107987701D01*
X129319735Y-108120726D01*
X129319729Y-108120731D01*
X129155731Y-108284729D01*
X129155726Y-108284735D01*
X129022701Y-108474714D01*
X129022699Y-108474718D01*
X128924681Y-108684917D01*
X128864651Y-108908948D01*
X128864650Y-108908955D01*
X128844437Y-109139998D01*
X128844437Y-109140001D01*
X123940563Y-109140001D01*
X123987430Y-109033155D01*
X124043390Y-108812176D01*
X124043546Y-108810293D01*
X124062214Y-108585006D01*
X124062214Y-108584993D01*
X124043391Y-108357831D01*
X124043389Y-108357820D01*
X123987430Y-108136844D01*
X123895862Y-107928091D01*
X123771185Y-107737257D01*
X123663242Y-107620000D01*
X123616794Y-107569544D01*
X123616793Y-107569543D01*
X123616791Y-107569541D01*
X123616787Y-107569538D01*
X123436909Y-107429533D01*
X123436900Y-107429527D01*
X123430142Y-107425870D01*
X124785500Y-107425870D01*
X124785501Y-107425876D01*
X124791908Y-107485483D01*
X124842202Y-107620328D01*
X124842206Y-107620335D01*
X124928452Y-107735544D01*
X124928455Y-107735547D01*
X125043664Y-107821793D01*
X125043671Y-107821797D01*
X125178517Y-107872091D01*
X125178516Y-107872091D01*
X125185444Y-107872835D01*
X125238127Y-107878500D01*
X126983872Y-107878499D01*
X127043483Y-107872091D01*
X127178331Y-107821796D01*
X127293546Y-107735546D01*
X127379796Y-107620331D01*
X127430091Y-107485483D01*
X127436500Y-107425873D01*
X127436499Y-106282870D01*
X143454500Y-106282870D01*
X143454501Y-106282876D01*
X143460908Y-106342483D01*
X143511202Y-106477328D01*
X143511206Y-106477335D01*
X143597452Y-106592544D01*
X143597455Y-106592547D01*
X143712664Y-106678793D01*
X143712671Y-106678797D01*
X143847517Y-106729091D01*
X143847516Y-106729091D01*
X143854444Y-106729835D01*
X143907127Y-106735500D01*
X145652872Y-106735499D01*
X145712483Y-106729091D01*
X145847331Y-106678796D01*
X145962546Y-106592546D01*
X146048796Y-106477331D01*
X146099091Y-106342483D01*
X146105500Y-106282873D01*
X146105499Y-104537128D01*
X146099091Y-104477517D01*
X146049932Y-104345716D01*
X146048797Y-104342671D01*
X146048793Y-104342664D01*
X145962547Y-104227455D01*
X145962544Y-104227452D01*
X145847335Y-104141206D01*
X145847328Y-104141202D01*
X145712482Y-104090908D01*
X145712483Y-104090908D01*
X145652883Y-104084501D01*
X145652881Y-104084500D01*
X145652873Y-104084500D01*
X145652864Y-104084500D01*
X143907129Y-104084500D01*
X143907123Y-104084501D01*
X143847516Y-104090908D01*
X143712671Y-104141202D01*
X143712664Y-104141206D01*
X143597455Y-104227452D01*
X143597452Y-104227455D01*
X143511206Y-104342664D01*
X143511202Y-104342671D01*
X143460908Y-104477517D01*
X143457197Y-104512040D01*
X143454501Y-104537123D01*
X143454500Y-104537135D01*
X143454500Y-106282870D01*
X127436499Y-106282870D01*
X127436499Y-105680128D01*
X127430091Y-105620517D01*
X127419847Y-105593053D01*
X127414862Y-105523364D01*
X127434452Y-105478599D01*
X127517301Y-105360282D01*
X127615320Y-105150079D01*
X127652085Y-105012870D01*
X128849500Y-105012870D01*
X128849501Y-105012876D01*
X128855908Y-105072483D01*
X128906202Y-105207328D01*
X128906206Y-105207335D01*
X128992452Y-105322544D01*
X128992455Y-105322547D01*
X129107664Y-105408793D01*
X129107671Y-105408797D01*
X129242517Y-105459091D01*
X129242516Y-105459091D01*
X129249444Y-105459835D01*
X129302127Y-105465500D01*
X131047872Y-105465499D01*
X131107483Y-105459091D01*
X131242331Y-105408796D01*
X131357546Y-105322546D01*
X131443796Y-105207331D01*
X131494091Y-105072483D01*
X131500500Y-105012873D01*
X131500499Y-103267128D01*
X131494091Y-103207517D01*
X131455976Y-103105326D01*
X131443797Y-103072671D01*
X131443793Y-103072664D01*
X131357547Y-102957455D01*
X131357544Y-102957452D01*
X131242335Y-102871206D01*
X131242328Y-102871202D01*
X131107482Y-102820908D01*
X131107483Y-102820908D01*
X131047883Y-102814501D01*
X131047881Y-102814500D01*
X131047873Y-102814500D01*
X131047864Y-102814500D01*
X129302129Y-102814500D01*
X129302123Y-102814501D01*
X129242516Y-102820908D01*
X129107671Y-102871202D01*
X129107664Y-102871206D01*
X128992455Y-102957452D01*
X128992452Y-102957455D01*
X128906206Y-103072664D01*
X128906202Y-103072671D01*
X128855908Y-103207517D01*
X128849501Y-103267116D01*
X128849501Y-103267123D01*
X128849500Y-103267135D01*
X128849500Y-105012870D01*
X127652085Y-105012870D01*
X127675349Y-104926050D01*
X127693799Y-104715165D01*
X127695563Y-104695001D01*
X127695563Y-104694998D01*
X127687316Y-104600734D01*
X127675349Y-104463950D01*
X127615320Y-104239921D01*
X127517301Y-104029719D01*
X127517299Y-104029716D01*
X127517298Y-104029714D01*
X127384273Y-103839735D01*
X127384268Y-103839729D01*
X127220269Y-103675730D01*
X127163390Y-103635903D01*
X127030282Y-103542699D01*
X126820079Y-103444680D01*
X126820076Y-103444679D01*
X126820074Y-103444678D01*
X126596051Y-103384651D01*
X126596044Y-103384650D01*
X126365002Y-103364437D01*
X126364998Y-103364437D01*
X126133955Y-103384650D01*
X126133948Y-103384651D01*
X125909917Y-103444681D01*
X125699718Y-103542699D01*
X125699714Y-103542701D01*
X125509735Y-103675726D01*
X125509729Y-103675731D01*
X125345731Y-103839729D01*
X125345726Y-103839735D01*
X125212701Y-104029714D01*
X125212699Y-104029718D01*
X125114681Y-104239917D01*
X125054651Y-104463948D01*
X125054650Y-104463955D01*
X125034437Y-104694998D01*
X125034437Y-104695001D01*
X125054650Y-104926044D01*
X125054651Y-104926052D01*
X125111729Y-105139067D01*
X125110066Y-105208917D01*
X125070904Y-105266780D01*
X125051378Y-105279995D01*
X125043663Y-105284207D01*
X124928455Y-105370452D01*
X124928452Y-105370455D01*
X124842206Y-105485664D01*
X124842202Y-105485671D01*
X124791908Y-105620517D01*
X124785501Y-105680116D01*
X124785501Y-105680123D01*
X124785500Y-105680135D01*
X124785500Y-107425870D01*
X123430142Y-107425870D01*
X123236432Y-107321040D01*
X123236429Y-107321039D01*
X123236426Y-107321037D01*
X123236420Y-107321035D01*
X123236418Y-107321034D01*
X123020826Y-107247020D01*
X122834378Y-107215908D01*
X122795977Y-107209500D01*
X122568023Y-107209500D01*
X122529622Y-107215908D01*
X122343173Y-107247020D01*
X122127581Y-107321034D01*
X122127567Y-107321040D01*
X121927099Y-107429527D01*
X121927090Y-107429533D01*
X121747212Y-107569538D01*
X121747208Y-107569541D01*
X121592814Y-107737257D01*
X121468137Y-107928091D01*
X121376569Y-108136844D01*
X121320610Y-108357820D01*
X121320608Y-108357831D01*
X121301786Y-108584993D01*
X121301786Y-108585006D01*
X111103500Y-108585006D01*
X111103499Y-107662128D01*
X111097091Y-107602517D01*
X111087931Y-107577959D01*
X111046797Y-107467671D01*
X111046793Y-107467664D01*
X110960547Y-107352455D01*
X110960544Y-107352452D01*
X110845335Y-107266206D01*
X110845328Y-107266202D01*
X110710482Y-107215908D01*
X110710483Y-107215908D01*
X110650883Y-107209501D01*
X110650881Y-107209500D01*
X110650873Y-107209500D01*
X110650864Y-107209500D01*
X108805129Y-107209500D01*
X108805123Y-107209501D01*
X108745516Y-107215908D01*
X108610671Y-107266202D01*
X108610664Y-107266206D01*
X108495455Y-107352452D01*
X108495452Y-107352455D01*
X108409206Y-107467664D01*
X108409202Y-107467671D01*
X108358908Y-107602517D01*
X108356993Y-107620335D01*
X108352501Y-107662123D01*
X108352500Y-107662135D01*
X108352500Y-109507870D01*
X94615000Y-109507870D01*
X94615000Y-107620005D01*
X101974443Y-107620005D01*
X101994634Y-107863683D01*
X101994636Y-107863695D01*
X102054663Y-108100734D01*
X102152888Y-108324666D01*
X102286632Y-108529378D01*
X102452242Y-108709277D01*
X102452252Y-108709286D01*
X102645208Y-108859470D01*
X102645212Y-108859473D01*
X102860267Y-108975855D01*
X102860270Y-108975856D01*
X103091541Y-109055251D01*
X103091543Y-109055251D01*
X103091545Y-109055252D01*
X103332737Y-109095500D01*
X103332738Y-109095500D01*
X103577262Y-109095500D01*
X103577263Y-109095500D01*
X103818455Y-109055252D01*
X104049733Y-108975855D01*
X104264788Y-108859473D01*
X104457754Y-108709281D01*
X104623368Y-108529377D01*
X104757111Y-108324667D01*
X104855336Y-108100736D01*
X104915364Y-107863692D01*
X104925259Y-107744281D01*
X104935557Y-107620005D01*
X104935557Y-107619994D01*
X104915365Y-107376316D01*
X104915363Y-107376304D01*
X104899839Y-107315000D01*
X104855336Y-107139264D01*
X104757111Y-106915333D01*
X104623368Y-106710623D01*
X104623367Y-106710621D01*
X104457757Y-106530722D01*
X104457747Y-106530713D01*
X104264791Y-106380529D01*
X104264787Y-106380526D01*
X104049734Y-106264145D01*
X104049729Y-106264143D01*
X103818458Y-106184748D01*
X103637561Y-106154562D01*
X103577263Y-106144500D01*
X103332737Y-106144500D01*
X103296793Y-106150498D01*
X103091541Y-106184748D01*
X102860270Y-106264143D01*
X102860265Y-106264145D01*
X102645212Y-106380526D01*
X102645208Y-106380529D01*
X102452252Y-106530713D01*
X102452242Y-106530722D01*
X102286632Y-106710621D01*
X102152888Y-106915333D01*
X102054663Y-107139265D01*
X101994636Y-107376304D01*
X101994634Y-107376316D01*
X101974443Y-107619994D01*
X101974443Y-107620005D01*
X94615000Y-107620005D01*
X94615000Y-105697870D01*
X108352500Y-105697870D01*
X108352501Y-105697876D01*
X108358908Y-105757483D01*
X108409202Y-105892328D01*
X108409206Y-105892335D01*
X108495452Y-106007544D01*
X108495455Y-106007547D01*
X108610664Y-106093793D01*
X108610671Y-106093797D01*
X108745517Y-106144091D01*
X108745516Y-106144091D01*
X108749321Y-106144500D01*
X108805127Y-106150500D01*
X110650872Y-106150499D01*
X110710483Y-106144091D01*
X110845331Y-106093796D01*
X110960546Y-106007546D01*
X111046796Y-105892331D01*
X111097091Y-105757483D01*
X111103500Y-105697873D01*
X111103500Y-104775006D01*
X121301786Y-104775006D01*
X121320608Y-105002168D01*
X121320610Y-105002179D01*
X121376569Y-105223155D01*
X121468137Y-105431908D01*
X121592814Y-105622742D01*
X121747208Y-105790458D01*
X121747212Y-105790461D01*
X121927090Y-105930466D01*
X121927094Y-105930469D01*
X121927096Y-105930470D01*
X121927099Y-105930472D01*
X122043646Y-105993543D01*
X122127574Y-106038963D01*
X122239529Y-106077397D01*
X122343173Y-106112979D01*
X122343175Y-106112979D01*
X122343177Y-106112980D01*
X122568023Y-106150500D01*
X122568024Y-106150500D01*
X122795976Y-106150500D01*
X122795977Y-106150500D01*
X123020823Y-106112980D01*
X123236426Y-106038963D01*
X123436906Y-105930469D01*
X123616794Y-105790456D01*
X123771183Y-105622745D01*
X123895862Y-105431909D01*
X123987430Y-105223155D01*
X124043390Y-105002176D01*
X124049698Y-104926050D01*
X124062214Y-104775006D01*
X124062214Y-104774993D01*
X124043391Y-104547831D01*
X124043389Y-104547820D01*
X123987430Y-104326844D01*
X123895862Y-104118091D01*
X123771185Y-103927257D01*
X123616791Y-103759541D01*
X123616787Y-103759538D01*
X123436909Y-103619533D01*
X123436900Y-103619527D01*
X123236432Y-103511040D01*
X123236429Y-103511039D01*
X123236426Y-103511037D01*
X123236420Y-103511035D01*
X123236418Y-103511034D01*
X123020826Y-103437020D01*
X122834378Y-103405908D01*
X122795977Y-103399500D01*
X122568023Y-103399500D01*
X122529622Y-103405908D01*
X122343173Y-103437020D01*
X122127581Y-103511034D01*
X122127567Y-103511040D01*
X121927099Y-103619527D01*
X121927090Y-103619533D01*
X121747212Y-103759538D01*
X121747208Y-103759541D01*
X121592814Y-103927257D01*
X121468137Y-104118091D01*
X121376569Y-104326844D01*
X121320610Y-104547820D01*
X121320608Y-104547831D01*
X121301786Y-104774993D01*
X121301786Y-104775006D01*
X111103500Y-104775006D01*
X111103499Y-103852128D01*
X111097091Y-103792517D01*
X111078026Y-103741402D01*
X111046797Y-103657671D01*
X111046793Y-103657664D01*
X110960547Y-103542455D01*
X110960544Y-103542452D01*
X110845335Y-103456206D01*
X110845328Y-103456202D01*
X110710482Y-103405908D01*
X110710483Y-103405908D01*
X110650883Y-103399501D01*
X110650881Y-103399500D01*
X110650873Y-103399500D01*
X110650864Y-103399500D01*
X108805129Y-103399500D01*
X108805123Y-103399501D01*
X108745516Y-103405908D01*
X108610671Y-103456202D01*
X108610664Y-103456206D01*
X108495455Y-103542452D01*
X108495452Y-103542455D01*
X108409206Y-103657664D01*
X108409202Y-103657671D01*
X108358908Y-103792517D01*
X108353832Y-103839735D01*
X108352501Y-103852123D01*
X108352500Y-103852135D01*
X108352500Y-105697870D01*
X94615000Y-105697870D01*
X94615000Y-104120005D01*
X101974443Y-104120005D01*
X101994634Y-104363683D01*
X101994636Y-104363695D01*
X102054663Y-104600734D01*
X102152888Y-104824666D01*
X102286632Y-105029378D01*
X102452242Y-105209277D01*
X102452252Y-105209286D01*
X102645208Y-105359470D01*
X102645212Y-105359473D01*
X102860267Y-105475855D01*
X102860270Y-105475856D01*
X103091541Y-105555251D01*
X103091543Y-105555251D01*
X103091545Y-105555252D01*
X103332737Y-105595500D01*
X103332738Y-105595500D01*
X103577262Y-105595500D01*
X103577263Y-105595500D01*
X103818455Y-105555252D01*
X104049733Y-105475855D01*
X104264788Y-105359473D01*
X104457754Y-105209281D01*
X104623368Y-105029377D01*
X104757111Y-104824667D01*
X104855336Y-104600736D01*
X104915364Y-104363692D01*
X104916853Y-104345727D01*
X104935557Y-104120005D01*
X104935557Y-104119994D01*
X104915365Y-103876316D01*
X104915363Y-103876304D01*
X104909241Y-103852128D01*
X104855336Y-103639264D01*
X104757111Y-103415333D01*
X104747416Y-103400493D01*
X104623367Y-103210621D01*
X104457757Y-103030722D01*
X104457747Y-103030713D01*
X104264791Y-102880529D01*
X104264787Y-102880526D01*
X104049734Y-102764145D01*
X104049729Y-102764143D01*
X103818458Y-102684748D01*
X103637561Y-102654562D01*
X103577263Y-102644500D01*
X103332737Y-102644500D01*
X103284498Y-102652549D01*
X103091541Y-102684748D01*
X102860270Y-102764143D01*
X102860265Y-102764145D01*
X102645212Y-102880526D01*
X102645208Y-102880529D01*
X102452252Y-103030713D01*
X102452242Y-103030722D01*
X102286632Y-103210621D01*
X102152888Y-103415333D01*
X102054663Y-103639265D01*
X101994636Y-103876304D01*
X101994634Y-103876316D01*
X101974443Y-104119994D01*
X101974443Y-104120005D01*
X94615000Y-104120005D01*
X94615000Y-102362000D01*
X143424341Y-102362000D01*
X143444936Y-102597403D01*
X143444938Y-102597413D01*
X143506094Y-102825655D01*
X143506096Y-102825659D01*
X143506097Y-102825663D01*
X143567553Y-102957455D01*
X143605965Y-103039830D01*
X143605967Y-103039834D01*
X143680520Y-103146306D01*
X143741505Y-103233401D01*
X143908599Y-103400495D01*
X144005384Y-103468265D01*
X144102165Y-103536032D01*
X144102167Y-103536033D01*
X144102170Y-103536035D01*
X144316337Y-103635903D01*
X144316343Y-103635904D01*
X144316344Y-103635905D01*
X144328884Y-103639265D01*
X144544592Y-103697063D01*
X144732918Y-103713539D01*
X144779999Y-103717659D01*
X144780000Y-103717659D01*
X144780001Y-103717659D01*
X144819234Y-103714226D01*
X145015408Y-103697063D01*
X145243663Y-103635903D01*
X145457830Y-103536035D01*
X145651401Y-103400495D01*
X145818495Y-103233401D01*
X145954035Y-103039830D01*
X146033228Y-102870000D01*
X147869341Y-102870000D01*
X147889936Y-103105403D01*
X147889938Y-103105413D01*
X147951094Y-103333655D01*
X147951096Y-103333659D01*
X147951097Y-103333663D01*
X148045464Y-103536034D01*
X148050965Y-103547830D01*
X148050967Y-103547834D01*
X148140522Y-103675731D01*
X148186505Y-103741401D01*
X148353599Y-103908495D01*
X148380394Y-103927257D01*
X148547165Y-104044032D01*
X148547167Y-104044033D01*
X148547170Y-104044035D01*
X148761337Y-104143903D01*
X148989592Y-104205063D01*
X149177918Y-104221539D01*
X149224999Y-104225659D01*
X149225000Y-104225659D01*
X149225001Y-104225659D01*
X149264234Y-104222226D01*
X149460408Y-104205063D01*
X149688663Y-104143903D01*
X149902830Y-104044035D01*
X149904068Y-104043168D01*
X153546805Y-104043168D01*
X153547421Y-104043600D01*
X153761507Y-104143429D01*
X153761516Y-104143433D01*
X153989673Y-104204567D01*
X153989684Y-104204569D01*
X154224998Y-104225157D01*
X154225002Y-104225157D01*
X154460315Y-104204569D01*
X154460326Y-104204567D01*
X154688483Y-104143433D01*
X154688492Y-104143429D01*
X154902578Y-104043600D01*
X154902579Y-104043599D01*
X154903194Y-104043168D01*
X154225001Y-103364975D01*
X154225000Y-103364975D01*
X153546805Y-104043168D01*
X149904068Y-104043168D01*
X150096401Y-103908495D01*
X150263495Y-103741401D01*
X150399035Y-103547830D01*
X150498903Y-103333663D01*
X150560063Y-103105408D01*
X150580659Y-102870001D01*
X152869843Y-102870001D01*
X152890430Y-103105315D01*
X152890432Y-103105326D01*
X152951566Y-103333483D01*
X152951570Y-103333492D01*
X153051399Y-103547577D01*
X153051830Y-103548193D01*
X153670781Y-102929244D01*
X153775000Y-102929244D01*
X153805667Y-103043694D01*
X153864910Y-103146306D01*
X153948694Y-103230090D01*
X154051306Y-103289333D01*
X154165756Y-103320000D01*
X154284244Y-103320000D01*
X154398694Y-103289333D01*
X154501306Y-103230090D01*
X154585090Y-103146306D01*
X154644333Y-103043694D01*
X154675000Y-102929244D01*
X154675000Y-102870000D01*
X154719975Y-102870000D01*
X155398168Y-103548194D01*
X155398599Y-103547579D01*
X155398600Y-103547578D01*
X155498429Y-103333492D01*
X155498433Y-103333483D01*
X155559567Y-103105326D01*
X155559569Y-103105315D01*
X155580157Y-102870001D01*
X155580157Y-102869998D01*
X155559569Y-102634684D01*
X155559567Y-102634673D01*
X155498433Y-102406516D01*
X155498430Y-102406507D01*
X155398598Y-102192418D01*
X155398168Y-102191805D01*
X154719975Y-102869999D01*
X154719975Y-102870000D01*
X154675000Y-102870000D01*
X154675000Y-102810756D01*
X154644333Y-102696306D01*
X154585090Y-102593694D01*
X154501306Y-102509910D01*
X154398694Y-102450667D01*
X154284244Y-102420000D01*
X154165756Y-102420000D01*
X154051306Y-102450667D01*
X153948694Y-102509910D01*
X153864910Y-102593694D01*
X153805667Y-102696306D01*
X153775000Y-102810756D01*
X153775000Y-102929244D01*
X153670781Y-102929244D01*
X153730025Y-102870000D01*
X153051831Y-102191806D01*
X153051398Y-102192424D01*
X152951570Y-102406507D01*
X152951566Y-102406516D01*
X152890432Y-102634673D01*
X152890430Y-102634684D01*
X152869843Y-102869998D01*
X152869843Y-102870001D01*
X150580659Y-102870001D01*
X150580659Y-102870000D01*
X150579218Y-102853535D01*
X150571398Y-102764145D01*
X150560063Y-102634592D01*
X150498903Y-102406337D01*
X150399035Y-102192171D01*
X150398780Y-102191806D01*
X150263494Y-101998597D01*
X150096402Y-101831506D01*
X150096395Y-101831501D01*
X149904068Y-101696831D01*
X153546806Y-101696831D01*
X154225000Y-102375025D01*
X154225001Y-102375025D01*
X154903193Y-101696830D01*
X154902577Y-101696399D01*
X154688492Y-101596570D01*
X154688483Y-101596566D01*
X154460326Y-101535432D01*
X154460315Y-101535430D01*
X154225002Y-101514843D01*
X154224998Y-101514843D01*
X153989684Y-101535430D01*
X153989673Y-101535432D01*
X153761516Y-101596566D01*
X153761507Y-101596570D01*
X153547424Y-101696398D01*
X153546806Y-101696831D01*
X149904068Y-101696831D01*
X149902834Y-101695967D01*
X149902830Y-101695965D01*
X149877533Y-101684169D01*
X149688663Y-101596097D01*
X149688659Y-101596096D01*
X149688655Y-101596094D01*
X149460413Y-101534938D01*
X149460403Y-101534936D01*
X149225001Y-101514341D01*
X149224999Y-101514341D01*
X148989596Y-101534936D01*
X148989586Y-101534938D01*
X148761344Y-101596094D01*
X148761335Y-101596098D01*
X148547171Y-101695964D01*
X148547169Y-101695965D01*
X148353597Y-101831505D01*
X148186505Y-101998597D01*
X148050965Y-102192169D01*
X148050964Y-102192171D01*
X147951098Y-102406335D01*
X147951094Y-102406344D01*
X147889938Y-102634586D01*
X147889936Y-102634596D01*
X147869341Y-102869999D01*
X147869341Y-102870000D01*
X146033228Y-102870000D01*
X146053903Y-102825663D01*
X146115063Y-102597408D01*
X146135659Y-102362000D01*
X146115063Y-102126592D01*
X146053903Y-101898337D01*
X145954035Y-101684171D01*
X145940656Y-101665063D01*
X145818494Y-101490597D01*
X145651402Y-101323506D01*
X145651395Y-101323501D01*
X145457834Y-101187967D01*
X145457830Y-101187965D01*
X145457828Y-101187964D01*
X145243663Y-101088097D01*
X145243659Y-101088096D01*
X145243655Y-101088094D01*
X145015413Y-101026938D01*
X145015403Y-101026936D01*
X144780001Y-101006341D01*
X144779999Y-101006341D01*
X144544596Y-101026936D01*
X144544586Y-101026938D01*
X144316344Y-101088094D01*
X144316335Y-101088098D01*
X144102171Y-101187964D01*
X144102169Y-101187965D01*
X143908597Y-101323505D01*
X143741505Y-101490597D01*
X143605965Y-101684169D01*
X143605964Y-101684171D01*
X143506098Y-101898335D01*
X143506094Y-101898344D01*
X143444938Y-102126586D01*
X143444936Y-102126596D01*
X143424341Y-102361999D01*
X143424341Y-102362000D01*
X94615000Y-102362000D01*
X94615000Y-101642870D01*
X101979500Y-101642870D01*
X101979501Y-101642876D01*
X101985908Y-101702483D01*
X102036202Y-101837328D01*
X102036206Y-101837335D01*
X102122452Y-101952544D01*
X102122455Y-101952547D01*
X102237664Y-102038793D01*
X102237671Y-102038797D01*
X102372517Y-102089091D01*
X102372516Y-102089091D01*
X102379444Y-102089835D01*
X102432127Y-102095500D01*
X104477872Y-102095499D01*
X104537483Y-102089091D01*
X104672331Y-102038796D01*
X104787546Y-101952546D01*
X104835962Y-101887870D01*
X108352500Y-101887870D01*
X108352501Y-101887876D01*
X108358908Y-101947483D01*
X108409202Y-102082328D01*
X108409206Y-102082335D01*
X108495452Y-102197544D01*
X108495455Y-102197547D01*
X108610664Y-102283793D01*
X108610671Y-102283797D01*
X108745517Y-102334091D01*
X108745516Y-102334091D01*
X108752444Y-102334835D01*
X108805127Y-102340500D01*
X110650872Y-102340499D01*
X110710483Y-102334091D01*
X110845331Y-102283796D01*
X110960546Y-102197546D01*
X111046796Y-102082331D01*
X111097091Y-101947483D01*
X111103500Y-101887873D01*
X111103500Y-100965006D01*
X121301786Y-100965006D01*
X121320608Y-101192168D01*
X121320610Y-101192179D01*
X121376569Y-101413155D01*
X121468137Y-101621908D01*
X121592814Y-101812742D01*
X121747208Y-101980458D01*
X121747212Y-101980461D01*
X121927090Y-102120466D01*
X121927094Y-102120469D01*
X121927096Y-102120470D01*
X121927099Y-102120472D01*
X122002107Y-102161064D01*
X122127574Y-102228963D01*
X122193257Y-102251512D01*
X122343173Y-102302979D01*
X122343175Y-102302979D01*
X122343177Y-102302980D01*
X122568023Y-102340500D01*
X122568024Y-102340500D01*
X122795976Y-102340500D01*
X122795977Y-102340500D01*
X123020823Y-102302980D01*
X123236426Y-102228963D01*
X123436906Y-102120469D01*
X123616794Y-101980456D01*
X123771183Y-101812745D01*
X123895862Y-101621909D01*
X123987430Y-101413155D01*
X124043390Y-101192176D01*
X124043546Y-101190293D01*
X124062214Y-100965006D01*
X124062214Y-100964993D01*
X124043391Y-100737831D01*
X124043389Y-100737820D01*
X124000352Y-100567870D01*
X125039500Y-100567870D01*
X125039501Y-100567876D01*
X125045908Y-100627483D01*
X125096202Y-100762328D01*
X125096206Y-100762335D01*
X125182452Y-100877544D01*
X125182455Y-100877547D01*
X125297664Y-100963793D01*
X125297671Y-100963797D01*
X125432517Y-101014091D01*
X125432516Y-101014091D01*
X125439444Y-101014835D01*
X125492127Y-101020500D01*
X127237872Y-101020499D01*
X127297483Y-101014091D01*
X127432331Y-100963796D01*
X127547546Y-100877546D01*
X127633796Y-100762331D01*
X127684091Y-100627483D01*
X127690500Y-100567873D01*
X127690500Y-100330000D01*
X140122341Y-100330000D01*
X140142936Y-100565403D01*
X140142938Y-100565413D01*
X140204094Y-100793655D01*
X140204096Y-100793659D01*
X140204097Y-100793663D01*
X140243213Y-100877547D01*
X140303965Y-101007830D01*
X140303967Y-101007834D01*
X140360169Y-101088098D01*
X140439505Y-101201401D01*
X140606599Y-101368495D01*
X140665073Y-101409439D01*
X140800165Y-101504032D01*
X140800167Y-101504033D01*
X140800170Y-101504035D01*
X141014337Y-101603903D01*
X141242592Y-101665063D01*
X141430918Y-101681539D01*
X141477999Y-101685659D01*
X141478000Y-101685659D01*
X141478001Y-101685659D01*
X141517234Y-101682226D01*
X141713408Y-101665063D01*
X141941663Y-101603903D01*
X142155830Y-101504035D01*
X142349401Y-101368495D01*
X142516495Y-101201401D01*
X142652035Y-101007830D01*
X142751903Y-100793663D01*
X142813063Y-100565408D01*
X142833659Y-100330000D01*
X142832218Y-100313535D01*
X142829539Y-100282918D01*
X142813063Y-100094592D01*
X142751903Y-99866337D01*
X142652035Y-99652171D01*
X142647859Y-99646206D01*
X142516494Y-99458597D01*
X142349402Y-99291506D01*
X142349401Y-99291505D01*
X142191951Y-99181257D01*
X142148328Y-99126681D01*
X142141135Y-99057182D01*
X142153638Y-99032447D01*
X142156194Y-99003168D01*
X141478001Y-98324975D01*
X141478000Y-98324975D01*
X140799804Y-99003169D01*
X140801746Y-99025316D01*
X140807625Y-99032665D01*
X140814844Y-99102161D01*
X140783344Y-99164527D01*
X140764018Y-99181279D01*
X140606594Y-99291508D01*
X140439505Y-99458597D01*
X140303965Y-99652169D01*
X140303964Y-99652171D01*
X140204098Y-99866335D01*
X140204094Y-99866344D01*
X140142938Y-100094586D01*
X140142936Y-100094596D01*
X140122341Y-100329999D01*
X140122341Y-100330000D01*
X127690500Y-100330000D01*
X127690499Y-98822128D01*
X127684091Y-98762517D01*
X127633796Y-98627669D01*
X127633795Y-98627668D01*
X127633793Y-98627664D01*
X127547547Y-98512455D01*
X127547544Y-98512452D01*
X127432335Y-98426206D01*
X127432328Y-98426202D01*
X127297482Y-98375908D01*
X127297483Y-98375908D01*
X127237883Y-98369501D01*
X127237881Y-98369500D01*
X127237873Y-98369500D01*
X127237864Y-98369500D01*
X125492129Y-98369500D01*
X125492123Y-98369501D01*
X125432516Y-98375908D01*
X125297671Y-98426202D01*
X125297664Y-98426206D01*
X125182455Y-98512452D01*
X125182452Y-98512455D01*
X125096206Y-98627664D01*
X125096202Y-98627671D01*
X125045908Y-98762517D01*
X125039501Y-98822116D01*
X125039501Y-98822123D01*
X125039500Y-98822135D01*
X125039500Y-100567870D01*
X124000352Y-100567870D01*
X123987430Y-100516844D01*
X123895862Y-100308091D01*
X123771185Y-100117257D01*
X123624541Y-99957960D01*
X123616794Y-99949544D01*
X123616793Y-99949543D01*
X123616791Y-99949541D01*
X123616787Y-99949538D01*
X123436909Y-99809533D01*
X123436900Y-99809527D01*
X123236432Y-99701040D01*
X123236429Y-99701039D01*
X123236426Y-99701037D01*
X123236420Y-99701035D01*
X123236418Y-99701034D01*
X123020826Y-99627020D01*
X122834378Y-99595908D01*
X122795977Y-99589500D01*
X122568023Y-99589500D01*
X122529622Y-99595908D01*
X122343173Y-99627020D01*
X122127581Y-99701034D01*
X122127567Y-99701040D01*
X121927099Y-99809527D01*
X121927090Y-99809533D01*
X121747212Y-99949538D01*
X121747208Y-99949541D01*
X121592814Y-100117257D01*
X121468137Y-100308091D01*
X121376569Y-100516844D01*
X121320610Y-100737820D01*
X121320608Y-100737831D01*
X121301786Y-100964993D01*
X121301786Y-100965006D01*
X111103500Y-100965006D01*
X111103499Y-100042128D01*
X111097091Y-99982517D01*
X111087931Y-99957959D01*
X111046797Y-99847671D01*
X111046793Y-99847664D01*
X110960547Y-99732455D01*
X110960544Y-99732452D01*
X110845335Y-99646206D01*
X110845328Y-99646202D01*
X110710482Y-99595908D01*
X110710483Y-99595908D01*
X110650883Y-99589501D01*
X110650881Y-99589500D01*
X110650873Y-99589500D01*
X110650864Y-99589500D01*
X108805129Y-99589500D01*
X108805123Y-99589501D01*
X108745516Y-99595908D01*
X108610671Y-99646202D01*
X108610664Y-99646206D01*
X108495455Y-99732452D01*
X108495452Y-99732455D01*
X108409206Y-99847664D01*
X108409202Y-99847671D01*
X108358908Y-99982517D01*
X108352501Y-100042116D01*
X108352501Y-100042123D01*
X108352500Y-100042135D01*
X108352500Y-101887870D01*
X104835962Y-101887870D01*
X104873796Y-101837331D01*
X104924091Y-101702483D01*
X104930500Y-101642873D01*
X104930499Y-99597128D01*
X104924091Y-99537517D01*
X104873796Y-99402669D01*
X104873795Y-99402668D01*
X104873793Y-99402664D01*
X104787547Y-99287455D01*
X104787544Y-99287452D01*
X104672335Y-99201206D01*
X104672328Y-99201202D01*
X104537482Y-99150908D01*
X104537483Y-99150908D01*
X104477883Y-99144501D01*
X104477881Y-99144500D01*
X104477873Y-99144500D01*
X104477864Y-99144500D01*
X102432129Y-99144500D01*
X102432123Y-99144501D01*
X102372516Y-99150908D01*
X102237671Y-99201202D01*
X102237664Y-99201206D01*
X102122455Y-99287452D01*
X102122452Y-99287455D01*
X102036206Y-99402664D01*
X102036202Y-99402671D01*
X101985908Y-99537517D01*
X101980702Y-99585945D01*
X101979501Y-99597123D01*
X101979500Y-99597135D01*
X101979500Y-101642870D01*
X94615000Y-101642870D01*
X94615000Y-97830001D01*
X140122843Y-97830001D01*
X140143430Y-98065315D01*
X140143432Y-98065326D01*
X140204566Y-98293483D01*
X140204570Y-98293492D01*
X140304399Y-98507577D01*
X140304830Y-98508193D01*
X140923781Y-97889244D01*
X141028000Y-97889244D01*
X141058667Y-98003694D01*
X141117910Y-98106306D01*
X141201694Y-98190090D01*
X141304306Y-98249333D01*
X141418756Y-98280000D01*
X141537244Y-98280000D01*
X141651694Y-98249333D01*
X141754306Y-98190090D01*
X141838090Y-98106306D01*
X141897333Y-98003694D01*
X141928000Y-97889244D01*
X141928000Y-97830000D01*
X141972975Y-97830000D01*
X142651168Y-98508194D01*
X142651599Y-98507579D01*
X142651600Y-98507578D01*
X142751429Y-98293492D01*
X142751433Y-98293483D01*
X142812567Y-98065326D01*
X142812569Y-98065315D01*
X142833157Y-97830001D01*
X142833157Y-97829998D01*
X142818547Y-97663005D01*
X153434357Y-97663005D01*
X153454890Y-97910812D01*
X153454892Y-97910824D01*
X153515936Y-98151881D01*
X153615826Y-98379606D01*
X153751833Y-98587782D01*
X153751836Y-98587785D01*
X153920256Y-98770738D01*
X154116491Y-98923474D01*
X154116493Y-98923475D01*
X154304678Y-99025316D01*
X154335190Y-99041828D01*
X154570386Y-99122571D01*
X154815665Y-99163500D01*
X155064335Y-99163500D01*
X155309614Y-99122571D01*
X155544810Y-99041828D01*
X155763509Y-98923474D01*
X155959744Y-98770738D01*
X156128164Y-98587785D01*
X156264173Y-98379607D01*
X156364063Y-98151881D01*
X156425108Y-97910821D01*
X156445643Y-97663000D01*
X156445088Y-97656306D01*
X156425109Y-97415187D01*
X156425107Y-97415175D01*
X156364063Y-97174118D01*
X156264173Y-96946393D01*
X156128166Y-96738217D01*
X156106557Y-96714744D01*
X155959744Y-96555262D01*
X155763509Y-96402526D01*
X155763507Y-96402525D01*
X155763506Y-96402524D01*
X155544811Y-96284172D01*
X155544802Y-96284169D01*
X155309616Y-96203429D01*
X155064335Y-96162500D01*
X154815665Y-96162500D01*
X154570383Y-96203429D01*
X154335197Y-96284169D01*
X154335188Y-96284172D01*
X154116493Y-96402524D01*
X153920257Y-96555261D01*
X153751833Y-96738217D01*
X153615826Y-96946393D01*
X153515936Y-97174118D01*
X153454892Y-97415175D01*
X153454890Y-97415187D01*
X153434357Y-97662994D01*
X153434357Y-97663005D01*
X142818547Y-97663005D01*
X142812569Y-97594684D01*
X142812567Y-97594673D01*
X142751433Y-97366516D01*
X142751430Y-97366507D01*
X142651598Y-97152418D01*
X142651168Y-97151805D01*
X141972975Y-97829999D01*
X141972975Y-97830000D01*
X141928000Y-97830000D01*
X141928000Y-97770756D01*
X141897333Y-97656306D01*
X141838090Y-97553694D01*
X141754306Y-97469910D01*
X141651694Y-97410667D01*
X141537244Y-97380000D01*
X141418756Y-97380000D01*
X141304306Y-97410667D01*
X141201694Y-97469910D01*
X141117910Y-97553694D01*
X141058667Y-97656306D01*
X141028000Y-97770756D01*
X141028000Y-97889244D01*
X140923781Y-97889244D01*
X140983025Y-97830000D01*
X140304831Y-97151806D01*
X140304398Y-97152424D01*
X140204570Y-97366507D01*
X140204566Y-97366516D01*
X140143432Y-97594673D01*
X140143430Y-97594684D01*
X140122843Y-97829998D01*
X140122843Y-97830001D01*
X94615000Y-97830001D01*
X94615000Y-97147642D01*
X125470331Y-97147642D01*
X125664673Y-97238265D01*
X125664682Y-97238269D01*
X125884389Y-97297139D01*
X125884400Y-97297141D01*
X126110998Y-97316966D01*
X126111002Y-97316966D01*
X126337599Y-97297141D01*
X126337610Y-97297139D01*
X126557317Y-97238269D01*
X126557326Y-97238265D01*
X126751668Y-97147642D01*
X126260857Y-96656831D01*
X140799806Y-96656831D01*
X141478000Y-97335025D01*
X141478001Y-97335025D01*
X142156193Y-96656830D01*
X142155577Y-96656399D01*
X141941492Y-96556570D01*
X141941483Y-96556566D01*
X141713326Y-96495432D01*
X141713315Y-96495430D01*
X141478002Y-96474843D01*
X141477998Y-96474843D01*
X141242684Y-96495430D01*
X141242673Y-96495432D01*
X141014516Y-96556566D01*
X141014507Y-96556570D01*
X140800424Y-96656398D01*
X140799806Y-96656831D01*
X126260857Y-96656831D01*
X126111001Y-96506975D01*
X126111000Y-96506975D01*
X125470331Y-97147642D01*
X94615000Y-97147642D01*
X94615000Y-95377005D01*
X110889357Y-95377005D01*
X110909890Y-95624812D01*
X110909892Y-95624824D01*
X110970936Y-95865881D01*
X111070826Y-96093606D01*
X111206833Y-96301782D01*
X111206836Y-96301785D01*
X111375256Y-96484738D01*
X111571491Y-96637474D01*
X111790190Y-96755828D01*
X112025386Y-96836571D01*
X112270665Y-96877500D01*
X112519335Y-96877500D01*
X112764614Y-96836571D01*
X112999810Y-96755828D01*
X113218509Y-96637474D01*
X113414744Y-96484738D01*
X113583164Y-96301785D01*
X113719173Y-96093607D01*
X113819063Y-95865881D01*
X113880108Y-95624821D01*
X113880109Y-95624812D01*
X113900643Y-95377005D01*
X116985357Y-95377005D01*
X117005890Y-95624812D01*
X117005892Y-95624824D01*
X117066936Y-95865881D01*
X117166826Y-96093606D01*
X117302833Y-96301782D01*
X117302836Y-96301785D01*
X117471256Y-96484738D01*
X117667491Y-96637474D01*
X117886190Y-96755828D01*
X118121386Y-96836571D01*
X118366665Y-96877500D01*
X118615335Y-96877500D01*
X118860614Y-96836571D01*
X119095810Y-96755828D01*
X119310503Y-96639642D01*
X122549331Y-96639642D01*
X122743673Y-96730265D01*
X122743682Y-96730269D01*
X122963389Y-96789139D01*
X122963400Y-96789141D01*
X123189998Y-96808966D01*
X123190002Y-96808966D01*
X123416599Y-96789141D01*
X123416610Y-96789139D01*
X123636317Y-96730269D01*
X123636326Y-96730265D01*
X123830668Y-96639642D01*
X123190001Y-95998975D01*
X123190000Y-95998975D01*
X122549331Y-96639642D01*
X119310503Y-96639642D01*
X119314509Y-96637474D01*
X119510744Y-96484738D01*
X119679164Y-96301785D01*
X119815173Y-96093607D01*
X119915063Y-95865881D01*
X119976108Y-95624821D01*
X119976109Y-95624812D01*
X119986120Y-95504002D01*
X121885034Y-95504002D01*
X121904858Y-95730599D01*
X121904860Y-95730610D01*
X121963730Y-95950317D01*
X121963735Y-95950331D01*
X122054355Y-96144668D01*
X122054356Y-96144668D01*
X122642364Y-95556661D01*
X122790000Y-95556661D01*
X122817259Y-95658394D01*
X122869920Y-95749606D01*
X122944394Y-95824080D01*
X123035606Y-95876741D01*
X123137339Y-95904000D01*
X123242661Y-95904000D01*
X123344394Y-95876741D01*
X123435606Y-95824080D01*
X123510080Y-95749606D01*
X123562741Y-95658394D01*
X123590000Y-95556661D01*
X123590000Y-95504000D01*
X123684975Y-95504000D01*
X124325642Y-96144667D01*
X124387505Y-96012002D01*
X124806034Y-96012002D01*
X124825858Y-96238599D01*
X124825860Y-96238610D01*
X124884730Y-96458317D01*
X124884735Y-96458331D01*
X124975355Y-96652668D01*
X124975356Y-96652668D01*
X125563364Y-96064661D01*
X125711000Y-96064661D01*
X125738259Y-96166394D01*
X125790920Y-96257606D01*
X125865394Y-96332080D01*
X125956606Y-96384741D01*
X126058339Y-96412000D01*
X126163661Y-96412000D01*
X126265394Y-96384741D01*
X126356606Y-96332080D01*
X126431080Y-96257606D01*
X126483741Y-96166394D01*
X126511000Y-96064661D01*
X126511000Y-96012000D01*
X126605975Y-96012000D01*
X127246642Y-96652667D01*
X127337265Y-96458326D01*
X127337269Y-96458317D01*
X127396139Y-96238610D01*
X127396141Y-96238599D01*
X127415966Y-96012002D01*
X127415966Y-96011997D01*
X127396141Y-95785400D01*
X127396139Y-95785389D01*
X127337269Y-95565682D01*
X127337265Y-95565673D01*
X127246642Y-95371331D01*
X126605975Y-96011999D01*
X126605975Y-96012000D01*
X126511000Y-96012000D01*
X126511000Y-95959339D01*
X126483741Y-95857606D01*
X126431080Y-95766394D01*
X126356606Y-95691920D01*
X126265394Y-95639259D01*
X126163661Y-95612000D01*
X126058339Y-95612000D01*
X125956606Y-95639259D01*
X125865394Y-95691920D01*
X125790920Y-95766394D01*
X125738259Y-95857606D01*
X125711000Y-95959339D01*
X125711000Y-96064661D01*
X125563364Y-96064661D01*
X125616025Y-96012000D01*
X124975355Y-95371330D01*
X124884735Y-95565668D01*
X124884730Y-95565682D01*
X124825860Y-95785389D01*
X124825858Y-95785400D01*
X124806034Y-96011997D01*
X124806034Y-96012002D01*
X124387505Y-96012002D01*
X124416265Y-95950326D01*
X124416269Y-95950317D01*
X124475139Y-95730610D01*
X124475141Y-95730599D01*
X124494966Y-95504002D01*
X124494966Y-95503997D01*
X124475141Y-95277400D01*
X124475139Y-95277389D01*
X124416269Y-95057682D01*
X124416265Y-95057673D01*
X124331715Y-94876355D01*
X125470330Y-94876355D01*
X126111000Y-95517025D01*
X126111001Y-95517025D01*
X126751668Y-94876356D01*
X126751668Y-94876355D01*
X126557331Y-94785735D01*
X126557317Y-94785730D01*
X126337610Y-94726860D01*
X126337599Y-94726858D01*
X126111002Y-94707034D01*
X126110998Y-94707034D01*
X125884400Y-94726858D01*
X125884389Y-94726860D01*
X125664682Y-94785730D01*
X125664668Y-94785735D01*
X125470330Y-94876355D01*
X124331715Y-94876355D01*
X124325642Y-94863331D01*
X123684975Y-95503999D01*
X123684975Y-95504000D01*
X123590000Y-95504000D01*
X123590000Y-95451339D01*
X123562741Y-95349606D01*
X123510080Y-95258394D01*
X123435606Y-95183920D01*
X123344394Y-95131259D01*
X123242661Y-95104000D01*
X123137339Y-95104000D01*
X123035606Y-95131259D01*
X122944394Y-95183920D01*
X122869920Y-95258394D01*
X122817259Y-95349606D01*
X122790000Y-95451339D01*
X122790000Y-95556661D01*
X122642364Y-95556661D01*
X122695025Y-95504000D01*
X122054355Y-94863330D01*
X121963735Y-95057668D01*
X121963730Y-95057682D01*
X121904860Y-95277389D01*
X121904858Y-95277400D01*
X121885034Y-95503997D01*
X121885034Y-95504002D01*
X119986120Y-95504002D01*
X119996643Y-95377005D01*
X119996643Y-95376994D01*
X119976109Y-95129187D01*
X119976107Y-95129175D01*
X119915063Y-94888118D01*
X119815173Y-94660393D01*
X119679166Y-94452217D01*
X119601965Y-94368355D01*
X122549330Y-94368355D01*
X123190000Y-95009025D01*
X123190001Y-95009025D01*
X123830668Y-94368356D01*
X123830668Y-94368355D01*
X123636331Y-94277735D01*
X123636317Y-94277730D01*
X123416610Y-94218860D01*
X123416599Y-94218858D01*
X123190002Y-94199034D01*
X123189998Y-94199034D01*
X122963400Y-94218858D01*
X122963389Y-94218860D01*
X122743682Y-94277730D01*
X122743668Y-94277735D01*
X122549330Y-94368355D01*
X119601965Y-94368355D01*
X119586946Y-94352040D01*
X119510744Y-94269262D01*
X119314509Y-94116526D01*
X119314507Y-94116525D01*
X119314506Y-94116524D01*
X119095811Y-93998172D01*
X119095802Y-93998169D01*
X118860616Y-93917429D01*
X118615335Y-93876500D01*
X118366665Y-93876500D01*
X118121383Y-93917429D01*
X117886197Y-93998169D01*
X117886188Y-93998172D01*
X117667493Y-94116524D01*
X117471257Y-94269261D01*
X117302833Y-94452217D01*
X117166826Y-94660393D01*
X117066936Y-94888118D01*
X117005892Y-95129175D01*
X117005890Y-95129187D01*
X116985357Y-95376994D01*
X116985357Y-95377005D01*
X113900643Y-95377005D01*
X113900643Y-95376994D01*
X113880109Y-95129187D01*
X113880107Y-95129175D01*
X113819063Y-94888118D01*
X113719173Y-94660393D01*
X113583166Y-94452217D01*
X113490946Y-94352040D01*
X113414744Y-94269262D01*
X113218509Y-94116526D01*
X113218507Y-94116525D01*
X113218506Y-94116524D01*
X112999811Y-93998172D01*
X112999802Y-93998169D01*
X112764616Y-93917429D01*
X112519335Y-93876500D01*
X112270665Y-93876500D01*
X112025383Y-93917429D01*
X111790197Y-93998169D01*
X111790188Y-93998172D01*
X111571493Y-94116524D01*
X111375257Y-94269261D01*
X111206833Y-94452217D01*
X111070826Y-94660393D01*
X110970936Y-94888118D01*
X110909892Y-95129175D01*
X110909890Y-95129187D01*
X110889357Y-95376994D01*
X110889357Y-95377005D01*
X94615000Y-95377005D01*
X94615000Y-92287870D01*
X111094500Y-92287870D01*
X111094501Y-92287876D01*
X111100908Y-92347483D01*
X111151202Y-92482328D01*
X111151206Y-92482335D01*
X111237452Y-92597544D01*
X111237455Y-92597547D01*
X111352664Y-92683793D01*
X111352671Y-92683797D01*
X111487517Y-92734091D01*
X111487516Y-92734091D01*
X111494444Y-92734835D01*
X111547127Y-92740500D01*
X113242872Y-92740499D01*
X113302483Y-92734091D01*
X113437331Y-92683796D01*
X113552546Y-92597546D01*
X113638796Y-92482331D01*
X113689091Y-92347483D01*
X113695500Y-92287873D01*
X113695500Y-91440001D01*
X118963532Y-91440001D01*
X118983364Y-91666686D01*
X118983366Y-91666697D01*
X119042258Y-91886488D01*
X119042261Y-91886497D01*
X119138431Y-92092732D01*
X119138432Y-92092734D01*
X119268954Y-92279141D01*
X119429858Y-92440045D01*
X119429861Y-92440047D01*
X119616266Y-92570568D01*
X119822504Y-92666739D01*
X120042308Y-92725635D01*
X120204230Y-92739801D01*
X120268998Y-92745468D01*
X120269000Y-92745468D01*
X120269002Y-92745468D01*
X120325807Y-92740498D01*
X120495692Y-92725635D01*
X120715496Y-92666739D01*
X120921734Y-92570568D01*
X121108139Y-92440047D01*
X121269047Y-92279139D01*
X121399568Y-92092734D01*
X121495739Y-91886496D01*
X121554635Y-91666692D01*
X121573027Y-91456466D01*
X121574468Y-91440001D01*
X121574468Y-91439998D01*
X121563898Y-91319187D01*
X121554635Y-91213308D01*
X121515665Y-91067870D01*
X143429500Y-91067870D01*
X143429501Y-91067876D01*
X143435908Y-91127483D01*
X143486202Y-91262328D01*
X143486206Y-91262335D01*
X143572452Y-91377544D01*
X143572455Y-91377547D01*
X143687664Y-91463793D01*
X143687671Y-91463797D01*
X143822517Y-91514091D01*
X143822516Y-91514091D01*
X143829444Y-91514835D01*
X143882127Y-91520500D01*
X145677872Y-91520499D01*
X145737483Y-91514091D01*
X145872331Y-91463796D01*
X145987546Y-91377546D01*
X146061415Y-91278870D01*
X149854500Y-91278870D01*
X149854501Y-91278876D01*
X149860908Y-91338483D01*
X149911202Y-91473328D01*
X149911206Y-91473335D01*
X149997452Y-91588544D01*
X149997455Y-91588547D01*
X150112664Y-91674793D01*
X150112671Y-91674797D01*
X150247517Y-91725091D01*
X150247516Y-91725091D01*
X150254444Y-91725835D01*
X150307127Y-91731500D01*
X151952872Y-91731499D01*
X152012483Y-91725091D01*
X152147331Y-91674796D01*
X152262546Y-91588546D01*
X152278672Y-91567005D01*
X153434357Y-91567005D01*
X153454890Y-91814812D01*
X153454892Y-91814824D01*
X153515936Y-92055881D01*
X153615826Y-92283606D01*
X153751833Y-92491782D01*
X153751836Y-92491785D01*
X153920256Y-92674738D01*
X154116491Y-92827474D01*
X154335190Y-92945828D01*
X154570386Y-93026571D01*
X154815665Y-93067500D01*
X155064335Y-93067500D01*
X155309614Y-93026571D01*
X155544810Y-92945828D01*
X155763509Y-92827474D01*
X155959744Y-92674738D01*
X156128164Y-92491785D01*
X156264173Y-92283607D01*
X156364063Y-92055881D01*
X156425108Y-91814821D01*
X156425109Y-91814812D01*
X156445643Y-91567005D01*
X156445643Y-91566994D01*
X156425109Y-91319187D01*
X156425107Y-91319175D01*
X156364063Y-91078118D01*
X156264173Y-90850393D01*
X156128166Y-90642217D01*
X156082062Y-90592135D01*
X155959744Y-90459262D01*
X155763509Y-90306526D01*
X155763507Y-90306525D01*
X155763506Y-90306524D01*
X155544811Y-90188172D01*
X155544802Y-90188169D01*
X155309616Y-90107429D01*
X155064335Y-90066500D01*
X154815665Y-90066500D01*
X154570383Y-90107429D01*
X154335197Y-90188169D01*
X154335188Y-90188172D01*
X154116493Y-90306524D01*
X153920257Y-90459261D01*
X153751833Y-90642217D01*
X153615826Y-90850393D01*
X153515936Y-91078118D01*
X153454892Y-91319175D01*
X153454890Y-91319187D01*
X153434357Y-91566994D01*
X153434357Y-91567005D01*
X152278672Y-91567005D01*
X152348796Y-91473331D01*
X152399091Y-91338483D01*
X152405500Y-91278873D01*
X152405499Y-89633128D01*
X152399091Y-89573517D01*
X152398508Y-89571955D01*
X152348797Y-89438671D01*
X152348793Y-89438664D01*
X152262547Y-89323455D01*
X152262544Y-89323452D01*
X152147335Y-89237206D01*
X152147328Y-89237202D01*
X152012482Y-89186908D01*
X152012483Y-89186908D01*
X151952883Y-89180501D01*
X151952881Y-89180500D01*
X151952873Y-89180500D01*
X151952864Y-89180500D01*
X150307129Y-89180500D01*
X150307123Y-89180501D01*
X150247516Y-89186908D01*
X150112671Y-89237202D01*
X150112664Y-89237206D01*
X149997455Y-89323452D01*
X149997452Y-89323455D01*
X149911206Y-89438664D01*
X149911202Y-89438671D01*
X149860908Y-89573517D01*
X149854501Y-89633116D01*
X149854501Y-89633123D01*
X149854500Y-89633135D01*
X149854500Y-91278870D01*
X146061415Y-91278870D01*
X146073796Y-91262331D01*
X146124091Y-91127483D01*
X146130500Y-91067873D01*
X146130499Y-89272128D01*
X146124091Y-89212517D01*
X146114539Y-89186908D01*
X146078621Y-89090605D01*
X146073637Y-89020913D01*
X146107122Y-88959590D01*
X146168445Y-88926106D01*
X146183985Y-88923745D01*
X146276692Y-88915635D01*
X146496496Y-88856739D01*
X146702734Y-88760568D01*
X146889139Y-88630047D01*
X147050047Y-88469139D01*
X147180568Y-88282734D01*
X147276739Y-88076496D01*
X147335635Y-87856692D01*
X147355468Y-87630001D01*
X152364532Y-87630001D01*
X152384364Y-87856686D01*
X152384366Y-87856697D01*
X152443258Y-88076488D01*
X152443261Y-88076497D01*
X152539431Y-88282732D01*
X152539432Y-88282734D01*
X152669954Y-88469141D01*
X152830858Y-88630045D01*
X152830861Y-88630047D01*
X153017266Y-88760568D01*
X153223504Y-88856739D01*
X153443308Y-88915635D01*
X153605230Y-88929801D01*
X153669998Y-88935468D01*
X153670000Y-88935468D01*
X153670002Y-88935468D01*
X153726807Y-88930498D01*
X153896692Y-88915635D01*
X154116496Y-88856739D01*
X154322734Y-88760568D01*
X154509139Y-88630047D01*
X154670047Y-88469139D01*
X154800568Y-88282734D01*
X154896739Y-88076496D01*
X154955635Y-87856692D01*
X154975468Y-87630000D01*
X154974027Y-87613535D01*
X154955635Y-87403313D01*
X154955635Y-87403308D01*
X154896739Y-87183504D01*
X154800568Y-86977266D01*
X154670047Y-86790861D01*
X154670045Y-86790858D01*
X154509141Y-86629954D01*
X154322734Y-86499432D01*
X154322732Y-86499431D01*
X154116497Y-86403261D01*
X154116488Y-86403258D01*
X153896697Y-86344366D01*
X153896693Y-86344365D01*
X153896692Y-86344365D01*
X153896691Y-86344364D01*
X153896686Y-86344364D01*
X153670002Y-86324532D01*
X153669998Y-86324532D01*
X153443313Y-86344364D01*
X153443302Y-86344366D01*
X153223511Y-86403258D01*
X153223502Y-86403261D01*
X153017267Y-86499431D01*
X153017265Y-86499432D01*
X152830858Y-86629954D01*
X152669954Y-86790858D01*
X152539432Y-86977265D01*
X152539431Y-86977267D01*
X152443261Y-87183502D01*
X152443258Y-87183511D01*
X152384366Y-87403302D01*
X152384364Y-87403313D01*
X152364532Y-87629998D01*
X152364532Y-87630001D01*
X147355468Y-87630001D01*
X147355468Y-87630000D01*
X147354027Y-87613535D01*
X147335635Y-87403313D01*
X147335635Y-87403308D01*
X147276739Y-87183504D01*
X147180568Y-86977266D01*
X147050047Y-86790861D01*
X147050045Y-86790858D01*
X146889141Y-86629954D01*
X146702734Y-86499432D01*
X146702732Y-86499431D01*
X146496497Y-86403261D01*
X146496488Y-86403258D01*
X146276697Y-86344366D01*
X146276693Y-86344365D01*
X146276692Y-86344365D01*
X146276691Y-86344364D01*
X146276686Y-86344364D01*
X146050002Y-86324532D01*
X146049998Y-86324532D01*
X145823313Y-86344364D01*
X145823302Y-86344366D01*
X145603511Y-86403258D01*
X145603502Y-86403261D01*
X145397267Y-86499431D01*
X145397265Y-86499432D01*
X145210858Y-86629954D01*
X145049954Y-86790858D01*
X144919432Y-86977265D01*
X144919431Y-86977267D01*
X144823261Y-87183502D01*
X144823258Y-87183511D01*
X144764366Y-87403302D01*
X144764364Y-87403313D01*
X144744532Y-87629998D01*
X144744532Y-87630001D01*
X144764364Y-87856686D01*
X144764366Y-87856697D01*
X144823258Y-88076488D01*
X144823261Y-88076497D01*
X144919431Y-88282732D01*
X144919432Y-88282734D01*
X145049954Y-88469141D01*
X145188632Y-88607819D01*
X145222117Y-88669142D01*
X145217133Y-88738834D01*
X145175261Y-88794767D01*
X145109797Y-88819184D01*
X145100951Y-88819500D01*
X143882129Y-88819500D01*
X143882123Y-88819501D01*
X143822516Y-88825908D01*
X143687671Y-88876202D01*
X143687664Y-88876206D01*
X143572455Y-88962452D01*
X143572452Y-88962455D01*
X143486206Y-89077664D01*
X143486202Y-89077671D01*
X143435908Y-89212517D01*
X143429510Y-89272036D01*
X143429501Y-89272123D01*
X143429500Y-89272135D01*
X143429500Y-91067870D01*
X121515665Y-91067870D01*
X121495739Y-90993504D01*
X121399568Y-90787266D01*
X121269047Y-90600861D01*
X121269045Y-90600858D01*
X121108141Y-90439954D01*
X120921734Y-90309432D01*
X120921732Y-90309431D01*
X120715497Y-90213261D01*
X120715488Y-90213258D01*
X120495697Y-90154366D01*
X120495693Y-90154365D01*
X120495692Y-90154365D01*
X120495691Y-90154364D01*
X120495686Y-90154364D01*
X120269002Y-90134532D01*
X120268998Y-90134532D01*
X120042313Y-90154364D01*
X120042302Y-90154366D01*
X119822511Y-90213258D01*
X119822502Y-90213261D01*
X119616267Y-90309431D01*
X119616265Y-90309432D01*
X119429858Y-90439954D01*
X119268954Y-90600858D01*
X119138432Y-90787265D01*
X119138431Y-90787267D01*
X119042261Y-90993502D01*
X119042258Y-90993511D01*
X118983366Y-91213302D01*
X118983364Y-91213313D01*
X118963532Y-91439998D01*
X118963532Y-91440001D01*
X113695500Y-91440001D01*
X113695499Y-90592128D01*
X113689091Y-90532517D01*
X113661768Y-90459261D01*
X113638797Y-90397671D01*
X113638793Y-90397664D01*
X113552547Y-90282455D01*
X113552544Y-90282452D01*
X113437335Y-90196206D01*
X113437328Y-90196202D01*
X113302482Y-90145908D01*
X113302483Y-90145908D01*
X113242883Y-90139501D01*
X113242881Y-90139500D01*
X113242873Y-90139500D01*
X113242864Y-90139500D01*
X111547129Y-90139500D01*
X111547123Y-90139501D01*
X111487516Y-90145908D01*
X111352671Y-90196202D01*
X111352664Y-90196206D01*
X111237455Y-90282452D01*
X111237452Y-90282455D01*
X111151206Y-90397664D01*
X111151202Y-90397671D01*
X111100908Y-90532517D01*
X111095835Y-90579707D01*
X111094501Y-90592123D01*
X111094500Y-90592135D01*
X111094500Y-92287870D01*
X94615000Y-92287870D01*
X94615000Y-88477870D01*
X121889500Y-88477870D01*
X121889501Y-88477876D01*
X121895908Y-88537483D01*
X121946202Y-88672328D01*
X121946206Y-88672335D01*
X122032452Y-88787544D01*
X122032455Y-88787547D01*
X122147664Y-88873793D01*
X122147671Y-88873797D01*
X122282517Y-88924091D01*
X122282516Y-88924091D01*
X122289444Y-88924835D01*
X122342127Y-88930500D01*
X124037872Y-88930499D01*
X124097483Y-88924091D01*
X124232331Y-88873796D01*
X124347546Y-88787546D01*
X124433796Y-88672331D01*
X124484091Y-88537483D01*
X124490500Y-88477873D01*
X124490500Y-88477870D01*
X124810500Y-88477870D01*
X124810501Y-88477876D01*
X124816908Y-88537483D01*
X124867202Y-88672328D01*
X124867206Y-88672335D01*
X124953452Y-88787544D01*
X124953455Y-88787547D01*
X125068664Y-88873793D01*
X125068671Y-88873797D01*
X125203517Y-88924091D01*
X125203516Y-88924091D01*
X125210444Y-88924835D01*
X125263127Y-88930500D01*
X126958872Y-88930499D01*
X127018483Y-88924091D01*
X127153331Y-88873796D01*
X127268546Y-88787546D01*
X127354796Y-88672331D01*
X127405091Y-88537483D01*
X127411500Y-88477873D01*
X127411499Y-86782128D01*
X127405091Y-86722517D01*
X127370567Y-86629954D01*
X127354797Y-86587671D01*
X127354793Y-86587664D01*
X127268547Y-86472455D01*
X127268544Y-86472452D01*
X127153335Y-86386206D01*
X127153328Y-86386202D01*
X127018482Y-86335908D01*
X127018483Y-86335908D01*
X126958883Y-86329501D01*
X126958881Y-86329500D01*
X126958873Y-86329500D01*
X126958864Y-86329500D01*
X125263129Y-86329500D01*
X125263123Y-86329501D01*
X125203516Y-86335908D01*
X125068671Y-86386202D01*
X125068664Y-86386206D01*
X124953455Y-86472452D01*
X124953452Y-86472455D01*
X124867206Y-86587664D01*
X124867202Y-86587671D01*
X124816908Y-86722517D01*
X124810501Y-86782116D01*
X124810501Y-86782123D01*
X124810500Y-86782135D01*
X124810500Y-88477870D01*
X124490500Y-88477870D01*
X124490499Y-86782128D01*
X124484091Y-86722517D01*
X124449567Y-86629954D01*
X124433797Y-86587671D01*
X124433793Y-86587664D01*
X124347547Y-86472455D01*
X124347544Y-86472452D01*
X124232335Y-86386206D01*
X124232328Y-86386202D01*
X124097482Y-86335908D01*
X124097483Y-86335908D01*
X124037883Y-86329501D01*
X124037881Y-86329500D01*
X124037873Y-86329500D01*
X124037864Y-86329500D01*
X122342129Y-86329500D01*
X122342123Y-86329501D01*
X122282516Y-86335908D01*
X122147671Y-86386202D01*
X122147664Y-86386206D01*
X122032455Y-86472452D01*
X122032452Y-86472455D01*
X121946206Y-86587664D01*
X121946202Y-86587671D01*
X121895908Y-86722517D01*
X121889501Y-86782116D01*
X121889501Y-86782123D01*
X121889500Y-86782135D01*
X121889500Y-88477870D01*
X94615000Y-88477870D01*
X94615000Y-84582000D01*
X131292128Y-84582000D01*
X131311579Y-84804329D01*
X131311581Y-84804339D01*
X131369341Y-85019905D01*
X131369343Y-85019909D01*
X131369344Y-85019913D01*
X131463665Y-85222186D01*
X131591678Y-85405007D01*
X131749493Y-85562822D01*
X131932314Y-85690835D01*
X132134587Y-85785156D01*
X132350166Y-85842920D01*
X132516791Y-85857498D01*
X132572499Y-85862372D01*
X132572500Y-85862372D01*
X132572501Y-85862372D01*
X132628186Y-85857500D01*
X132794834Y-85842920D01*
X133010413Y-85785156D01*
X133212686Y-85690835D01*
X133395507Y-85562822D01*
X133553322Y-85405007D01*
X133553418Y-85404870D01*
X141997000Y-85404870D01*
X141997001Y-85404876D01*
X142003408Y-85464483D01*
X142053702Y-85599328D01*
X142053706Y-85599335D01*
X142139952Y-85714544D01*
X142139955Y-85714547D01*
X142255164Y-85800793D01*
X142255171Y-85800797D01*
X142390017Y-85851091D01*
X142390016Y-85851091D01*
X142396944Y-85851835D01*
X142449627Y-85857500D01*
X144095372Y-85857499D01*
X144154983Y-85851091D01*
X144289831Y-85800796D01*
X144405046Y-85714546D01*
X144491296Y-85599331D01*
X144541591Y-85464483D01*
X144548000Y-85404873D01*
X144547999Y-83759128D01*
X144541591Y-83699517D01*
X144539160Y-83693000D01*
X144491297Y-83564671D01*
X144491293Y-83564664D01*
X144405047Y-83449455D01*
X144405044Y-83449452D01*
X144289835Y-83363206D01*
X144289828Y-83363202D01*
X144154982Y-83312908D01*
X144154983Y-83312908D01*
X144095383Y-83306501D01*
X144095381Y-83306500D01*
X144095373Y-83306500D01*
X144095364Y-83306500D01*
X142449629Y-83306500D01*
X142449623Y-83306501D01*
X142390016Y-83312908D01*
X142255171Y-83363202D01*
X142255164Y-83363206D01*
X142139955Y-83449452D01*
X142139952Y-83449455D01*
X142053706Y-83564664D01*
X142053702Y-83564671D01*
X142003408Y-83699517D01*
X141997015Y-83758988D01*
X141997001Y-83759123D01*
X141997000Y-83759135D01*
X141997000Y-85404870D01*
X133553418Y-85404870D01*
X133681335Y-85222186D01*
X133775656Y-85019913D01*
X133833420Y-84804334D01*
X133852872Y-84582000D01*
X133833420Y-84359666D01*
X133788504Y-84192036D01*
X133775658Y-84144094D01*
X133775657Y-84144093D01*
X133775656Y-84144087D01*
X133681335Y-83941814D01*
X133553322Y-83758993D01*
X133395507Y-83601178D01*
X133212686Y-83473165D01*
X133010413Y-83378844D01*
X133010409Y-83378843D01*
X133010405Y-83378841D01*
X132794839Y-83321081D01*
X132794829Y-83321079D01*
X132572501Y-83301628D01*
X132572499Y-83301628D01*
X132350170Y-83321079D01*
X132350160Y-83321081D01*
X132134594Y-83378841D01*
X132134587Y-83378843D01*
X132134587Y-83378844D01*
X131932314Y-83473165D01*
X131749493Y-83601178D01*
X131749491Y-83601179D01*
X131749488Y-83601182D01*
X131591682Y-83758988D01*
X131591679Y-83758991D01*
X131591678Y-83758993D01*
X131537431Y-83836466D01*
X131463665Y-83941814D01*
X131369345Y-84144085D01*
X131369341Y-84144094D01*
X131311581Y-84359660D01*
X131311579Y-84359670D01*
X131292128Y-84581999D01*
X131292128Y-84582000D01*
X94615000Y-84582000D01*
X94615000Y-80603870D01*
X144749500Y-80603870D01*
X144749501Y-80603876D01*
X144755908Y-80663483D01*
X144806202Y-80798328D01*
X144806206Y-80798335D01*
X144892452Y-80913544D01*
X144892455Y-80913547D01*
X145007664Y-80999793D01*
X145007671Y-80999797D01*
X145142517Y-81050091D01*
X145142516Y-81050091D01*
X145149444Y-81050835D01*
X145202127Y-81056500D01*
X146897872Y-81056499D01*
X146957483Y-81050091D01*
X147092331Y-80999796D01*
X147207546Y-80913546D01*
X147293796Y-80798331D01*
X147344091Y-80663483D01*
X147350500Y-80603873D01*
X147350499Y-79756000D01*
X149849628Y-79756000D01*
X149869079Y-79978329D01*
X149869081Y-79978339D01*
X149926841Y-80193905D01*
X149926843Y-80193909D01*
X149926844Y-80193913D01*
X150021165Y-80396186D01*
X150149178Y-80579007D01*
X150306993Y-80736822D01*
X150489814Y-80864835D01*
X150692087Y-80959156D01*
X150907666Y-81016920D01*
X151085533Y-81032481D01*
X151129999Y-81036372D01*
X151130000Y-81036372D01*
X151130001Y-81036372D01*
X151167055Y-81033130D01*
X151352334Y-81016920D01*
X151567913Y-80959156D01*
X151770186Y-80864835D01*
X151953007Y-80736822D01*
X152110822Y-80579007D01*
X152143928Y-80531726D01*
X152198501Y-80488104D01*
X152267999Y-80480910D01*
X152330354Y-80512432D01*
X152365769Y-80572662D01*
X152369221Y-80600569D01*
X152369324Y-80600564D01*
X152369402Y-80602038D01*
X152369500Y-80602823D01*
X152369500Y-80603855D01*
X152369501Y-80603876D01*
X152375908Y-80663483D01*
X152426202Y-80798328D01*
X152426206Y-80798335D01*
X152512452Y-80913544D01*
X152512455Y-80913547D01*
X152627664Y-80999793D01*
X152627671Y-80999797D01*
X152762517Y-81050091D01*
X152762516Y-81050091D01*
X152769444Y-81050835D01*
X152822127Y-81056500D01*
X154517872Y-81056499D01*
X154577483Y-81050091D01*
X154712331Y-80999796D01*
X154827546Y-80913546D01*
X154913796Y-80798331D01*
X154964091Y-80663483D01*
X154970500Y-80603873D01*
X154970499Y-78908128D01*
X154964091Y-78848517D01*
X154936737Y-78775178D01*
X154913797Y-78713671D01*
X154913793Y-78713664D01*
X154827547Y-78598455D01*
X154827544Y-78598452D01*
X154712335Y-78512206D01*
X154712328Y-78512202D01*
X154577482Y-78461908D01*
X154577483Y-78461908D01*
X154517883Y-78455501D01*
X154517881Y-78455500D01*
X154517873Y-78455500D01*
X154517864Y-78455500D01*
X152822129Y-78455500D01*
X152822123Y-78455501D01*
X152762516Y-78461908D01*
X152627671Y-78512202D01*
X152627664Y-78512206D01*
X152512455Y-78598452D01*
X152512452Y-78598455D01*
X152426206Y-78713664D01*
X152426202Y-78713671D01*
X152375908Y-78848517D01*
X152369501Y-78908116D01*
X152369501Y-78908123D01*
X152369500Y-78908135D01*
X152369500Y-78909146D01*
X152369433Y-78909372D01*
X152369322Y-78911452D01*
X152368830Y-78911425D01*
X152349815Y-78976185D01*
X152297011Y-79021940D01*
X152227853Y-79031884D01*
X152164297Y-79002859D01*
X152143926Y-78980270D01*
X152110821Y-78932992D01*
X151953011Y-78775182D01*
X151953007Y-78775178D01*
X151770186Y-78647165D01*
X151567913Y-78552844D01*
X151567909Y-78552843D01*
X151567905Y-78552841D01*
X151352339Y-78495081D01*
X151352329Y-78495079D01*
X151130001Y-78475628D01*
X151129999Y-78475628D01*
X150907670Y-78495079D01*
X150907660Y-78495081D01*
X150692094Y-78552841D01*
X150692087Y-78552843D01*
X150692087Y-78552844D01*
X150489814Y-78647165D01*
X150306993Y-78775178D01*
X150306991Y-78775179D01*
X150306988Y-78775182D01*
X150149182Y-78932988D01*
X150149179Y-78932991D01*
X150149178Y-78932993D01*
X150079934Y-79031884D01*
X150021165Y-79115814D01*
X149926845Y-79318085D01*
X149926841Y-79318094D01*
X149869081Y-79533660D01*
X149869079Y-79533670D01*
X149849628Y-79755999D01*
X149849628Y-79756000D01*
X147350499Y-79756000D01*
X147350499Y-78908128D01*
X147344091Y-78848517D01*
X147316737Y-78775178D01*
X147293797Y-78713671D01*
X147293793Y-78713664D01*
X147207547Y-78598455D01*
X147207544Y-78598452D01*
X147092335Y-78512206D01*
X147092328Y-78512202D01*
X146957482Y-78461908D01*
X146957483Y-78461908D01*
X146897883Y-78455501D01*
X146897881Y-78455500D01*
X146897873Y-78455500D01*
X146897864Y-78455500D01*
X145202129Y-78455500D01*
X145202123Y-78455501D01*
X145142516Y-78461908D01*
X145007671Y-78512202D01*
X145007664Y-78512206D01*
X144892455Y-78598452D01*
X144892452Y-78598455D01*
X144806206Y-78713664D01*
X144806202Y-78713671D01*
X144755908Y-78848517D01*
X144749501Y-78908116D01*
X144749501Y-78908123D01*
X144749500Y-78908135D01*
X144749500Y-80603870D01*
X94615000Y-80603870D01*
X94615000Y-76324000D01*
X94634685Y-76256961D01*
X94687489Y-76211206D01*
X94739000Y-76200000D01*
X177041000Y-76200000D01*
X177108039Y-76219685D01*
G37*
G04 #@! TD.AperFunction*
M02*
