M48
; DRILL file {KiCad 8.0.0} date 2024-03-12T19:18:46+0100
; FORMAT={-:-/ absolute / metric / decimal}
; #@! TF.CreationDate,2024-03-12T19:18:46+01:00
; #@! TF.GenerationSoftware,Kicad,Pcbnew,8.0.0
; #@! TF.FileFunction,Plated,1,2,PTH
FMAT,2
METRIC
; #@! TA.AperFunction,Plated,PTH,ViaDrill
T1C0.400
; #@! TA.AperFunction,Plated,PTH,ComponentDrill
T2C0.600
; #@! TA.AperFunction,Plated,PTH,ComponentDrill
T3C0.750
; #@! TA.AperFunction,Plated,PTH,ComponentDrill
T4C0.800
; #@! TA.AperFunction,Plated,PTH,ComponentDrill
T5C0.850
; #@! TA.AperFunction,Plated,PTH,ComponentDrill
T6C0.900
; #@! TA.AperFunction,Plated,PTH,ComponentDrill
T7C0.950
; #@! TA.AperFunction,Plated,PTH,ComponentDrill
T8C1.016
; #@! TA.AperFunction,Plated,PTH,ComponentDrill
T9C1.100
; #@! TA.AperFunction,Plated,PTH,ComponentDrill
T10C1.280
; #@! TA.AperFunction,Plated,PTH,ComponentDrill
T11C1.300
%
G90
G05
T1
X139.705Y-109.85
T2
X101.6Y-124.46
X101.6Y-139.7
X112.395Y-95.377
X118.491Y-95.377
X154.94Y-91.567
X154.94Y-97.663
X167.64Y-124.46
X167.64Y-137.16
T3
X132.572Y-84.582
X143.272Y-84.582
X151.13Y-79.756
X151.13Y-90.456
T4
X112.395Y-91.44
X120.269Y-91.44
X123.19Y-87.63
X123.19Y-95.504
X126.111Y-87.63
X126.111Y-96.012
X146.05Y-79.756
X146.05Y-87.63
X153.67Y-79.756
X153.67Y-87.63
T5
X114.173Y-115.57
X119.173Y-115.57
X122.652Y-115.697
X126.111Y-106.553
X126.111Y-111.553
X126.365Y-99.695
X126.365Y-104.695
X127.652Y-115.697
X130.175Y-104.14
X130.175Y-109.14
X131.953Y-111.125
X136.953Y-111.125
X138.557Y-112.649
X138.557Y-117.649
X140.335Y-134.62
X140.826Y-113.411
X144.78Y-105.41
X144.78Y-110.41
X145.335Y-134.62
X145.826Y-113.411
X148.59Y-110.49
X148.59Y-133.35
X151.765Y-108.585
X151.765Y-112.395
X153.59Y-133.35
T6
X130.937Y-113.538
X130.937Y-125.73
X134.239Y-113.538
X134.239Y-125.73
X137.922Y-124.46
X141.224Y-116.586
X141.478Y-97.83
X141.478Y-100.33
X144.78Y-90.17
X144.78Y-102.362
X149.225Y-102.87
X149.606Y-124.46
X151.765Y-124.46
X152.908Y-116.586
X154.225Y-102.87
X163.449Y-124.46
T7
X109.728Y-100.965
X109.728Y-104.775
X109.728Y-108.585
X109.855Y-111.633
X122.682Y-100.965
X122.682Y-104.775
X122.682Y-108.585
X122.809Y-111.633
T8
X158.75Y-80.645
X158.75Y-83.185
X158.75Y-85.725
X158.75Y-88.265
X158.75Y-90.805
X158.75Y-93.345
X158.75Y-95.885
X158.75Y-98.425
X158.75Y-100.965
X158.75Y-103.505
X158.75Y-106.045
X158.75Y-108.585
X158.75Y-111.125
X158.75Y-113.665
X158.75Y-116.205
X173.99Y-80.645
X173.99Y-83.185
X173.99Y-85.725
X173.99Y-88.265
X173.99Y-90.805
X173.99Y-93.345
X173.99Y-95.885
X173.99Y-98.425
X173.99Y-100.965
X173.99Y-103.505
X173.99Y-106.045
X173.99Y-108.585
X173.99Y-111.125
X173.99Y-113.665
X173.99Y-116.205
T9
X101.6Y-128.27
X101.6Y-135.89
X107.01Y-130.81
X131.394Y-130.81
T10
X137.16Y-129.54
X139.7Y-129.54
X142.24Y-129.54
X148.59Y-129.54
X151.13Y-129.54
X153.67Y-129.54
T11
X103.455Y-100.62
X103.455Y-104.12
X103.455Y-107.62
X103.455Y-111.12
M30
