G04 #@! TF.GenerationSoftware,KiCad,Pcbnew,8.0.0*
G04 #@! TF.CreationDate,2024-03-12T19:17:37+01:00*
G04 #@! TF.ProjectId,Powerbank,506f7765-7262-4616-9e6b-2e6b69636164,1.0*
G04 #@! TF.SameCoordinates,Original*
G04 #@! TF.FileFunction,Soldermask,Top*
G04 #@! TF.FilePolarity,Negative*
%FSLAX46Y46*%
G04 Gerber Fmt 4.6, Leading zero omitted, Abs format (unit mm)*
G04 Created by KiCad (PCBNEW 8.0.0) date 2024-03-12 19:17:37*
%MOMM*%
%LPD*%
G01*
G04 APERTURE LIST*
%ADD10C,1.700000*%
%ADD11R,1.550000X1.550000*%
%ADD12C,1.550000*%
%ADD13R,1.700000X1.700000*%
%ADD14O,1.400000X0.449999*%
%ADD15C,2.000000*%
%ADD16R,1.650000X1.650000*%
%ADD17C,1.650000*%
%ADD18R,1.750000X1.750000*%
%ADD19C,1.750000*%
%ADD20R,1.600000X1.600000*%
%ADD21C,1.600000*%
%ADD22C,1.727200*%
%ADD23R,1.727200X1.727200*%
%ADD24C,1.800000*%
%ADD25R,2.080000X2.080000*%
%ADD26C,1.920000*%
%ADD27R,2.200000X2.200000*%
%ADD28O,2.200000X2.200000*%
%ADD29R,1.900000X1.900000*%
%ADD30C,1.900000*%
%ADD31C,1.950000*%
%ADD32R,1.950000X1.950000*%
G04 APERTURE END LIST*
D10*
X141478000Y-100330000D03*
X141478000Y-97830000D03*
D11*
X151130000Y-90456000D03*
D12*
X151130000Y-79756000D03*
D13*
X151765000Y-124460000D03*
D10*
X163449000Y-124460000D03*
D14*
X141379999Y-108334998D03*
X141379999Y-107684997D03*
X141379999Y-107034998D03*
X141379999Y-106384997D03*
X141379999Y-105734998D03*
X141379999Y-105084997D03*
X141379999Y-104434998D03*
X141379999Y-103784997D03*
X141379999Y-103134998D03*
X141379999Y-102484997D03*
X135479998Y-102484997D03*
X135479998Y-103134998D03*
X135479998Y-103784997D03*
X135479998Y-104434998D03*
X135479998Y-105084997D03*
X135479998Y-105734998D03*
X135479998Y-106384997D03*
X135479998Y-107034998D03*
X135479998Y-107684997D03*
X135479998Y-108334998D03*
D15*
X101600000Y-139700000D03*
D13*
X130937000Y-113538000D03*
D10*
X130937000Y-125730000D03*
D16*
X144780000Y-105410000D03*
D17*
X144780000Y-110410000D03*
D18*
X109728000Y-108585000D03*
D19*
X122682000Y-108585000D03*
D13*
X141224000Y-116586000D03*
D10*
X152908000Y-116586000D03*
D15*
X167640000Y-124460000D03*
D20*
X112395000Y-91440000D03*
D21*
X120269000Y-91440000D03*
D18*
X109728000Y-100965000D03*
D19*
X122682000Y-100965000D03*
D10*
X149225000Y-102870000D03*
X154225000Y-102870000D03*
D16*
X148590000Y-133350000D03*
D17*
X153589990Y-133350000D03*
D15*
X101600000Y-124460000D03*
D13*
X149606000Y-124460000D03*
D10*
X137922000Y-124460000D03*
D22*
X173990000Y-80645000D03*
X173990000Y-85725000D03*
X158750000Y-85725000D03*
D23*
X173990000Y-83185000D03*
X158750000Y-88265000D03*
D22*
X173990000Y-116205000D03*
X158750000Y-116205000D03*
X158750000Y-113665000D03*
X158750000Y-111125000D03*
X158750000Y-108585000D03*
X158750000Y-106045000D03*
X158750000Y-103505000D03*
X158750000Y-100965000D03*
X158750000Y-98425000D03*
X158750000Y-95885000D03*
X158750000Y-93345000D03*
X158750000Y-90805000D03*
X158750000Y-80645000D03*
X158750000Y-83185000D03*
X173990000Y-111125000D03*
X173990000Y-90805000D03*
X173990000Y-93345000D03*
X173990000Y-95885000D03*
X173990000Y-98425000D03*
X173990000Y-100965000D03*
X173990000Y-103505000D03*
X173990000Y-106045000D03*
X173990000Y-108585000D03*
X173990000Y-88265000D03*
X173990000Y-113665000D03*
D24*
X173990000Y-118745000D03*
X173990000Y-78105000D03*
X158750000Y-118745000D03*
X158750000Y-78105000D03*
D15*
X118491000Y-95377000D03*
X112395000Y-95377000D03*
D16*
X145825600Y-113411000D03*
D17*
X140825600Y-113411000D03*
D20*
X123190000Y-87630000D03*
D21*
X123190000Y-95504000D03*
D25*
X148590000Y-129540000D03*
D26*
X151130000Y-129540000D03*
X153670000Y-129540000D03*
D16*
X126365000Y-99695000D03*
D17*
X126365000Y-104695000D03*
D27*
X101600000Y-135890000D03*
D28*
X101600000Y-128270000D03*
D16*
X114173000Y-115570000D03*
D17*
X119173000Y-115570000D03*
D20*
X153670000Y-79756000D03*
D21*
X153670000Y-87630000D03*
D15*
X154940000Y-97663000D03*
X154940000Y-91567000D03*
D13*
X134239000Y-113538000D03*
D10*
X134239000Y-125730000D03*
D29*
X107010200Y-130810000D03*
D30*
X131394200Y-130810000D03*
D16*
X131953000Y-111125000D03*
D17*
X136952990Y-111125000D03*
D20*
X126111000Y-87630000D03*
D21*
X126111000Y-96012000D03*
D31*
X103455000Y-111120000D03*
X103455000Y-107620000D03*
X103455000Y-104120000D03*
D32*
X103455000Y-100620000D03*
D25*
X142240000Y-129540000D03*
D26*
X139700000Y-129540000D03*
X137160000Y-129540000D03*
D18*
X109728000Y-104775000D03*
D19*
X122682000Y-104775000D03*
D11*
X143272500Y-84582000D03*
D12*
X132572500Y-84582000D03*
D15*
X167640000Y-137160000D03*
D20*
X146050000Y-79756000D03*
D21*
X146050000Y-87630000D03*
D18*
X109855000Y-111633000D03*
D19*
X122809000Y-111633000D03*
D16*
X130175000Y-104140000D03*
D17*
X130175000Y-109140000D03*
D16*
X140335000Y-134620000D03*
D17*
X145334990Y-134620000D03*
D16*
X122652405Y-115697000D03*
D17*
X127652395Y-115697000D03*
D13*
X144780000Y-90170000D03*
D10*
X144780000Y-102362000D03*
D16*
X138557000Y-112649000D03*
D17*
X138557000Y-117648990D03*
D16*
X126111000Y-106553000D03*
D17*
X126111000Y-111553000D03*
X151765000Y-112395000D03*
X148590000Y-110490000D03*
X151765000Y-108585000D03*
M02*
